<svg id="Слой_1" xmlns="http://www.w3.org/2000/svg" viewBox="0 0 45 45"><style>.st0,.st1{fill:#5e9e02}.st1{fill-rule:evenodd;clip-rule:evenodd}.st2{fill:#adb0b6}.st3{fill-rule:evenodd;clip-rule:evenodd;fill:#fff}</style><path class="st0" d="M16 1v15H1V1h15m1-1H0v17h17V0z"/><path class="st1" d="M14.2 6.1L8.4 12c0 .1-.1.2-.2.2-.2.2-.5.3-.7.3-.3 0-.5-.1-.7-.3-.1-.1-.1-.2-.2-.2L2.8 8.1c-.4-.4-.4-1 0-1.3.4-.4 1-.4 1.3 0l3.4 3.4 5.4-5.4c.4-.4 1-.4 1.3 0 .4.4.4 1 0 1.3z"/><path class="st2" d="M44 1v15H29V1h15m1-1H28v17h17V0z"/><path class="st3" d="M34.5 44.5c-5.5 0-10-4.5-10-10s4.5-10 10-10 10 4.5 10 10-4.5 10-10 10z"/><path class="st2" d="M34.5 25c5.2 0 9.5 4.3 9.5 9.5S39.7 44 34.5 44 25 39.7 25 34.5s4.3-9.5 9.5-9.5m0-1C28.7 24 24 28.7 24 34.5S28.7 45 34.5 45 45 40.3 45 34.5 40.3 24 34.5 24z"/><circle class="st1" cx="10.5" cy="34.5" r="10.5"/><path class="st3" d="M16.7 32.6l-5.8 5.8c0 .1-.1.2-.2.2-.2.3-.4.4-.7.4-.3 0-.5-.1-.7-.3-.1-.1-.1-.2-.2-.2l-3.8-3.8c-.4-.4-.4-1 0-1.3.4-.4 1-.4 1.3 0l3.4 3.4 5.4-5.4c.4-.4 1-.4 1.3 0 .4.3.4.9 0 1.2z"/></svg>