<svg id="Layer_1" xmlns="http://www.w3.org/2000/svg" viewBox="0 0 317 70"><style>.st0{fill:#fff}.st1{fill-rule:evenodd;clip-rule:evenodd;fill:#8bc751}.st2{fill:#ef4123}.st2,.st3,.st4,.st5,.st6,.st7,.st8,.st9{fill-rule:evenodd;clip-rule:evenodd}.st3{fill:#fdb913}.st4{fill:#74388b}.st5{fill:#00984a}.st6{fill:#a066aa}.st7{fill:#0072bc}.st8{fill:#00b9f2}.st9{fill:#fff200}</style><g id="XMLID_3_"><path id="XMLID_53_" class="st0" d="M70.5 63.6l-.7-1.8h-3.9l-.7 1.8h-.7l3-7.3h.8l3 7.3h-.8zM67.8 57l-1.7 4.3h3.5L67.8 57z"/><path id="XMLID_51_" class="st0" d="M77.4 63.6l-3-3.5-.8.9v2.6H73v-7.3h.6v4l3.5-4h.8l-3.1 3.5 3.4 3.8h-.8z"/><path id="XMLID_49_" class="st0" d="M82 63.6v-6.8h-2.4v-.6H85v.6h-2.4v6.8H82z"/><path id="XMLID_47_" class="st0" d="M86.9 63.6v-7.3h.6v6.2l4.6-6.2h.6v7.3h-.6v-6.3l-4.6 6.3h-.6z"/><path id="XMLID_43_" class="st0" d="M95.2 63.6v-7.3h3c1.2 0 2 .7 2 1.9 0 .9-.6 1.6-1.3 1.7.8.1 1.4.9 1.4 1.8 0 1.2-.8 2-2.1 2h-3zm4.4-5.4c0-.7-.5-1.4-1.4-1.4h-2.3v2.7h2.3c.9.1 1.4-.5 1.4-1.3zm.1 3.4c0-.7-.5-1.5-1.5-1.5h-2.4V63h2.4c1 .1 1.5-.5 1.5-1.4z"/><path id="XMLID_41_" class="st0" d="M107.8 63.6v-3.5h-4.7v3.5h-.6v-7.3h.6v3.3h4.7v-3.3h.6v7.3h-.6z"/><path id="XMLID_37_" class="st0" d="M111.5 56.3v3h2.1c1.4 0 2.2 1 2.2 2.1 0 1.2-.8 2.1-2.2 2.1h-2.8v-7.3h.7zm0 3.6V63h2.1c1 0 1.6-.6 1.6-1.6 0-.9-.7-1.6-1.6-1.6h-2.1zm5.2 3.7v-7.3h.6v7.3h-.6z"/><path id="XMLID_34_" class="st0" d="M119.8 63.6v-7.3h.6v6.2l4.6-6.2h.6v7.3h-.6v-6.3l-4.6 6.3h-.6zm2.9-7.7c-.8 0-1.5-.4-1.9-1l.3-.3c.4.5.9.8 1.6.8.7 0 1.2-.3 1.6-.8l.3.3c-.4.6-1.1 1-1.9 1z"/><path id="XMLID_31_" class="st0" d="M130.9 63.1c.9 0 1.5-.5 1.8-3.2l.5-3.6h4.1v6.8h.6V65h-.6v-1.4h-5.8V65h-.6v-1.9zm1.2 0h4.6v-6.2h-2.9l-.4 3.1c-.3 1.8-.7 2.7-1.3 3.1z"/><path id="XMLID_29_" class="st0" d="M139.9 63.6v-7.3h4.7v.6h-4v2.7h4v.6h-4v2.9h4v.6h-4.7z"/><path id="XMLID_27_" class="st0" d="M148.7 63.6v-6.8h-2.4v-.6h5.4v.6h-2.4v6.8h-.6z"/><path id="XMLID_25_" class="st0" d="M152.9 60c0-2.3 1.6-3.8 3.7-3.8 1.2 0 2 .5 2.7 1.3l-.5.3c-.5-.6-1.3-1.1-2.1-1.1-1.7 0-3.1 1.3-3.1 3.2 0 1.9 1.3 3.2 3.1 3.2.9 0 1.7-.4 2.1-1.1l.5.3c-.6.8-1.5 1.3-2.7 1.3-2.1.2-3.7-1.4-3.7-3.6z"/><path id="XMLID_23_" class="st0" d="M165.6 63.6l-3-3.5-.8.9v2.6h-.6v-7.3h.6v4l3.5-4h.8l-3.1 3.5 3.4 3.8h-.8z"/><path id="XMLID_21_" class="st0" d="M168.2 63.6v-7.3h.6v6.2l4.6-6.2h.6v7.3h-.6v-6.3l-4.6 6.3h-.6z"/><path id="XMLID_18_" class="st0" d="M176.5 63.6v-7.3h.6v6.2l4.6-6.2h.6v7.3h-.6v-6.3l-4.6 6.3h-.6zm3-7.7c-.8 0-1.5-.4-1.9-1l.3-.3c.4.5.9.8 1.6.8.7 0 1.2-.3 1.6-.8l.3.3c-.4.6-1.1 1-1.9 1z"/><path id="XMLID_15_" class="st0" d="M187.9 60c0-2.1 1.4-3.8 3.6-3.8 2.1 0 3.6 1.7 3.6 3.8 0 2.1-1.4 3.8-3.6 3.8s-3.6-1.7-3.6-3.8zm6.5 0c0-1.9-1.1-3.2-2.9-3.2-1.8 0-2.9 1.4-2.9 3.2 0 1.8 1.1 3.2 2.9 3.2 1.7 0 2.9-1.4 2.9-3.2z"/><path id="XMLID_13_" class="st0" d="M198.6 63.6v-6.8h-2.4v-.6h5.4v.6h-2.4v6.8h-.6z"/><path id="XMLID_10_" class="st0" d="M202.1 63.1c.9 0 1.5-.5 1.8-3.2l.5-3.6h4.1v6.8h.6V65h-.6v-1.4h-5.8V65h-.6v-1.9zm1.3 0h4.6v-6.2h-3l-.4 3.1c-.2 1.8-.6 2.7-1.2 3.1z"/><path id="XMLID_6_" class="st0" d="M211.8 56.3v3h2.1c1.4 0 2.2 1 2.2 2.1 0 1.2-.8 2.1-2.2 2.1h-2.8v-7.3h.7zm0 3.6V63h2.1c1 0 1.6-.6 1.6-1.6 0-.9-.6-1.6-1.6-1.6h-2.1zm5.2 3.7v-7.3h.6v7.3h-.6z"/><path id="XMLID_4_" class="st0" d="M225.4 63.6l-2.6-3.3-2.6 3.3h-.8l3-3.8-2.8-3.6h.8l2.4 3.1 2.4-3.1h.8l-2.8 3.6 2.9 3.8h-.7z"/></g><g id="XMLID_56_"><g id="XMLID_277_"><path id="XMLID_278_" class="st0" d="M97.7 13.2c-5-.3-10.2 4.2-11.8 13.3-1.5 8.3 1.6 16.5 8 17.1 7.6.8 11.7-7.1 12.4-15.1.6-7.5-2.1-14.8-8.6-15.3zm2.8 14.7c-.4 3.8-2 7.3-5.7 6.7-2.9-.5-3.7-4.4-3-7.8.9-4.1 2.8-6.9 5.2-6.8 2.8 0 3.9 4.2 3.5 7.9zm111.9-13.6c-4.6 0-8.9 4.5-9.7 12.9-.7 7.6 3 14.7 8.5 14.9 6.9.2 10.1-7.3 10.1-14.5 0-6.9-3-13.3-8.9-13.3zm-.9 20.3c-2.7-.2-3.7-4.3-3.3-7.6.5-4 2.2-6.8 4-6.6 2.5.2 3.7 3.8 3.7 7.4 0 3.6-1.4 7-4.4 6.8zm-93.2-10.2l.1-4.2 9.6-.9v-5.2l-16.5.7.7 27.4s8.2 3.3 13.5-1.4c4.9-4.3 4.4-12.3 1.1-15.4-3.3-3.1-8.5-1-8.5-1zm5.1 7.7c-.5 5.1-5.2 4.1-5.2 4.1l.1-8c1.5-.8 5.5-.1 5.1 3.9zm23.9-16.3l-7 13.2.5-14.2-5.4-.4-1.8 27 6.8.2 6.9-12.9-.1 14 5.2-.1V15.9l-5.1-.1zm23.1 10.1l-5.1.6-.5-12.1-7 .6 2.3 27.4 6-.4-.5-11.1 4.9-.4.4 12.2h5.1l1-29h-6.6v12.2zm23.6-1s2.8-1.8 2.7-5.4c-.1-4.3-3.6-6.5-7.8-6.4-4.7 0-7.6 2.9-7.6 2.9l3.9 4.6s1.5-1.9 3.7-1.6c1.9.2 2.2 2.4.7 3.8-1.3 1.2-3.2 1.8-3.2 1.8l.9 3.9s3.3-.2 4.2 1.3c1.3 2 .8 5.2-1.9 5.5-2.3.2-3.2-2.3-3.2-2.3l-6.8 2.7s.9 5.7 6.2 7.3c6.5 2 11.9-2.5 12.7-8.5.8-7.6-4.5-9.6-4.5-9.6zm44.1 1.6h-5.3l.2-11.8h-7l.9 27.2h5l.7-11.4 5.2.2-.8 11.8 5 .3 4.3-27.7-7.3-.6-.9 12zm19-11.9l-10.7 26.8 4.3 2 2.7-5.4 7.4.5 1.2 5.6 5.8-.5-4.2-29.2-6.5.2zM255 34.4l3.5-7.3 1.4 7.5-4.9-.2zm51.9-20.8l-6.9 1-5.3 28.6 4.6.9 1.6-5.5 7.6-.4 2.3 5.6 5.6-1.6-9.5-28.6zM302 33.8l1.9-7.2 2.8 7.1-4.7.1zm-12.2 3.3l-3.3-22.4-7.5-.3-6.4 22.5-2.9-.1.2 7.1 5.4.2.2-2.5 12.4.2.2 1.7 4.7-.1-.2-6.3h-2.8zm-11.6-.1l3.7-11 2.3 11.1-6-.1zM76.8 12.8c-7.1-3.1-14.2.4-14.2.4l2.8 30.7 5.8-.3v-8.1s7.3-1.1 10.6-8.2c2.5-5.8.6-12-5-14.5zm-5.6 18.1l-.4-11.4s5-1 5.8 2.9c.8 4-2.7 7.7-5.4 8.5z"/></g></g><path class="st1" d="M37.7 32.3l-3.4-12.5-19.4 17.6z"/><path class="st2" d="M14.9 37.4l7.9-7.1L12 24.7 6.9 39.2z"/><path class="st3" d="M22.8 30.3l11.5-10.5-18.8-4.9-3.5 9.8z"/><path class="st4" d="M14.2 59.5l6.5-11.3s4.9-1.4 9.8-5.1L26 35 6.9 39.2l7.3 20.3z"/><path class="st5" d="M37 36.4c3-4.4 4.5-9.7 4.4-14.8l-7-1.9 3.4 12.5L26 35l4.5 8.1c2.3-1.7 4.6-3.9 6.5-6.7z"/><path class="st6" d="M14.2 59.5l-11-30.7 5.1 40.9z"/><path class="st7" d="M.7 8.9l2.5 19.9 3.7 10.4 8.6-24.3z"/><path class="st8" d="M12.8.5C5.2 1.5.2 4.7.2 4.7l.5 4.2 14.8 6L12.8.5z"/><path class="st9" d="M23.7.8c-.7-.1-1.3-.2-2-.3-1.5-.2-3-.3-4.4-.3-1.6 0-3.1.1-4.6.3l2.7 14.3 25.9 6.8C41.1 12.1 35.4 3.1 23.7.8z"/></svg>