<svg id="Layer_1" xmlns="http://www.w3.org/2000/svg" viewBox="0 0 576 96"><style>.st0{fill:#f8a405;stroke:#231f20;stroke-width:2;stroke-linecap:round;stroke-linejoin:round;stroke-miterlimit:10}.st1,.st2{fill:#5e9e02}.st2{stroke:#231f20;stroke-width:2;stroke-linecap:round;stroke-linejoin:round;stroke-miterlimit:10}.st3{fill:#fff}.st4{fill:#f8a405}.st5{fill:#5e9e02}.st5,.st6,.st7,.st8{stroke:#231f20;stroke-width:2;stroke-miterlimit:10}.st6{stroke-linecap:round;stroke-linejoin:round;fill:none}.st7,.st8{fill:#fff}.st8{stroke-linejoin:round}.st9{fill:#231f20}.st10{fill:#e6e7e8}.st11,.st12{stroke-linecap:round;stroke-linejoin:round}.st11{stroke:#000;stroke-width:2;stroke-miterlimit:10;fill:#f8a405}.st12{fill:#fff}.st12,.st13,.st14{stroke:#231f20;stroke-width:2;stroke-miterlimit:10}.st13{stroke-linecap:round;stroke-linejoin:round}.st14{fill:none}</style><circle class="st0" cx="526.5" cy="51.5" r="40.5"/><path class="st1" d="M480 94V67h6l21-20 3 2 15.5-15.5 19 19 7-7L570 64h6v30z"/><path class="st2" d="M213 12h53v72h-53z"/><path class="st3" d="M228 58s-4-5-5-10-1-12-1-12l10 2 5-11 16 3v17l11.4 2v8s-2.4 0-4.4 1-4 2-7 2c-6 0-11-4-16.5-4s-8.5 2-8.5 2z"/><path class="st4" d="M253 46.8L222.3 41v-4.8l30.8 6z"/><path class="st5" d="M18 56.9c-1-.6-2.2-.9-3.5-.9-4.1 0-7.5.9-7.5 5v15.5c0 4.1 3.4 7.5 7.5 7.5 1.3 0 2.5-.3 3.5-.9m59-26.2c1-.6 2.2-.9 3.5-.9 4.1 0 7.5.9 7.5 5v15.5c0 4.1-3.4 7.5-7.5 7.5-1.3 0-2.5-.3-3.5-.9"/><path class="st2" d="M56 14H39c-12.2 0-22 9.8-22 22v45c0 7.2 5.8 13 13 13h35c7.2 0 13-5.8 13-13V36c0-12.1-9.8-22-22-22z"/><path class="st6" d="M37 14c0-8 4.9-12 11-12s11 4 11 12"/><path class="st0" d="M28 71v7c0 2.8 2.2 5 5 5h5c2.8 0 5-2.2 5-5v-7m-10 0h-7v-8h19v8h-7"/><path class="st6" d="M52 51c11 0 24-8.9 24-20m-57 0c0 11 14 20 25 20"/><path class="st7" d="M51 55l-3 2-3-2V45h6z"/><path class="st8" d="M37 73.7L35.5 75 34 73.7V68h3z"/><path class="st0" d="M53 71v7c0 2.8 2.2 5 5 5h5c2.8 0 5-2.2 5-5v-7"/><path class="st4" d="M1 30c0 3.3 2.7 6 6 6h81c3.3 0 6-2.7 6-6v-4c0-3.3-2.7-6-6-6H7c-3.3 0-6 2.7-6 6v4z"/><path class="st0" d="M1 30c0 3.3 2.7 6 6 6h81c3.3 0 6-2.7 6-6v-4c0-3.3-2.7-6-6-6H7c-3.3 0-6 2.7-6 6v4z"/><circle class="st9" cx="48" cy="52" r="1"/><path class="st10" d="M8 36c0 1.1.9 2 2 2s2-.9 2-2V20c0-1.1-.9-2-2-2s-2 .9-2 2v16z"/><path class="st6" d="M8 36c0 1.1.9 2 2 2s2-.9 2-2V20c0-1.1-.9-2-2-2s-2 .9-2 2v16z"/><path class="st10" d="M83 36c0 1.1.9 2 2 2s2-.9 2-2V20c0-1.1-.9-2-2-2s-2 .9-2 2v16z"/><path class="st6" d="M83 36c0 1.1.9 2 2 2s2-.9 2-2V20c0-1.1-.9-2-2-2s-2 .9-2 2v16z"/><path class="st0" d="M58 71h-7v-8h19v8h-7"/><path class="st8" d="M62 73.7L60.5 75 59 73.7V68h3z"/><path class="st1" d="M361.7 34.1s-13.1 1.8-26 1.8-24.7-1.8-24.7-1.8 0 12.8-3.3 29.5-10 30.5-10 30.5H374l-9-28.6-3.3-31.4z"/><path class="st2" d="M310.5 34.1s11.5-6.1 15.7-9 9.9-9.1 9.9-9.1 4.9 5.9 8.8 9.4c3.9 3.5 16.8 8.7 16.8 8.7"/><path class="st6" d="M310.3 35.5L295.5 75"/><circle class="st0" cx="294" cy="78.3" r="3"/><path class="st6" d="M361.4 35.5L376.6 75"/><circle class="st0" cx="378.1" cy="78.3" r="3"/><path class="st6" d="M335.9 16.6V1.8"/><path class="st11" d="M354 7.1l-18.1 6v-12z"/><path class="st6" d="M310.3 34.9h51.2"/><path class="st0" d="M308.3 19.1c-4.8-1.2-7.9-5.9-7.1-10.7-1.5.9-2.7 2.4-3.2 4.3-1 3.8 1.3 7.7 5.1 8.7 2.6.7 5.2-.2 6.9-2-.5 0-1.1-.1-1.7-.3z"/><path class="st3" d="M310.3 45.7l8.1 5.5 8.1-5.5c.4-.3.9-.3 1.3 0l8.1 5.5 8.1-5.5c.4-.3.9-.3 1.3 0l8.1 5.5 8.1-5.5c.3-.2.6-.2.9-.2v-3l-8.3 5.7c-.2.1-.4.2-.7.2-.2 0-.5-.1-.7-.2l-8.1-5.5-8.1 5.5c-.4.3-.9.3-1.3 0l-8.1-5.5-8.1 5.5c-.4.3-.9.3-1.3 0l-8.3-5.7v3c.4 0 .7.1.9.2z"/><path class="st3" d="M310.3 50.7l8.1 5.5 8.1-5.5c.4-.3.9-.3 1.3 0l8.1 5.5 8.1-5.5c.4-.3.9-.3 1.3 0l8.1 5.5 8.1-5.5c.3-.2.6-.2.9-.2v-2.9l-8.3 5.7c-.2.1-.4.2-.7.2-.2 0-.5-.1-.7-.2l-8.1-5.5-8.1 5.5c-.4.3-.9.3-1.3 0l-8.1-5.5-8.1 5.5c-.4.3-.9.3-1.3 0l-8.3-5.7v2.9c.4 0 .7.1.9.2z"/><path class="st6" d="M310.4 34.1s0 12.8-3.3 29.5-10 30.5-10 30.5m64.5-60s0 12.8 3.3 29.5 10 30.5 10 30.5m-65.2-43l8.8 6 8.8-6 8.8 6 8.8-6 8.8 6 8.8-6"/><path class="st6" d="M309.7 46.5l8.8 6 8.8-6 8.8 6 8.8-6 8.8 6 8.8-6"/><path class="st6" d="M309.7 41.8l8.8 6 8.8-6 8.8 6 8.8-6 8.8 6 8.8-6"/><path class="st12" d="M342.4 66.5c-4.3-10.7-6.4-21.1-6.4-30.2-.1 9.1-2.1 19.6-6.4 30.2-4.3 10.7-10.2 20.1-16.8 27.5v.1h46.6c-6.7-7.4-12.6-16.8-17-27.6z"/><path class="st6" d="M290.6 94H382m99 0h95m-473.2 0h22.4m-8.1-1.1V5.3c0-1.9-1.6-3.5-3.5-3.5s-3.5 1.6-3.5 3.5v87.6"/><path class="st13" d="M117.1 6.1v-.8c0-1.9-1.6-3.5-3.5-3.5s-3.5 1.6-3.5 3.5V6h7zm60 0v-.8c0-1.9-1.6-3.5-3.5-3.5s-3.5 1.6-3.5 3.5V6h7z"/><path class="st6" d="M162.8 94h22.4m-8.1-1.1V5.3c0-1.9-1.6-3.5-3.5-3.5s-3.5 1.6-3.5 3.5v87.6"/><path class="st1" d="M98 64c0 5 4 9 9 9h74c5 0 9-4 9-9V25c0-5-4-9-9-9h-74c-5 0-9 4-9 9v39z"/><path class="st6" d="M98 64c0 5 4 9 9 9h74c5 0 9-4 9-9V25c0-5-4-9-9-9h-74c-5 0-9 4-9 9v39z"/><circle class="st12" cx="114" cy="30" r="4"/><circle class="st0" cx="114" cy="45" r="4"/><circle class="st12" cx="114" cy="60" r="4"/><circle class="st0" cx="129" cy="30" r="4"/><circle class="st0" cx="143.9" cy="30" r="4"/><circle class="st12" cx="129" cy="45" r="4"/><circle class="st0" cx="129" cy="60" r="4"/><circle class="st12" cx="143.9" cy="45" r="4"/><circle class="st12" cx="143.9" cy="60" r="4"/><circle class="st12" cx="159" cy="30" r="4"/><circle class="st0" cx="159" cy="45" r="4"/><circle class="st12" cx="159" cy="60" r="4"/><circle class="st0" cx="173.9" cy="30" r="4"/><circle class="st12" cx="173.9" cy="45" r="4"/><circle class="st0" cx="173.9" cy="60" r="4"/><path class="st6" d="M99.6 28.9h3.8m81 6.1h3.9M99.6 63h3.8m-5.2-24h3.8m84.2 11h3.8m-3.8-23h3.8M98.9 53h7m76.5 11h7.1m130.6 21.1h31.6"/><path class="st0" d="M449.1 8.8l-5.3 2v.1c.9 2.4-.3 5-2.7 5.9-2.4.9-5-.3-5.9-2.7V14L391 30.3c-3.9 1.4-5.9 5.8-4.5 9.7l8.1 22c1.4 3.9 5.8 5.9 9.7 4.5l44.2-16.3c-.8-2.4.4-5 2.8-5.8 2.4-.9 5 .3 5.9 2.6l5.3-2c3.9-1.4 5.9-5.8 4.5-9.7l-8.1-22c-1.5-3.9-5.8-5.9-9.8-4.5z"/><path class="st9" d="M445.8 21.7c.5 1.3-.2 2.7-1.5 3.2s-2.7-.2-3.2-1.5.2-2.7 1.5-3.2 2.7.2 3.2 1.5z"/><ellipse transform="rotate(-20.242 446.329 30.365)" class="st9" cx="446.4" cy="30.4" rx="2.5" ry="2.5"/><circle class="st9" cx="449.3" cy="38.2" r="2.5"/><path class="st2" d="M469.9 40h-6.2v.1c0 2.8-2.2 5-5 5s-5-2.2-5-5V40h-51.3c-4.5 0-8.2 3.7-8.2 8.2v31.6c0 4.5 3.7 8.2 8.2 8.2h51.3c0-2.7 2.3-4.9 5-4.9s5 2.2 5 4.9h6.2c4.5 0 8.2-3.7 8.2-8.2V48.2c0-4.5-3.7-8.2-8.2-8.2z"/><path class="st9" d="M461.6 51.9c0 1.5-1.2 2.7-2.7 2.7-1.5 0-2.7-1.2-2.7-2.7 0-1.5 1.2-2.7 2.7-2.7 1.5 0 2.7 1.2 2.7 2.7z"/><ellipse class="st9" cx="458.9" cy="61" rx="2.7" ry="2.7"/><circle class="st9" cx="458.9" cy="70.1" r="2.7"/><path class="st6" d="M401.5 81.1h31.4M401.5 74H421"/><path class="st3" d="M402.4 60c-1.1 0-2-.9-2-2s.9-2 2-2h10.2c1.1 0 2 .9 2 2s-.9 2-2 2h-10.2z"/><path class="st9" d="M412.6 57c.6 0 1 .4 1 1s-.4 1-1 1h-10.2c-.6 0-1-.4-1-1s.4-1 1-1H413m-.4-2h-10.2c-1.7 0-3 1.3-3 3s1.3 3 3 3h10.2c1.7 0 3-1.3 3-3s-1.4-3-3-3z"/><path class="st7" d="M448.3 56H444l-8.7-8.7c-.8-.8-2-.8-2.8 0-.8.8-.8 2 0 2.8l5.9 5.9H426l-3.5-3.5c-.8-.8-2-.8-2.8 0-.8.8-.8 2 0 2.8l2.3 2.3v.8l-2.3 2.3c-.8.8-.8 2 0 2.8.4.4.9.6 1.4.6.5 0 1-.2 1.4-.6L426 60h12.3l-5.9 5.9c-.8.8-.8 2 0 2.8.4.4.9.6 1.4.6.5 0 1-.2 1.4-.6L444 60h4.3c1.1 0 2-.9 2-2s-.9-2-2-2z"/><path class="st9" d="M208 32c0-3.2-2.1-5.8-5-6.7v-2.6c2.9-.9 5-3.5 5-6.7 0-3.9-3.1-7-7-7v2c2.8 0 5 2.2 5 5s-2.2 5-5 5v6c2.8 0 5 2.2 5 5s-2.2 5-5 5v6c2.8 0 5 2.2 5 5s-2.2 5-5 5v6c2.8 0 5 2.2 5 5s-2.2 5-5 5v6c2.8 0 5 2.2 5 5s-2.2 5-5 5v2c3.9 0 7-3.1 7-7 0-3.2-2.1-5.8-5-6.7v-2.6c2.9-.9 5-3.5 5-6.7s-2.1-5.8-5-6.7v-2.6c2.9-.9 5-3.5 5-6.7s-2.1-5.8-5-6.7v-2.6c2.9-.9 5-3.5 5-6.7zm60-32c0 2.8-2.2 5-5 5s-5-2.2-5-5h-6c0 2.8-2.2 5-5 5s-5-2.2-5-5h-6c0 2.8-2.2 5-5 5s-5-2.2-5-5h-6c0 2.8-2.2 5-5 5s-5-2.2-5-5h-2c0 3.9 3.1 7 7 7 3.2 0 5.8-2.1 6.7-5h2.6c.9 2.9 3.5 5 6.7 5s5.8-2.1 6.7-5h2.6c.9 2.9 3.5 5 6.7 5s5.8-2.1 6.7-5h2.6c.9 2.9 3.5 5 6.7 5 3.9 0 7-3.1 7-7h-2zm-5 89c-3.2 0-5.8 2.1-6.7 5h-2.6c-.9-2.9-3.5-5-6.7-5s-5.8 2.1-6.7 5h-2.6c-.9-2.9-3.5-5-6.7-5s-5.8 2.1-6.7 5h-2.6c-.9-2.9-3.5-5-6.7-5-3.9 0-7 3.1-7 7h2c0-2.8 2.2-5 5-5s5 2.2 5 5h6c0-2.8 2.2-5 5-5s5 2.2 5 5h6c0-2.8 2.2-5 5-5s5 2.2 5 5h6c0-2.8 2.2-5 5-5s5 2.2 5 5h2c0-3.9-3.1-7-7-7z"/><path class="st6" d="M222 36s0 8 1 12 4 10 4 10m-5-22l31 6m-30.7-1l43.7 8m-33.8-11.2L237 27m0 0l16 3m0 0v16m-6-18v-6"/><circle class="st0" cx="234.5" cy="48.5" r="2.5"/><circle class="st0" cx="243.5" cy="50.5" r="2.5"/><circle class="st0" cx="252.5" cy="52.5" r="2.5"/><path class="st9" d="M271 48c0 1.7.6 3.3 1.7 4.5l3.3.6.5-.3c-2-.6-3.5-2.5-3.5-4.8 0-2.8 2.2-5 5-5v-6c-2.8 0-5-2.2-5-5s2.2-5 5-5v-6c-2.8 0-5-2.2-5-5s2.2-5 5-5V9c-3.9 0-7 3.1-7 7 0 3.2 2.1 5.8 5 6.7v2.6c-2.9.9-5 3.5-5 6.7s2.1 5.8 5 6.7v2.6c-2.9.9-5 3.5-5 6.7zm2 32c0-2 1.2-3.8 3-4.6l-1-.5-1.5-.3c-1.5 1.3-2.5 3.2-2.5 5.4 0 3.9 3.1 7 7 7v-2c-2.8 0-5-2.2-5-5z"/><path class="st6" d="M220 74c8.2 0 8.2-4 16.5-4 8.2 0 8.2 4 16.5 4s8.3-4 16.5-4c8.3 0 8.3 4 16.5 4m-66-7c8.2 0 8.2-4 16.5-4 8.2 0 8.2 4 16.5 4s8.3-4 16.5-4c8.3 0 8.3 4 16.5 4m-66-7c8.2 0 8.2-4 16.5-4 8.2 0 8.2 4 16.5 4s8.3-4 16.5-4c8.3 0 8.3 4 16.5 4"/><path class="st0" d="M233.9 33.8l13.1 2.5v-4.2l-11.2-2.2z"/><path class="st6" d="M481 67h5l21-21 17.5 17.5"/><path class="st6" d="M504 73h12l18-18 18 18h9m-50-25l15-15 16.5 16.5"/><path class="st6" d="M538 58l13-13 19 19h5"/><path class="st12" d="M496 57.5l3 3 3.5-3.5 5 5 4-4 3 3 3.5-3.5-11-11zm27 8.5l3 3 4-4 5 5 4-4 2.5 2.5L544 66l-10-10zm22-15l4.5 4.5 3-3L555 55l2.5-2.5L551 46zm-28-7.5l2 2 2.5-2.5 5 5 4-4 2.5 2.5 3-3-10-10-9.5 9.5z"/><path class="st7" d="M557 18h-1c0-2.2-1.8-4-4-4s-4 1.8-4 4c-1.7 0-3 1.3-3 3s1.3 3 3 3h9c1.7 0 3-1.3 3-3s-1.3-3-3-3zm-45 14h-3v-1c0-1.7-1.3-3-3-3h-1c-1.7 0-3 1.3-3 3v1h-1c-1.1 0-2 .9-2 2s.9 2 2 2h11c1.1 0 2-.9 2-2s-.9-2-2-2z"/><circle class="st7" cx="494" cy="84" r="4"/><circle class="st7" cx="504" cy="84" r="4"/><circle class="st7" cx="562" cy="84" r="4"/><path class="st14" d="M494 88v4m10-4v4m58-4v4"/></svg>