<svg id="Слой_1" xmlns="http://www.w3.org/2000/svg" viewBox="0 0 96 48"><style>.st0{fill:#5e9e02}</style><path class="st0" d="M87 29c-2.8 0-5-2.2-5-5s2.2-5 5-5 5 2.2 5 5-2.2 5-5 5zm0-8c-1.7 0-3 1.3-3 3s1.3 3 3 3 3-1.3 3-3-1.3-3-3-3z"/><path class="st0" d="M96 33h-9c-5 0-9-4-9-9s4-9 9-9h9v18zm-9-16c-3.9 0-7 3.1-7 7s3.1 7 7 7h7V17h-7z"/><path class="st0" d="M92.5 48h-6v-2c.8 0 1.5-.7 1.5-1.5V31h8v13.5c0 1.9-1.6 3.5-3.5 3.5zm-2.8-2h2.9c.8 0 1.5-.7 1.5-1.5V33h-4v11.5c-.1.6-.2 1.1-.4 1.5zM96 17h-8V3.5c0-.8-.7-1.5-1.5-1.5V0h6C94.4 0 96 1.6 96 3.5V17zm-6-2h4V3.5c0-.8-.7-1.5-1.5-1.5h-2.9c.3.4.4.9.4 1.5V15z"/><path class="st0" d="M86.5 48h-83C1.6 48 0 46.4 0 44.5v-41C0 1.6 1.6 0 3.5 0h83C88.4 0 90 1.6 90 3.5V17h-3c-3.9 0-7 3.1-7 7s3.1 7 7 7h3v13.5c0 1.9-1.6 3.5-3.5 3.5zM3.5 2C2.7 2 2 2.7 2 3.5v41c0 .8.7 1.5 1.5 1.5h83c.8 0 1.5-.7 1.5-1.5V33h-1c-5 0-9-4-9-9s4-9 9-9h1V3.5c0-.8-.7-1.5-1.5-1.5h-83z"/><path class="st0" d="M85 36.8c-.3 0-.5-.1-.7-.3-.2-.2-.3-.5-.3-.7 0-.3.1-.5.3-.7.4-.4 1-.4 1.4 0 .2.2.3.4.3.7 0 .3-.1.5-.3.7-.2.2-.4.3-.7.3zm-1 2.6c0-.6.5-1 1-1s1 .4 1 1c0 .5-.5 1-1 1s-1-.4-1-1zm1 4.6c-.3 0-.5-.1-.7-.3-.2-.2-.3-.4-.3-.7 0-.3.1-.5.3-.7.4-.4 1-.4 1.4 0 .2.2.3.4.3.7 0 .3-.1.5-.3.7-.2.2-.4.3-.7.3zm-5-1c0-.6.4-1 1-1 .5 0 1 .4 1 1 0 .5-.5 1-1 1-.6 0-1-.5-1-1zm-4 0c0-.6.4-1 1-1 .5 0 1 .4 1 1 0 .5-.5 1-1 1-.6 0-1-.5-1-1zm-4 0c0-.6.4-1 1-1 .5 0 1 .4 1 1 0 .5-.5 1-1 1-.6 0-1-.5-1-1zm-4 0c0-.6.4-1 1-1 .5 0 1 .4 1 1 0 .5-.5 1-1 1-.6 0-1-.5-1-1zm-40 0c0-.6.4-1 1-1 .5 0 1 .4 1 1 0 .5-.5 1-1 1-.6 0-1-.5-1-1zm-4 0c0-.6.4-1 1-1 .5 0 1 .4 1 1 0 .5-.5 1-1 1-.6 0-1-.5-1-1zm-4 0c0-.6.4-1 1-1 .5 0 1 .4 1 1 0 .5-.5 1-1 1-.6 0-1-.5-1-1zm-4 0c0-.6.4-1 1-1 .5 0 1 .4 1 1 0 .5-.5 1-1 1-.6 0-1-.5-1-1zm-4 0c0-.6.4-1 1-1 .5 0 1 .4 1 1 0 .5-.5 1-1 1-.6 0-1-.5-1-1zm-4 0c0-.6.4-1 1-1 .5 0 1 .4 1 1 0 .5-.5 1-1 1-.6 0-1-.5-1-1zm-3 1c-.3 0-.5-.1-.7-.3-.2-.2-.3-.4-.3-.7 0-.3.1-.5.3-.7.4-.4 1-.4 1.4 0 .2.2.3.4.3.7 0 .3-.1.5-.3.7-.2.2-.4.3-.7.3zm-1-4.8c0-.5.4-1 1-1 .5 0 1 .5 1 1 0 .6-.5 1-1 1-.6 0-1-.5-1-1zm0-3.8c0-.6.4-1 1-1 .5 0 1 .4 1 1 0 .5-.5 1-1 1-.6 0-1-.5-1-1zm0-3.8c0-.5.4-1 1-1 .5 0 1 .5 1 1 0 .6-.5 1-1 1-.6 0-1-.5-1-1zm0-3.8c0-.5.4-1 1-1 .5 0 1 .5 1 1s-.5 1-1 1c-.6 0-1-.5-1-1zM4 24c0-.6.4-1 1-1 .5 0 1 .4 1 1 0 .5-.5 1-1 1-.6 0-1-.5-1-1zm0-3.8c0-.5.4-1 1-1 .5 0 1 .5 1 1 0 .6-.5 1-1 1-.6 0-1-.5-1-1zm0-3.8c0-.6.4-1 1-1 .5 0 1 .4 1 1 0 .5-.5 1-1 1-.6 0-1-.5-1-1zm0-3.8c0-.5.4-1 1-1 .5 0 1 .5 1 1 0 .6-.5 1-1 1-.6 0-1-.5-1-1zm0-3.8c0-.5.4-1 1-1 .5 0 1 .5 1 1s-.5 1-1 1c-.6 0-1-.5-1-1zM5 6c-.3 0-.5-.1-.7-.3-.2-.2-.3-.4-.3-.7 0-.3.1-.5.3-.7.4-.4 1-.4 1.4 0 .2.2.3.4.3.7 0 .3-.1.5-.3.7-.2.2-.4.3-.7.3zm75-1c0-.6.4-1 1-1 .5 0 1 .4 1 1 0 .5-.5 1-1 1-.6 0-1-.5-1-1zm-4 0c0-.6.4-1 1-1 .5 0 1 .4 1 1 0 .5-.5 1-1 1-.6 0-1-.5-1-1zm-4 0c0-.6.4-1 1-1 .5 0 1 .4 1 1 0 .5-.5 1-1 1-.6 0-1-.5-1-1zm-4 0c0-.6.4-1 1-1 .5 0 1 .4 1 1 0 .5-.5 1-1 1-.6 0-1-.5-1-1zM28 5c0-.6.4-1 1-1 .5 0 1 .4 1 1 0 .5-.5 1-1 1-.6 0-1-.5-1-1zm-4 0c0-.6.4-1 1-1 .5 0 1 .4 1 1 0 .5-.5 1-1 1-.6 0-1-.5-1-1zm-4 0c0-.6.4-1 1-1 .5 0 1 .4 1 1 0 .5-.5 1-1 1-.6 0-1-.5-1-1zm-4 0c0-.6.4-1 1-1 .5 0 1 .4 1 1 0 .5-.5 1-1 1-.6 0-1-.5-1-1zm-4 0c0-.6.4-1 1-1 .5 0 1 .4 1 1 0 .5-.5 1-1 1-.6 0-1-.5-1-1zM8 5c0-.6.4-1 1-1 .5 0 1 .4 1 1 0 .5-.5 1-1 1-.6 0-1-.5-1-1zm77 1c-.3 0-.5-.1-.7-.3-.2-.2-.3-.4-.3-.7 0-.3.1-.5.3-.7.4-.4 1-.4 1.4 0 .2.2.3.4.3.7 0 .3-.1.5-.3.7-.2.2-.4.3-.7.3zm-1 2.6c0-.5.5-1 1-1s1 .5 1 1c0 .6-.5 1-1 1s-1-.5-1-1zm1 4.6c-.3 0-.5-.1-.7-.3-.2-.2-.3-.4-.3-.7 0-.3.1-.5.3-.7.4-.4 1-.4 1.4 0 .2.2.3.4.3.7 0 .3-.1.5-.3.7-.2.2-.4.3-.7.3zM56 43c0-.6.4-1 1-1 .5 0 1 .4 1 1 0 .5-.5 1-1 1-.6 0-1-.5-1-1zm-4 0c0-.6.4-1 1-1 .5 0 1 .4 1 1 0 .5-.5 1-1 1-.6 0-1-.5-1-1zm-4 0c0-.6.4-1 1-1 .5 0 1 .4 1 1 0 .5-.5 1-1 1-.6 0-1-.5-1-1zm-4 0c0-.6.4-1 1-1 .5 0 1 .4 1 1 0 .5-.5 1-1 1-.6 0-1-.5-1-1zm-4 0c0-.6.4-1 1-1 .5 0 1 .4 1 1 0 .5-.5 1-1 1-.6 0-1-.5-1-1zm-4 0c0-.6.4-1 1-1 .5 0 1 .4 1 1 0 .5-.5 1-1 1-.6 0-1-.5-1-1zm-3 1c-.3 0-.5-.1-.7-.3-.2-.2-.3-.4-.3-.7 0-.3.1-.5.3-.7.4-.4 1-.4 1.4 0 .2.2.3.4.3.7 0 .3-.1.5-.3.7-.2.2-.4.3-.7.3z"/><path class="st0" d="M68 43c0-.6.4-1 1-1 .5 0 1 .4 1 1 0 .5-.5 1-1 1-.6 0-1-.5-1-1zm-4 0c0-.6.4-1 1-1 .5 0 1 .4 1 1 0 .5-.5 1-1 1-.6 0-1-.5-1-1zm-4 0c0-.6.4-1 1-1 .5 0 1 .4 1 1 0 .5-.5 1-1 1-.6 0-1-.5-1-1zM56 5c0-.6.4-1 1-1 .5 0 1 .4 1 1 0 .5-.5 1-1 1-.6 0-1-.5-1-1zm-4 0c0-.6.4-1 1-1 .5 0 1 .4 1 1 0 .5-.5 1-1 1-.6 0-1-.5-1-1zm-4 0c0-.6.4-1 1-1 .5 0 1 .4 1 1 0 .5-.5 1-1 1-.6 0-1-.5-1-1zm-4 0c0-.6.4-1 1-1 .5 0 1 .4 1 1 0 .5-.5 1-1 1-.6 0-1-.5-1-1zm-4 0c0-.6.4-1 1-1 .5 0 1 .4 1 1 0 .5-.5 1-1 1-.6 0-1-.5-1-1zm-4 0c0-.6.4-1 1-1 .5 0 1 .4 1 1 0 .5-.5 1-1 1-.6 0-1-.5-1-1zm-3 1c-.3 0-.5-.1-.7-.3-.2-.2-.3-.4-.3-.7 0-.3.1-.5.3-.7.4-.4 1-.4 1.4 0 .2.2.3.4.3.7 0 .3-.1.5-.3.7-.2.2-.4.3-.7.3zm31-1c0-.6.4-1 1-1 .5 0 1 .4 1 1 0 .5-.5 1-1 1-.6 0-1-.5-1-1zm-4 0c0-.6.4-1 1-1 .5 0 1 .4 1 1 0 .5-.5 1-1 1-.6 0-1-.5-1-1z"/></svg>