<svg id="Слой_1" xmlns="http://www.w3.org/2000/svg" viewBox="0 0 22 21"><style>.st0{fill:#9a9ea2}</style><path class="st0" d="M1 14.1c-.6 0-1 .4-1 1v2c0 .6.4 1 1 1s1-.4 1-1v-2c0-.6-.4-1-1-1zm20.4-8.9l-10-5c-.3-.1-.6-.1-.9 0l-10 5c-.1.1-.3.2-.4.4-.1.2-.1.4-.1.5v5.8c0 .6.4 1 1 1s1-.4 1-1V7.5l2 .8v4.9c0 .4.2.7.6.9 1.7.9 3.4 1.9 6.3 2v-2c-1.4 0-2.7-.3-3.9-.9l-1-.5V9.1l4.6 1.9c.1 0 .2.1.4.1s.3 0 .4-.1L16 9.1V11h2V8.3L21.4 7c.3-.2.6-.5.6-.9s-.2-.8-.6-.9zM11 9L3.4 6 11 2.2 18.6 6 11 9zm7 3.9h-2v3h-3v2h3v3h2v-3h3v-2h-3v-3z"/></svg>