<svg id="Слой_1" xmlns="http://www.w3.org/2000/svg" viewBox="0 0 23 19"><style>.st0{fill:#9a9ea2}</style><path class="st0" d="M21.9 5.6l-10-5c-.3-.1-.6-.1-.9 0l-10 5c-.1.1-.3.3-.4.5-.1.1-.1.3-.1.4v5.8c0 .6.4 1 1 1s1-.4 1-1V8l2 .8v4.9c0 .4.2.7.6.9 1.7.9 3.5 1.9 6.4 1.9 3 0 4.7-1.1 6.4-1.9.3-.2.6-.5.6-.9V8.8l3.4-1.3c.4-.1.6-.5.6-.9 0-.5-.2-.8-.6-1zm-5.4 7.5l-1 .5c-2.5 1.3-5.5 1.3-8 0l-1-.5V9.6l4.6 1.9c.1 0 .2.1.4.1.1 0 .3 0 .4-.1l4.6-1.9v3.5zm-5-3.7l-7.6-3 7.6-3.8 7.6 3.8-7.6 3zm-10 5.1c-.6 0-1 .4-1 1v2c0 .6.4 1 1 1s1-.4 1-1v-2c0-.6-.4-1-1-1z"/></svg>