<svg id="Слой_1" xmlns="http://www.w3.org/2000/svg" viewBox="0 0 24 22"><style>.st0{fill:#9a9ea2}</style><path class="st0" d="M13.5 0c-.8 0-1.5.7-1.5 1.5 0-.8-.7-1.5-1.5-1.5S9 .7 9 1.5C9 3 12 6 12 6s3-3 3-4.5c0-.8-.7-1.5-1.5-1.5zM22 5c0-1.7-1.3-3-3-3s-3 1.3-3 3 1.3 3 3 3 3-1.3 3-3zm-3 1c-.6 0-1-.4-1-1s.4-1 1-1 1 .4 1 1-.4 1-1 1zm0 2c-2.8 0-5 2.2-5 5v3c0 .6.4 1 1 1h1v4c0 .6.4 1 1 1h4c.6 0 1-.4 1-1v-4h1c.6 0 1-.4 1-1v-3c0-2.8-2.2-5-5-5zm3 7h-1c-.6 0-1 .4-1 1v4h-2v-4c0-.6-.4-1-1-1h-1v-2c0-1.7 1.3-3 3-3s3 1.3 3 3v2zM8 6c0-1.7-1.3-3-3-3S2 4.3 2 6s1.3 3 3 3 3-1.3 3-3zM5 7c-.6 0-1-.4-1-1s.4-1 1-1 1 .4 1 1-.4 1-1 1zm3.5 4.8C8.1 10.2 6.7 9 5 9s-3.1 1.2-3.4 2.7c-.6 2.4-.4 1.3-1.5 6-.1.3 0 .6.2.8.1.3.4.5.7.5h1.3c.2.6.5 1.5.7 2.3.2.4.6.7 1 .7h2c.4 0 .8-.3 1-.7.3-.8.5-1.7.7-2.3H9c.3 0 .6-.2.8-.4.2-.2.2-.6.2-.8-1.2-4.6-1-3.8-1.5-6zM7 17c-.7 0-.8 0-1.7 3h-.6c-.9-2.9-1-3-1.7-3h-.8s.6-2.5 1.2-4.8c.2-.7.9-1.2 1.6-1.2.7 0 1.4.5 1.5 1.3.6 2.1 1.2 4.7 1.2 4.7H7z"/></svg>