<svg id="Слой_1" xmlns="http://www.w3.org/2000/svg" viewBox="0 0 20 24"><style>.st0{fill:#9a9ea2}</style><path class="st0" d="M10 6c1.7 0 3-1.3 3-3s-1.3-3-3-3-3 1.3-3 3 1.3 3 3 3zm0-4c.6 0 1 .4 1 1s-.4 1-1 1-1-.4-1-1 .4-1 1-1zM6 15h1v4c0 .6.4 1 1 1h4c.6 0 1-.4 1-1v-4h1c.6 0 1-.4 1-1v-2c0-2.8-2.2-5-5-5s-5 2.2-5 5v2c0 .6.4 1 1 1zm1-3c0-1.7 1.3-3 3-3s3 1.3 3 3v1h-1c-.6 0-1 .4-1 1v4H9v-4c0-.6-.4-1-1-1H7v-1zm9.3 4.8l-.6 1.9c1.9.6 2.2 1.2 2.2 1.3 0 .5-2.8 2-8 2s-8-1.5-8-2c0-.1.4-.7 2.4-1.3l-.6-1.9C.7 17.7 0 19 0 20c0 2.7 5.2 4 10 4s10-1.3 10-4c0-.9-.6-2.3-3.7-3.2z"/></svg>