<svg id="Слой_1" xmlns="http://www.w3.org/2000/svg" viewBox="0 0 19 15"><style>.st0{fill:#9a9ea2}</style><path class="st0" d="M2.1 3.9C3.9 2.4 5.3 1.2 9 3.3c1.8 1 3.3 1.4 4.5 1.4 2.1 0 3.5-1.2 4.7-2.2.4-.4.5-1 .1-1.4-.4-.4-1-.5-1.4-.1-1.7 1.5-3.1 2.7-6.9.6C5-1.3 2.7.7.9 2.3c-.4.4-.5 1-.1 1.4.3.5.9.5 1.3.2zM16.9 6c-1.7 1.5-3.1 2.7-6.9.6-5-2.8-7.3-.8-9.1.8-.4.4-.5 1-.1 1.4.4.4 1 .5 1.4.1C3.9 7.5 5.3 6.3 9 8.4c1.8 1 3.3 1.4 4.5 1.4 2.1 0 3.5-1.2 4.7-2.2.4-.4.5-1 .1-1.4-.4-.5-1-.5-1.4-.2zm0 5.1c-1.7 1.5-3.1 2.7-6.9.6-5-2.8-7.3-.8-9.1.8-.4.4-.5 1-.1 1.4.4.4 1 .5 1.4.1 1.7-1.5 3.1-2.7 6.9-.6 1.8 1 3.3 1.4 4.5 1.4 2.1 0 3.5-1.2 4.7-2.2.4-.4.5-1 .1-1.4-.5-.4-1.1-.4-1.5-.1z"/></svg>