<svg id="Слой_1" xmlns="http://www.w3.org/2000/svg" viewBox="0 0 15 14"><style>.st0{fill:#5e9e02}</style><path class="st0" d="M7.5 1c3.3 0 6 2.7 6 6s-2.7 6-6 6-6-2.7-6-6 2.7-6 6-6m0-1c-3.9 0-7 3.1-7 7s3.1 7 7 7 7-3.1 7-7-3.1-7-7-7z"/><path class="st0" d="M8.2 7.9c.1-.2.3-.4.6-.6.7-.6 1.1-1 1.2-1.3.2-.3.3-.6.3-.9 0-.6-.3-1.1-.8-1.6s-1.1-.7-2-.7c-.8 0-1.5.2-2 .7-.5.4-.8 1-.8 1.6l1.4.2c.1-.4.3-.8.5-1 .3-.2.6-.3 1-.3s.7.1.9.3c.2.2.4.4.4.7 0 .2-.1.4-.2.6-.1.1-.4.3-.8.7-.5.4-.8.7-.9 1-.2.3-.2.6-.2 1.1v.4h1.4c-.1-.5 0-.8 0-.9zm.1 3.3V9.7H6.8v1.5h1.5z"/></svg>