<svg xmlns="http://www.w3.org/2000/svg" preserveAspectRatio="xMidYMid" width="30.093" height="32" viewBox="0 0 30.093 32"><defs><style>.cls-1{fill:#83ad01;fill-rule:evenodd}</style></defs><path d="M25.923 20.372c1.11 3.886-1.36 7.678-4.894 4.372-1.216-1.138-3.1-4.322-2.519-3.32 2.017 3.482 2.167 7.428 2.167 7.428l-4.185 3.138c2.69-5.678 1.494-8.219.768-10.288a31.912 31.912 0 0 1-.417 2.36c-.333 1.576-.733 3.081-.949 4.043 0 0-3.919 5.563-7.19-2.003-3.952.845-7.569-1.876-4.032-5.179a45.967 45.967 0 0 1 5.209-4.198c-2.502-.063-6.144-.763-8.035-1.323 0 0-5.466-4.114 2.304-6.867-.576-4 2.382-7.425 5.438-3.673a45.574 45.574 0 0 1 3.972 5.708c-.138-1.942.507-6.962 1.288-9.067 0 0 5.074-4.913 7.296 3.025 4.03-.305 7.247 2.878 3.297 5.674a46.532 46.532 0 0 1-4.35 2.73c2.626-.023 6.085.248 7.608.482 0 0 4.552 3.184-2.776 6.958zm-10.399-7.169a1.981 1.981 0 1 0 0 3.962 1.981 1.981 0 0 0 0-3.962z" class="cls-1"/></svg>