<svg xmlns="http://www.w3.org/2000/svg" preserveAspectRatio="xMidYMid" width="20" height="20" viewBox="0 0 20 20"><defs><style>.cls-1{fill:#aece80;fill-rule:evenodd}</style></defs><path d="M14.705 20a5.22 5.22 0 0 1-2.089-.434.878.878 0 0 1-.208-.075A26.916 26.916 0 0 1 .509 7.592a.976.976 0 0 1-.079-.217A5.23 5.23 0 0 1 0 5.295C0 2.313 2.517 0 4.682 0a2.21 2.21 0 0 1 1.855.999L9.17 4.385a2.215 2.215 0 0 1 .145 2.867 1.054 1.054 0 0 1-.089.101l-.87.864a.998.998 0 0 1 .198.315 14.639 14.639 0 0 0 2.946 2.925.993.993 0 0 1 .279.177l.86-.866a1.11 1.11 0 0 1 .104-.091c.853-.65 2.096-.574 2.865.146l2.62 2.038a1 1 0 0 1-1.229 1.578l-2.661-2.07a1.006 1.006 0 0 1-.092-.081c-.042-.044-.151-.099-.254-.044l-.899.906a1.204 1.204 0 0 1-.052.049c-.67.658-1.839.659-2.514.024l-.028-.019a16.601 16.601 0 0 1-3.741-3.741 1.82 1.82 0 0 1 .153-2.623l.839-.839c.023-.044.023-.079.023-.092a.226.226 0 0 0-.067-.161 1.029 1.029 0 0 1-.082-.093L4.93 2.191a.975.975 0 0 1-.059-.084c-.06-.071-.112-.108-.189-.108C3.623 1.999 2 3.476 2 5.295c0 .485.107.958.32 1.407.023.05.042.1.057.152a24.921 24.921 0 0 0 10.772 10.771.85.85 0 0 1 .15.056c.446.211.919.319 1.406.319 1.808 0 3.278-1.604 3.295-2.664l-.001-.025a1 1 0 0 1 1.999-.061l.002.068C20 17.483 17.687 20 14.705 20z" class="cls-1"/></svg>