<svg xmlns="http://www.w3.org/2000/svg" preserveAspectRatio="xMidYMid" width="27.188" height="32" viewBox="0 0 27.188 32"><defs><style>.cls-1{fill:#ef7713;fill-rule:evenodd}</style></defs><path d="M27.174 10.072c-.126 1.762-3.145 5.284-3.145 5.284s1.132 0 2.264.755c-.629 1.887-4.655 3.774-4.655 3.774l3.146 3.397s-5.266 3.086-10.447.969c-.134 2.145-.496 4.974-1.437 7.167-.408.953-2.973.7-1.528-.535 1.057-.902 1.632-4.03 1.721-6.737-5.262 2.329-10.702-.864-10.702-.864l3.145-3.397S1.51 17.998.881 16.111c1.133-.755 2.265-.755 2.265-.755S.126 11.834 0 10.072c2.139-.251 3.901.63 3.901.63s-.252-1.007.377-2.139c1.761.251 4.529 3.019 4.906 3.648.377.63-1.887-4.403-1.132-6.793 1.258 0 3.271.881 3.271.881s0-4.662 2.264-6.296c2.264 1.634 2.264 6.296 2.264 6.296s2.014-.881 3.271-.881c.755 2.39-1.51 7.423-1.132 6.793.377-.629 3.146-3.397 4.907-3.648.628 1.132.377 2.139.377 2.139s1.761-.881 3.9-.63z" class="cls-1"/></svg>