<svg xmlns="http://www.w3.org/2000/svg" preserveAspectRatio="xMidYMid" width="14.25" height="17.82" viewBox="0 0 14.25 17.82"><defs><style>.cls-1{fill:#497099;fill-rule:evenodd}</style></defs><path d="M13.252 9.468c-.662-.714-1.543-1.186-2.643-1.417v-.096a3.838 3.838 0 0 0 1.8-1.495c.434-.677.652-1.451.652-2.32 0-.749-.158-1.411-.473-1.985-.315-.574-.791-1.032-1.429-1.375A5.721 5.721 0 0 0 9.264.152C8.59.052 7.6.003 6.292.003H.002v17.806h7.127c1.236 0 2.254-.112 3.056-.335a6.264 6.264 0 0 0 2.206-1.124 4.77 4.77 0 0 0 1.351-1.663c.335-.669.502-1.447.502-2.331 0-1.212-.33-2.175-.992-2.888zM8.313 6.065c-.136.296-.383.527-.741.694a2.57 2.57 0 0 1-.951.251 36.04 36.04 0 0 1-1.608.024h-.562V3.267h.31c.798 0 1.398.006 1.8.018.403.012.752.082 1.047.209.31.136.54.355.687.658.148.303.221.598.221.885 0 .391-.067.734-.203 1.028zm1.046 7.361c-.187.339-.484.596-.89.771-.463.2-.917.307-1.364.323-.446.016-1.251.024-2.415.024h-.239v-4.461h.825c.797 0 1.433.006 1.907.018.474.012.847.07 1.118.174.447.159.781.394 1.005.705.223.311.335.742.335 1.292 0 .43-.094.815-.282 1.154z" class="cls-1"/></svg>