<svg xmlns="http://www.w3.org/2000/svg" preserveAspectRatio="xMidYMid" width="32.032" height="32.03" viewBox="0 0 32.032 32.03"><defs><style>.cls-1{fill:#cbcbcb;fill-rule:evenodd}</style></defs><path d="M30.927 15.847c-.601 0-1.09-.489-1.09-1.089 0-6.936-5.641-12.578-12.574-12.578a1.09 1.09 0 0 1 0-2.181c8.135 0 14.754 6.621 14.754 14.759 0 .6-.489 1.089-1.09 1.089zm-13.664-2.529a1.44 1.44 0 1 1-.003 2.879 1.44 1.44 0 0 1 .003-2.879zm6.472 2.529c-.601 0-1.09-.489-1.09-1.089a5.39 5.39 0 0 0-5.382-5.385 1.091 1.091 0 0 1 0-2.181c4.17 0 7.562 3.394 7.562 7.566 0 .6-.489 1.089-1.09 1.089zm-6.008 4.56c.009-.016.021-.029.03-.042a1.44 1.44 0 0 0 1.175.612c.426 0 .805-.19 1.067-.483l.005.004 1.699-1.713a2.133 2.133 0 0 1 2.819.189l6.088 4.737c.139.086.269.184.383.299.391.39.632.93.632 1.526h.012v.011c0 2.877-3.381 6.474-7.551 6.474a7.503 7.503 0 0 1-3.225-.73l-.023.023C12.22 26.986 5.028 19.793.701 11.173l.024-.024a7.527 7.527 0 0 1-.731-3.226C-.006 3.752 3.59.37 6.467.37c.595 0 1.135.241 1.525.633.115.115.212.246.299.383l4.735 6.091c.39.391.632.929.632 1.525 0 .488-.167.933-.441 1.292l-1.691 1.679.002.003a1.437 1.437 0 0 0 .111 2.283c-.017.01-.032.024-.049.035a27.485 27.485 0 0 0 6.137 6.113zm-7.739-4.953c-.016-.023-.032-.045-.047-.069a3.412 3.412 0 0 1 .17-4.793.48.48 0 0 1 .022-.024l1.543-1.532c.005-.015.005-.027.005-.034a.173.173 0 0 0-.054-.127 1.788 1.788 0 0 1-.162-.185L6.73 2.6a1.902 1.902 0 0 1-.112-.159c-.011-.017-.022-.035-.034-.05a.172.172 0 0 0-.117-.043c-1.775 0-4.495 2.498-4.495 5.575 0 .82.182 1.621.541 2.381.043.093.079.187.108.282 4.115 8.036 10.775 14.697 18.81 18.812.095.027.187.061.278.105a5.51 5.51 0 0 0 2.377.54c2.994 0 5.438-2.575 5.568-4.351a2.033 2.033 0 0 1-.006-.156.173.173 0 0 0-.053-.127 2.492 2.492 0 0 1-.199-.136l-6.089-4.737a2.137 2.137 0 0 1-.182-.161c-.055-.055-.111-.055-.129-.055-.006 0-.018 0-.035.006l-1.553 1.565a2.955 2.955 0 0 1-.099.094c-.636.618-1.49.97-2.377.97a3.417 3.417 0 0 1-2.33-.922 29.41 29.41 0 0 1-6.614-6.579z" class="cls-1"/></svg>