<svg xmlns="http://www.w3.org/2000/svg" preserveAspectRatio="xMidYMid" width="20" height="20" viewBox="0 0 20 20"><defs><style>.cls-1{fill:#8d959c;fill-rule:evenodd}</style></defs><path d="M10 20C4.486 20 0 15.514 0 9.999 0 4.486 4.486 0 10 0s10 4.486 10 9.999C20 15.514 15.514 20 10 20zm0-18C5.589 2 2 5.588 2 9.999 2 14.411 5.589 18 10 18s8-3.589 8-8.001C18 5.588 14.411 2 10 2zm5.014 8.382a.996.996 0 0 1-.217.325l-2.453 2.454a.999.999 0 1 1-1.414-1.414l.747-.747H5.909a1 1 0 0 1 0-2h5.768l-.747-.748a.999.999 0 1 1 1.414-1.414l2.453 2.453a1.021 1.021 0 0 1 .293.705l.001.003V10c0 .13-.027.259-.077.382z" class="cls-1"/></svg>