<svg xmlns="http://www.w3.org/2000/svg" preserveAspectRatio="xMidYMid" width="20.03" height="16.28" viewBox="0 0 20.03 16.28"><defs><style>.cls-1{fill:#00aced;fill-rule:evenodd}</style></defs><path d="M20.031 1.937a8.199 8.199 0 0 1-2.361.647A4.111 4.111 0 0 0 19.478.311a8.213 8.213 0 0 1-2.612.996 4.11 4.11 0 0 0-7.002 3.748A11.67 11.67 0 0 1 1.391.76a4.114 4.114 0 0 0-.555 2.069A4.11 4.11 0 0 0 2.664 6.25a4.127 4.127 0 0 1-1.863-.514v.051a4.112 4.112 0 0 0 3.298 4.03 4.101 4.101 0 0 1-1.856.072 4.112 4.112 0 0 0 3.839 2.853 8.246 8.246 0 0 1-5.104 1.76c-.332 0-.66-.019-.981-.057a11.644 11.644 0 0 0 6.3 1.846c7.562 0 11.695-6.262 11.695-11.695 0-.178-.004-.356-.011-.531a8.312 8.312 0 0 0 2.05-2.128" class="cls-1"/></svg>