<svg xmlns="http://www.w3.org/2000/svg" preserveAspectRatio="xMidYMid" width="20" height="20" viewBox="0 0 20 20"><defs><style>.cls-1{fill:#369;fill-rule:evenodd}</style></defs><path d="M16.134-.01H3.865A3.87 3.87 0 0 0 0 3.855v12.27a3.87 3.87 0 0 0 3.865 3.865h12.269A3.87 3.87 0 0 0 20 16.125V3.855A3.87 3.87 0 0 0 16.134-.01zm1.422 1.994l.442-.002v4.014l-4.004.012-.012-4.015 3.574-.009zM7.146 7.937A3.514 3.514 0 0 1 10 6.47c1.175 0 2.214.58 2.853 1.467.418.579.668 1.286.668 2.053A3.525 3.525 0 0 1 10 13.51a3.524 3.524 0 0 1-3.52-3.52 3.5 3.5 0 0 1 .666-2.053zm10.843 8.126c0 1.057-.797 1.916-1.855 1.916H3.865c-1.058 0-1.854-.859-1.854-1.916V8h2.923a5.122 5.122 0 0 0-.403 1.99A5.475 5.475 0 0 0 10 15.459a5.474 5.474 0 0 0 5.468-5.469c0-.725-.145-1.356-.403-1.99h2.924v8.063z" class="cls-1"/></svg>