<svg xmlns="http://www.w3.org/2000/svg" preserveAspectRatio="xMidYMid" width="20.88" height="17.91" viewBox="0 0 20.88 17.91"><defs><style>.cls-1{fill:#c33;fill-rule:evenodd}</style></defs><path d="M14.701 1.872V5.6c-.095.115-.209.21-.326.283-.126.075-.22.116-.305.116-.094 0-.168-.031-.21-.084-.054-.063-.075-.146-.075-.273v-3.77h-1.073v4.127c0 .317.064.547.19.705.125.158.317.232.558.232.211 0 .41-.053.631-.158a2.31 2.31 0 0 0 .61-.494v.578h1.074v-4.99h-1.074zm-3.272.004c-.285-.263-.652-.39-1.094-.39-.484 0-.873.127-1.168.369-.285.241-.43.556-.43.967v2.715c0 .453.145.799.419 1.063.284.262.663.399 1.126.399.484 0 .874-.126 1.147-.39.284-.252.421-.599.421-1.052V2.854c0-.4-.148-.726-.421-.978zm-.673 3.766a.434.434 0 0 1-.127.326.468.468 0 0 1-.347.126c-.136 0-.252-.042-.326-.126a.457.457 0 0 1-.116-.326V2.78c0-.115.043-.21.126-.273.075-.074.19-.105.316-.105a.54.54 0 0 1 .347.105.324.324 0 0 1 .127.273v2.862zM7.431.01l-.746 2.591H6.6L5.821.01H4.602l1.441 4.043v2.809h1.209V3.916L8.652.01H7.431zm8.364 12.594c.063.084.094.231.094.42v.484h-.831v-.484c0-.189.021-.336.096-.42.063-.085.168-.137.326-.137.147 0 .252.052.315.137zm-3.303-.022c-.063-.084-.169-.126-.295-.126a.464.464 0 0 0-.2.042.8.8 0 0 0-.199.148v2.967a.79.79 0 0 0 .231.168.576.576 0 0 0 .221.053c.127 0 .21-.032.262-.106.053-.062.085-.168.085-.326v-2.461c0-.159-.032-.274-.105-.359zm0 0c-.063-.084-.169-.126-.295-.126a.464.464 0 0 0-.2.042.8.8 0 0 0-.199.148v2.967a.79.79 0 0 0 .231.168.576.576 0 0 0 .221.053c.127 0 .21-.032.262-.106.053-.062.085-.168.085-.326v-2.461c0-.159-.032-.274-.105-.359zm5.397-3.672H2.971c-1.632 0-2.978 1.348-2.978 2.989v3.041a2.988 2.988 0 0 0 2.978 2.977h14.918a2.989 2.989 0 0 0 2.978-2.977v-3.041c0-1.641-1.347-2.989-2.978-2.989zm-10.899 2H5.874v5.607H4.801V10.91H3.696v-.998H6.99v.998zm2.915 5.607h-.957v-.525c-.168.199-.576.346-.765.441-.19.106-.369.158-.549.158-.219 0-.388-.074-.504-.221-.106-.137-.158-.347-.158-.631v-3.821h.947v3.495c0 .104.021.189.064.241.032.054.104.074.19.074.072 0 .376-.031.482-.105a.956.956 0 0 0 .293-.253v-3.452h.957v4.599zm3.67-.988c0 .336-.074.599-.221.778-.146.178-.368.273-.651.273a1.09 1.09 0 0 1-.496-.104 1.329 1.329 0 0 1-.409-.327v.368h-.927V9.912h.927v2.228c.126-.136.262-.252.409-.326a.983.983 0 0 1 .442-.115c.295 0 .527.105.684.305.159.2.242.494.242.884v2.641zm3.305-1.274h-1.822v.895c0 .252.021.421.085.516.063.105.179.146.326.146.158 0 .263-.041.326-.126.063-.073.094-.263.094-.536v-.222h.991v.242c0 .496-.127.863-.37 1.105-.23.252-.589.369-1.061.369-.433 0-.769-.127-1.011-.39-.241-.262-.368-.621-.368-1.084v-2.135c0-.411.137-.747.411-1.01.262-.253.609-.39 1.04-.39.433 0 .77.127 1 .369.232.242.359.578.359 1.031v1.22zm-4.683-1.799a.464.464 0 0 0-.2.042.8.8 0 0 0-.199.148v2.967a.79.79 0 0 0 .231.168.576.576 0 0 0 .221.053c.127 0 .21-.032.262-.106.053-.062.085-.168.085-.326v-2.461c0-.159-.032-.274-.105-.359-.063-.084-.169-.126-.295-.126zm.295.126c-.063-.084-.169-.126-.295-.126a.464.464 0 0 0-.2.042.8.8 0 0 0-.199.148v2.967a.79.79 0 0 0 .231.168.576.576 0 0 0 .221.053c.127 0 .21-.032.262-.106.053-.062.085-.168.085-.326v-2.461c0-.159-.032-.274-.105-.359zm0 0c-.063-.084-.169-.126-.295-.126a.464.464 0 0 0-.2.042.8.8 0 0 0-.199.148v2.967a.79.79 0 0 0 .231.168.576.576 0 0 0 .221.053c.127 0 .21-.032.262-.106.053-.062.085-.168.085-.326v-2.461c0-.159-.032-.274-.105-.359z" class="cls-1"/></svg>