<svg xmlns="http://www.w3.org/2000/svg" preserveAspectRatio="xMidYMid" width="28.594" height="32" viewBox="0 0 28.594 32"><defs><style>.cls-1{fill:#0561a8;fill-rule:evenodd}</style></defs><path d="M28.421 22.831l-3.749-2.171 3.747-2.152a.345.345 0 0 0 .128-.478l-.804-1.375a.346.346 0 0 0-.475-.125l-4.88 2.816-5.836-3.361 5.837-3.362 4.902 2.798a.349.349 0 0 0 .474-.128l.783-1.354a.35.35 0 0 0-.129-.477l-3.747-2.151 3.749-2.172a.35.35 0 0 0 .125-.479l-.804-1.354a.35.35 0 0 0-.473-.125l-3.75 2.153V5.01a.348.348 0 0 0-.348-.349h-1.565a.349.349 0 0 0-.349.349v5.635l-5.837 3.381V7.263l4.879-2.796a.35.35 0 0 0 .13-.477l-.783-1.373a.342.342 0 0 0-.212-.164.34.34 0 0 0-.266.034L15.42 4.659V.336a.35.35 0 0 0-.349-.349h-1.565a.35.35 0 0 0-.349.349v4.323L9.409 2.487a.34.34 0 0 0-.266-.034.34.34 0 0 0-.212.164L8.148 3.99a.35.35 0 0 0 .13.477l4.879 2.796v6.763L7.32 10.645V5.01a.349.349 0 0 0-.349-.349H5.385a.35.35 0 0 0-.349.349v4.324L1.287 7.181a.35.35 0 0 0-.475.128L.029 8.663a.349.349 0 0 0 .127.476l3.749 2.172-3.748 2.151a.35.35 0 0 0-.128.477l.783 1.354a.35.35 0 0 0 .475.128l4.881-2.798 5.855 3.362-5.855 3.361-4.88-2.816a.345.345 0 0 0-.478.129l-.782 1.375a.348.348 0 0 0 .129.474l3.748 2.152-3.749 2.171a.35.35 0 0 0-.127.477l.783 1.354a.347.347 0 0 0 .477.126l3.747-2.171v4.344a.35.35 0 0 0 .349.349h1.586a.35.35 0 0 0 .349-.349v-5.636l5.837-3.381v6.743l-4.9 2.817a.349.349 0 0 0-.128.478l.782 1.353a.35.35 0 0 0 .475.128l3.771-2.155v4.327c0 .192.156.348.349.348h1.565a.348.348 0 0 0 .349-.348v-4.327l3.771 2.155a.35.35 0 0 0 .475-.128l.782-1.353a.349.349 0 0 0-.128-.478l-4.9-2.817v-6.743l5.837 3.381v5.636a.35.35 0 0 0 .349.349h1.565a.35.35 0 0 0 .348-.349v-4.345l3.771 2.172c.167.098.38.04.475-.126l.783-1.354a.35.35 0 0 0-.127-.477z" class="cls-1"/></svg>