<svg xmlns="http://www.w3.org/2000/svg" preserveAspectRatio="xMidYMid" width="18" height="18" viewBox="0 0 18 18"><defs><style>.cls-1{fill:#ef4023;fill-rule:evenodd}</style></defs><path d="M15.361 15.372a8.937 8.937 0 0 1-6.364 2.636 8.94 8.94 0 0 1-6.364-2.636c-3.508-3.509-3.508-9.219 0-12.728A8.94 8.94 0 0 1 8.997.008c2.405 0 4.665.936 6.364 2.636a8.938 8.938 0 0 1 2.637 6.364 8.94 8.94 0 0 1-2.637 6.364zM13.947 4.058a6.954 6.954 0 0 0-4.95-2.05 6.95 6.95 0 0 0-4.949 2.05c-2.729 2.729-2.729 7.17 0 9.9a6.951 6.951 0 0 0 4.949 2.051c1.87 0 3.628-.729 4.95-2.051a6.955 6.955 0 0 0 2.051-4.95c0-1.87-.729-3.628-2.051-4.95zm-3.495 9.876H7.543a1 1 0 0 1 0-2h.455V9.008a1 1 0 0 1 2 0v2.926h.454a1 1 0 1 1 0 2zM8.998 6.973a1.542 1.542 0 0 1-1.539-1.54 1.54 1.54 0 1 1 1.539 1.54z" class="cls-1"/></svg>