<svg xmlns="http://www.w3.org/2000/svg" preserveAspectRatio="xMidYMid" width="32" height="32" viewBox="0 0 32 32"><defs><style>.cls-1{fill:#a9b0bb;fill-rule:evenodd}</style></defs><path d="M30 32.001H2c-1.103 0-2-.897-2-1.999v-2.001c0-.365.2-.702.521-.878l9.789-5.339c-3.278-3.547-3.314-8.563-3.314-8.795l.006-5.997a1 1 0 0 1 .014-.164C7.705 2.741 12.218-.004 16-.004h.004c3.78 0 8.291 2.743 8.982 6.829.009.055.014.111.014.166l.004 5.996c0 .232-.036 5.248-3.315 8.795l9.789 5.34A1 1 0 0 1 32 28v2.002a2.002 2.002 0 0 1-2 1.999zm0-1.999v.999-.999zM2 28.595v1.407h27.998l.001-1.407-10.478-5.717a1.001 1.001 0 0 1-.151-1.655c3.598-2.918 3.634-8.182 3.634-8.234L23 7.08c-.563-3.001-4.121-5.086-7-5.086-2.88.001-6.438 2.087-6.998 5.088l-.006 5.909c0 .051.056 5.331 3.634 8.234a1 1 0 0 1-.152 1.654L2 28.595z" class="cls-1"/></svg>