<svg xmlns="http://www.w3.org/2000/svg" preserveAspectRatio="xMidYMid" width="22.969" height="34" viewBox="0 0 22.969 34"><defs><style>.cls-1{fill:#cbcbcb;fill-rule:evenodd}</style></defs><path d="M12.322 33.55a1.006 1.006 0 0 1-1.678 0C10.209 32.895-.012 17.43-.012 11.434-.012 5.129 5.144 0 11.483 0c6.338 0 11.495 5.129 11.495 11.434 0 5.996-10.221 21.461-10.656 22.116zm-.839-31.551c-5.23 0-9.484 4.233-9.484 9.435 0 4.094 6.22 14.638 9.484 19.727 3.264-5.089 9.484-15.633 9.484-19.727 0-5.202-4.254-9.435-9.484-9.435zm-5.201 9.435c0-2.853 2.333-5.174 5.201-5.174 2.868 0 5.201 2.321 5.201 5.174s-2.333 5.174-5.201 5.174c-2.868 0-5.201-2.321-5.201-5.174zm8.392 0c0-1.75-1.432-3.174-3.191-3.174s-3.191 1.424-3.191 3.174 1.432 3.174 3.191 3.174 3.191-1.424 3.191-3.174z" class="cls-1"/></svg>