<svg version="1" xmlns="http://www.w3.org/2000/svg" viewBox="0 0 59 57"><path fill="#E70A0A" d="M57.6 32.7L53.1 37l.5 6.3c.1.9-.5 1.6-1.3 1.9L46.2 47l-2.5 5.8c-.3.8-1.2 1.2-2 1.1l-6.2-1.3-4.9 4c-.3.3-.7.4-1.1.4-.4 0-.8-.1-1.1-.4l-4.9-4-6.2 1.3c-.8.2-1.7-.3-2-1.1L12.8 47l-6.1-1.7c-.8-.2-1.4-1-1.3-1.9l.5-6.4-4.6-4.4c-.6-.6-.7-1.5-.3-2.3L4.4 25l-2-6c-.3-.8.1-1.7.8-2.1l5.5-3.2 1-6.2c.1-.8.9-1.5 1.7-1.5l6.3-.2 3.8-5c.5-.7 1.4-.9 2.2-.5L29.4 3 35.1.3c.8-.4 1.7-.1 2.2.5l3.8 5 6.4.2c.9 0 1.6.7 1.7 1.5l1 6.2 5.5 3.2c.7.4 1.1 1.3.8 2.1l-2 6 3.4 5.3c.5.8.3 1.8-.3 2.4z"/></svg>