<?xml version="1.0" standalone="no"?>
<!DOCTYPE svg PUBLIC "-//W3C//DTD SVG 1.1//EN" "http://www.w3.org/Graphics/SVG/1.1/DTD/svg11.dtd" >
<svg xmlns="http://www.w3.org/2000/svg">
<metadata></metadata>
<defs>
<font id="sommet_rounded_heavyheavy" horiz-adv-x="564" >
<font-face units-per-em="1000" ascent="630" descent="-370" />
<missing-glyph horiz-adv-x="226" />
<glyph unicode="ff" horiz-adv-x="766" d="M606 592v-64h93q10 0 18 -10t9 -22q2 -31 -4.5 -75.5t-21.5 -44.5h-94v-360q0 -14 -14 -21t-29 -7q-127 0 -127 28v360h-180v-360q0 -14 -14 -21t-29 -7q-127 0 -127 28v360h-52q-9 0 -17.5 10.5t-8.5 21.5q0 120 25 120h53v58q0 78 50 116t123 38q30 0 63 -5.5t61.5 -25 t18.5 -50.5l-9 -27t-12 -30.5t-16.5 -27.5t-15.5 -7q-37 12 -74 12q-19 0 -19 -27v-24h180v98q0 78 50 116t123 38q30 0 63 -5.5t61.5 -25t18.5 -50.5l-9 -27t-12 -30.5t-16.5 -27.5t-15.5 -7q-37 12 -74 12q-19 0 -19 -27z" />
<glyph unicode="fi" horiz-adv-x="716" d="M648 158q7 2 15.5 -7t16.5 -27.5t12 -30.5l9 -27q12 -37 -12 -48q-63 -30 -133 -30q-128 0 -128 152v236h-172v-360q0 -14 -14 -21t-29 -7q-127 0 -127 28v360h-52q-9 0 -17.5 10.5t-8.5 21.5q-1 36 4 78t21 42h53v98q0 78 50 116t123 38t131 -33q23 -13 12 -48l-9 -27 t-12 -30.5t-16.5 -27.5t-15.5 -7q-37 12 -74 12q-19 0 -19 -27v-64h315q10 0 18.5 -10t8.5 -22v-322q0 -17 1 -22t7 -5q8 0 42 11z" />
<glyph unicode="fl" horiz-adv-x="717" d="M648 158q7 2 15.5 -7t16.5 -27.5t12 -30.5l9 -27q12 -37 -12 -48q-63 -30 -133 -30q-128 0 -128 152v236h-172v-360q0 -14 -14 -21t-29 -7q-127 0 -127 28v360h-52q-9 0 -17.5 10.5t-8.5 21.5q-1 36 4 78t21 42h53v98q0 78 50 116t123 38t131 -33q23 -13 12 -48l-9 -27 t-12 -30.5t-16.5 -27.5t-15.5 -7q-37 12 -74 12q-19 0 -19 -27v-64h172v215q0 28 126 28q44 0 44 -41v-556q0 -17 1 -22t7 -5q8 0 42 11z" />
<glyph unicode="ffl" horiz-adv-x="1075" d="M1006 158q7 2 15.5 -7t16.5 -27.5t12 -30.5l9 -27q5 -18 3 -28q-6 -25 -56.5 -37.5t-91.5 -12.5q-128 0 -128 152v236h-180v-315q0 -29 -1.5 -41.5t-11 -22t-30.5 -9.5q-127 0 -127 28v360h-180v-315q0 -29 -1.5 -41.5t-11 -22t-30.5 -9.5q-127 0 -127 28v360h-52 q-9 0 -17.5 10.5t-8.5 21.5q0 120 25 120h53v58q0 78 50 116t123 38q20 0 44 -3.5t51 -11.5t41 -25.5t7 -40.5l-9 -27t-12 -30.5t-16.5 -27.5t-15.5 -7q-37 12 -74 12q-19 0 -19 -27v-24h180v98q0 78 50 116t123 38q20 0 44 -3.5t51 -11.5t41 -25.5t7 -40.5l-9 -27 t-12 -30.5t-16.5 -27.5t-15.5 -7q-37 12 -74 12q-19 0 -19 -27v-64h180v215q0 28 126 28q44 0 44 -41v-556q0 -17 1 -22t7 -5q4 0 10 2q7 1 32 9z" />
<glyph unicode="ffj" horiz-adv-x="1006" d="M606 592v-64h305q15 0 29 -7t14 -19v-522q0 -113 -41.5 -165t-129.5 -52q-18 0 -42 2t-57.5 12.5t-37.5 28.5q-3 11 2 28q35 111 59 103q32 -11 55 -11q9 0 13 4t6.5 21t2.5 52v373h-178v-315q0 -29 -1.5 -41.5t-11 -22t-30.5 -9.5q-127 0 -127 28v360h-180v-315 q0 -29 -1.5 -41.5t-11 -22t-30.5 -9.5q-127 0 -127 28v360h-52q-9 0 -17.5 10.5t-8.5 21.5q0 120 25 120h53v58q0 78 50 116t123 38q55 0 96 -15q60 -22 47 -66l-9 -27t-12 -30.5t-16.5 -27.5t-15.5 -7q-37 12 -74 12q-19 0 -19 -27v-24h180v98q0 78 50 116t123 38 q55 0 96 -15q60 -22 47 -66l-9 -27t-12 -30.5t-16.5 -27.5t-15.5 -7q-37 12 -74 12q-19 0 -19 -27z" />
<glyph unicode="fj" horiz-adv-x="650" d="M351 -63q33 -11 55 -11q9 0 13 4t6.5 21t2.5 52v373h-172v-360q0 -14 -14 -21t-29 -7q-127 0 -127 28v360h-52q-9 0 -17.5 10.5t-8.5 21.5q-1 36 4 78t21 42h53v98q0 78 50 116t123 38t131 -33q23 -13 12 -48l-9 -27t-12 -30.5t-16.5 -27.5t-15.5 -7q-37 12 -74 12 q-19 0 -19 -27v-64h315q10 0 18 -10t9 -22v-516q0 -113 -41.5 -165t-129.5 -52q-64 0 -121 25q-24 11 -14 46q34 110 59 103z" />
<glyph unicode=" "  horiz-adv-x="226" />
<glyph unicode="&#x09;" horiz-adv-x="226" />
<glyph unicode="&#xa0;" horiz-adv-x="226" />
<glyph unicode="!" horiz-adv-x="272" d="M56 271v499q0 26 125 26q16 0 29.5 -7.5t13.5 -18.5v-499q0 -12 -13 -19t-30 -7q-125 0 -125 26zM54 9v162q0 26 126 26q16 0 29.5 -7.5t13.5 -18.5v-162q0 -11 -13.5 -18.5t-29.5 -7.5q-126 0 -126 26z" />
<glyph unicode="&#x22;" horiz-adv-x="471" d="M204 703v-258q0 -11 -12.5 -20t-26.5 -9q-37 0 -81 6.5t-44 22.5v258q0 16 44.5 23t80.5 7q14 0 26.5 -9.5t12.5 -20.5zM431 703v-258q0 -11 -13 -20t-27 -9q-36 0 -80.5 6.5t-44.5 22.5v258q0 16 45 23t80 7q14 0 27 -9.5t13 -20.5z" />
<glyph unicode="#" horiz-adv-x="651" d="M601 156h-104l-39 -144q-2 -9 -17 -16.5t-29 -7.5q-26 0 -70 10t-40 25l37 133h-80l-39 -144q-2 -9 -17 -16.5t-29 -7.5q-26 0 -70 10t-40 25l37 133h-55q-11 0 -18 13t-7 28q0 118 25 118h99l16 59h-60q-11 0 -18 13t-7 28q0 118 25 118h105l43 155q4 10 32 7t55.5 -9.5 t37.5 -10.5q27 -10 16 -47l-26 -95h80l43 155q4 10 32 7t55.5 -9.5t37.5 -10.5q27 -10 16 -47l-26 -95h44q11 0 18 -12.5t7 -27.5q0 -119 -25 -119h-88l-17 -59h60q11 0 18 -12.5t7 -27.5q0 -119 -25 -119zM320 374l-17 -59h80l16 59h-79z" />
<glyph unicode="$" horiz-adv-x="613" d="M223 -93v85q-94 9 -158 37q-26 11 -14 48q1 3 5 14t6.5 19t7.5 20t9.5 20.5l9 17t9.5 12t10 2.5q142 -30 183 -30q89 0 89 42q0 27 -31 51.5t-75 47.5t-87.5 52.5t-74.5 79t-31 113.5q0 155 169 184v72q0 27 121 27q16 0 28.5 -7.5t12.5 -18.5v-69q78 -8 111 -25 q32 -18 20 -51q-2 -4 -5 -13t-4.5 -14.5t-5.5 -15t-6.5 -14.5t-7 -13.5t-8 -12t-9 -9.5t-10 -6.5t-11.5 -3t-14 1.5q-64 18 -110 18q-91 0 -91 -40q0 -27 31 -51.5t74.5 -47.5t87.5 -52.5t75 -79t31 -113.5q0 -99 -45.5 -141.5t-129.5 -50.5v-86q0 -11 -12.5 -18.5 t-28.5 -7.5q-121 0 -121 27z" />
<glyph unicode="%" horiz-adv-x="996" d="M580 234q0 159 174 159h24q174 0 174 -159v-84q0 -159 -174 -159h-24q-174 0 -174 159v84zM44 571q0 159 174 159h24q174 0 174 -159v-84q0 -159 -174 -159h-24q-174 0 -174 159v84zM729 704q13 -7 23 -19.5t5 -21.5l-43 -76l-341 -612q-4 -8 -20.5 -9.5t-28.5 2.5 q-24 6 -61.5 26.5t-30.5 34.5l391 701q8 14 45 1t61 -27zM254 484v60v13v12.5v11t-0.5 10t-1.5 8t-2.5 7t-4 5t-6 3.5t-7.5 1h-4q-11 0 -16 -7t-5.5 -15t-0.5 -27v-7v-45v-16.5v-15.5t0.5 -12.5t1.5 -11.5t3.5 -8t6.5 -5.5t10 -1.5h4q14 0 18 9.5t4 31.5zM790 147v60v13 v12.5v11t-0.5 10t-1.5 8t-2.5 7t-4 5t-6 3.5t-7.5 1h-4q-11 0 -16 -7t-5.5 -15t-0.5 -27v-7v-45v-16.5v-15.5t0.5 -12.5t1.5 -11.5t3.5 -8t6.5 -5.5t10 -1.5h4q14 0 18 9.5t4 31.5z" />
<glyph unicode="&#x26;" horiz-adv-x="858" d="M799 290h-96v-116q0 -17 1 -22t7 -5t15.5 3.5t24.5 9.5t27 10q7 2 15.5 -7t16.5 -27.5t12 -30.5l9 -27q5 -18 3 -27q-3 -14 -15 -21q-40 -23 -72 -32.5t-86 -9.5q-128 0 -128 152v150h-170q-93 0 -117 -8q-27 -11 -28 -34v-61q0 -29 36 -36.5t102 -7.5q71 0 117 10 q18 0 33.5 -47.5t15.5 -66.5q0 -40 -140 -50q-15 -1 -38 -1q-58 0 -109.5 10.5t-96.5 33.5t-71.5 64.5t-26.5 98.5v21q0 50 20 94t50 65q-22 16 -39.5 49.5t-17.5 72.5v25q0 114 75.5 161t219.5 47q118 0 150 -28q10 -10 10 -21q0 -24 -15 -71.5t-32 -44.5q-88 11 -117 11 q-64 0 -89 -9.5t-25 -34.5v-45q0 -28 31 -34.5t96 -6.5h17h159v103q0 26 127 26q16 0 25 -3.5t13 -13t4.5 -16.5t0.5 -21v-6v-69h96q11 0 19 -12.5t8 -27.5q0 -116 -27 -116z" />
<glyph unicode="'" horiz-adv-x="247" d="M204 695v-258q0 -11 -12.5 -20t-26.5 -9q-37 0 -81 6.5t-44 22.5v258q0 16 44.5 23t80.5 7q14 0 26.5 -9.5t12.5 -20.5z" />
<glyph unicode="(" horiz-adv-x="369" d="M230 319q0 -108 26 -213t85 -166q9 -9 -8.5 -35.5t-43.5 -45t-39 -7.5q-94 78 -145 208.5t-51 258.5t51 258.5t145 208.5q13 11 39 -7.5t43.5 -45t8.5 -35.5q-59 -61 -85 -166t-26 -213z" />
<glyph unicode=")" horiz-adv-x="369" d="M157 319q0 108 -26 213t-85 166q-9 9 8.5 35.5t43.5 45t39 7.5q94 -78 145 -208.5t51 -258.5t-51 -258.5t-145 -208.5q-13 -11 -39 7.5t-43.5 45t-8.5 35.5q59 61 85 166t26 213z" />
<glyph unicode="*" horiz-adv-x="506" d="M260 396l-18 31q-2 -4 -8.5 -16.5t-10 -18.5t-11.5 -14.5t-18 -12t-23 -3.5q-3 0 -21.5 9.5t-39 26.5t-20.5 33q0 22 12 33l33 40l-52 17q-21 5 -28 14t-7 38q0 14 19 47.5t45 33.5q15 0 33 -10q20 -8 30 -13l-3 49q0 34 10 43q10 11 61 11t61 -11q10 -9 10 -43l-4 -49 l31 13q15 10 33 10q26 0 45 -33.5t19 -47.5q0 -20 -4.5 -30.5t-10 -14t-20.5 -7.5l-52 -17l33 -40q12 -11 12 -33q0 -16 -20.5 -33t-39 -26.5t-21.5 -9.5q-34 0 -55 34z" />
<glyph unicode="+" horiz-adv-x="651" d="M245 23v163h-163q-11 0 -18 13t-7 28q0 118 25 118h163v162q0 11 13 18t28 7q118 0 118 -25v-162h162q11 0 18 -12.5t7 -27.5q0 -119 -25 -119h-162v-163q0 -11 -12.5 -18t-27.5 -7q-119 0 -119 25z" />
<glyph unicode="," horiz-adv-x="354" d="M250 50l-157 -196q-12 -15 -26.5 -22.5t-25 -9t-27.5 -1.5q-20 0 -11 33l60 217q8 26 145 26q19 0 32.5 -10t13.5 -23q0 -9 -4 -14z" />
<glyph unicode="-" horiz-adv-x="415" d="M344 206h-273q-11 0 -18 13t-7 28q0 118 25 118h273q11 0 18 -12.5t7 -27.5q0 -119 -25 -119z" />
<glyph unicode="." horiz-adv-x="250" d="M40 17v157q0 28 125 28q16 0 29.5 -8t13.5 -20v-157q0 -12 -13.5 -20t-29.5 -8q-125 0 -125 28z" />
<glyph unicode="/" horiz-adv-x="554" d="M436 748q12 -1 35.5 -8.5t44 -20.5t15.5 -24l-326 -726q-4 -8 -19 -11.5t-29 -1.5q-10 2 -25 6.5t-34 11.5t-30 16.5t-7 18.5l328 726q9 17 47 13z" />
<glyph unicode="0" horiz-adv-x="675" d="M338 -12h-2q-143 0 -216 74t-73 208v176q0 134 73 209t216 75h2q143 0 216 -75t73 -209v-176q0 -134 -73 -208t-216 -74zM225 419v-120q0 -158 111 -158h2q111 0 111 158v120q0 159 -111 159h-2q-111 0 -111 -159z" />
<glyph unicode="1" horiz-adv-x="398" d="M338 21q0 -12 -13 -22.5t-29 -10.5q-35 0 -82 7.5t-47 23.5v493l-41 -33q-7 -6 -37 11.5t-50 40.5q-35 41 -6 64l139 113q31 24 121 24q15 0 30 -9.5t15 -20.5v-681z" />
<glyph unicode="2" horiz-adv-x="590" d="M555 0h-484q-26 0 -26 39q0 20 7.5 61.5t16.5 54.5q183 179 239.5 251.5t56.5 109.5q0 36 -24 47.5t-63 11.5q-33 0 -136 -14q-7 -1 -13.5 6.5t-11.5 21.5t-9 26.5t-8 29t-5 19.5q-10 37 16 43q93 23 165 23q118 0 192.5 -52.5t74.5 -161.5q0 -54 -50 -132t-197 -229h259 q11 0 18.5 -13t7.5 -27q0 -115 -26 -115z" />
<glyph unicode="3" horiz-adv-x="570" d="M89 153q46 -10 117 -10h33t30.5 1.5t30 4t22.5 7.5t17 12.5t5 18.5v61q0 25 -27 33.5t-76 8.5h-40q-16 0 -25 42.5t-9 73.5q0 16 7.5 28t18.5 12h35q50 0 77 8t27 33v45q0 25 -25 34.5t-89 9.5q-43 0 -117 -11q-17 -3 -32 44.5t-15 71.5q0 49 160 49q144 0 219.5 -47 t75.5 -161v-25q0 -39 -17.5 -72.5t-39.5 -49.5q25 -17 47.5 -57t22.5 -80v-43q0 -56 -26 -98t-71 -65t-96.5 -33.5t-110.5 -10.5q-58 0 -118 12t-60 39q0 19 15.5 66.5t33.5 47.5z" />
<glyph unicode="4" horiz-adv-x="605" d="M325 136h-297q-9 0 -14.5 11t-5.5 25q0 81 23 109l337 432q14 18 95 18q33 0 33 -19v-421h66q12 0 19.5 -12.5t7.5 -27.5q0 -115 -26 -115h-67v-120q0 -12 -13.5 -20t-29.5 -8q-128 0 -128 28v120zM325 291v160l-126 -160h126z" />
<glyph unicode="5" horiz-adv-x="612" d="M513 565h-238l-3 -87q4 0 20 2t29 2q125 0 184 -56t59 -185v-11q0 -66 -22.5 -114t-63 -74.5t-90.5 -38.5t-112 -12q-82 0 -193 30q-25 7 -16 37q27 108 53 104q86 -17 138 -17q63 0 96 21.5t33 74.5q0 49 -17.5 67t-85.5 18q-40 0 -56 -17q-12 -13 -33 -13h-91 q-13 0 -16.5 7t-2.5 29l3 45l25 317q2 26 148 26h252q11 0 19.5 -11.5t8.5 -24.5t-1 -29.5t-3.5 -38.5t-8.5 -36.5t-15 -14.5z" />
<glyph unicode="6" horiz-adv-x="627" d="M506 597q-65 -29 -120.5 -64t-75 -52t-28.5 -27q55 15 104 15h9q192 0 192 -235v-7q0 -132 -64.5 -185.5t-205.5 -53.5h-7q-141 0 -205.5 54t-64.5 185v7q3 189 108 312.5t285 183.5q30 8 44 -7q21 -23 33 -71t-4 -55zM317 319h-7q-57 0 -74.5 -18.5t-17.5 -66.5v-7 q0 -48 17 -66.5t75 -18.5h7q58 0 75.5 19t17.5 66v7q0 48 -17.5 66.5t-75.5 18.5z" />
<glyph unicode="7" horiz-adv-x="570" d="M76 83l263 482h-281q-25 0 -25 115q0 15 7.5 27.5t18.5 12.5h476q9 0 16 -12t7 -24q0 -74 -13 -95l-326 -597q-14 -23 -126 48q-13 8 -18 20t1 23z" />
<glyph unicode="8" horiz-adv-x="656" d="M70 496q0 74 12 119.5t43 71.5t75 35t117 9h22q117 0 174 -30.5t69 -115.5q4 -33 4 -89q0 -49 -25.5 -80.5t-47.5 -39.5q3 -2 16 -8t21 -10.5t20.5 -16t19.5 -25.5t12.5 -37t5.5 -52q0 -73 -14.5 -119t-49.5 -72t-82.5 -35.5t-122.5 -9.5h-22q-145 0 -207 45.5t-62 176.5 q0 32 5.5 57.5t11.5 40.5t19 27.5t20 17t21.5 11.5t17.5 9q-22 8 -47.5 39.5t-25.5 80.5zM339 296h-22q-59 0 -75 -13t-16 -56q0 -29 1.5 -41t10.5 -23.5t27 -14.5t52 -3h22q59 0 75 13.5t16 54.5q0 53 -14 68t-77 15zM339 577h-22q-52 0 -63 -9.5t-11 -54.5q0 -43 11 -52.5 t62 -9.5h24q51 0 62 9.5t11 52.5q0 45 -11 54.5t-63 9.5z" />
<glyph unicode="9" horiz-adv-x="617" d="M121 131q65 29 120.5 64t75 52t28.5 27q-55 -15 -104 -15h-9q-192 0 -192 235v7q0 132 64.5 185.5t205.5 53.5h7q141 0 205.5 -54t64.5 -185v-7q-3 -189 -108 -312.5t-285 -183.5q-30 -8 -44 7q-21 23 -33 71t4 55zM310 409h7q57 0 74.5 18.5t17.5 66.5v7q0 48 -17 66.5 t-75 18.5h-7q-58 0 -75.5 -19t-17.5 -66v-7q0 -48 17.5 -66.5t75.5 -18.5z" />
<glyph unicode=":" horiz-adv-x="256" d="M46 10v162q0 26 125 26q16 0 29.5 -7.5t13.5 -18.5v-162q0 -11 -13.5 -18.5t-29.5 -7.5q-125 0 -125 26zM46 352v162q0 26 125 26q16 0 29.5 -7.5t13.5 -18.5v-162q0 -11 -13.5 -18.5t-29.5 -7.5q-125 0 -125 26z" />
<glyph unicode=";" horiz-adv-x="364" d="M280 158l-148 -200q-18 -24 -35 -29t-43 -3q-21 0 -12 34v-1l61 219q6 24 135 24q20 0 33 -9t13 -21q0 -9 -4 -14zM101 352v162q0 26 125 26q13 0 21.5 -4t13 -7.5t6.5 -14.5t2 -15.5v-19.5v-92v-20.5t-2 -15.5t-6.5 -14.5t-13 -7t-21.5 -3.5q-125 0 -125 26z" />
<glyph unicode="&#x3c;" horiz-adv-x="576" d="M524 519v-164l-237 -90l237 -91v-163l-456 180v148z" />
<glyph unicode="=" horiz-adv-x="654" d="M599 100h-544v152h544v-152zM599 308h-544v152h544v-152z" />
<glyph unicode="&#x3e;" horiz-adv-x="577" d="M53 355v164l457 -180v-148l-457 -180v163l237 91z" />
<glyph unicode="?" horiz-adv-x="551" d="M154 252v80q0 29 23 67t50.5 68.5t50.5 62t23 48.5q0 51 -71 51q-25 0 -48.5 -2.5t-45 -6.5t-26.5 -5t-10 3t-9 12t-7.5 15.5t-7 20t-5.5 19t-5 18t-3 12.5q-11 36 16 43q86 23 151 23q51 0 92.5 -9t78.5 -29t58 -59t21 -93q0 -36 -16 -69.5t-39 -58t-46.5 -46.5 t-39.5 -43.5t-16 -41.5v-59q0 -45 -35 -49q-134 0 -134 28zM154 16v137q0 28 126 28q28 0 35.5 -15.5t7.5 -47.5v-67q0 -21 -2 -32.5t-12 -21t-29 -9.5q-126 0 -126 28z" />
<glyph unicode="@" horiz-adv-x="888" d="M476 79q62 0 80 -45q15 -36 18 -55.5t-9 -30t-31.5 -13t-61.5 -2.5q-424 0 -424 342q0 83 25 152.5t67 116t97 78.5t114.5 46.5t120.5 14.5q157 0 262.5 -89.5t105.5 -218.5q0 -99 -60 -185.5t-156 -86.5q-60 0 -113 31q-63 -25 -100 -25q-73 0 -122.5 46.5t-49.5 117.5 q0 44 14 84.5t41.5 76t76 56.5t110.5 21q82 0 125 -43.5t43 -103.5q0 -31 -17 -71l-3.5 -7t-4 -8.5t-3 -8l-2.5 -7.5t-1 -6t1.5 -4.5t4.5 -1.5q19 0 38 37.5t19 87.5q0 70 -60.5 116.5t-148.5 46.5q-113 0 -188.5 -66t-75.5 -197q0 -63 20.5 -104t61 -60t82.5 -25.5 t104 -6.5zM426 254q30 0 50 25t20 59q0 20 -15 26.5t-33 -0.5q-24 -8 -40 -31t-16 -45q0 -15 10 -24.5t24 -9.5z" />
<glyph unicode="A" horiz-adv-x="669" d="M473 19l-30 96h-217l-29 -96q-9 -31 -141 -31q-16 0 -33.5 8t-17.5 25q0 4 2 10l240 671q10 28 37 28q130 0 140 -28l238 -671q2 -6 2 -10q0 -16 -18 -24.5t-33 -8.5q-130 0 -140 31zM334 468l-60 -192h120z" />
<glyph unicode="B" horiz-adv-x="697" d="M91 720h301q132 0 188.5 -51.5t56.5 -163.5v-14q0 -55 -23.5 -83t-54.5 -35q17 -6 29 -13t28 -21.5t24.5 -40t8.5 -60.5v-24q0 -110 -57 -162t-200 -52h-280q-17 0 -34.5 9t-17.5 17v668q0 8 9.5 17t21.5 9zM402 295h-162v-134h155q46 0 60 11.5t14 42.5v23 q0 32 -12.5 44.5t-54.5 12.5zM392 558h-152v-122h152q43 0 54 10.5t11 44.5v14q0 31 -11.5 42t-53.5 11z" />
<glyph unicode="C" horiz-adv-x="620" d="M233 419v-120q0 -44 3.5 -67.5t16 -44.5t39 -29t72.5 -8h7q73 0 155 24q10 3 25.5 -23.5t26 -56t10.5 -39.5q0 -32 -79 -49.5t-138 -17.5h-7q-165 0 -240.5 63.5t-75.5 217.5v180q0 154 75.5 217.5t240.5 63.5h7q59 0 138 -17.5t79 -49.5q0 -10 -10.5 -39.5t-26 -56 t-25.5 -23.5q-82 24 -155 24h-7q-46 0 -72.5 -8t-39 -29t-16 -44.5t-3.5 -67.5z" />
<glyph unicode="D" horiz-adv-x="696" d="M91 720h241q165 0 240.5 -63.5t75.5 -217.5v-158q0 -154 -75.5 -217.5t-240.5 -63.5h-220q-17 0 -34.5 9t-17.5 17v668q0 8 9.5 17t21.5 9zM332 559h-92v-398h92q85 0 108 32.5t23 116.5v100q0 84 -23 116.5t-108 32.5z" />
<glyph unicode="E" horiz-adv-x="604" d="M60 26v668q0 12 13 19t30 7h433q12 0 20 -13t8 -28q0 -120 -27 -120h-297v-113h240q12 0 20 -13t8 -28q0 -120 -27 -120h-241v-124h296q12 0 20 -13t8 -28q0 -120 -27 -120h-423q-17 0 -35.5 9t-18.5 17z" />
<glyph unicode="F" horiz-adv-x="572" d="M240 285v-265q0 -12 -14 -22t-29 -10q-39 0 -88 7.5t-49 24.5v672q0 11 12 19.5t26 8.5h438q12 0 20 -13t8 -28q0 -120 -27 -120h-297v-113h235q11 0 18.5 -13t7.5 -28q0 -120 -25 -120h-236z" />
<glyph unicode="G" horiz-adv-x="670" d="M233 419v-120q0 -44 3.5 -67.5t16 -44.5t39 -29t72.5 -8h7q33 0 73 5v203q0 15 51 22t92 7q13 0 24 -11.5t11 -25.5v-266q0 -29 -17 -39q-95 -54 -234 -57h-7q-165 0 -240.5 63.5t-75.5 217.5v180q0 154 75.5 217.5t240.5 63.5h7q59 0 138 -17.5t79 -49.5 q0 -10 -10.5 -39.5t-26 -56t-25.5 -23.5q-82 24 -155 24h-7q-46 0 -72.5 -8t-39 -29t-16 -44.5t-3.5 -67.5z" />
<glyph unicode="H" horiz-adv-x="725" d="M665 697v-677q0 -12 -14 -22t-29 -10q-38 0 -87.5 7.5t-49.5 24.5v271h-245v-271q0 -12 -14 -22t-29 -10q-39 0 -88 7.5t-49 24.5v677q0 17 49 25t88 8q15 0 29 -10.5t14 -22.5v-243h245v243q0 17 49.5 25t87.5 8q15 0 29 -10.5t14 -22.5z" />
<glyph unicode="I" horiz-adv-x="300" d="M240 16q0 -12 -14 -20t-30 -8q-136 0 -136 28v686q0 28 136 28q16 0 30 -8t14 -20v-686z" />
<glyph unicode="J" horiz-adv-x="300" d="M-17 -63q33 -11 55 -11q9 0 13 4t6.5 21t2.5 52v699q0 28 136 28q16 0 30 -8t14 -20v-722q0 -217 -181 -217q-64 0 -121 25q-24 11 -14 46q34 110 59 103z" />
<glyph unicode="K" horiz-adv-x="689" d="M239 16q0 -12 -13.5 -20t-29.5 -8q-136 0 -136 28v686q0 28 136 28q16 0 29.5 -8t13.5 -20v-303l221 303q23 28 138 28q52 0 52 -27q0 -16 -20 -40l-204 -280l243 -328q20 -24 20 -40q0 -27 -52 -27q-115 0 -138 28l-260 351v-351z" />
<glyph unicode="L" horiz-adv-x="548" d="M510 0h-373q-77 0 -77 26v676q0 28 137 28q16 0 29.5 -8t13.5 -20v-541h269q11 0 19 -13t8 -28q0 -120 -26 -120z" />
<glyph unicode="M" horiz-adv-x="1007" d="M807 21l-85 361l-140 -363q-12 -31 -45 -31q-100 0 -111 31l-139 363l-87 -361q-8 -33 -131 -33q-19 0 -36 11.5t-11 35.5l165 665q7 30 109 30q16 0 31 -8.5t20 -21.5l162 -417l156 417q11 30 114 30q16 0 29.5 -8.5t16.5 -21.5l160 -665q6 -24 -11 -35.5t-36 -11.5 q-123 0 -131 33z" />
<glyph unicode="N" horiz-adv-x="754" d="M694 14q0 -12 -13 -19t-30 -7q-116 0 -136 26l-277 398v-392q0 -12 -14 -22t-29 -10q-38 0 -86.5 7.5t-48.5 24.5v686q0 24 132 24q23 0 46 -32l277 -399v407q0 24 143 24q15 0 25.5 -9t10.5 -23v-684z" />
<glyph unicode="O" horiz-adv-x="737" d="M372 -11h-8q-165 0 -240.5 63.5t-75.5 217.5v179q0 154 75.5 217.5t240.5 63.5h8q165 0 241 -63.5t76 -217.5v-179q0 -154 -76 -217.5t-241 -63.5zM233 439v-159q0 -42 3 -63.5t16.5 -38.5t39.5 -22t72 -5h8q46 0 72 5t39.5 22t17 38.5t3.5 63.5v159q0 42 -3.5 63.5 t-17 38.5t-39.5 22t-72 5h-8q-46 0 -72 -5t-39.5 -22t-16.5 -38.5t-3 -63.5z" />
<glyph unicode="P" horiz-adv-x="654" d="M60 17v677q0 11 13.5 18.5t29.5 7.5h236q76 0 125 -9t86.5 -34t54.5 -70t17 -115v-35q0 -71 -15.5 -116t-53 -69.5t-86.5 -33t-128 -8.5h-100v-216q0 -12 -13 -19t-30 -7q-136 0 -136 29zM339 559h-100v-168h100q63 0 80 12t17 54v35q0 42 -17 54.5t-80 12.5z" />
<glyph unicode="Q" horiz-adv-x="737" d="M539 -32q6 1 13 -5.5t13.5 -20.5t11.5 -25.5t10.5 -27.5t6.5 -19q4 -11 4 -22q0 -24 -56 -42t-105 -18q-94 0 -130.5 54t-36.5 153q-114 15 -168 79.5t-54 195.5v179q0 154 75.5 217.5t240.5 63.5h8q165 0 241 -63.5t76 -217.5v-179q0 -137 -59.5 -201.5t-185.5 -76.5 q0 -38 10 -38q16 0 85 14zM233 419v-119q0 -43 3.5 -66.5t16 -45t39.5 -29.5t72 -8h8q45 0 72 8t40 29.5t16.5 45t3.5 66.5v119q0 43 -3.5 66.5t-16.5 45t-40 29.5t-72 8h-8q-45 0 -72 -8t-39.5 -29.5t-16 -45t-3.5 -66.5z" />
<glyph unicode="R" horiz-adv-x="668" d="M60 17v677q0 12 13 19t30 7h236q76 0 125 -9t86.5 -34t54.5 -70t17 -115v-35q0 -91 -29.5 -140t-91.5 -69l123 -198q14 -22 14 -36q0 -26 -57 -26q-119 0 -135 25l-137 217h-70v-216q0 -12 -13 -19t-30 -7q-136 0 -136 29zM349 559h-110v-168h110q61 0 74 11t13 55v35 q0 44 -13 55.5t-74 11.5z" />
<glyph unicode="S" horiz-adv-x="578" d="M86 182q143 -30 183 -30q89 0 89 42q0 27 -31.5 48t-76 40t-89 44t-76 71.5t-31.5 110.5q0 52 15.5 91.5t40.5 64t61 39.5t72.5 21t78.5 6q120 0 174 -29q33 -18 20 -51q-23 -78 -48 -95q-15 -10 -33 -5q-64 18 -110 18q-36 0 -63.5 -9.5t-27.5 -30.5q0 -27 31.5 -48 t76 -40t89 -44t76 -71.5t31.5 -110.5q0 -66 -21 -112t-59.5 -70t-84 -34t-104.5 -10q-134 0 -226 41q-26 11 -14 48q1 3 5 14t6.5 19t7.5 20t9.5 20.5l9 17t9.5 12t10 2.5z" />
<glyph unicode="T" horiz-adv-x="620" d="M400 558v-542q0 -12 -14 -20t-30 -8q-136 0 -136 28v542h-184q-12 0 -20 13t-8 28q0 120 27 120h549q12 0 20 -13t8 -28q0 -120 -27 -120h-185z" />
<glyph unicode="U" horiz-adv-x="755" d="M518 299v398q0 17 49 25t88 8q15 0 29 -10.5t14 -22.5v-428q0 -154 -76 -217.5t-241 -63.5h-8q-165 0 -241 63.5t-76 217.5v428q0 17 49 25t88 8q15 0 29 -10.5t14 -22.5v-398q0 -83 25.5 -116t111.5 -33h8q87 0 112 33t25 116z" />
<glyph unicode="V" horiz-adv-x="646" d="M329 268l128 436q7 26 133 26q23 0 42.5 -11t10.5 -36l-241 -678q-7 -17 -37 -17q-115 0 -121 17l-241 678q-9 25 10.5 36t42.5 11q133 0 139 -32z" />
<glyph unicode="W" horiz-adv-x="1063" d="M750 213l122 486q5 17 50 25t79 8q52 0 52 -40q0 -9 -3 -18l-219 -657q-10 -29 -42 -29q-118 0 -126 26l-131 405l-131 -402q-10 -29 -42 -29q-118 0 -126 26l-219 660q-3 9 -3 18q0 40 52 40q36 0 81 -7.5t48 -25.5l130 -486l120 486q5 17 50 25t79 8q41 0 52 -37z" />
<glyph unicode="X" horiz-adv-x="708" d="M662 668l-195 -306l198 -312q17 -30 4.5 -46t-46.5 -16q-119 0 -134 22l-134 209l-134 -209q-15 -22 -134 -22q-35 0 -47 16t5 46l198 312l-196 306q-17 29 -4.5 45.5t46.5 16.5q119 0 134 -22l132 -201l131 201q15 22 134 22q35 0 47 -16.5t-5 -45.5z" />
<glyph unicode="Y" horiz-adv-x="657" d="M418 287v-271q0 -12 -13.5 -20t-29.5 -8q-135 0 -135 28v271l-219 381q-17 32 -5 47t47 15q121 0 133 -22l132 -237l134 237q12 22 132 22q35 0 47 -15t-5 -47z" />
<glyph unicode="Z" horiz-adv-x="660" d="M608 0h-541q-13 0 -22 12t-9 28q0 99 19 114l328 405h-285q-25 0 -25 120q0 15 7.5 28t18.5 13h493q11 0 18 -12.5t7 -27.5q0 -94 -18 -115l-327 -404h335q12 0 20 -13t8 -28q0 -120 -27 -120z" />
<glyph unicode="[" horiz-adv-x="336" d="M56 -110v803q0 18 5 22.5t26 4.5h204q12 0 19 -12t7 -27q0 -112 -24 -112h-69v-558h70q23 0 23 -117q0 -13 -8 -23.5t-21 -10.5h-208q-16 0 -20 5t-4 25z" />
<glyph unicode="\" horiz-adv-x="513" d="M114 739q15 3 30 -1t20 -13l328 -726q11 -25 -96 -53q-15 -2 -30 1.5t-18 11.5l-327 727q-3 8 7 17t29 16.5t32.5 12t24.5 7.5z" />
<glyph unicode="]" horiz-adv-x="331" d="M283 693v-803q0 -20 -4 -25t-20 -5h-208q-13 0 -21 10.5t-8 23.5q0 117 23 117h70v558h-69q-24 0 -24 112q0 15 7 27t19 12h204q22 0 26.5 -4t4.5 -23z" />
<glyph unicode="^" horiz-adv-x="646" d="M582 391l-121 -96l-138 163l-138 -163l-121 96l259 284z" />
<glyph unicode="_" horiz-adv-x="530" d="M486 -158h-443q-11 0 -18 13t-7 28q0 118 25 118h443q11 0 18 -12.5t7 -27.5q0 -119 -25 -119z" />
<glyph unicode="`" horiz-adv-x="383" d="M113 833l113 -143l17 -22q5 -6 6 -15t-4 -15q-25 -14 -56.5 -12t-44.5 15l-185 148q-41 36 15 56q32 11 76 11q45 0 63 -23z" />
<glyph unicode="a" horiz-adv-x="527" d="M479 329v-240q0 -33 -33 -55.5t-86 -31t-90.5 -11.5t-74.5 -3q-92 0 -127.5 45t-35.5 133q0 39 5 63.5t21 47.5t49.5 34t86.5 11q19 0 115 -8v20q0 24 -13 38t-35 14q-25 0 -53 -4l-65 -10q-7 -1 -13.5 6t-12.5 22t-9 25.5t-8 28.5t-5 20q-5 14 0 27t17 16q90 20 145 20 q109 0 165.5 -54.5t56.5 -153.5zM309 122v72q-29 7 -64 7q-27 0 -35 -8.5t-8 -37.5q0 -25 8.5 -33t34.5 -8t64 8z" />
<glyph unicode="b" horiz-adv-x="569" d="M226 730v-225q72 32 134 32q34 0 59.5 -6t42.5 -14t28.5 -24.5t17.5 -29.5t9 -37.5t3.5 -40t0.5 -45.5v-151q0 -110 -36 -154t-124 -44q-219 0 -281 47q-24 19 -24 44v661q0 28 127 28q43 0 43 -41zM226 373v-230q0 -4 37 -8t63 -4q25 0 25 46v163q0 46 -25 46 q-64 0 -100 -13z" />
<glyph unicode="c" horiz-adv-x="484" d="M399 158q6 1 12 -6.5t11.5 -22t9.5 -27t8.5 -29t5.5 -19.5q10 -34 -17 -43q-76 -23 -160 -23q-114 0 -167.5 54t-53.5 160v121q0 106 53.5 160t167.5 54q70 0 160 -22q25 -7 17 -43q-7 -33 -20 -70.5t-27 -34.5q-104 19 -130 19q-30 0 -40.5 -22t-10.5 -64v-74 q0 -43 10.5 -65t40.5 -22q28 0 130 19z" />
<glyph unicode="d" horiz-adv-x="569" d="M521 730v-648q0 -25 -24 -44q-62 -47 -281 -47q-88 0 -124 44t-36 154v151q0 30 0.5 45.5t3.5 40t9 37.5t17.5 29.5t28.5 24.5t42.5 14t59.5 6q62 0 134 -32v238q0 28 127 28q43 0 43 -41zM351 373q-36 13 -100 13q-25 0 -25 -46v-163q0 -46 25 -46q26 0 63 4t37 8v230z " />
<glyph unicode="e" horiz-adv-x="534" d="M470 19q-93 -31 -191 -31q-105 0 -168 54.5t-63 162.5v156q0 87 56 131.5t182 44.5h7q62 0 102.5 -13.5t59 -40.5t25 -55t6.5 -69v-54q0 -30 -18 -50t-79.5 -35t-170.5 -18q0 -29 16.5 -46.5t44.5 -17.5q60 0 162 25q25 6 46 -101q7 -35 -17 -43zM316 340v32 q0 20 -5.5 27t-25.5 7q-67 0 -67 -63v-20q23 0 60.5 4t37.5 13z" />
<glyph unicode="f" horiz-adv-x="419" d="M259 592v-64h93q10 0 18 -10t9 -22q2 -31 -4.5 -75.5t-21.5 -44.5h-94v-360q0 -14 -14 -21t-29 -7q-127 0 -127 28v360h-52q-9 0 -17.5 10.5t-8.5 21.5q-1 36 4 78t21 42h53v98q0 78 50 116t123 38t131 -33q23 -13 12 -48l-9 -27t-12 -30.5t-16.5 -27.5t-15.5 -7 q-37 12 -74 12q-19 0 -19 -27z" />
<glyph unicode="g" horiz-adv-x="569" d="M293 -87q50 0 50 45v65q-72 -32 -134 -32q-34 0 -59.5 6t-42.5 14t-28.5 24.5t-17.5 29.5t-9 37.5t-3.5 40t-0.5 45.5v151q0 110 36 154t124 44q22 0 65.5 -5t100.5 -15.5t98 -33t41 -51.5v-430q0 -44 -2 -72.5t-8.5 -59t-19 -48t-34 -32.5t-53.5 -21.5t-77 -6.5 q-139 0 -229 35q-27 11 -14 46q2 5 6 19t6.5 23t7.5 21t10.5 18t13.5 10t18 2q75 -23 155 -23zM343 145v236q0 4 -38 10t-62 6q-25 0 -25 -46v-173q0 -46 25 -46q64 0 100 13z" />
<glyph unicode="h" d="M346 16v302q0 68 -21 68q-18 0 -42 -2.5t-40.5 -5.5t-16.5 -5v-357q0 -12 -14 -20t-30 -8q-126 0 -126 28v729q3 26 126 26q16 0 29.5 -8t13.5 -20v-235q65 29 126 29q46 0 77.5 -11.5t48.5 -28t26 -45.5t11 -53t2 -62v-321q0 -12 -14.5 -20t-30.5 -8q-125 0 -125 28z " />
<glyph unicode="i" horiz-adv-x="333" d="M58 613v130q0 28 125 28q16 0 29.5 -8t13.5 -20v-130q0 -12 -13.5 -20t-29.5 -8q-125 0 -125 28zM276 158q7 2 15.5 -7t16.5 -27.5t12 -30.5l9 -27q12 -37 -12 -48q-63 -30 -133 -30q-128 0 -128 152v371q0 26 127 26q16 0 29.5 -7.5t13.5 -18.5v-337q0 -17 1 -22t7 -5 q8 0 42 11z" />
<glyph unicode="j" horiz-adv-x="274" d="M-21 -63q33 -11 55 -11q9 0 13 4t6.5 21t2.5 52v508q0 26 127 26q16 0 29.5 -7.5t13.5 -18.5v-531q0 -113 -41.5 -165t-129.5 -52q-64 0 -121 25q-24 11 -14 46q34 110 59 103zM56 613v130q0 28 127 28q16 0 29.5 -8t13.5 -20v-130q0 -12 -13.5 -20t-29.5 -8 q-127 0 -127 28z" />
<glyph unicode="k" horiz-adv-x="538" d="M226 730v-429l105 208q14 28 98 28q74 0 74 -30q0 -7 -7 -23l-102 -197q9 -16 30.5 -56t36.5 -67.5t32 -61t26 -55.5t9 -31q0 -28 -71 -28q-89 0 -105 32l-126 253v-244q0 -41 -43 -41q-127 0 -127 28v727q0 28 127 28q43 0 43 -41z" />
<glyph unicode="l" horiz-adv-x="333" d="M276 158q7 2 15.5 -7t16.5 -27.5t12 -30.5l9 -27q12 -37 -12 -48q-63 -30 -133 -30q-128 0 -128 152v603q0 28 126 28q44 0 44 -41v-556q0 -17 1 -22t7 -5q8 0 42 11z" />
<glyph unicode="m" horiz-adv-x="816" d="M323 16v327q0 15 -6 26.5t-11 11.5q-25 0 -45.5 -2.5t-29.5 -5.5t-9 -5v-352q0 -12 -13.5 -20t-29.5 -8q-127 0 -127 28v420q0 32 81.5 66.5t194.5 34.5q26 0 55.5 -10.5t42.5 -21.5q61 32 171 32q45 0 77 -11.5t49.5 -28t26.5 -45.5t11.5 -53.5t2.5 -61.5v-321 q0 -12 -13.5 -20t-29.5 -8q-127 0 -127 28v297q0 24 -3.5 40t-7.5 22t-8 6q-26 0 -45.5 -2.5t-28 -5.5t-8.5 -5v-352q0 -12 -14.5 -20t-30.5 -8q-125 0 -125 28z" />
<glyph unicode="n" d="M342 16v297q0 68 -21 68q-18 0 -42 -3t-40.5 -7.5t-16.5 -6.5v-348q0 -12 -13.5 -20t-29.5 -8q-127 0 -127 28v420q0 37 88.5 69t206.5 32q46 0 77.5 -11.5t48.5 -28t26 -45.5t11 -53t2 -62v-321q0 -12 -14.5 -20t-30.5 -8q-125 0 -125 28z" />
<glyph unicode="o" horiz-adv-x="559" d="M48 188v142q0 123 49.5 165t178.5 42h7q129 0 178.5 -42t49.5 -165v-142q0 -123 -49.5 -165t-178.5 -42h-7q-129 0 -178.5 42t-49.5 165zM273 131h13q36 0 46 10t10 46v144q0 36 -10 46t-46 10h-13q-36 0 -46 -10t-10 -46v-144q0 -36 10 -46t46 -10z" />
<glyph unicode="p" horiz-adv-x="569" d="M222 -211q0 -12 -13.5 -20t-29.5 -8q-127 0 -127 28v643q0 29 41 51.5t98 33t100.5 15.5t65.5 5q88 0 124 -44t36 -154v-151q0 -30 -0.5 -45.5t-3.5 -40t-9 -37.5t-17.5 -29.5t-28.5 -24.5t-42.5 -14t-59.5 -6q-62 0 -134 32v-234zM222 155q36 -13 100 -13q9 0 14.5 5.5 t7.5 21t2.5 24.5t0.5 32v75q0 23 -0.5 32t-2.5 24t-7.5 21t-14.5 6q-67 0 -100 -16v-212z" />
<glyph unicode="q" horiz-adv-x="569" d="M470 -238q-127 0 -127 28v233q-72 -32 -134 -32q-34 0 -59.5 6t-42.5 14t-28.5 24.5t-17.5 29.5t-9 37.5t-3.5 40t-0.5 45.5v151q0 110 36 154t124 44q32 0 97.5 -9t136.5 -34.5t71 -61.5v-643q-1 -11 -14.5 -19t-28.5 -8zM343 145v236q0 4 -38 10t-62 6q-25 0 -25 -46 v-173q0 -46 25 -46q64 0 100 13z" />
<glyph unicode="r" horiz-adv-x="391" d="M327 383q-19 3 -31 3q-22 0 -49 -7.5t-27 -15.5v-347q0 -12 -13.5 -20t-29.5 -8q-125 0 -125 28v420q0 32 80 66.5t166 34.5q24 0 54 -3q34 -3 27 -36q-4 -18 -7.5 -32t-10 -36.5t-15.5 -35t-19 -11.5z" />
<glyph unicode="s" horiz-adv-x="487" d="M82 162q87 -24 150 -24q61 0 61 20q0 11 -24.5 21.5t-59 23t-69.5 30.5t-59.5 53t-24.5 82q0 46 13 78.5t31.5 50t49.5 27t56.5 11.5t64.5 2q73 0 138 -20q28 -8 21 -43q-22 -108 -46 -103q-76 16 -113 16q-45 0 -45 -19q0 -9 24.5 -17.5t59 -20.5t69.5 -30.5t59.5 -55 t24.5 -86.5q0 -42 -12.5 -73t-32 -49.5t-50 -29.5t-60 -14.5t-67.5 -3.5q-113 0 -194 29q-25 12 -14 47q1 2 4 13t5 18.5t6 19t7.5 19.5t8 15.5t9 10.5t9.5 2z" />
<glyph unicode="t" horiz-adv-x="404" d="M353 376h-96v-202q0 -17 1 -22t7 -5t15.5 3.5t24.5 9.5t27 10q7 2 15.5 -7t16.5 -27.5t12 -30.5l9 -27q11 -35 -12 -48q-38 -23 -71 -32.5t-87 -9.5q-128 0 -128 152v236h-43q-11 0 -19 13t-8 28q0 118 27 118h43v103q0 26 127 26q16 0 29.5 -7.5t13.5 -18.5v-103h96 q11 0 19 -12.5t8 -27.5q0 -119 -27 -119z" />
<glyph unicode="u" d="M342 144v365q0 28 127 28q16 0 29.5 -8t13.5 -20v-435q0 -30 -89.5 -58t-205.5 -28q-46 0 -77.5 11.5t-48.5 28t-26 45.5t-11 53t-2 62v321q0 28 125 28q16 0 30.5 -8t14.5 -20v-314q0 -68 21 -68q18 0 42 3t40.5 7.5t16.5 6.5z" />
<glyph unicode="v" horiz-adv-x="484" d="M242 208l61 299q3 18 48 25.5t81 7.5q52 0 52 -40q0 -9 -3 -18l-155 -465q-10 -29 -42 -29q-119 0 -126 26l-155 468q-3 9 -3 18q0 40 52 40q36 0 81 -7.5t48 -25.5z" />
<glyph unicode="w" horiz-adv-x="761" d="M521 215l62 296q5 26 125 26q50 0 50 -35q0 -11 -4 -23l-145 -462q-9 -29 -43 -29q-119 0 -126 26l-60 232l-60 -229q-4 -13 -16.5 -21t-26.5 -8q-117 0 -125 26l-145 460q-4 11 -4 22q0 41 50 41q37 0 79 -6t45 -20l61 -296l65 293q6 29 107 29q38 0 42 -17z" />
<glyph unicode="x" horiz-adv-x="492" d="M353 272l128 -225q11 -18 11 -31q0 -28 -50 -28q-31 0 -74 5.5t-51 16.5l-71 146l-71 -146q-8 -12 -50 -17t-74 -5q-51 0 -51 29q0 11 12 30l128 225l-111 207q-11 22 -11 30q0 28 49 28q114 0 122 -23l57 -132l58 132q9 23 122 23q48 0 48 -28q0 -11 -10 -30z" />
<glyph unicode="y" d="M226 509v-297q0 -68 21 -68q28 0 63.5 5.5t35.5 10.5v349q0 12 13.5 20t29.5 8q127 0 127 -28v-506q0 -44 -2 -72.5t-8.5 -59t-19 -48t-34 -32.5t-53.5 -21.5t-77 -6.5q-146 0 -226 34q-27 11 -14 46q1 2 6 18t9 26t11 24t14 21t15 7q3 0 9 -2q67 -23 150 -23q50 0 50 45 v65q-80 -36 -125 -36q-46 0 -78 11.5t-48.5 28t-25.5 46t-11 53t-2 61.5v321q0 12 14.5 20t30.5 8q125 0 125 -28z" />
<glyph unicode="z" horiz-adv-x="534" d="M479 0h-417q-20 0 -26.5 15t-6.5 51q0 58 33 96l185 214h-131q-20 0 -33 5t-20.5 12t-10.5 23.5t-4 31t-1 42.5q0 13 7 21.5t21.5 12t24.5 4t27 0.5h325q9 0 17.5 -10t8.5 -21q0 -87 -26 -118l-188 -227h214q11 0 18.5 -12.5t7.5 -26.5q0 -113 -25 -113z" />
<glyph unicode="{" horiz-adv-x="423" d="M275 -141q-68 0 -101 41.5t-33 101.5v157q0 79 -75 79q-18 0 -18 93q0 32 19 32q75 0 75 79v157q0 60 33 101.5t101 41.5q107 0 107 -35q0 -40 -10 -84t-20 -44q-15 0 -21.5 -2t-11 -12t-4.5 -33q0 -16 0.5 -36t0.5 -43q0 -61 -20.5 -98t-69.5 -60q48 -15 68.5 -50 t20.5 -97q0 -22 -0.5 -42t-0.5 -37q0 -23 4.5 -33t11 -12t21.5 -2q10 0 20 -44t10 -84q0 -35 -107 -35z" />
<glyph unicode="|" horiz-adv-x="266" d="M56 -144v847q0 27 121 27q16 0 28.5 -7.5t12.5 -18.5v-849q0 -11 -12.5 -18.5t-28.5 -7.5q-121 0 -121 27z" />
<glyph unicode="}" horiz-adv-x="412" d="M155 -141q-107 0 -107 35q0 40 10 84t20 44q15 0 21.5 2t11 12t4.5 33q0 17 -0.5 37t-0.5 42q0 62 20.5 97t68.5 50q-49 23 -69.5 60t-20.5 98q0 23 0.5 43t0.5 36q0 23 -4.5 33t-11 12t-21.5 2q-10 0 -20 44t-10 84q0 35 107 35q68 0 101 -41.5t33 -101.5v-157 q0 -79 75 -79q19 0 19 -32q0 -93 -18 -93q-75 0 -75 -79v-157q0 -60 -33 -101.5t-101 -41.5z" />
<glyph unicode="~" horiz-adv-x="674" d="M420 142q-27 0 -60.5 13.5t-56 25.5t-46.5 10.5t-41 -25.5q-10 -15 -20 -16.5t-30 8.5l-74 36q-17 8 -17 20t8 21q68 124 169 124q37 0 92 -26t83 -26q18 0 29 25q2 5 4.5 8.5t4.5 6t5 3.5t5 2t6 0.5t5.5 -1t7 -2.5t7.5 -3l9 -4.5l9 -4.5l53 -25q25 -11 25.5 -26.5 t-12.5 -29.5q-71 -114 -165 -114z" />
<glyph unicode="&#xa1;" horiz-adv-x="246" d="M39 256q0 14 44 18l37 3l43 3q17 0 30.5 -9t13.5 -23v-490q0 -14 -13.5 -23t-30.5 -8q-82 4 -102 10q-26 8 -24 48q2 20 2 30v441zM33 510q-3 31 128 31q17 0 31 -8t14 -23v-153q0 -14 -13.5 -23t-31.5 -9q-19 0 -48 3t-46 7t-23.5 11.5t-7.5 12t0.5 17t1.5 18.5v78 q0 18 -5 38z" />
<glyph unicode="&#xa2;" horiz-adv-x="479" d="M307 -85q-121 0 -121 25v56q-138 33 -138 206v121q0 172 138 206v79q0 27 129 27q15 -1 24 -9q1 -2 3.5 -5.5t4 -6t1.5 -5.5v-78l20 -3q20 -4 40 -10.5t26 -14.5q6 -10 3 -25q0 -2 -3.5 -15.5t-5 -20.5t-5.5 -21t-7.5 -22t-8 -17t-9.5 -12.5t-10 -2.5q-51 9 -85 17l-25 4 q-36 3 -48.5 -19.5t-12.5 -68.5q0 -105 5 -125q10 -37 51 -37q11 -2 114 20q7 1 14 -6.5t13 -23.5t9.5 -28.5t8 -30.5t5.5 -21q2 -17 -3 -23q-11 -18 -86 -30v-56q0 -11 -12.5 -17.5t-28.5 -6.5z" />
<glyph unicode="&#xa3;" horiz-adv-x="577" d="M399 287h-67q2 -24 2 -35q0 -21 -14.5 -52t-31.5 -45h253q11 0 19 -12.5t8 -27.5q0 -116 -26 -116h-501q-21 0 -21 42q0 74 15 84q7 4 28.5 16t29 17t22 17t20 22t11 26.5t5.5 36.5q0 4 -0.5 13t-0.5 14h-94q-11 0 -18 13t-7 28q0 118 25 118h73q-1 10 -1 30v48 q0 208 241 208q59 0 152 -34q13 -6 15 -26q1 -18 -18.5 -63.5t-36.5 -49.5q-8 2 -29.5 7.5t-38 8.5t-33.5 3q-75 0 -75 -54v-48q0 -20 1 -30h93q11 0 18 -12.5t7 -27.5q0 -119 -25 -119z" />
<glyph unicode="&#xa4;" horiz-adv-x="665" d="M160 13l-112 104l52 45q-23 48 -23 104q0 52 23 103l-51 47l112 104l42 -38q62 34 127 34q71 0 130 -36l45 39l112 -103l-57 -50q21 -50 21 -100q0 -52 -21 -100l57 -50l-117 -102l-43 38q-57 -34 -127 -34q-68 0 -126 33zM233 267q0 -39 28.5 -67.5t67.5 -28.5 t67.5 28.5t28.5 67.5t-28.5 67.5t-67.5 28.5t-67.5 -28.5t-28.5 -67.5z" />
<glyph unicode="&#xa5;" horiz-adv-x="708" d="M541 103h-98v-87q0 -12 -13.5 -20t-29.5 -8q-135 0 -135 28v87h-100q-9 0 -14.5 10.5t-5.5 22.5q0 95 20 95h100v13h-100q-9 0 -14.5 10.5t-5.5 22.5q0 94 20 94h51l-170 297q-17 32 -5 47t47 15q121 0 133 -22l132 -237l134 237q12 22 132 22q35 0 47 -15t-5 -47 l-170 -297h51q20 0 20 -32q0 -95 -20 -95h-99v-13h98q9 0 14.5 -10t5.5 -22q0 -96 -20 -96z" />
<glyph unicode="&#xa6;" horiz-adv-x="266" d="M56 372v357q0 25 121 25q16 0 28.5 -7t12.5 -18v-358q0 -11 -12.5 -17.5t-28.5 -6.5q-121 0 -121 25zM56 -91v356q0 25 121 25q16 0 28.5 -6.5t12.5 -17.5v-358q0 -11 -12.5 -17.5t-28.5 -6.5q-121 0 -121 25z" />
<glyph unicode="&#xa7;" horiz-adv-x="495" d="M91 166q87 -36 150 -36q61 0 61 18q0 11 -24.5 21.5t-59 23t-69.5 30.5t-59.5 53t-24.5 82q0 74 31 113q-31 38 -31 91q0 34 6 59q9 37 29 60t51.5 33.5t59.5 13.5t69 3q80 0 138 -19q29 -10 21 -44q-27 -108 -51 -103q-68 15 -108 15q-14 0 -29.5 -4.5t-15.5 -13.5 t24.5 -17.5t59.5 -20.5t69.5 -30.5t59 -55t24.5 -86.5q0 -68 -32 -108q32 -40 32 -96q0 -31 -6 -55q-11 -46 -45.5 -72.5t-74.5 -34.5t-96 -8q-51 0 -127 15q-95 18 -99 50q-2 10 4 26q41 103 63 97zM302 352q0 11 -28 24q-13 0 -26 -5t-13 -13q0 -10 37 -23q30 4 30 17z " />
<glyph unicode="&#xa8;" horiz-adv-x="307" d="M167 661v158q0 27 125 27q16 0 29.5 -8t13.5 -20v-157q0 -12 -13.5 -20t-29.5 -8q-125 0 -125 28zM-30 661v158q0 27 126 27q16 0 29.5 -8t13.5 -20v-157q0 -12 -13.5 -20t-29.5 -8q-126 0 -126 28z" />
<glyph unicode="&#xa9;" horiz-adv-x="824" d="M411 -13q-89 0 -160.5 30.5t-115.5 81.5t-66.5 113.5t-22.5 131.5q0 70 24 135t68.5 117t115.5 83.5t158 31.5q117 0 201.5 -52.5t123 -131.5t39.5 -172q0 -70 -23.5 -135t-67.5 -117.5t-115 -84t-159 -31.5zM411 70q87 0 150.5 42.5t92 105.5t27.5 136 q-2 112 -72.5 193.5t-196.5 81.5t-197.5 -84.5t-72.5 -198.5q-1 -113 69.5 -194.5t199.5 -81.5zM362 372v-48q0 -20 1 -29t6 -19.5t16.5 -14t31.5 -3.5h4q46 0 93 15q7 2 17.5 -17t18 -40t7.5 -28q0 -22 -51 -33.5t-85 -11.5h-4q-97 0 -141.5 36t-44.5 124v92q0 88 44.5 124 t141.5 36h4q34 0 85 -12t51 -34q0 -6 -7.5 -27t-18 -40t-17.5 -17q-49 14 -93 14h-4q-20 0 -31.5 -3.5t-16.5 -14t-6 -19.5t-1 -30z" />
<glyph unicode="&#xaa;" horiz-adv-x="507" d="M369 564v-174q0 -24 -24 -40t-62 -22.5t-65.5 -8.5t-54.5 -2q-67 0 -92.5 32.5t-25.5 96.5q0 58 22.5 85.5t94.5 27.5q19 0 84 -5v14q0 17 -9.5 27.5t-25.5 10.5q-18 0 -38 -3l-47 -7q-5 -1 -10 4t-9 15.5t-6.5 18.5t-6 20.5t-3.5 14.5q-3 11 0 20t12 12q64 14 105 14 q79 0 120 -39.5t41 -111.5zM246 414v53q-27 5 -47 5q-19 0 -25 -6.5t-6 -27.5q0 -18 6 -23.5t25 -5.5q17 0 47 5z" />
<glyph unicode="&#xab;" horiz-adv-x="659" d="M492 281l90 -123q71 -86 17 -108q-26 -15 -78 -6t-72 32l-163 205l163 205q20 22 71.5 31t78.5 -5q54 -22 -17 -108zM224 281l99 -123q72 -86 18 -108q-26 -15 -78 -6t-72 32l-173 205l173 205q20 22 71 31t79 -5q54 -22 -18 -108z" />
<glyph unicode="&#xac;" horiz-adv-x="654" d="M55 421h544v-311h-159v159h-385v152z" />
<glyph unicode="&#xad;" horiz-adv-x="415" d="M352 206h-273q-11 0 -18 13t-7 28q0 118 25 118h273q11 0 18 -12.5t7 -27.5q0 -119 -25 -119z" />
<glyph unicode="&#xae;" horiz-adv-x="824" d="M411 -13q-89 0 -160.5 30.5t-115.5 81.5t-66.5 113.5t-22.5 131.5q0 70 24 135t68.5 117t115.5 83.5t158 31.5q117 0 201.5 -52.5t123 -131.5t39.5 -172q0 -70 -23.5 -135t-67.5 -117.5t-115 -84t-159 -31.5zM411 70q87 0 150.5 42.5t92 105.5t27.5 136 q-2 112 -72.5 193.5t-196.5 81.5t-197.5 -84.5t-72.5 -198.5q-1 -113 69.5 -194.5t199.5 -81.5zM252 167v377q0 14 30 14h139q90 0 131 -26t41 -107v-25q0 -91 -61 -120l61 -91q10 -17 10 -24q0 -18 -41 -18q-86 0 -95 14l-72 106h-15v-106q0 -14 -30 -14q-98 0 -98 20z M421 443h-41v-61h41q27 0 32.5 3t5.5 15v25q0 12 -5.5 15t-32.5 3z" />
<glyph unicode="&#xaf;" horiz-adv-x="354" d="M320 633h-291q-10 0 -20 11t-10 23q0 96 29 96h295q10 0 20.5 -11t10.5 -23q0 -34 -8 -65t-26 -31z" />
<glyph unicode="&#xb0;" horiz-adv-x="472" d="M236 790q81 0 125.5 -48t44.5 -113t-45 -112.5t-125 -47.5q-81 0 -126 48t-44 113t46 112.5t124 47.5zM236 654q-28 0 -30 -23q-1 -10 6.5 -17t22.5 -8t23 6t8 17t-8 17.5t-22 7.5z" />
<glyph unicode="&#xb1;" horiz-adv-x="662" d="M262 135v163h-163q-11 0 -18 13t-7 28q0 118 25 118h163v162q0 11 13 18t28 7q118 0 118 -25v-162h162q11 0 18 -12.5t7 -27.5q0 -119 -25 -119h-162v-163q0 -11 -12.5 -18t-27.5 -7q-119 0 -119 25zM584 -98h-502q-11 0 -18 13t-7 28q0 118 25 118h502q11 0 18 -12.5 t7 -27.5q0 -119 -25 -119z" />
<glyph unicode="&#xb2;" horiz-adv-x="385" d="M371 400h-322q-16 0 -16 32q0 17 4.5 52t10.5 44q153 134 153 167q0 5 -4.5 7t-15.5 1.5t-20.5 -2t-29 -4t-32.5 -4.5q-6 -1 -11.5 6t-10 19.5t-8 24t-6.5 24.5t-4 16q-8 32 7 36q70 18 118 18q79 0 126 -35t47 -107q0 -63 -104 -159h122q7 0 12 -11.5t5 -22.5 q0 -102 -21 -102z" />
<glyph unicode="&#xb3;" horiz-adv-x="378" d="M71 533q30 -5 74 -5q27 0 44 13q10 7 -1 16q-8 6 -24 6h-29q-15 0 -21.5 25t-6.5 47q0 13 5.5 23.5t13.5 10.5h30q16 0 24 6t7 12t0 8q-5 7 -36 7q-33 0 -75 -7q-16 -2 -28.5 41t-12.5 62q0 39 112 39q93 0 143.5 -30t50.5 -101v-22q0 -16 -13 -35.5t-25 -21.5 q15 -3 30.5 -21.5t15.5 -47.5v-34q0 -46 -31 -77t-73.5 -42.5t-93.5 -11.5q-40 0 -80.5 8.5t-40.5 30.5q0 15 13 58t28 43z" />
<glyph unicode="&#xb4;" horiz-adv-x="399" d="M38 696l156 201q8 11 34.5 6t49 -13t33.5 -14q49 -28 35 -42l-171 -157q-13 -11 -77 -10q-67 1 -64 21q1 4 4 8z" />
<glyph unicode="&#xb6;" horiz-adv-x="657" d="M424 16q0 -12 -14 -20t-30 -8q-136 0 -136 28v288q-74 0 -124.5 44t-62.5 106.5t-1.5 125t57 106.5t113.5 44h362q16 0 30 -8t14 -20v-686q0 -12 -14 -20t-30 -8q-136 0 -136 28v482h-28v-482z" />
<glyph unicode="&#xb7;" horiz-adv-x="306" d="M76 188v161q0 26 125 26q17 0 30 -7t13 -19v-161q0 -12 -13 -19t-30 -7q-125 0 -125 26z" />
<glyph unicode="&#xb8;" horiz-adv-x="330" d="M71 -82l58 124l140 -11l-38 -70q50 -10 63 -43.5t1 -87.5q-21 -86 -116 -110q-26 -10 -96 -8t-74 24q-4 23 11 52t50 22q11 -2 23 -2q29 0 45.5 11.5t20 22t3.5 21.5q0 14 -18 18t-38 3t-32 6.5t-3 27.5z" />
<glyph unicode="&#xb9;" horiz-adv-x="331" d="M257 415q0 -7 -12 -14.5t-24 -7.5q-10 0 -25.5 1t-37 3t-36.5 7.5t-15 13.5v230q-17 -10 -44.5 6t-45.5 42q-20 40 4 57l111 86q19 14 91 1q10 -2 22 -9t12 -11v-405z" />
<glyph unicode="&#xba;" horiz-adv-x="472" d="M236 790q81 0 125.5 -48t44.5 -113t-45 -112.5t-125 -47.5q-81 0 -126 48t-44 113t46 112.5t124 47.5zM236 654q-28 0 -30 -23q-1 -10 6.5 -17t22.5 -8t23 6t8 17t-8 17.5t-22 7.5z" />
<glyph unicode="&#xbb;" horiz-adv-x="659" d="M319 158l99 123l-99 123q-72 86 -18 108q28 14 79 5t71 -31l173 -205l-173 -205q-20 -23 -72 -32t-78 6q-54 22 18 108zM60 158l90 123l-90 123q-71 86 -17 108q27 14 78.5 5t71.5 -31l163 -205l-163 -205q-20 -23 -72 -32t-78 6q-54 22 17 108z" />
<glyph unicode="&#xbc;" horiz-adv-x="1072" d="M753 704q12 -6 21 -18.5t7 -22.5l-43 -76l-341 -612q-4 -8 -20.5 -9.5t-28.5 2.5q-23 6 -61 27t-31 34l391 701q6 15 44 1.5t62 -27.5zM822 62h-162q-10 0 -10 29q0 71 20 96l194 235q10 12 80 12q28 0 28 -9v-227h31q9 0 15 -11t6 -23q0 -102 -23 -102h-29v-56 q0 -8 -12 -12.5t-25 -4.5q-113 0 -113 23v50zM297 339q0 -7 -12 -14.5t-24 -7.5q-10 0 -25.5 1t-37 3t-36.5 7.5t-15 13.5v230q-17 -10 -44.5 6t-45.5 42q-20 40 4 57l111 86q19 14 91 1q10 -2 22 -9t12 -11v-405zM835 172v76l-63 -76h63z" />
<glyph unicode="&#xbd;" horiz-adv-x="1026" d="M708 713q11 -7 20 -19t8 -22l-43 -76l-342 -612q-4 -8 -20.5 -9.5t-28.5 2.5q-24 7 -61.5 27.5t-29.5 34.5l390 700q5 12 28.5 6.5t45.5 -15.5t33 -17zM956 -4h-322q-16 0 -16 32q0 17 4.5 52t10.5 44q153 134 153 167q0 5 -4.5 7t-15.5 1.5t-20.5 -2t-29 -4t-32.5 -4.5 q-6 -1 -11.5 6t-10 19.5t-8 24t-6.5 24.5t-4 16q-8 32 7 36q70 18 118 18q79 0 126 -35t47 -107q0 -63 -104 -159h122q7 0 12 -11.5t5 -22.5q0 -102 -21 -102zM297 339q0 -7 -12 -14.5t-24 -7.5q-10 0 -25.5 1t-37 3t-36.5 7.5t-15 13.5v230q-17 -10 -44.5 6t-45.5 42 q-20 40 4 57l111 86q19 14 91 1q10 -2 22 -9t12 -11v-405z" />
<glyph unicode="&#xbe;" horiz-adv-x="1045" d="M746 704q12 -6 21 -18.5t7 -22.5l-43 -76l-341 -612q-4 -8 -20.5 -9.5t-28.5 2.5q-23 6 -61 27t-31 34l391 701q6 15 44 1.5t62 -27.5zM89 457q30 -5 74 -5q27 0 44 13q10 7 -1 16q-8 6 -24 6h-29q-15 0 -21.5 25t-6.5 47q0 13 5.5 23.5t13.5 10.5h30q16 0 24 6t7 12t0 8 q-5 7 -36 7q-33 0 -75 -7q-16 -2 -28.5 41t-12.5 62q0 39 112 39q93 0 143.5 -30t50.5 -101v-22q0 -16 -13 -35.5t-25 -21.5q15 -3 30.5 -21.5t15.5 -47.5v-34q0 -46 -31 -77t-73.5 -42.5t-93.5 -11.5q-40 0 -80.5 8.5t-40.5 30.5q0 15 13 58t28 43zM795 62h-162 q-10 0 -10 29q0 71 20 96l194 235q10 12 80 12q28 0 28 -9v-227h31q9 0 15 -11t6 -23q0 -102 -23 -102h-29v-56q0 -8 -12 -12.5t-25 -4.5q-113 0 -113 23v50zM808 172v76l-63 -76h63z" />
<glyph unicode="&#xbf;" horiz-adv-x="551" d="M426 283v-80q0 -29 -23 -67t-50.5 -68.5t-50.5 -62t-23 -48.5q0 -51 71 -51q25 0 48.5 2.5t45 6.5t26.5 5t10 -3t9 -12t7.5 -15.5t7 -20t5.5 -19t5 -18t3 -12.5q11 -36 -16 -43q-86 -23 -151 -23q-51 0 -92.5 9t-78.5 29t-58 59t-21 93q0 36 16 69.5t39 58t46.5 46.5 t39.5 43.5t16 41.5v59q0 45 35 49q134 0 134 -28zM426 519v-137q0 -28 -126 -28q-28 0 -35.5 15.5t-7.5 47.5v67q0 21 2 32.5t12 21t29 9.5q126 0 126 -28z" />
<glyph unicode="&#xc0;" horiz-adv-x="669" d="M473 19l-30 96h-217l-29 -96q-9 -31 -141 -31q-16 0 -33.5 8t-17.5 25q0 4 2 10l240 671q10 28 37 28q130 0 140 -28l238 -671q2 -6 2 -10q0 -16 -18 -24.5t-33 -8.5q-130 0 -140 31zM238 963l113 -143l17 -22q5 -6 6 -15t-4 -15q-25 -14 -56.5 -12t-44.5 15l-185 148 q-41 36 15 56q32 11 76 11q45 0 63 -23zM334 468l-60 -192h120z" />
<glyph unicode="&#xc1;" horiz-adv-x="669" d="M473 19l-30 96h-217l-29 -96q-9 -31 -141 -31q-16 0 -33.5 8t-17.5 25q0 4 2 10l240 671q10 28 37 28q130 0 140 -28l238 -671q2 -6 2 -10q0 -16 -18 -24.5t-33 -8.5q-130 0 -140 31zM334 468l-60 -192h120zM275 810l156 201q8 11 34.5 6t49 -13t33.5 -14q49 -28 35 -42 l-171 -157q-13 -11 -77 -10q-67 1 -64 21q1 4 4 8z" />
<glyph unicode="&#xc2;" horiz-adv-x="669" d="M473 19l-30 96h-217l-29 -96q-9 -31 -141 -31q-16 0 -33.5 8t-17.5 25q0 4 2 10l240 671q10 28 37 28q130 0 140 -28l238 -671q2 -6 2 -10q0 -16 -18 -24.5t-33 -8.5q-130 0 -140 31zM334 468l-60 -192h120zM143 829q-10 10 -13 23.5t4 20.5l176 148q8 7 19 7t19 -7 l176 -148q7 -7 4 -20.5t-13 -23.5q-73 -86 -91 -70l-95 81l-95 -81q-18 -16 -91 70z" />
<glyph unicode="&#xc3;" horiz-adv-x="669" d="M473 19l-30 96h-217l-29 -96q-9 -31 -141 -31q-16 0 -33.5 8t-17.5 25q0 4 2 10l240 671q10 28 37 28q130 0 140 -28l238 -671q2 -6 2 -10q0 -16 -18 -24.5t-33 -8.5q-130 0 -140 31zM334 468l-60 -192h120zM318 764q-7 0 -28.5 6.5t-40 12t-36.5 4.5t-23 -13 q0 -4 -5 -7.5t-24.5 -1t-50.5 15.5q-22 11 -18 33q10 54 43.5 86.5t77.5 30.5q12 -1 38 -9t47.5 -14t41.5 -4t26 17q0 4 5 7.5t24.5 1t50.5 -15.5q22 -10 18 -33q-11 -61 -52 -90.5t-94 -26.5z" />
<glyph unicode="&#xc4;" horiz-adv-x="669" d="M473 19l-30 96h-217l-29 -96q-9 -31 -141 -31q-16 0 -33.5 8t-17.5 25q0 4 2 10l240 671q10 28 37 28q130 0 140 -28l238 -671q2 -6 2 -10q0 -16 -18 -24.5t-33 -8.5q-130 0 -140 31zM334 468l-60 -192h120zM349 792v158q0 27 125 27q16 0 29.5 -8t13.5 -20v-157 q0 -12 -13.5 -20t-29.5 -8q-125 0 -125 28zM152 792v158q0 27 126 27q16 0 29.5 -8t13.5 -20v-157q0 -12 -13.5 -20t-29.5 -8q-126 0 -126 28z" />
<glyph unicode="&#xc5;" horiz-adv-x="669" d="M473 19l-30 96h-217l-29 -96q-9 -31 -141 -31q-16 0 -33.5 8t-17.5 25q0 4 2 10l235 658q-54 36 -54 107q0 54 37.5 93.5t107.5 39.5q71 0 108.5 -39.5t37.5 -94.5q0 -66 -52 -103l235 -661q2 -6 2 -10q0 -16 -18 -24.5t-33 -8.5q-130 0 -140 31zM334 468l-60 -192h120z M333 762q20 0 30 11t10 25t-10 25.5t-30 11.5q-19 0 -29 -11.5t-10 -25.5t10 -25t29 -11z" />
<glyph unicode="&#xc6;" horiz-adv-x="1020" d="M467 26v89h-200l-64 -107q-15 -24 -144 -24q-21 0 -36.5 11t1.5 35q7 10 19.5 30t19.5 30l373 576q35 53 74 53h435q11 0 18.5 -13t7.5 -28q0 -120 -25 -120h-300v-112h242q12 0 19 -12.5t7 -28.5q0 -120 -25 -120h-243v-124h299q11 0 18.5 -13t7.5 -28q0 -120 -25 -120 h-424q-17 0 -36 9t-19 17zM362 276h105v171z" />
<glyph unicode="&#xc7;" horiz-adv-x="620" d="M247 -99l42 91q-124 12 -182.5 76.5t-58.5 200.5v180q0 154 75.5 217.5t240.5 63.5h7q59 0 138 -17.5t79 -49.5q0 -10 -10.5 -39.5t-26 -56t-25.5 -23.5q-82 24 -155 24h-7q-46 0 -72.5 -8t-39 -29t-16 -44.5t-3.5 -67.5v-120q0 -44 3.5 -67.5t16 -44.5t39 -29t72.5 -8h7 q73 0 155 24q10 3 25.5 -23.5t26 -56t10.5 -39.5q0 -24 -46.5 -40t-108.5 -22l-26 -49q50 -10 63 -43.5t1 -87.5q-21 -86 -116 -110q-26 -10 -96 -8t-74 24q-4 23 11 52t50 22q11 -2 23 -2q29 0 45.5 11.5t20 22t3.5 21.5q0 14 -18 18t-38 3t-32 6.5t-3 27.5z" />
<glyph unicode="&#xc8;" horiz-adv-x="604" d="M60 26v668q0 12 13 19t30 7h433q12 0 20 -13t8 -28q0 -120 -27 -120h-297v-113h240q12 0 20 -13t8 -28q0 -120 -27 -120h-241v-124h296q12 0 20 -13t8 -28q0 -120 -27 -120h-423q-17 0 -35.5 9t-18.5 17zM306 964l113 -143l17 -22q5 -6 6 -15t-4 -15q-25 -14 -56.5 -12 t-44.5 15l-185 148q-41 36 15 56q32 11 76 11q45 0 63 -23z" />
<glyph unicode="&#xc9;" horiz-adv-x="604" d="M60 26v668q0 12 13 19t30 7h433q12 0 20 -13t8 -28q0 -120 -27 -120h-297v-113h240q12 0 20 -13t8 -28q0 -120 -27 -120h-241v-124h296q12 0 20 -13t8 -28q0 -120 -27 -120h-423q-17 0 -35.5 9t-18.5 17zM292 810l156 201q8 11 34.5 6t49 -13t33.5 -14q49 -28 35 -42 l-171 -157q-13 -11 -77 -10q-67 1 -64 21q1 4 4 8z" />
<glyph unicode="&#xca;" horiz-adv-x="604" d="M60 26v668q0 12 13 19t30 7h433q12 0 20 -13t8 -28q0 -120 -27 -120h-297v-113h240q12 0 20 -13t8 -28q0 -120 -27 -120h-241v-124h296q12 0 20 -13t8 -28q0 -120 -27 -120h-423q-17 0 -35.5 9t-18.5 17zM151 817q-10 10 -13 23.5t4 20.5l176 148q8 7 19 7t19 -7 l176 -148q7 -7 4 -20.5t-13 -23.5q-73 -86 -91 -70l-95 81l-95 -81q-18 -16 -91 70z" />
<glyph unicode="&#xcb;" horiz-adv-x="604" d="M60 26v668q0 12 13 19t30 7h433q12 0 20 -13t8 -28q0 -120 -27 -120h-297v-113h240q12 0 20 -13t8 -28q0 -120 -27 -120h-241v-124h296q12 0 20 -13t8 -28q0 -120 -27 -120h-423q-17 0 -35.5 9t-18.5 17zM321 792v158q0 27 125 27q16 0 29.5 -8t13.5 -20v-157 q0 -12 -13.5 -20t-29.5 -8q-125 0 -125 28zM124 792v158q0 27 126 27q16 0 29.5 -8t13.5 -20v-157q0 -12 -13.5 -20t-29.5 -8q-126 0 -126 28z" />
<glyph unicode="&#xcc;" horiz-adv-x="300" d="M240 16q0 -12 -14 -20t-30 -8q-136 0 -136 28v686q0 28 136 28q16 0 30 -8t14 -20v-686zM96 964l113 -143l17 -22q5 -6 6 -15t-4 -15q-25 -14 -56.5 -12t-44.5 15l-185 148q-41 36 15 56q32 11 76 11q45 0 63 -23z" />
<glyph unicode="&#xcd;" horiz-adv-x="300" d="M240 16q0 -12 -14 -20t-30 -8q-136 0 -136 28v686q0 28 136 28q16 0 30 -8t14 -20v-686zM81 810l156 201q8 11 34.5 6t49 -13t33.5 -14q49 -28 35 -42l-171 -157q-13 -11 -77 -10q-67 1 -64 21q1 4 4 8z" />
<glyph unicode="&#xce;" horiz-adv-x="300" d="M240 16q0 -12 -14 -20t-30 -8q-136 0 -136 28v686q0 28 136 28q16 0 30 -8t14 -20v-686zM-38 829q-10 10 -13 23.5t4 20.5l176 148q8 7 19 7t19 -7l176 -148q7 -7 4 -20.5t-13 -23.5q-73 -86 -91 -70l-95 81l-95 -81q-18 -16 -91 70z" />
<glyph unicode="&#xcf;" horiz-adv-x="300" d="M240 16q0 -12 -14 -20t-30 -8q-136 0 -136 28v686q0 28 136 28q16 0 30 -8t14 -20v-686zM160 792v158q0 27 125 27q16 0 29.5 -8t13.5 -20v-157q0 -12 -13.5 -20t-29.5 -8q-125 0 -125 28zM-37 792v158q0 27 126 27q16 0 29.5 -8t13.5 -20v-157q0 -12 -13.5 -20t-29.5 -8 q-126 0 -126 28z" />
<glyph unicode="&#xd0;" horiz-adv-x="710" d="M118 719h228q165 0 240.5 -63.5t75.5 -217.5v-157q0 -154 -75.5 -217.5t-240.5 -63.5h-219q-17 0 -34.5 9t-17.5 17v243h-50q-11 0 -17.5 12.5t-6.5 27.5q0 119 24 119h50v265q0 12 13 19t30 7zM299 269h-45v-108h92q85 0 108 32.5t23 116.5v99q0 84 -23 116.5t-108 32.5 h-92v-130h44q11 0 18 -12.5t7 -27.5q0 -119 -24 -119z" />
<glyph unicode="&#xd1;" horiz-adv-x="754" d="M694 14q0 -12 -13 -19t-30 -7q-116 0 -136 26l-277 398v-392q0 -12 -14 -22t-29 -10q-38 0 -86.5 7.5t-48.5 24.5v686q0 24 132 24q23 0 46 -32l277 -399v407q0 24 143 24q15 0 25.5 -9t10.5 -23v-684zM416 764q-7 0 -28.5 6.5t-40 12t-36.5 4.5t-23 -13q0 -4 -5 -7.5 t-24.5 -1t-50.5 15.5q-22 11 -18 33q10 54 43.5 86.5t77.5 30.5q12 -1 38 -9t47.5 -14t41.5 -4t26 17q0 4 5 7.5t24.5 1t50.5 -15.5q22 -10 18 -33q-11 -61 -52 -90.5t-94 -26.5z" />
<glyph unicode="&#xd2;" horiz-adv-x="737" d="M372 -11h-8q-165 0 -240.5 63.5t-75.5 217.5v179q0 154 75.5 217.5t240.5 63.5h8q165 0 241 -63.5t76 -217.5v-179q0 -154 -76 -217.5t-241 -63.5zM233 439v-159q0 -42 3 -63.5t16.5 -38.5t39.5 -22t72 -5h8q46 0 72 5t39.5 22t17 38.5t3.5 63.5v159q0 42 -3.5 63.5 t-17 38.5t-39.5 22t-72 5h-8q-46 0 -72 -5t-39.5 -22t-16.5 -38.5t-3 -63.5zM346 964l113 -143l17 -22q5 -6 6 -15t-4 -15q-25 -14 -56.5 -12t-44.5 15l-185 148q-41 36 15 56q32 11 76 11q45 0 63 -23z" />
<glyph unicode="&#xd3;" horiz-adv-x="737" d="M372 -11h-8q-165 0 -240.5 63.5t-75.5 217.5v179q0 154 75.5 217.5t240.5 63.5h8q165 0 241 -63.5t76 -217.5v-179q0 -154 -76 -217.5t-241 -63.5zM233 439v-159q0 -42 3 -63.5t16.5 -38.5t39.5 -22t72 -5h8q46 0 72 5t39.5 22t17 38.5t3.5 63.5v159q0 42 -3.5 63.5 t-17 38.5t-39.5 22t-72 5h-8q-46 0 -72 -5t-39.5 -22t-16.5 -38.5t-3 -63.5zM327 810l156 201q8 11 34.5 6t49 -13t33.5 -14q49 -28 35 -42l-171 -157q-13 -11 -77 -10q-67 1 -64 21q1 4 4 8z" />
<glyph unicode="&#xd4;" horiz-adv-x="737" d="M372 -11h-8q-165 0 -240.5 63.5t-75.5 217.5v179q0 154 75.5 217.5t240.5 63.5h8q165 0 241 -63.5t76 -217.5v-179q0 -154 -76 -217.5t-241 -63.5zM233 439v-159q0 -42 3 -63.5t16.5 -38.5t39.5 -22t72 -5h8q46 0 72 5t39.5 22t17 38.5t3.5 63.5v159q0 42 -3.5 63.5 t-17 38.5t-39.5 22t-72 5h-8q-46 0 -72 -5t-39.5 -22t-16.5 -38.5t-3 -63.5zM182 829q-10 10 -13 23.5t4 20.5l176 148q8 7 19 7t19 -7l176 -148q7 -7 4 -20.5t-13 -23.5q-73 -86 -91 -70l-95 81l-95 -81q-18 -16 -91 70z" />
<glyph unicode="&#xd5;" horiz-adv-x="737" d="M372 -11h-8q-165 0 -240.5 63.5t-75.5 217.5v179q0 154 75.5 217.5t240.5 63.5h8q165 0 241 -63.5t76 -217.5v-179q0 -154 -76 -217.5t-241 -63.5zM233 439v-159q0 -42 3 -63.5t16.5 -38.5t39.5 -22t72 -5h8q46 0 72 5t39.5 22t17 38.5t3.5 63.5v159q0 42 -3.5 63.5 t-17 38.5t-39.5 22t-72 5h-8q-46 0 -72 -5t-39.5 -22t-16.5 -38.5t-3 -63.5zM377 764q-7 0 -28.5 6.5t-40 12t-36.5 4.5t-23 -13q0 -4 -5 -7.5t-24.5 -1t-50.5 15.5q-23 11 -18 33q10 54 43.5 86.5t77.5 30.5q12 -1 38 -9t47.5 -14t41.5 -4t26 17q0 4 5 7.5t24.5 1 t50.5 -15.5q23 -10 18 -33q-11 -61 -52 -90.5t-94 -26.5z" />
<glyph unicode="&#xd6;" horiz-adv-x="737" d="M372 -11h-8q-165 0 -240.5 63.5t-75.5 217.5v179q0 154 75.5 217.5t240.5 63.5h8q165 0 241 -63.5t76 -217.5v-179q0 -154 -76 -217.5t-241 -63.5zM233 439v-159q0 -42 3 -63.5t16.5 -38.5t39.5 -22t72 -5h8q46 0 72 5t39.5 22t17 38.5t3.5 63.5v159q0 42 -3.5 63.5 t-17 38.5t-39.5 22t-72 5h-8q-46 0 -72 -5t-39.5 -22t-16.5 -38.5t-3 -63.5zM387 792v158q0 27 125 27q16 0 29.5 -8t13.5 -20v-157q0 -12 -13.5 -20t-29.5 -8q-125 0 -125 28zM190 792v158q0 27 126 27q16 0 29.5 -8t13.5 -20v-157q0 -12 -13.5 -20t-29.5 -8 q-126 0 -126 28z" />
<glyph unicode="&#xd7;" horiz-adv-x="717" d="M358 163l-172 -150l-112 104l170 148l-169 151l112 104l171 -151l173 150l112 -103l-170 -150l170 -150l-117 -102z" />
<glyph unicode="&#xd8;" horiz-adv-x="741" d="M534 761q12 -1 35.5 -8.5t44 -20.5t15.5 -24l-18 -39q80 -66 80 -220v-179q0 -154 -76 -217.5t-241 -63.5h-8q-23 0 -59 2l-4 -9q-4 -8 -19 -11.5t-29 -1.5q-10 2 -25 6.5t-34 11.5t-30 16.5t-7 18.5l2 6q-111 60 -111 242v179q0 154 75.5 217.5t240.5 63.5h8 q48 0 101 -7l12 25q9 17 47 13zM235 439v-159q0 -53 6 -76l164 363q-5 0 -15 0.5t-16 0.5h-8q-46 0 -72 -5t-39.5 -22t-16.5 -38.5t-3 -63.5zM379 151q45 0 69.5 5.5t37.5 22.5t16.5 38t3.5 63v154z" />
<glyph unicode="&#xd9;" horiz-adv-x="755" d="M518 299v398q0 17 49 25t88 8q15 0 29 -10.5t14 -22.5v-428q0 -154 -76 -217.5t-241 -63.5h-8q-165 0 -241 63.5t-76 217.5v428q0 17 49 25t88 8q15 0 29 -10.5t14 -22.5v-398q0 -83 25.5 -116t111.5 -33h8q87 0 112 33t25 116zM287 963l113 -143l17 -22q5 -6 6 -15 t-4 -15q-25 -14 -56.5 -12t-44.5 15l-185 148q-41 36 15 56q32 11 76 11q45 0 63 -23z" />
<glyph unicode="&#xda;" horiz-adv-x="755" d="M518 299v398q0 17 49 25t88 8q15 0 29 -10.5t14 -22.5v-428q0 -154 -76 -217.5t-241 -63.5h-8q-165 0 -241 63.5t-76 217.5v428q0 17 49 25t88 8q15 0 29 -10.5t14 -22.5v-398q0 -83 25.5 -116t111.5 -33h8q87 0 112 33t25 116zM319 810l156 201q8 11 34.5 6t49 -13 t33.5 -14q49 -28 35 -42l-171 -157q-13 -11 -77 -10q-67 1 -64 21q1 4 4 8z" />
<glyph unicode="&#xdb;" horiz-adv-x="755" d="M518 299v398q0 17 49 25t88 8q15 0 29 -10.5t14 -22.5v-428q0 -154 -76 -217.5t-241 -63.5h-8q-165 0 -241 63.5t-76 217.5v428q0 17 49 25t88 8q15 0 29 -10.5t14 -22.5v-398q0 -83 25.5 -116t111.5 -33h8q87 0 112 33t25 116zM192 829q-10 10 -13 23.5t4 20.5l176 148 q8 7 19 7t19 -7l176 -148q7 -7 4 -20.5t-13 -23.5q-73 -86 -91 -70l-95 81l-95 -81q-18 -16 -91 70z" />
<glyph unicode="&#xdc;" horiz-adv-x="755" d="M518 299v398q0 17 49 25t88 8q15 0 29 -10.5t14 -22.5v-428q0 -154 -76 -217.5t-241 -63.5h-8q-165 0 -241 63.5t-76 217.5v428q0 17 49 25t88 8q15 0 29 -10.5t14 -22.5v-398q0 -83 25.5 -116t111.5 -33h8q87 0 112 33t25 116zM391 792v158q0 27 125 27q16 0 29.5 -8 t13.5 -20v-157q0 -12 -13.5 -20t-29.5 -8q-125 0 -125 28zM194 792v158q0 27 126 27q16 0 29.5 -8t13.5 -20v-157q0 -12 -13.5 -20t-29.5 -8q-126 0 -126 28z" />
<glyph unicode="&#xdd;" horiz-adv-x="657" d="M418 287v-271q0 -12 -13.5 -20t-29.5 -8q-135 0 -135 28v271l-219 381q-17 32 -5 47t47 15q121 0 133 -22l132 -237l134 237q12 22 132 22q35 0 47 -15t-5 -47zM290 810l156 201q8 11 34.5 6t49 -13t33.5 -14q49 -28 35 -42l-171 -157q-13 -11 -77 -10q-67 1 -64 21 q1 4 4 8z" />
<glyph unicode="&#xde;" horiz-adv-x="654" d="M239 14q0 -12 -13 -19t-30 -7q-136 0 -136 26v692q0 26 136 26q17 0 30 -7t13 -19v-117h100q151 0 217 -47.5t66 -182.5q0 -71 -17 -116.5t-55 -70.5t-88 -34t-127 -9h-96v-115zM339 428h-100v-138h100q62 0 79.5 13.5t17.5 55.5q0 43 -17.5 56t-79.5 13z" />
<glyph unicode="&#xdf;" horiz-adv-x="650" d="M347 479q0 27 -16 41t-38 14q-23 0 -41.5 -15t-18.5 -40v-462q0 -13 -13.5 -21t-30.5 -8q-129 0 -129 28v463q0 69 37 118t88 69t107 20q98 0 162.5 -55t64.5 -153q0 -64 -30 -117q105 -63 105 -156q0 -103 -74.5 -160t-214.5 -57h-5q-11 0 -18 12t-7 28q0 115 24 115h23 q41 0 69 17.5t28 44.5q0 15 -25.5 30t-56.5 27t-56.5 36t-25.5 55q0 29 14.5 48t31.5 26.5t31.5 20.5t14.5 31z" />
<glyph unicode="&#xe0;" horiz-adv-x="527" d="M479 329v-240q0 -33 -33 -55.5t-86 -31t-90.5 -11.5t-74.5 -3q-92 0 -127.5 45t-35.5 133q0 39 5 63.5t21 47.5t49.5 34t86.5 11q19 0 115 -8v20q0 24 -13 38t-35 14q-25 0 -53 -4l-65 -10q-7 -1 -13.5 6t-12.5 22t-9 25.5t-8 28.5t-5 20q-5 14 0 27t17 16q90 20 145 20 q109 0 165.5 -54.5t56.5 -153.5zM232 784l113 -143l17 -22q5 -6 6 -15t-4 -15q-25 -14 -56.5 -12t-44.5 15l-185 148q-41 36 15 56q32 11 76 11q45 0 63 -23zM309 122v72q-29 7 -64 7q-27 0 -35 -8.5t-8 -37.5q0 -25 8.5 -33t34.5 -8t64 8z" />
<glyph unicode="&#xe1;" horiz-adv-x="527" d="M479 329v-240q0 -33 -33 -55.5t-86 -31t-90.5 -11.5t-74.5 -3q-92 0 -127.5 45t-35.5 133q0 39 5 63.5t21 47.5t49.5 34t86.5 11q19 0 115 -8v20q0 24 -13 38t-35 14q-25 0 -53 -4l-65 -10q-7 -1 -13.5 6t-12.5 22t-9 25.5t-8 28.5t-5 20q-5 14 0 27t17 16q90 20 145 20 q109 0 165.5 -54.5t56.5 -153.5zM218 630l156 201q8 11 34.5 6t49 -13t33.5 -14q49 -28 35 -42l-171 -157q-13 -11 -77 -10q-67 1 -64 21q1 4 4 8zM309 122v72q-29 7 -64 7q-27 0 -35 -8.5t-8 -37.5q0 -25 8.5 -33t34.5 -8t64 8z" />
<glyph unicode="&#xe2;" horiz-adv-x="527" d="M479 329v-240q0 -33 -33 -55.5t-86 -31t-90.5 -11.5t-74.5 -3q-92 0 -127.5 45t-35.5 133q0 39 5 63.5t21 47.5t49.5 34t86.5 11q19 0 115 -8v20q0 24 -13 38t-35 14q-25 0 -53 -4l-65 -10q-7 -1 -13.5 6t-12.5 22t-9 25.5t-8 28.5t-5 20q-5 14 0 27t17 16q90 20 145 20 q109 0 165.5 -54.5t56.5 -153.5zM70 661q-10 10 -13 23.5t4 20.5l176 148q8 7 19 7t19 -7l176 -148q7 -7 4 -20.5t-13 -23.5q-73 -86 -91 -70l-95 81l-95 -81q-18 -16 -91 70zM309 122v72q-29 7 -64 7q-27 0 -35 -8.5t-8 -37.5q0 -25 8.5 -33t34.5 -8t64 8z" />
<glyph unicode="&#xe3;" horiz-adv-x="527" d="M479 329v-240q0 -33 -33 -55.5t-86 -31t-90.5 -11.5t-74.5 -3q-92 0 -127.5 45t-35.5 133q0 39 5 63.5t21 47.5t49.5 34t86.5 11q19 0 115 -8v20q0 24 -13 38t-35 14q-25 0 -53 -4l-65 -10q-7 -1 -13.5 6t-12.5 22t-9 25.5t-8 28.5t-5 20q-5 14 0 27t17 16q90 20 145 20 q109 0 165.5 -54.5t56.5 -153.5zM296 596q-7 0 -28.5 6.5t-40 12t-36.5 4.5t-23 -13q0 -4 -5 -7.5t-24.5 -1t-50.5 15.5q-22 11 -18 33q10 54 43.5 86.5t77.5 30.5q12 -1 38 -9t47.5 -14t41.5 -4t26 17q0 4 5 7.5t24.5 1t50.5 -15.5q22 -10 18 -33q-11 -61 -52 -90.5 t-94 -26.5zM309 122v72q-29 7 -64 7q-27 0 -35 -8.5t-8 -37.5q0 -25 8.5 -33t34.5 -8t64 8z" />
<glyph unicode="&#xe4;" horiz-adv-x="527" d="M479 329v-240q0 -33 -33 -55.5t-86 -31t-90.5 -11.5t-74.5 -3q-92 0 -127.5 45t-35.5 133q0 39 5 63.5t21 47.5t49.5 34t86.5 11q19 0 115 -8v20q0 24 -13 38t-35 14q-25 0 -53 -4l-65 -10q-7 -1 -13.5 6t-12.5 22t-9 25.5t-8 28.5t-5 20q-5 14 0 27t17 16q90 20 145 20 q109 0 165.5 -54.5t56.5 -153.5zM97 612v158q0 27 126 27q16 0 29.5 -8t13.5 -20v-157q0 -12 -13.5 -20t-29.5 -8q-126 0 -126 28zM294 612v158q0 27 125 27q16 0 29.5 -8t13.5 -20v-157q0 -12 -13.5 -20t-29.5 -8q-125 0 -125 28zM309 122v72q-29 7 -64 7q-27 0 -35 -8.5 t-8 -37.5q0 -25 8.5 -33t34.5 -8t64 8z" />
<glyph unicode="&#xe5;" horiz-adv-x="527" d="M479 329v-240q0 -33 -33 -55.5t-86 -31t-90.5 -11.5t-74.5 -3q-92 0 -127.5 45t-35.5 133q0 39 5 63.5t21 47.5t49.5 34t86.5 11q19 0 115 -8v20q0 24 -13 38t-35 14q-25 0 -53 -4l-65 -10q-7 -1 -13.5 6t-12.5 22t-9 25.5t-8 28.5t-5 20q-5 14 0 27t17 16q90 20 145 20 q109 0 165.5 -54.5t56.5 -153.5zM275 585q-71 0 -108 39t-37 93t37.5 93.5t107.5 39.5q71 0 108.5 -39.5t37.5 -94.5q0 -53 -38 -92t-108 -39zM309 122v72q-29 7 -64 7q-27 0 -35 -8.5t-8 -37.5q0 -25 8.5 -33t34.5 -8t64 8zM275 683q20 0 30 11t10 25t-10 25.5t-30 11.5 q-19 0 -29 -11.5t-10 -25.5t10 -25t29 -11z" />
<glyph unicode="&#xe6;" horiz-adv-x="804" d="M737 19q-93 -31 -191 -31q-76 0 -132 29q-77 -29 -215 -29q-92 0 -127.5 45t-35.5 133q0 39 5 63.5t21 47.5t49.5 34t86.5 11q19 0 115 -8v20q0 24 -13 38t-35 14q-25 0 -53 -4l-65 -10q-7 -1 -13.5 6t-12.5 22t-9 25.5t-8 28.5t-5 20q-5 14 0 27t17 16q90 20 145 20 q78 0 132 -30q60 30 160 30h7q62 0 102.5 -13.5t59 -40.5t25 -55t6.5 -69v-54q0 -30 -18 -50t-79.5 -35t-170.5 -18q0 -29 16.5 -46.5t44.5 -17.5q60 0 162 25q25 6 46 -101q7 -35 -17 -43zM313 122v72q-29 7 -64 7q-27 0 -35 -8.5t-8 -37.5q0 -25 8.5 -33t34.5 -8t64 8z M583 340v32q0 20 -5.5 27t-25.5 7q-67 0 -67 -63v-20q23 0 60.5 4t37.5 13z" />
<glyph unicode="&#xe7;" horiz-adv-x="484" d="M176 -78l33 71q-161 24 -161 209v121q0 106 53.5 160t167.5 54q70 0 160 -22q25 -7 17 -43q-7 -33 -20 -70.5t-27 -34.5q-104 19 -130 19q-30 0 -40.5 -22t-10.5 -64v-74q0 -43 10.5 -65t40.5 -22q28 0 130 19q6 1 12 -6.5t11.5 -22t9.5 -27t8.5 -29t5.5 -19.5 q10 -34 -17 -43q-37 -12 -78 -17l-15 -29q50 -10 63 -43.5t1 -87.5q-21 -86 -116 -110q-26 -10 -96 -8t-74 24q-4 23 11 52t50 22q11 -2 23 -2q29 0 45.5 11.5t20 22t3.5 21.5q0 14 -18 18t-38 3t-32 6.5t-3 27.5z" />
<glyph unicode="&#xe8;" horiz-adv-x="534" d="M470 19q-93 -31 -191 -31q-105 0 -168 54.5t-63 162.5v156q0 87 56 131.5t182 44.5h7q62 0 102.5 -13.5t59 -40.5t25 -55t6.5 -69v-54q0 -30 -18 -50t-79.5 -35t-170.5 -18q0 -29 16.5 -46.5t44.5 -17.5q60 0 162 25q25 6 46 -101q7 -35 -17 -43zM198 795l113 -143 l17 -22q5 -6 6 -15t-4 -15q-25 -14 -56.5 -12t-44.5 15l-185 148q-41 36 15 56q32 11 76 11q45 0 63 -23zM316 340v32q0 20 -5.5 27t-25.5 7q-67 0 -67 -63v-20q23 0 60.5 4t37.5 13z" />
<glyph unicode="&#xe9;" horiz-adv-x="534" d="M470 19q-93 -31 -191 -31q-105 0 -168 54.5t-63 162.5v156q0 87 56 131.5t182 44.5h7q62 0 102.5 -13.5t59 -40.5t25 -55t6.5 -69v-54q0 -30 -18 -50t-79.5 -35t-170.5 -18q0 -29 16.5 -46.5t44.5 -17.5q60 0 162 25q25 6 46 -101q7 -35 -17 -43zM316 340v32 q0 20 -5.5 27t-25.5 7q-67 0 -67 -63v-20q23 0 60.5 4t37.5 13zM246 629l156 201q8 11 34.5 6t49 -13t33.5 -14q49 -28 35 -42l-171 -157q-13 -11 -77 -10q-67 1 -64 21q1 4 4 8z" />
<glyph unicode="&#xea;" horiz-adv-x="534" d="M470 19q-93 -31 -191 -31q-105 0 -168 54.5t-63 162.5v156q0 87 56 131.5t182 44.5h7q62 0 102.5 -13.5t59 -40.5t25 -55t6.5 -69v-54q0 -30 -18 -50t-79.5 -35t-170.5 -18q0 -29 16.5 -46.5t44.5 -17.5q60 0 162 25q25 6 46 -101q7 -35 -17 -43zM316 340v32 q0 20 -5.5 27t-25.5 7q-67 0 -67 -63v-20q23 0 60.5 4t37.5 13zM103 661q-10 10 -13 23.5t4 20.5l176 148q8 7 19 7t19 -7l176 -148q7 -7 4 -20.5t-13 -23.5q-73 -86 -91 -70l-95 81l-95 -81q-18 -16 -91 70z" />
<glyph unicode="&#xeb;" horiz-adv-x="534" d="M470 19q-93 -31 -191 -31q-105 0 -168 54.5t-63 162.5v156q0 87 56 131.5t182 44.5h7q62 0 102.5 -13.5t59 -40.5t25 -55t6.5 -69v-54q0 -30 -18 -50t-79.5 -35t-170.5 -18q0 -29 16.5 -46.5t44.5 -17.5q60 0 162 25q25 6 46 -101q7 -35 -17 -43zM316 340v32 q0 20 -5.5 27t-25.5 7q-67 0 -67 -63v-20q23 0 60.5 4t37.5 13zM303 628v158q0 27 125 27q16 0 29.5 -8t13.5 -20v-157q0 -12 -13.5 -20t-29.5 -8q-125 0 -125 28zM106 628v158q0 27 126 27q16 0 29.5 -8t13.5 -20v-157q0 -12 -13.5 -20t-29.5 -8q-126 0 -126 28z" />
<glyph unicode="&#xec;" horiz-adv-x="333" d="M276 158q7 2 15.5 -7t16.5 -27.5t12 -30.5l9 -27q12 -37 -12 -48q-63 -30 -133 -30q-128 0 -128 152v371q0 26 127 26q16 0 29.5 -7.5t13.5 -18.5v-337q0 -17 1 -22t7 -5q8 0 42 11zM57 795l113 -143l17 -22q5 -6 6 -15t-4 -15q-25 -14 -56.5 -12t-44.5 15l-185 148 q-41 36 15 56q32 11 76 11q45 0 63 -23z" />
<glyph unicode="&#xed;" horiz-adv-x="333" d="M70 630l156 201q8 11 34.5 6t49 -13t33.5 -14q49 -28 35 -42l-171 -157q-13 -11 -77 -10q-67 1 -64 21q1 4 4 8zM276 158q7 2 15.5 -7t16.5 -27.5t12 -30.5l9 -27q12 -37 -12 -48q-63 -30 -133 -30q-128 0 -128 152v371q0 26 127 26q16 0 29.5 -7.5t13.5 -18.5v-337 q0 -17 1 -22t7 -5q8 0 42 11z" />
<glyph unicode="&#xee;" horiz-adv-x="333" d="M276 158q7 2 15.5 -7t16.5 -27.5t12 -30.5l9 -27q12 -37 -12 -48q-63 -30 -133 -30q-128 0 -128 152v371q0 26 127 26q16 0 29.5 -7.5t13.5 -18.5v-337q0 -17 1 -22t7 -5q8 0 42 11zM-38 661q-10 10 -13 23.5t4 20.5l176 148q8 7 19 7t19 -7l176 -148q7 -7 4 -20.5 t-13 -23.5q-73 -86 -91 -70l-95 81l-95 -81q-18 -16 -91 70z" />
<glyph unicode="&#xef;" horiz-adv-x="333" d="M145 612v158q0 27 125 27q16 0 29.5 -8t13.5 -20v-157q0 -12 -13.5 -20t-29.5 -8q-125 0 -125 28zM-52 612v158q0 27 126 27q16 0 29.5 -8t13.5 -20v-157q0 -12 -13.5 -20t-29.5 -8q-126 0 -126 28zM276 158q7 2 15.5 -7t16.5 -27.5t12 -30.5l9 -27q12 -37 -12 -48 q-63 -30 -133 -30q-128 0 -128 152v371q0 26 127 26q16 0 29.5 -7.5t13.5 -18.5v-337q0 -17 1 -22t7 -5q8 0 42 11z" />
<glyph unicode="&#xf0;" horiz-adv-x="627" d="M267 527l-19 -38q-5 -10 -20.5 -11t-27.5 6q-1 0 -13 6.5t-18.5 10t-19 10.5t-19.5 12.5t-14.5 12t-10 12t-0.5 10.5l24 49q-5 20 7.5 58.5t29.5 57.5q10 10 26 10l14 28q6 10 20.5 11t26.5 -6q14 -6 27.5 -13.5t33 -19t30 -22.5t6.5 -19l-10 -19q259 -144 263 -439v-7 q0 -131 -64.5 -185t-205.5 -54h-7q-141 0 -205.5 53.5t-64.5 185.5v7q0 235 192 235h9q49 0 104 -15q-38 38 -94 73zM333 319h-7q-58 0 -75.5 -18.5t-17.5 -66.5v-7q0 -47 17.5 -66t75.5 -19h7q58 0 75 18.5t17 66.5v7q0 48 -17.5 66.5t-74.5 18.5z" />
<glyph unicode="&#xf1;" d="M342 16v297q0 68 -21 68q-18 0 -42 -3t-40.5 -7.5t-16.5 -6.5v-348q0 -12 -13.5 -20t-29.5 -8q-127 0 -127 28v420q0 37 88.5 69t206.5 32q46 0 77.5 -11.5t48.5 -28t26 -45.5t11 -53t2 -62v-321q0 -12 -14.5 -20t-30.5 -8q-125 0 -125 28zM268 633q-7 0 -28.5 6.5 t-40 12t-36.5 4.5t-23 -13q0 -4 -5 -7.5t-24.5 -1t-50.5 15.5q-22 10 -18 33q10 54 43.5 86.5t77.5 30.5q12 -1 38 -9t47.5 -14t41.5 -4t26 17q0 4 5 7.5t24.5 1t50.5 -15.5q22 -11 18 -33q-11 -61 -52 -90.5t-94 -26.5z" />
<glyph unicode="&#xf2;" horiz-adv-x="559" d="M48 188v142q0 123 49.5 165t178.5 42h7q129 0 178.5 -42t49.5 -165v-142q0 -123 -49.5 -165t-178.5 -42h-7q-129 0 -178.5 42t-49.5 165zM189 795l113 -143l17 -22q5 -6 6 -15t-4 -15q-25 -14 -56.5 -12t-44.5 15l-185 148q-41 36 15 56q32 11 76 11q45 0 63 -23z M273 131h13q36 0 46 10t10 46v144q0 36 -10 46t-46 10h-13q-36 0 -46 -10t-10 -46v-144q0 -36 10 -46t46 -10z" />
<glyph unicode="&#xf3;" horiz-adv-x="559" d="M48 188v142q0 123 49.5 165t178.5 42h7q129 0 178.5 -42t49.5 -165v-142q0 -123 -49.5 -165t-178.5 -42h-7q-129 0 -178.5 42t-49.5 165zM273 131h13q36 0 46 10t10 46v144q0 36 -10 46t-46 10h-13q-36 0 -46 -10t-10 -46v-144q0 -36 10 -46t46 -10zM275 642l156 201 q8 11 34.5 6t49 -13t33.5 -14q49 -28 35 -42l-171 -157q-13 -11 -77 -10q-67 1 -64 21q1 4 4 8z" />
<glyph unicode="&#xf4;" horiz-adv-x="559" d="M48 188v142q0 123 49.5 165t178.5 42h7q129 0 178.5 -42t49.5 -165v-142q0 -123 -49.5 -165t-178.5 -42h-7q-129 0 -178.5 42t-49.5 165zM273 131h13q36 0 46 10t10 46v144q0 36 -10 46t-46 10h-13q-36 0 -46 -10t-10 -46v-144q0 -36 10 -46t46 -10zM94 661 q-10 10 -13 23.5t4 20.5l176 148q8 7 19 7t19 -7l176 -148q7 -7 4 -20.5t-13 -23.5q-73 -86 -91 -70l-95 81l-95 -81q-18 -16 -91 70z" />
<glyph unicode="&#xf5;" horiz-adv-x="559" d="M48 188v142q0 123 49.5 165t178.5 42h7q129 0 178.5 -42t49.5 -165v-142q0 -123 -49.5 -165t-178.5 -42h-7q-129 0 -178.5 42t-49.5 165zM273 131h13q36 0 46 10t10 46v144q0 36 -10 46t-46 10h-13q-36 0 -46 -10t-10 -46v-144q0 -36 10 -46t46 -10zM320 596 q-7 0 -28.5 6.5t-40 12t-36.5 4.5t-23 -13q0 -4 -5 -7.5t-24.5 -1t-50.5 15.5q-22 11 -18 33q10 54 43.5 86.5t77.5 30.5q12 -1 38 -9t47.5 -14t41.5 -4t26 17q0 4 5 7.5t24.5 1t50.5 -15.5q22 -10 18 -33q-11 -61 -52 -90.5t-94 -26.5z" />
<glyph unicode="&#xf6;" horiz-adv-x="559" d="M48 188v142q0 123 49.5 165t178.5 42h7q129 0 178.5 -42t49.5 -165v-142q0 -123 -49.5 -165t-178.5 -42h-7q-129 0 -178.5 42t-49.5 165zM273 131h13q36 0 46 10t10 46v144q0 36 -10 46t-46 10h-13q-36 0 -46 -10t-10 -46v-144q0 -36 10 -46t46 -10zM294 628v158 q0 27 125 27q16 0 29.5 -8t13.5 -20v-157q0 -12 -13.5 -20t-29.5 -8q-125 0 -125 28zM97 628v158q0 27 126 27q16 0 29.5 -8t13.5 -20v-157q0 -12 -13.5 -20t-29.5 -8q-126 0 -126 28z" />
<glyph unicode="&#xf7;" horiz-adv-x="547" d="M189 10v162q0 26 125 26q16 0 29.5 -7.5t13.5 -18.5v-162q0 -11 -13.5 -18.5t-29.5 -7.5q-125 0 -125 26zM189 432v162q0 26 125 26q16 0 29.5 -7.5t13.5 -18.5v-162q0 -11 -13.5 -18.5t-29.5 -7.5q-125 0 -125 26zM514 223h-476q-11 0 -18 13t-7 28q0 118 25 118h476 q11 0 18 -12.5t7 -27.5q0 -119 -25 -119z" />
<glyph unicode="&#xf8;" horiz-adv-x="559" d="M400 586q9 -1 29 -7t37.5 -16.5t12.5 -20.5l-20 -45q52 -45 52 -167v-142q0 -123 -49.5 -165t-178.5 -42h-7q-18 0 -48 2l-20 -45q-3 -7 -15.5 -10t-24.5 -1q-89 22 -80 44l20 44q-60 43 -60 173v142q0 123 49.5 165t178.5 42h7q22 0 60 -2l18 40q8 15 39 11zM217 331 v-75l59 131h-3q-36 0 -46 -10t-10 -46zM294 131q30 1 39 11.5t9 44.5v50z" />
<glyph unicode="&#xf9;" d="M342 144v365q0 28 127 28q16 0 29.5 -8t13.5 -20v-435q0 -30 -89.5 -58t-205.5 -28q-46 0 -77.5 11.5t-48.5 28t-26 45.5t-11 53t-2 62v321q0 28 125 28q16 0 30.5 -8t14.5 -20v-314q0 -68 21 -68q18 0 42 3t40.5 7.5t16.5 6.5zM193 795l113 -143l17 -22q5 -6 6 -15 t-4 -15q-25 -14 -56.5 -12t-44.5 15l-185 148q-41 36 15 56q32 11 76 11q45 0 63 -23z" />
<glyph unicode="&#xfa;" d="M342 144v365q0 28 127 28q16 0 29.5 -8t13.5 -20v-435q0 -30 -89.5 -58t-205.5 -28q-46 0 -77.5 11.5t-48.5 28t-26 45.5t-11 53t-2 62v321q0 28 125 28q16 0 30.5 -8t14.5 -20v-314q0 -68 21 -68q18 0 42 3t40.5 7.5t16.5 6.5zM279 642l156 201q8 11 34.5 6t49 -13 t33.5 -14q49 -28 35 -42l-171 -157q-13 -11 -77 -10q-67 1 -64 21q1 4 4 8z" />
<glyph unicode="&#xfb;" d="M342 144v365q0 28 127 28q16 0 29.5 -8t13.5 -20v-435q0 -30 -89.5 -58t-205.5 -28q-46 0 -77.5 11.5t-48.5 28t-26 45.5t-11 53t-2 62v321q0 28 125 28q16 0 30.5 -8t14.5 -20v-314q0 -68 21 -68q18 0 42 3t40.5 7.5t16.5 6.5zM98 661q-10 10 -13 23.5t4 20.5l176 148 q8 7 19 7t19 -7l176 -148q7 -7 4 -20.5t-13 -23.5q-73 -86 -91 -70l-95 81l-95 -81q-18 -16 -91 70z" />
<glyph unicode="&#xfc;" d="M342 144v365q0 28 127 28q16 0 29.5 -8t13.5 -20v-435q0 -30 -89.5 -58t-205.5 -28q-46 0 -77.5 11.5t-48.5 28t-26 45.5t-11 53t-2 62v321q0 28 125 28q16 0 30.5 -8t14.5 -20v-314q0 -68 21 -68q18 0 42 3t40.5 7.5t16.5 6.5zM348 624v158q0 27 125 27q16 0 29.5 -8 t13.5 -20v-157q0 -12 -13.5 -20t-29.5 -8q-125 0 -125 28zM151 624v158q0 27 126 27q16 0 29.5 -8t13.5 -20v-157q0 -12 -13.5 -20t-29.5 -8q-126 0 -126 28z" />
<glyph unicode="&#xfd;" d="M226 509v-297q0 -68 21 -68q28 0 63.5 5.5t35.5 10.5v349q0 12 13.5 20t29.5 8q127 0 127 -28v-506q0 -44 -2 -72.5t-8.5 -59t-19 -48t-34 -32.5t-53.5 -21.5t-77 -6.5q-146 0 -226 34q-27 11 -14 46q1 2 6 18t9 26t11 24t14 21t15 7q3 0 9 -2q67 -23 150 -23q50 0 50 45 v65q-80 -36 -125 -36q-46 0 -78 11.5t-48.5 28t-25.5 46t-11 53t-2 61.5v321q0 12 14.5 20t30.5 8q125 0 125 -28zM243 629l156 201q8 11 34.5 6t49 -13t33.5 -14q49 -28 35 -42l-171 -157q-13 -11 -77 -10q-67 1 -64 21q1 4 4 8z" />
<glyph unicode="&#xfe;" horiz-adv-x="548" d="M56 -210v947q0 26 125 26q17 0 30.5 -7.5t13.5 -18.5v-206q66 6 115 6q34 0 60 -6.5t43 -14.5t28.5 -26t17 -30t8 -39.5t3 -40.5t0.5 -46v-139v-35.5t-1.5 -33t-4 -32.5t-8 -27.5t-13 -26t-20 -20t-28 -16.5t-37 -9t-48.5 -4q-90 0 -115 3v-203q0 -12 -13.5 -19.5 t-30.5 -7.5q-125 0 -125 26zM293 386q-63 0 -68 10v-268q18 3 34.5 6.5t25.5 5t15 1.5q9 0 15 -2q9 -4 13 13q2 12 2 64v81q0 7 0.5 19t0.5 18q1 30 -2.5 44t-14.5 11l-11 -2q-4 -1 -10 -1z" />
<glyph unicode="&#xff;" d="M226 509v-297q0 -68 21 -68q28 0 63.5 5.5t35.5 10.5v349q0 12 13.5 20t29.5 8q127 0 127 -28v-506q0 -44 -2 -72.5t-8.5 -59t-19 -48t-34 -32.5t-53.5 -21.5t-77 -6.5q-146 0 -226 34q-27 11 -14 46q1 2 6 18t9 26t11 24t14 21t15 7q3 0 9 -2q67 -23 150 -23q50 0 50 45 v65q-80 -36 -125 -36q-46 0 -78 11.5t-48.5 28t-25.5 46t-11 53t-2 61.5v321q0 12 14.5 20t30.5 8q125 0 125 -28zM300 628v158q0 27 125 27q16 0 29.5 -8t13.5 -20v-157q0 -12 -13.5 -20t-29.5 -8q-125 0 -125 28zM103 628v158q0 27 126 27q16 0 29.5 -8t13.5 -20v-157 q0 -12 -13.5 -20t-29.5 -8q-126 0 -126 28z" />
<glyph unicode="&#x100;" horiz-adv-x="669" d="M473 19l-30 96h-217l-29 -96q-9 -31 -141 -31q-16 0 -33.5 8t-17.5 25q0 4 2 10l240 671q10 28 37 28q130 0 140 -28l238 -671q2 -6 2 -10q0 -16 -18 -24.5t-33 -8.5q-130 0 -140 31zM334 468l-60 -192h120zM479 764h-291q-10 0 -20 11t-10 23q0 96 29 96h295 q10 0 20.5 -11t10.5 -23q0 -34 -8 -65t-26 -31z" />
<glyph unicode="&#x101;" horiz-adv-x="527" d="M479 329v-240q0 -33 -33 -55.5t-86 -31t-90.5 -11.5t-74.5 -3q-92 0 -127.5 45t-35.5 133q0 39 5 63.5t21 47.5t49.5 34t86.5 11q19 0 115 -8v20q0 24 -13 38t-35 14q-25 0 -53 -4l-65 -10q-7 -1 -13.5 6t-12.5 22t-9 25.5t-8 28.5t-5 20q-5 14 0 27t17 16q90 20 145 20 q109 0 165.5 -54.5t56.5 -153.5zM417 584h-291q-10 0 -20 11t-10 23q0 96 29 96h295q10 0 20.5 -11t10.5 -23q0 -34 -8 -65t-26 -31zM309 122v72q-29 7 -64 7q-27 0 -35 -8.5t-8 -37.5q0 -25 8.5 -33t34.5 -8t64 8z" />
<glyph unicode="&#x102;" horiz-adv-x="669" d="M473 19l-30 96h-217l-29 -96q-9 -31 -141 -31q-16 0 -33.5 8t-17.5 25q0 4 2 10l240 671q10 28 37 28q130 0 140 -28l238 -671q2 -6 2 -10q0 -16 -18 -24.5t-33 -8.5q-130 0 -140 31zM334 468l-60 -192h120zM334 760q-76 0 -130.5 45.5t-54.5 128.5q0 11 11 17.5t26 6.5 q106 0 106 -22q0 -19 12.5 -29.5t29.5 -10.5t29.5 10.5t12.5 29.5q0 22 106 22q15 0 26 -6.5t11 -17.5q0 -83 -54.5 -128.5t-130.5 -45.5z" />
<glyph unicode="&#x103;" horiz-adv-x="527" d="M479 329v-240q0 -33 -33 -55.5t-86 -31t-90.5 -11.5t-74.5 -3q-92 0 -127.5 45t-35.5 133q0 39 5 63.5t21 47.5t49.5 34t86.5 11q19 0 115 -8v20q0 24 -13 38t-35 14q-25 0 -53 -4l-65 -10q-7 -1 -13.5 6t-12.5 22t-9 25.5t-8 28.5t-5 20q-5 14 0 27t17 16q90 20 145 20 q109 0 165.5 -54.5t56.5 -153.5zM290 580q-76 0 -130.5 45.5t-54.5 128.5q0 11 11 17.5t26 6.5q106 0 106 -22q0 -19 12.5 -29.5t29.5 -10.5t29.5 10.5t12.5 29.5q0 22 106 22q15 0 26 -6.5t11 -17.5q0 -83 -54.5 -128.5t-130.5 -45.5zM309 122v72q-29 7 -64 7 q-27 0 -35 -8.5t-8 -37.5q0 -25 8.5 -33t34.5 -8t64 8z" />
<glyph unicode="&#x104;" horiz-adv-x="669" d="M623 -95q6 3 11.5 3t10.5 -2.5t9 -6t7.5 -10t6 -11.5t5.5 -12t4.5 -11.5t3 -10.5t2.5 -8q7 -24 -46 -49t-102 -23q-57 2 -93 34.5t-45 82.5q-8 43 9.5 86.5t58.5 75.5l-22 72h-217l-29 -96q-9 -31 -141 -31q-16 0 -33.5 8t-17.5 25q0 4 2 10l240 671q10 28 37 28 q130 0 140 -28l238 -671q2 -6 2 -10q0 -17 -24 -27q-73 -45 -73 -84q0 -17 19 -17q12 0 37 12zM334 468l-60 -192h120z" />
<glyph unicode="&#x105;" horiz-adv-x="604" d="M419 -54q6 3 11.5 3t10.5 -2.5t9 -6t7.5 -10t6 -11.5t5.5 -12t4.5 -11.5t3 -10.5t2.5 -8q7 -24 -46 -49t-102 -23q-57 2 -93 34.5t-45 82.5q-6 33 3 66q-91 1 -125.5 45.5t-34.5 132.5q0 39 5 63.5t21 47.5t49.5 34t86.5 11q19 0 115 -8v20q0 24 -13 38t-35 14 q-25 0 -53 -4l-65 -10q-7 -1 -13.5 6t-12.5 22t-9 25.5t-8 28.5t-5 20q-5 14 0 27t17 16q90 20 145 20q109 0 165.5 -54.5t56.5 -153.5v-240q0 -50 -78 -76q-42 -32 -42 -62q0 -17 19 -17q12 0 37 12zM313 122v72q-29 7 -64 7q-27 0 -35 -8.5t-8 -37.5q0 -25 8.5 -33 t34.5 -8t64 8z" />
<glyph unicode="&#x106;" horiz-adv-x="620" d="M233 419v-120q0 -44 3.5 -67.5t16 -44.5t39 -29t72.5 -8h7q73 0 155 24q10 3 25.5 -23.5t26 -56t10.5 -39.5q0 -32 -79 -49.5t-138 -17.5h-7q-165 0 -240.5 63.5t-75.5 217.5v180q0 154 75.5 217.5t240.5 63.5h7q59 0 138 -17.5t79 -49.5q0 -10 -10.5 -39.5t-26 -56 t-25.5 -23.5q-82 24 -155 24h-7q-46 0 -72.5 -8t-39 -29t-16 -44.5t-3.5 -67.5zM332 810l156 201q8 11 34.5 6t49 -13t33.5 -14q49 -28 35 -42l-171 -157q-13 -11 -77 -10q-67 1 -64 21q1 4 4 8z" />
<glyph unicode="&#x107;" horiz-adv-x="484" d="M399 158q6 1 12 -6.5t11.5 -22t9.5 -27t8.5 -29t5.5 -19.5q10 -34 -17 -43q-76 -23 -160 -23q-114 0 -167.5 54t-53.5 160v121q0 106 53.5 160t167.5 54q70 0 160 -22q25 -7 17 -43q-7 -33 -20 -70.5t-27 -34.5q-104 19 -130 19q-30 0 -40.5 -22t-10.5 -64v-74 q0 -43 10.5 -65t40.5 -22q28 0 130 19zM227 637l156 201q8 11 34.5 6t49 -13t33.5 -14q49 -28 35 -42l-171 -157q-13 -11 -77 -10q-67 1 -64 21q1 4 4 8z" />
<glyph unicode="&#x108;" horiz-adv-x="620" d="M233 419v-120q0 -44 3.5 -67.5t16 -44.5t39 -29t72.5 -8h7q73 0 155 24q10 3 25.5 -23.5t26 -56t10.5 -39.5q0 -32 -79 -49.5t-138 -17.5h-7q-165 0 -240.5 63.5t-75.5 217.5v180q0 154 75.5 217.5t240.5 63.5h7q59 0 138 -17.5t79 -49.5q0 -10 -10.5 -39.5t-26 -56 t-25.5 -23.5q-82 24 -155 24h-7q-46 0 -72.5 -8t-39 -29t-16 -44.5t-3.5 -67.5zM180 829q-10 10 -13 23.5t4 20.5l176 148q8 7 19 7t19 -7l176 -148q7 -7 4 -20.5t-13 -23.5q-73 -86 -91 -70l-95 81l-95 -81q-18 -16 -91 70z" />
<glyph unicode="&#x109;" horiz-adv-x="484" d="M399 158q6 1 12 -6.5t11.5 -22t9.5 -27t8.5 -29t5.5 -19.5q10 -34 -17 -43q-76 -23 -160 -23q-114 0 -167.5 54t-53.5 160v121q0 106 53.5 160t167.5 54q70 0 160 -22q25 -7 17 -43q-7 -33 -20 -70.5t-27 -34.5q-104 19 -130 19q-30 0 -40.5 -22t-10.5 -64v-74 q0 -43 10.5 -65t40.5 -22q28 0 130 19zM84 669q-10 10 -13 23.5t4 20.5l176 148q8 7 19 7t19 -7l176 -148q7 -7 4 -20.5t-13 -23.5q-73 -86 -91 -70l-95 81l-95 -81q-18 -16 -91 70z" />
<glyph unicode="&#x10a;" horiz-adv-x="620" d="M233 419v-120q0 -44 3.5 -67.5t16 -44.5t39 -29t72.5 -8h7q73 0 155 24q10 3 25.5 -23.5t26 -56t10.5 -39.5q0 -32 -79 -49.5t-138 -17.5h-7q-165 0 -240.5 63.5t-75.5 217.5v180q0 154 75.5 217.5t240.5 63.5h7q59 0 138 -17.5t79 -49.5q0 -10 -10.5 -39.5t-26 -56 t-25.5 -23.5q-82 24 -155 24h-7q-46 0 -72.5 -8t-39 -29t-16 -44.5t-3.5 -67.5zM263 786v162q0 26 125 26q16 0 29.5 -7.5t13.5 -18.5v-162q0 -11 -13.5 -18.5t-29.5 -7.5q-125 0 -125 26z" />
<glyph unicode="&#x10b;" horiz-adv-x="484" d="M399 158q6 1 12 -6.5t11.5 -22t9.5 -27t8.5 -29t5.5 -19.5q10 -34 -17 -43q-76 -23 -160 -23q-114 0 -167.5 54t-53.5 160v121q0 106 53.5 160t167.5 54q70 0 160 -22q25 -7 17 -43q-7 -33 -20 -70.5t-27 -34.5q-104 19 -130 19q-30 0 -40.5 -22t-10.5 -64v-74 q0 -43 10.5 -65t40.5 -22q28 0 130 19zM188 634v162q0 26 125 26q16 0 29.5 -7.5t13.5 -18.5v-162q0 -11 -13.5 -18.5t-29.5 -7.5q-125 0 -125 26z" />
<glyph unicode="&#x10c;" horiz-adv-x="620" d="M233 419v-120q0 -44 3.5 -67.5t16 -44.5t39 -29t72.5 -8h7q73 0 155 24q10 3 25.5 -23.5t26 -56t10.5 -39.5q0 -32 -79 -49.5t-138 -17.5h-7q-165 0 -240.5 63.5t-75.5 217.5v180q0 154 75.5 217.5t240.5 63.5h7q59 0 138 -17.5t79 -49.5q0 -10 -10.5 -39.5t-26 -56 t-25.5 -23.5q-82 24 -155 24h-7q-46 0 -72.5 -8t-39 -29t-16 -44.5t-3.5 -67.5zM210 943q73 86 91 70l95 -81l95 81q18 16 91 -70q10 -10 13 -23.5t-4 -20.5l-176 -148q-8 -7 -19 -7t-19 7l-176 148q-7 7 -4 20.5t13 23.5z" />
<glyph unicode="&#x10d;" horiz-adv-x="484" d="M399 158q6 1 12 -6.5t11.5 -22t9.5 -27t8.5 -29t5.5 -19.5q10 -34 -17 -43q-76 -23 -160 -23q-114 0 -167.5 54t-53.5 160v121q0 106 53.5 160t167.5 54q70 0 160 -22q25 -7 17 -43q-7 -33 -20 -70.5t-27 -34.5q-104 19 -130 19q-30 0 -40.5 -22t-10.5 -64v-74 q0 -43 10.5 -65t40.5 -22q28 0 130 19zM84 791q73 86 91 70l95 -81l95 81q18 16 91 -70q10 -10 13 -23.5t-4 -20.5l-176 -148q-8 -7 -19 -7t-19 7l-176 148q-7 7 -4 20.5t13 23.5z" />
<glyph unicode="&#x10e;" horiz-adv-x="696" d="M91 720h241q165 0 240.5 -63.5t75.5 -217.5v-158q0 -154 -75.5 -217.5t-240.5 -63.5h-220q-17 0 -34.5 9t-17.5 17v668q0 8 9.5 17t21.5 9zM332 559h-92v-398h92q85 0 108 32.5t23 116.5v100q0 84 -23 116.5t-108 32.5zM152 935q73 86 91 70l95 -81l95 81q18 16 91 -70 q10 -10 13 -23.5t-4 -20.5l-176 -148q-8 -7 -19 -7t-19 7l-176 148q-7 7 -4 20.5t13 23.5z" />
<glyph unicode="&#x10f;" horiz-adv-x="569" d="M726 697l-128 -194q-5 -8 -9.5 -13.5t-10 -8.5t-8.5 -5t-10 -3t-9.5 -1h-11h-10.5q-6 0 -8 2v-392q0 -25 -24 -44q-62 -47 -281 -47q-88 0 -124 44t-36 154v151q0 30 0.5 45.5t3.5 40t9 37.5t17.5 29.5t28.5 24.5t42.5 14t59.5 6q62 0 134 -32v238q0 28 127 28 q43 0 43 -41v-214l48 201q4 20 124 20q38 0 38 -27q0 -8 -5 -13zM351 373q-36 13 -100 13q-25 0 -25 -46v-163q0 -46 25 -46q26 0 63 4t37 8v230z" />
<glyph unicode="&#x110;" horiz-adv-x="733" d="M126 720h241q165 0 240.5 -63.5t75.5 -217.5v-158q0 -154 -75.5 -217.5t-240.5 -63.5h-220q-17 0 -34.5 9t-17.5 17v287h-63q-10 0 -20 11t-10 23q0 96 29 96h64v251q0 8 9.5 17t21.5 9zM323 313h-48v-152h92q85 0 108 32.5t23 116.5v100q0 84 -23 116.5t-108 32.5h-92 v-116h51q10 0 20.5 -11t10.5 -23q0 -34 -8 -65t-26 -31z" />
<glyph unicode="&#x111;" horiz-adv-x="569" d="M576 522h-55v-440q0 -25 -24 -44q-62 -47 -281 -47q-88 0 -124 44t-36 154v151q0 30 0.5 45.5t3.5 40t9 37.5t17.5 29.5t28.5 24.5t42.5 14t59.5 6q31 0 76 -12q-15 11 -15 38q0 118 25 118h48v62q0 28 127 28q43 0 43 -41v-49h55q11 0 18 -12.5t7 -27.5q0 -119 -25 -119 zM351 373q-36 13 -100 13q-25 0 -25 -46v-163q0 -46 25 -46q26 0 63 4t37 8v230zM305 522q30 -10 46 -17v17h-46z" />
<glyph unicode="&#x112;" horiz-adv-x="604" d="M60 26v668q0 12 13 19t30 7h433q12 0 20 -13t8 -28q0 -120 -27 -120h-297v-113h240q12 0 20 -13t8 -28q0 -120 -27 -120h-241v-124h296q12 0 20 -13t8 -28q0 -120 -27 -120h-423q-17 0 -35.5 9t-18.5 17zM464 768h-291q-10 0 -20 11t-10 23q0 96 29 96h295q10 0 20.5 -11 t10.5 -23q0 -34 -8 -65t-26 -31z" />
<glyph unicode="&#x113;" horiz-adv-x="534" d="M470 19q-93 -31 -191 -31q-105 0 -168 54.5t-63 162.5v156q0 87 56 131.5t182 44.5h7q62 0 102.5 -13.5t59 -40.5t25 -55t6.5 -69v-54q0 -30 -18 -50t-79.5 -35t-170.5 -18q0 -29 16.5 -46.5t44.5 -17.5q60 0 162 25q25 6 46 -101q7 -35 -17 -43zM316 340v32 q0 20 -5.5 27t-25.5 7q-67 0 -67 -63v-20q23 0 60.5 4t37.5 13zM433 600h-291q-10 0 -20 11t-10 23q0 96 29 96h295q10 0 20.5 -11t10.5 -23q0 -34 -8 -65t-26 -31z" />
<glyph unicode="&#x114;" horiz-adv-x="604" d="M60 26v668q0 12 13 19t30 7h433q12 0 20 -13t8 -28q0 -120 -27 -120h-297v-113h240q12 0 20 -13t8 -28q0 -120 -27 -120h-241v-124h296q12 0 20 -13t8 -28q0 -120 -27 -120h-423q-17 0 -35.5 9t-18.5 17zM367 760q-76 0 -130.5 45.5t-54.5 128.5q0 11 11 17.5t26 6.5 q106 0 106 -22q0 -19 12.5 -29.5t29.5 -10.5t29.5 10.5t12.5 29.5q0 22 106 22q15 0 26 -6.5t11 -17.5q0 -83 -54.5 -128.5t-130.5 -45.5z" />
<glyph unicode="&#x115;" horiz-adv-x="534" d="M470 19q-93 -31 -191 -31q-105 0 -168 54.5t-63 162.5v156q0 87 56 131.5t182 44.5h7q62 0 102.5 -13.5t59 -40.5t25 -55t6.5 -69v-54q0 -30 -18 -50t-79.5 -35t-170.5 -18q0 -29 16.5 -46.5t44.5 -17.5q60 0 162 25q25 6 46 -101q7 -35 -17 -43zM316 340v32 q0 20 -5.5 27t-25.5 7q-67 0 -67 -63v-20q23 0 60.5 4t37.5 13zM289 600q-76 0 -130.5 45.5t-54.5 128.5q0 11 11 17.5t26 6.5q106 0 106 -22q0 -19 12.5 -29.5t29.5 -10.5t29.5 10.5t12.5 29.5q0 22 106 22q15 0 26 -6.5t11 -17.5q0 -83 -54.5 -128.5t-130.5 -45.5z" />
<glyph unicode="&#x116;" horiz-adv-x="604" d="M60 26v668q0 12 13 19t30 7h433q12 0 20 -13t8 -28q0 -120 -27 -120h-297v-113h240q12 0 20 -13t8 -28q0 -120 -27 -120h-241v-124h296q12 0 20 -13t8 -28q0 -120 -27 -120h-423q-17 0 -35.5 9t-18.5 17zM274 786v162q0 26 125 26q16 0 29.5 -7.5t13.5 -18.5v-162 q0 -11 -13.5 -18.5t-29.5 -7.5q-125 0 -125 26z" />
<glyph unicode="&#x117;" horiz-adv-x="534" d="M470 19q-93 -31 -191 -31q-105 0 -168 54.5t-63 162.5v156q0 87 56 131.5t182 44.5h7q62 0 102.5 -13.5t59 -40.5t25 -55t6.5 -69v-54q0 -30 -18 -50t-79.5 -35t-170.5 -18q0 -29 16.5 -46.5t44.5 -17.5q60 0 162 25q25 6 46 -101q7 -35 -17 -43zM316 340v32 q0 20 -5.5 27t-25.5 7q-67 0 -67 -63v-20q23 0 60.5 4t37.5 13zM207 626v162q0 26 125 26q16 0 29.5 -7.5t13.5 -18.5v-162q0 -11 -13.5 -18.5t-29.5 -7.5q-125 0 -125 26z" />
<glyph unicode="&#x118;" horiz-adv-x="604" d="M458 -47q6 3 11.5 3t10.5 -2.5t9 -6t7.5 -10t6 -11.5t5.5 -12t4.5 -11.5t3 -10.5t2.5 -8q7 -24 -46 -49t-102 -23q-57 2 -93 34.5t-45 82.5q-6 37 4 71h-122q-17 0 -35.5 9t-18.5 17v668q0 12 13 19t30 7h433q12 0 20 -13t8 -28q0 -120 -27 -120h-297v-113h240 q12 0 20 -13t8 -28q0 -120 -27 -120h-241v-124h296q12 0 20 -13t8 -28q0 -120 -27 -120h-115q-20 -21 -20 -42q0 -17 19 -17q12 0 37 12z" />
<glyph unicode="&#x119;" horiz-adv-x="534" d="M407 -74q6 3 11.5 3t10.5 -2.5t9 -6t7.5 -10t6 -11.5t5.5 -12t4.5 -11.5t3 -10.5t2.5 -8q7 -24 -46 -49t-102 -23q-57 2 -93 34.5t-45 82.5t14 97q-147 38 -147 206v156q0 87 56 131.5t182 44.5h7q62 0 102.5 -13.5t59 -40.5t25 -55t6.5 -69v-54q0 -30 -18 -50t-79.5 -35 t-170.5 -18q0 -29 16.5 -46.5t44.5 -17.5q60 0 162 25q25 6 46 -101q7 -35 -17 -43q-44 -14 -66 -18q-53 -37 -53 -70q0 -17 19 -17q12 0 37 12zM316 340v32q0 20 -5.5 27t-25.5 7q-67 0 -67 -63v-20q23 0 60.5 4t37.5 13z" />
<glyph unicode="&#x11a;" horiz-adv-x="604" d="M60 26v668q0 12 13 19t30 7h433q12 0 20 -13t8 -28q0 -120 -27 -120h-297v-113h240q12 0 20 -13t8 -28q0 -120 -27 -120h-241v-124h296q12 0 20 -13t8 -28q0 -120 -27 -120h-423q-17 0 -35.5 9t-18.5 17zM198 943q73 86 91 70l95 -81l95 81q18 16 91 -70q10 -10 13 -23.5 t-4 -20.5l-176 -148q-8 -7 -19 -7t-19 7l-176 148q-7 7 -4 20.5t13 23.5z" />
<glyph unicode="&#x11b;" horiz-adv-x="534" d="M470 19q-93 -31 -191 -31q-105 0 -168 54.5t-63 162.5v156q0 87 56 131.5t182 44.5h7q62 0 102.5 -13.5t59 -40.5t25 -55t6.5 -69v-54q0 -30 -18 -50t-79.5 -35t-170.5 -18q0 -29 16.5 -46.5t44.5 -17.5q60 0 162 25q25 6 46 -101q7 -35 -17 -43zM316 340v32 q0 20 -5.5 27t-25.5 7q-67 0 -67 -63v-20q23 0 60.5 4t37.5 13zM103 783q73 86 91 70l95 -81l95 81q18 16 91 -70q10 -10 13 -23.5t-4 -20.5l-176 -148q-8 -7 -19 -7t-19 7l-176 148q-7 7 -4 20.5t13 23.5z" />
<glyph unicode="&#x11c;" horiz-adv-x="670" d="M233 419v-120q0 -44 3.5 -67.5t16 -44.5t39 -29t72.5 -8h7q33 0 73 5v203q0 15 51 22t92 7q13 0 24 -11.5t11 -25.5v-266q0 -29 -17 -39q-95 -54 -234 -57h-7q-165 0 -240.5 63.5t-75.5 217.5v180q0 154 75.5 217.5t240.5 63.5h7q59 0 138 -17.5t79 -49.5 q0 -10 -10.5 -39.5t-26 -56t-25.5 -23.5q-82 24 -155 24h-7q-46 0 -72.5 -8t-39 -29t-16 -44.5t-3.5 -67.5zM180 829q-10 10 -13 23.5t4 20.5l176 148q8 7 19 7t19 -7l176 -148q7 -7 4 -20.5t-13 -23.5q-73 -86 -91 -70l-95 81l-95 -81q-18 -16 -91 70z" />
<glyph unicode="&#x11d;" horiz-adv-x="569" d="M293 -87q50 0 50 45v65q-72 -32 -134 -32q-34 0 -59.5 6t-42.5 14t-28.5 24.5t-17.5 29.5t-9 37.5t-3.5 40t-0.5 45.5v151q0 110 36 154t124 44q22 0 65.5 -5t100.5 -15.5t98 -33t41 -51.5v-430q0 -44 -2 -72.5t-8.5 -59t-19 -48t-34 -32.5t-53.5 -21.5t-77 -6.5 q-139 0 -229 35q-27 11 -14 46q2 5 6 19t6.5 23t7.5 21t10.5 18t13.5 10t18 2q75 -23 155 -23zM343 145v236q0 4 -38 10t-62 6q-25 0 -25 -46v-173q0 -46 25 -46q64 0 100 13zM98 661q-10 10 -13 23.5t4 20.5l176 148q8 7 19 7t19 -7l176 -148q7 -7 4 -20.5t-13 -23.5 q-73 -86 -91 -70l-95 81l-95 -81q-18 -16 -91 70z" />
<glyph unicode="&#x11e;" horiz-adv-x="670" d="M233 419v-120q0 -44 3.5 -67.5t16 -44.5t39 -29t72.5 -8h7q33 0 73 5v203q0 15 51 22t92 7q13 0 24 -11.5t11 -25.5v-266q0 -29 -17 -39q-95 -54 -234 -57h-7q-165 0 -240.5 63.5t-75.5 217.5v180q0 154 75.5 217.5t240.5 63.5h7q59 0 138 -17.5t79 -49.5 q0 -10 -10.5 -39.5t-26 -56t-25.5 -23.5q-82 24 -155 24h-7q-46 0 -72.5 -8t-39 -29t-16 -44.5t-3.5 -67.5zM407 760q-76 0 -130.5 45.5t-54.5 128.5q0 11 11 17.5t26 6.5q106 0 106 -22q0 -19 12.5 -29.5t29.5 -10.5t29.5 10.5t12.5 29.5q0 22 106 22q15 0 26 -6.5 t11 -17.5q0 -83 -54.5 -128.5t-130.5 -45.5z" />
<glyph unicode="&#x11f;" horiz-adv-x="569" d="M293 -87q50 0 50 45v65q-72 -32 -134 -32q-34 0 -59.5 6t-42.5 14t-28.5 24.5t-17.5 29.5t-9 37.5t-3.5 40t-0.5 45.5v151q0 110 36 154t124 44q22 0 65.5 -5t100.5 -15.5t98 -33t41 -51.5v-430q0 -44 -2 -72.5t-8.5 -59t-19 -48t-34 -32.5t-53.5 -21.5t-77 -6.5 q-139 0 -229 35q-27 11 -14 46q2 5 6 19t6.5 23t7.5 21t10.5 18t13.5 10t18 2q75 -23 155 -23zM343 145v236q0 4 -38 10t-62 6q-25 0 -25 -46v-173q0 -46 25 -46q64 0 100 13zM284 600q-76 0 -130.5 45.5t-54.5 128.5q0 11 11 17.5t26 6.5q106 0 106 -22q0 -19 12.5 -29.5 t29.5 -10.5t29.5 10.5t12.5 29.5q0 22 106 22q15 0 26 -6.5t11 -17.5q0 -83 -54.5 -128.5t-130.5 -45.5z" />
<glyph unicode="&#x120;" horiz-adv-x="670" d="M233 419v-120q0 -44 3.5 -67.5t16 -44.5t39 -29t72.5 -8h7q33 0 73 5v203q0 15 51 22t92 7q13 0 24 -11.5t11 -25.5v-266q0 -29 -17 -39q-95 -54 -234 -57h-7q-165 0 -240.5 63.5t-75.5 217.5v180q0 154 75.5 217.5t240.5 63.5h7q59 0 138 -17.5t79 -49.5 q0 -10 -10.5 -39.5t-26 -56t-25.5 -23.5q-82 24 -155 24h-7q-46 0 -72.5 -8t-39 -29t-16 -44.5t-3.5 -67.5zM315 786v162q0 26 125 26q16 0 29.5 -7.5t13.5 -18.5v-162q0 -11 -13.5 -18.5t-29.5 -7.5q-125 0 -125 26z" />
<glyph unicode="&#x121;" horiz-adv-x="569" d="M293 -87q50 0 50 45v65q-72 -32 -134 -32q-34 0 -59.5 6t-42.5 14t-28.5 24.5t-17.5 29.5t-9 37.5t-3.5 40t-0.5 45.5v151q0 110 36 154t124 44q22 0 65.5 -5t100.5 -15.5t98 -33t41 -51.5v-430q0 -44 -2 -72.5t-8.5 -59t-19 -48t-34 -32.5t-53.5 -21.5t-77 -6.5 q-139 0 -229 35q-27 11 -14 46q2 5 6 19t6.5 23t7.5 21t10.5 18t13.5 10t18 2q75 -23 155 -23zM343 145v236q0 4 -38 10t-62 6q-25 0 -25 -46v-173q0 -46 25 -46q64 0 100 13zM260 618v162q0 26 125 26q16 0 29.5 -7.5t13.5 -18.5v-162q0 -11 -13.5 -18.5t-29.5 -7.5 q-125 0 -125 26z" />
<glyph unicode="&#x122;" horiz-adv-x="670" d="M233 419v-120q0 -44 3.5 -67.5t16 -44.5t39 -29t72.5 -8h7q33 0 73 5v203q0 15 51 22t92 7q13 0 24 -11.5t11 -25.5v-266q0 -29 -17 -39q-95 -54 -234 -57h-7q-165 0 -240.5 63.5t-75.5 217.5v180q0 154 75.5 217.5t240.5 63.5h7q59 0 138 -17.5t79 -49.5 q0 -10 -10.5 -39.5t-26 -56t-25.5 -23.5q-82 24 -155 24h-7q-46 0 -72.5 -8t-39 -29t-16 -44.5t-3.5 -67.5zM491 -124l-131 -200q-4 -7 -8.5 -12t-8 -8.5t-9 -5.5t-8 -3.5t-9 -2t-8 -0.5h-9.5h-10q-21 0 -11 36l52 217q4 20 126 20q13 0 25 -7.5t12 -22.5q0 -5 -3 -11z" />
<glyph unicode="&#x123;" horiz-adv-x="569" d="M293 -87q50 0 50 45v65q-72 -32 -134 -32q-34 0 -59.5 6t-42.5 14t-28.5 24.5t-17.5 29.5t-9 37.5t-3.5 40t-0.5 45.5v151q0 110 36 154t124 44q22 0 65.5 -5t100.5 -15.5t98 -33t41 -51.5v-430q0 -44 -2 -72.5t-8.5 -59t-19 -48t-34 -32.5t-53.5 -21.5t-77 -6.5 q-139 0 -229 35q-27 11 -14 46q2 5 6 19t6.5 23t7.5 21t10.5 18t13.5 10t18 2q75 -23 155 -23zM343 145v236q0 4 -38 10t-62 6q-25 0 -25 -46v-173q0 -46 25 -46q64 0 100 13zM495 821l-157 -196q-12 -15 -26.5 -22.5t-25 -9t-27.5 -1.5q-20 0 -11 33l60 217q8 26 145 26 q19 0 32.5 -10t13.5 -23q0 -9 -4 -14z" />
<glyph unicode="&#x124;" horiz-adv-x="725" d="M665 697v-677q0 -12 -14 -22t-29 -10q-38 0 -87.5 7.5t-49.5 24.5v271h-245v-271q0 -12 -14 -22t-29 -10q-39 0 -88 7.5t-49 24.5v677q0 17 49 25t88 8q15 0 29 -10.5t14 -22.5v-243h245v243q0 17 49.5 25t87.5 8q15 0 29 -10.5t14 -22.5zM179 829q-10 10 -13 23.5 t4 20.5l176 148q8 7 19 7t19 -7l176 -148q7 -7 4 -20.5t-13 -23.5q-73 -86 -91 -70l-95 81l-95 -81q-18 -16 -91 70z" />
<glyph unicode="&#x125;" d="M346 16v302q0 68 -21 68q-18 0 -42 -2.5t-40.5 -5.5t-16.5 -5v-357q0 -12 -14 -20t-30 -8q-126 0 -126 28v729q2 23 111 26l83 70q8 7 19 7t19 -7l176 -148q7 -7 4 -20.5t-13 -23.5q-73 -86 -91 -70l-95 81l-44 -38v-114q65 29 126 29q46 0 77.5 -11.5t48.5 -28t26 -45.5 t11 -53t2 -62v-321q0 -12 -14.5 -20t-30.5 -8q-125 0 -125 28z" />
<glyph unicode="&#x126;" horiz-adv-x="755" d="M680 697v-36h51q11 0 18.5 -12.5t7.5 -27.5q0 -119 -26 -119h-51v-482q0 -12 -14 -22t-29 -10q-38 0 -87.5 7.5t-49.5 24.5v271h-245v-271q0 -12 -14 -22t-29 -10q-39 0 -88 7.5t-49 24.5v482h-49q-11 0 -18.5 13t-7.5 28q0 118 26 118h49v36q0 17 49 25t88 8 q15 0 29 -10.5t14 -22.5v-36h245v36q0 17 49.5 25t87.5 8q15 0 29 -10.5t14 -22.5zM255 454h245v48h-245v-48z" />
<glyph unicode="&#x127;" d="M281 584h-56v-76q65 29 126 29q46 0 77.5 -11.5t48.5 -28t26 -45.5t11 -53t2 -62v-321q0 -12 -14.5 -20t-30.5 -8q-125 0 -125 28v302q0 68 -21 68q-18 0 -42 -2.5t-40.5 -5.5t-16.5 -5v-357q0 -12 -14 -20t-30 -8q-126 0 -126 28v568h-66q-10 0 -20 11t-10 23 q0 96 29 96h67v31q3 26 126 26q16 0 29.5 -8t13.5 -20v-29h59q10 0 20.5 -11t10.5 -23q0 -34 -8 -65t-26 -31z" />
<glyph unicode="&#x128;" horiz-adv-x="300" d="M240 16q0 -12 -14 -20t-30 -8q-136 0 -136 28v686q0 28 136 28q16 0 30 -8t14 -20v-686zM192 764q-7 0 -28.5 6.5t-40 12t-36.5 4.5t-23 -13q0 -4 -5 -7.5t-24.5 -1t-50.5 15.5q-22 11 -18 33q10 54 43.5 86.5t77.5 30.5q12 -1 38 -9t47.5 -14t41.5 -4t26 17q0 4 5 7.5 t24.5 1t50.5 -15.5q22 -10 18 -33q-11 -61 -52 -90.5t-94 -26.5z" />
<glyph unicode="&#x129;" horiz-adv-x="333" d="M114 584q-7 0 -28.5 6.5t-40 12t-36.5 4.5t-23 -13q0 -4 -5 -7.5t-24.5 -1t-50.5 15.5q-22 11 -18 33q10 54 43.5 86.5t77.5 30.5q12 -1 38 -9t47.5 -14t41.5 -4t26 17q0 4 5 7.5t24.5 1t50.5 -15.5q22 -10 18 -33q-11 -61 -52 -90.5t-94 -26.5zM276 158q7 2 15.5 -7 t16.5 -27.5t12 -30.5l9 -27q12 -37 -12 -48q-63 -30 -133 -30q-128 0 -128 152v371q0 26 127 26q16 0 29.5 -7.5t13.5 -18.5v-337q0 -17 1 -22t7 -5q8 0 42 11z" />
<glyph unicode="&#x12a;" horiz-adv-x="300" d="M240 16q0 -12 -14 -20t-30 -8q-136 0 -136 28v686q0 28 136 28q16 0 30 -8t14 -20v-686zM292 768h-291q-10 0 -20 11t-10 23q0 96 29 96h295q10 0 20.5 -11t10.5 -23q0 -34 -8 -65t-26 -31z" />
<glyph unicode="&#x12b;" horiz-adv-x="333" d="M276 158q7 2 15.5 -7t16.5 -27.5t12 -30.5l9 -27q12 -37 -12 -48q-63 -30 -133 -30q-128 0 -128 152v371q0 26 127 26q16 0 29.5 -7.5t13.5 -18.5v-337q0 -17 1 -22t7 -5q8 0 42 11zM292 600h-291q-10 0 -20 11t-10 23q0 96 29 96h295q10 0 20.5 -11t10.5 -23 q0 -34 -8 -65t-26 -31z" />
<glyph unicode="&#x12c;" horiz-adv-x="300" d="M240 16q0 -12 -14 -20t-30 -8q-136 0 -136 28v686q0 28 136 28q16 0 30 -8t14 -20v-686zM153 760q-76 0 -130.5 45.5t-54.5 128.5q0 11 11 17.5t26 6.5q106 0 106 -22q0 -19 12.5 -29.5t29.5 -10.5t29.5 10.5t12.5 29.5q0 22 106 22q15 0 26 -6.5t11 -17.5 q0 -83 -54.5 -128.5t-130.5 -45.5z" />
<glyph unicode="&#x12d;" horiz-adv-x="333" d="M142 580q-76 0 -130.5 45.5t-54.5 128.5q0 11 11 17.5t26 6.5q106 0 106 -22q0 -19 12.5 -29.5t29.5 -10.5t29.5 10.5t12.5 29.5q0 22 106 22q15 0 26 -6.5t11 -17.5q0 -83 -54.5 -128.5t-130.5 -45.5zM276 158q7 2 15.5 -7t16.5 -27.5t12 -30.5l9 -27q12 -37 -12 -48 q-63 -30 -133 -30q-128 0 -128 152v371q0 26 127 26q16 0 29.5 -7.5t13.5 -18.5v-337q0 -17 1 -22t7 -5q8 0 42 11z" />
<glyph unicode="&#x12e;" horiz-adv-x="300" d="M204 -75q6 3 11.5 3t10.5 -2.5t9 -6t7.5 -10t6 -11.5t5.5 -12t4.5 -11.5t3 -10.5t2.5 -8q7 -24 -46 -49t-102 -23q-57 2 -93 34.5t-45 82.5q-9 47 12 93t70 78v630q0 28 136 28q16 0 30 -8t14 -20v-686q0 -12 -14 -20t-30 -8h-12q-36 -30 -36 -58q0 -17 19 -17 q12 0 37 12z" />
<glyph unicode="&#x12f;" horiz-adv-x="333" d="M240 -56q6 3 11.5 3t10.5 -2.5t9 -6t7.5 -10t6 -11.5t5.5 -12t4.5 -11.5t3 -10.5t2.5 -8q7 -24 -46 -49t-102 -23q-57 2 -93 34.5t-45 82.5q-15 84 51 147q-9 30 -9 73v371q0 26 127 26q16 0 29.5 -7.5t13.5 -18.5v-337q0 -17 1 -22t7 -5q8 0 42 11q7 2 15.5 -7 t16.5 -27.5t12 -30.5l9 -27q12 -37 -12 -48q-55 -26 -116 -29q-17 -21 -17 -40q0 -17 19 -17q12 0 37 12zM58 613v130q0 28 125 28q16 0 29.5 -8t13.5 -20v-130q0 -12 -13.5 -20t-29.5 -8q-125 0 -125 28z" />
<glyph unicode="&#x130;" horiz-adv-x="300" d="M240 16q0 -12 -14 -20t-30 -8q-136 0 -136 28v686q0 28 136 28q16 0 30 -8t14 -20v-686zM61 786v162q0 26 125 26q16 0 29.5 -7.5t13.5 -18.5v-162q0 -11 -13.5 -18.5t-29.5 -7.5q-125 0 -125 26z" />
<glyph unicode="&#x131;" horiz-adv-x="333" d="M276 158q7 2 15.5 -7t16.5 -27.5t12 -30.5l9 -27q12 -37 -12 -48q-63 -30 -133 -30q-128 0 -128 152v371q0 26 127 26q16 0 29.5 -7.5t13.5 -18.5v-337q0 -17 1 -22t7 -5q8 0 42 11z" />
<glyph unicode="&#x132;" horiz-adv-x="534" d="M240 16q0 -12 -14 -20t-30 -8q-136 0 -136 28v686q0 28 136 28q16 0 30 -8t14 -20v-686zM217 -63q33 -11 55 -11q9 0 13 4t6.5 21t2.5 52v699q0 28 136 28q16 0 30 -8t14 -20v-722q0 -217 -181 -217q-64 0 -121 25q-24 11 -14 46q34 110 59 103z" />
<glyph unicode="&#x133;" horiz-adv-x="502" d="M209 -63q33 -11 55 -11q9 0 13 4t6.5 21t2.5 52v2q-48 -17 -102 -17q-128 0 -128 152v371q0 26 127 26q16 0 29.5 -7.5t13.5 -18.5v-337q0 -17 1 -22t7 -5q8 0 42 11q4 1 10 -3v356q0 26 125 26q16 0 29.5 -7.5t13.5 -18.5v-531q0 -113 -40.5 -165t-128.5 -52 q-64 0 -121 25q-24 11 -14 46q34 110 59 103zM286 613v130q0 28 125 28q16 0 29.5 -8t13.5 -20v-130q0 -12 -13.5 -20t-29.5 -8q-125 0 -125 28zM58 613v130q0 28 125 28q16 0 29.5 -8t13.5 -20v-130q0 -12 -13.5 -20t-29.5 -8q-125 0 -125 28z" />
<glyph unicode="&#x134;" horiz-adv-x="413" d="M-17 -63q33 -11 55 -11q9 0 13 4t6.5 21t2.5 52v699q0 28 136 28q16 0 30 -8t14 -20v-722q0 -217 -181 -217q-64 0 -121 25q-24 11 -14 46q34 110 59 103zM-33 829q-10 10 -13 23.5t4 20.5l176 148q8 7 19 7t19 -7l176 -148q7 -7 4 -20.5t-13 -23.5q-73 -86 -91 -70 l-95 81l-95 -81q-18 -16 -91 70z" />
<glyph unicode="&#x135;" horiz-adv-x="274" d="M-21 -63q33 -11 55 -11q9 0 13 4t6.5 21t2.5 52v508q0 26 127 26q16 0 29.5 -7.5t13.5 -18.5v-531q0 -113 -41.5 -165t-129.5 -52q-64 0 -121 25q-24 11 -14 46q34 110 59 103zM-44 668q-10 10 -13 23.5t4 20.5l176 148q8 7 19 7t19 -7l176 -148q7 -7 4 -20.5t-13 -23.5 q-73 -86 -91 -70l-95 81l-95 -81q-18 -16 -91 70z" />
<glyph unicode="&#x136;" horiz-adv-x="717" d="M239 16q0 -12 -13.5 -20t-29.5 -8q-136 0 -136 28v686q0 28 136 28q16 0 29.5 -8t13.5 -20v-303l221 303q23 28 138 28q52 0 52 -27q0 -16 -20 -40l-204 -280l243 -328q20 -24 20 -40q0 -27 -52 -27q-115 0 -138 28l-260 351v-351zM460 -124l-131 -200q-4 -7 -8.5 -12 t-8 -8.5t-9 -5.5t-8 -3.5t-9 -2t-8 -0.5h-9.5h-10q-21 0 -11 36l52 217q4 20 126 20q13 0 25 -7.5t12 -22.5q0 -5 -3 -11z" />
<glyph unicode="&#x139;" horiz-adv-x="548" d="M510 0h-373q-77 0 -77 26v676q0 28 137 28q16 0 29.5 -8t13.5 -20v-541h269q11 0 19 -13t8 -28q0 -120 -26 -120zM79 810l156 201q8 11 34.5 6t49 -13t33.5 -14q49 -28 35 -42l-171 -157q-13 -11 -77 -10q-67 1 -64 21q1 4 4 8z" />
<glyph unicode="&#x13a;" horiz-adv-x="333" d="M276 158q7 2 15.5 -7t16.5 -27.5t12 -30.5l9 -27q12 -37 -12 -48q-63 -30 -133 -30q-128 0 -128 152v603q0 28 126 28q44 0 44 -41v-556q0 -17 1 -22t7 -5q8 0 42 11zM80 818l156 201q16 20 117 -27q49 -22 35 -36l-171 -157q-2 -2 -9 -10t-9.5 -8.5t-15 -5t-25.5 0.5 q-84 13 -81 36q1 3 3 6z" />
<glyph unicode="&#x13b;" horiz-adv-x="548" d="M510 0h-373q-77 0 -77 26v676q0 28 137 28q16 0 29.5 -8t13.5 -20v-541h269q11 0 19 -13t8 -28q0 -120 -26 -120zM444 -124l-131 -200q-4 -7 -8.5 -12t-8 -8.5t-9 -5.5t-8 -3.5t-9 -2t-8 -0.5h-9.5h-10q-21 0 -11 36l52 217q4 20 126 20q13 0 25 -7.5t12 -22.5 q0 -5 -3 -11z" />
<glyph unicode="&#x13c;" horiz-adv-x="333" d="M276 158q7 2 15.5 -7t16.5 -27.5t12 -30.5l9 -27q12 -37 -12 -48q-63 -30 -133 -30q-128 0 -128 152v603q0 28 126 28q44 0 44 -41v-556q0 -17 1 -22t7 -5q8 0 42 11zM286 -124l-131 -200q-4 -7 -8.5 -12t-8 -8.5t-9 -5.5t-8 -3.5t-9 -2t-8 -0.5h-9.5h-10q-21 0 -11 36 l52 217q4 20 126 20q13 0 25 -7.5t12 -22.5q0 -5 -3 -11z" />
<glyph unicode="&#x13d;" horiz-adv-x="548" d="M510 0h-373q-77 0 -77 26v676q0 28 137 28q16 0 29.5 -8t13.5 -20v-541h269q11 0 19 -13t8 -28q0 -120 -26 -120z" />
<glyph unicode="&#x13e;" horiz-adv-x="333" d="M276 158q7 2 15.5 -7t16.5 -27.5t12 -30.5l9 -27q12 -37 -12 -48q-63 -30 -133 -30q-128 0 -128 152v603q0 28 126 28q44 0 44 -41v-556q0 -17 1 -22t7 -5q8 0 42 11zM497 747l-128 -194q-5 -8 -9.5 -13.5t-10 -8.5t-8.5 -5t-10 -3t-9.5 -1h-11h-10.5q-18 0 -11 32v-1 l1 4h-1q1 0 1 1v-1l50 210q4 20 124 20q38 0 38 -27q0 -8 -5 -13z" />
<glyph unicode="&#x13f;" horiz-adv-x="548" d="M510 0h-373q-77 0 -77 26v676q0 28 137 28q16 0 29.5 -8t13.5 -20v-541h269q11 0 19 -13t8 -28q0 -120 -26 -120zM299 265v161q0 26 125 26q17 0 30 -7t13 -19v-161q0 -12 -13 -19t-30 -7q-125 0 -125 26z" />
<glyph unicode="&#x140;" horiz-adv-x="448" d="M275 158q7 2 15.5 -7t16.5 -27.5t12 -30.5l9 -27q12 -37 -12 -48q-63 -30 -133 -30q-128 0 -128 152v603q0 28 126 28q44 0 44 -41v-556q0 -17 1 -22t7 -5q8 0 42 11zM312 118v161q0 26 125 26q17 0 30 -7t13 -19v-161q0 -12 -13 -19t-30 -7q-125 0 -125 26z" />
<glyph unicode="&#x141;" horiz-adv-x="698" d="M611 -9h-314q-136 0 -136 26v210l-62 -35q-9 -6 -21.5 1.5t-19.5 21.5q-59 103 -38 114l141 81v287q0 26 136 26q16 0 29.5 -7.5t13.5 -18.5v-185l80 47q10 6 22.5 -1.5t20.5 -20.5q1 -2 5 -9.5t7 -12.5t8 -14.5t8 -16.5t7 -16t5.5 -16t2.5 -13t-0.5 -10.5t-5.5 -6.5 l-160 -92v-178h270q11 0 18.5 -13t7.5 -28q0 -120 -25 -120z" />
<glyph unicode="&#x142;" horiz-adv-x="330" d="M278 158q7 2 15.5 -7t16.5 -27.5t12 -30.5l9 -27q12 -37 -12 -48q-63 -30 -133 -30q-128 0 -128 152v125l-47 -27q-9 -5 -21.5 2t-20.5 20q-1 2 -6.5 12.5t-10 18.5t-10 20t-9 21t-6 18.5t-1.5 16t6 9.5l126 72v295q0 28 126 28q44 0 44 -41v-184l47 27q11 6 23 -1.5 t19 -20.5q59 -104 38 -116l-127 -73v-188q0 -17 1 -22t7 -5q8 0 42 11z" />
<glyph unicode="&#x143;" horiz-adv-x="754" d="M694 14q0 -12 -13 -19t-30 -7q-116 0 -136 26l-277 398v-392q0 -12 -14 -22t-29 -10q-38 0 -86.5 7.5t-48.5 24.5v686q0 24 132 24q23 0 46 -32l277 -399v407q0 24 143 24q15 0 25.5 -9t10.5 -23v-684zM333 797l156 201q8 11 34.5 6t49 -13t33.5 -14q49 -28 35 -42 l-171 -157q-13 -11 -77 -10q-67 1 -64 21q1 4 4 8z" />
<glyph unicode="&#x144;" d="M342 16v297q0 68 -21 68q-18 0 -42 -3t-40.5 -7.5t-16.5 -6.5v-348q0 -12 -13.5 -20t-29.5 -8q-127 0 -127 28v420q0 37 88.5 69t206.5 32q46 0 77.5 -11.5t48.5 -28t26 -45.5t11 -53t2 -62v-321q0 -12 -14.5 -20t-30.5 -8q-125 0 -125 28zM250 679l156 201q8 11 34.5 6 t49 -13t33.5 -14q49 -28 35 -42l-171 -157q-13 -11 -77 -10q-67 1 -64 21q1 4 4 8z" />
<glyph unicode="&#x145;" horiz-adv-x="754" d="M694 14q0 -12 -13 -19t-30 -7q-116 0 -136 26l-277 398v-392q0 -12 -14 -22t-29 -10q-38 0 -86.5 7.5t-48.5 24.5v686q0 24 132 24q23 0 46 -32l277 -399v407q0 24 143 24q15 0 25.5 -9t10.5 -23v-684zM485 -124l-131 -200q-4 -7 -8.5 -12t-8 -8.5t-9 -5.5t-8 -3.5t-9 -2 t-8 -0.5h-9.5h-10q-21 0 -11 36l52 217q4 20 126 20q13 0 25 -7.5t12 -22.5q0 -5 -3 -11z" />
<glyph unicode="&#x146;" d="M342 16v297q0 68 -21 68q-18 0 -42 -3t-40.5 -7.5t-16.5 -6.5v-348q0 -12 -13.5 -20t-29.5 -8q-127 0 -127 28v420q0 37 88.5 69t206.5 32q46 0 77.5 -11.5t48.5 -28t26 -45.5t11 -53t2 -62v-321q0 -12 -14.5 -20t-30.5 -8q-125 0 -125 28zM423 -124l-131 -200 q-4 -7 -8.5 -12t-8 -8.5t-9 -5.5t-8 -3.5t-9 -2t-8 -0.5h-9.5h-10q-21 0 -11 36l52 217q4 20 126 20q13 0 25 -7.5t12 -22.5q0 -5 -3 -11z" />
<glyph unicode="&#x147;" horiz-adv-x="754" d="M694 14q0 -12 -13 -19t-30 -7q-116 0 -136 26l-277 398v-392q0 -12 -14 -22t-29 -10q-38 0 -86.5 7.5t-48.5 24.5v686q0 24 132 24q23 0 46 -32l277 -399v407q0 24 143 24q15 0 25.5 -9t10.5 -23v-684zM190 951q73 86 91 70l95 -81l95 81q18 16 91 -70q10 -10 13 -23.5 t-4 -20.5l-176 -148q-8 -7 -19 -7t-19 7l-176 148q-7 7 -4 20.5t13 23.5z" />
<glyph unicode="&#x148;" d="M342 16v297q0 68 -21 68q-18 0 -42 -3t-40.5 -7.5t-16.5 -6.5v-348q0 -12 -13.5 -20t-29.5 -8q-127 0 -127 28v420q0 37 88.5 69t206.5 32q46 0 77.5 -11.5t48.5 -28t26 -45.5t11 -53t2 -62v-321q0 -12 -14.5 -20t-30.5 -8q-125 0 -125 28zM153 812q73 86 91 70l95 -81 l95 81q18 16 91 -70q10 -10 13 -23.5t-4 -20.5l-176 -148q-8 -7 -19 -7t-19 7l-176 148q-7 7 -4 20.5t13 23.5z" />
<glyph unicode="&#x149;" d="M342 16v297q0 68 -21 68q-18 0 -42 -3t-40.5 -7.5t-16.5 -6.5v-348q0 -12 -13.5 -20t-29.5 -8q-127 0 -127 28v420q0 37 88.5 69t206.5 32q46 0 77.5 -11.5t48.5 -28t26 -45.5t11 -53t2 -62v-321q0 -12 -14.5 -20t-30.5 -8q-125 0 -125 28zM293 811l-131 -200 q-4 -7 -8.5 -12t-8 -8.5t-9 -5.5t-8 -3.5t-9 -2t-8 -0.5h-9.5h-10q-21 0 -11 36l52 217q4 20 126 20q13 0 25 -7.5t12 -22.5q0 -5 -3 -11z" />
<glyph unicode="&#x14a;" horiz-adv-x="784" d="M724 14q0 -111 -26 -168t-91 -75q-30 -8 -64 -8q-64 0 -121 25q-24 11 -14 46q35 111 59 103l33 -9q9 -2 22 -2q9 0 13 4t6.5 21t2.5 52v12l-306 392v-387q0 -12 -14 -22t-29 -10q-38 0 -86.5 7.5t-48.5 24.5v686q0 24 132 24q20 0 46 -32l307 -384v392q0 24 143 24 q15 0 25.5 -9t10.5 -23v-684z" />
<glyph unicode="&#x14b;" horiz-adv-x="550" d="M330 318q0 68 -8 68q-94 0 -102 12v-384q0 -12 -13 -19t-30 -7q-125 0 -125 26v422q0 32 85 66.5t198 34.5q38 0 66.5 -7t46 -22t28 -31t15 -42t6 -46t1.5 -52v-323q0 -88 -40 -142.5t-129 -54.5q-45 0 -120 29q-25 10 -13 46l6.5 19.5t10.5 28.5t11.5 26t13.5 20.5 t14 4.5q62 -20 66 -20q12 0 12 68v279z" />
<glyph unicode="&#x14c;" horiz-adv-x="737" d="M372 -11h-8q-165 0 -240.5 63.5t-75.5 217.5v179q0 154 75.5 217.5t240.5 63.5h8q165 0 241 -63.5t76 -217.5v-179q0 -154 -76 -217.5t-241 -63.5zM233 439v-159q0 -42 3 -63.5t16.5 -38.5t39.5 -22t72 -5h8q46 0 72 5t39.5 22t17 38.5t3.5 63.5v159q0 42 -3.5 63.5 t-17 38.5t-39.5 22t-72 5h-8q-46 0 -72 -5t-39.5 -22t-16.5 -38.5t-3 -63.5zM505 764h-291q-10 0 -20 11t-10 23q0 96 29 96h295q10 0 20.5 -11t10.5 -23q0 -34 -8 -65t-26 -31z" />
<glyph unicode="&#x14d;" horiz-adv-x="559" d="M48 188v142q0 123 49.5 165t178.5 42h7q129 0 178.5 -42t49.5 -165v-142q0 -123 -49.5 -165t-178.5 -42h-7q-129 0 -178.5 42t-49.5 165zM273 131h13q36 0 46 10t10 46v144q0 36 -10 46t-46 10h-13q-36 0 -46 -10t-10 -46v-144q0 -36 10 -46t46 -10zM424 600h-291 q-10 0 -20 11t-10 23q0 96 29 96h295q10 0 20.5 -11t10.5 -23q0 -34 -8 -65t-26 -31z" />
<glyph unicode="&#x14e;" horiz-adv-x="737" d="M372 -11h-8q-165 0 -240.5 63.5t-75.5 217.5v179q0 154 75.5 217.5t240.5 63.5h8q165 0 241 -63.5t76 -217.5v-179q0 -154 -76 -217.5t-241 -63.5zM233 439v-159q0 -42 3 -63.5t16.5 -38.5t39.5 -22t72 -5h8q46 0 72 5t39.5 22t17 38.5t3.5 63.5v159q0 42 -3.5 63.5 t-17 38.5t-39.5 22t-72 5h-8q-46 0 -72 -5t-39.5 -22t-16.5 -38.5t-3 -63.5zM371 760q-76 0 -130.5 45.5t-54.5 128.5q0 11 11 17.5t26 6.5q106 0 106 -22q0 -19 12.5 -29.5t29.5 -10.5t29.5 10.5t12.5 29.5q0 22 106 22q15 0 26 -6.5t11 -17.5q0 -83 -54.5 -128.5 t-130.5 -45.5z" />
<glyph unicode="&#x14f;" horiz-adv-x="559" d="M48 188v142q0 123 49.5 165t178.5 42h7q129 0 178.5 -42t49.5 -165v-142q0 -123 -49.5 -165t-178.5 -42h-7q-129 0 -178.5 42t-49.5 165zM273 131h13q36 0 46 10t10 46v144q0 36 -10 46t-46 10h-13q-36 0 -46 -10t-10 -46v-144q0 -36 10 -46t46 -10zM280 600 q-76 0 -130.5 45.5t-54.5 128.5q0 11 11 17.5t26 6.5q106 0 106 -22q0 -19 12.5 -29.5t29.5 -10.5t29.5 10.5t12.5 29.5q0 22 106 22q15 0 26 -6.5t11 -17.5q0 -83 -54.5 -128.5t-130.5 -45.5z" />
<glyph unicode="&#x150;" horiz-adv-x="737" d="M372 -11h-8q-165 0 -240.5 63.5t-75.5 217.5v179q0 154 75.5 217.5t240.5 63.5h8q165 0 241 -63.5t76 -217.5v-179q0 -154 -76 -217.5t-241 -63.5zM233 439v-159q0 -42 3 -63.5t16.5 -38.5t39.5 -22t72 -5h8q46 0 72 5t39.5 22t17 38.5t3.5 63.5v159q0 42 -3.5 63.5 t-17 38.5t-39.5 22t-72 5h-8q-46 0 -72 -5t-39.5 -22t-16.5 -38.5t-3 -63.5zM437 795l137 173q13 14 22 13l143 -19q29 -5 9 -25l-192 -176q-10 -10 -20 -10q-16 0 -62.5 15.5t-36.5 28.5zM211 795l137 173q13 14 22 13l143 -19q29 -5 9 -25l-192 -176q-10 -10 -20 -10 q-16 0 -62.5 15.5t-36.5 28.5z" />
<glyph unicode="&#x151;" horiz-adv-x="559" d="M48 188v142q0 123 49.5 165t178.5 42h7q129 0 178.5 -42t49.5 -165v-142q0 -123 -49.5 -165t-178.5 -42h-7q-129 0 -178.5 42t-49.5 165zM273 131h13q36 0 46 10t10 46v144q0 36 -10 46t-46 10h-13q-36 0 -46 -10t-10 -46v-144q0 -36 10 -46t46 -10zM419 627l137 173 q13 14 22 13l143 -19q29 -5 9 -25l-192 -176q-10 -10 -20 -10q-16 0 -62.5 15.5t-36.5 28.5zM193 627l137 173q13 14 22 13l143 -19q29 -5 9 -25l-192 -176q-10 -10 -20 -10q-16 0 -62.5 15.5t-36.5 28.5z" />
<glyph unicode="&#x152;" horiz-adv-x="1062" d="M585 26v6q-75 -43 -213 -43h-8q-165 0 -240.5 63.5t-75.5 217.5v179q0 154 75.5 217.5t240.5 63.5h8q139 0 213 -44v4q0 14 12 22t31 8h357q12 0 20 -13t8 -28q0 -120 -27 -120h-297v-113h240q12 0 20 -13t8 -28q0 -120 -27 -120h-241v-124h296q12 0 20 -13t8 -28 q0 -120 -27 -120h-347q-17 0 -35.5 9t-18.5 17zM233 419v-119q0 -43 3.5 -66.5t16 -45t39.5 -29.5t72 -8h8q45 0 72 8t40 29.5t16.5 45t3.5 66.5v119q0 43 -3.5 66.5t-16.5 45t-40 29.5t-72 8h-8q-45 0 -72 -8t-39.5 -29.5t-16 -45t-3.5 -66.5z" />
<glyph unicode="&#x153;" horiz-adv-x="831" d="M764 19q-66 -23 -144 -29q-32 -2 -47 -2q-75 0 -124 23q-49 -33 -170 -33q-130 0 -180.5 41.5t-50.5 165.5v145q0 122 50 164.5t178 42.5q106 0 155 -23q46 23 149 23h7q50 0 86 -10t56.5 -25.5t32 -40t15 -47.5t3.5 -55v-54q0 -30 -18 -50t-79.5 -35t-170.5 -18 q0 -29 16.5 -46.5t44.5 -17.5q15 0 43 2q35 3 119 23q25 6 46 -101q7 -35 -17 -43zM273 128q53 0 61 12.5t8 81.5v74q0 65 -7.5 78t-55.5 13q-45 0 -53.5 -12t-8.5 -69v-17v-63q0 -70 5 -81q11 -17 51 -17zM610 340v32q0 20 -5.5 27t-25.5 7q-67 0 -67 -63v-20q23 0 60.5 4 t37.5 13z" />
<glyph unicode="&#x154;" horiz-adv-x="668" d="M60 17v677q0 12 13 19t30 7h236q76 0 125 -9t86.5 -34t54.5 -70t17 -115v-35q0 -91 -29.5 -140t-91.5 -69l123 -198q14 -22 14 -36q0 -26 -57 -26q-119 0 -135 25l-137 217h-70v-216q0 -12 -13 -19t-30 -7q-136 0 -136 29zM349 559h-110v-168h110q61 0 74 11t13 55v35 q0 44 -13 55.5t-74 11.5zM283 810l156 201q8 11 34.5 6t49 -13t33.5 -14q49 -28 35 -42l-171 -157q-13 -11 -77 -10q-67 1 -64 21q1 4 4 8z" />
<glyph unicode="&#x155;" horiz-adv-x="391" d="M327 383q-19 3 -31 3q-22 0 -49 -7.5t-27 -15.5v-347q0 -12 -13.5 -20t-29.5 -8q-125 0 -125 28v420q0 32 80 66.5t166 34.5q24 0 54 -3q34 -3 27 -36q-4 -18 -7.5 -32t-10 -36.5t-15.5 -35t-19 -11.5zM242 630l156 201q8 11 34.5 6t49 -13t33.5 -14q49 -28 35 -42 l-171 -157q-13 -11 -77 -10q-67 1 -64 21q1 4 4 8z" />
<glyph unicode="&#x156;" horiz-adv-x="668" d="M60 17v677q0 12 13 19t30 7h236q76 0 125 -9t86.5 -34t54.5 -70t17 -115v-35q0 -91 -29.5 -140t-91.5 -69l123 -198q14 -22 14 -36q0 -26 -57 -26q-119 0 -135 25l-137 217h-70v-216q0 -12 -13 -19t-30 -7q-136 0 -136 29zM349 559h-110v-168h110q61 0 74 11t13 55v35 q0 44 -13 55.5t-74 11.5zM466 -124l-131 -200q-4 -7 -8.5 -12t-8 -8.5t-9 -5.5t-8 -3.5t-9 -2t-8 -0.5h-9.5h-10q-21 0 -11 36l52 217q4 20 126 20q13 0 25 -7.5t12 -22.5q0 -5 -3 -11z" />
<glyph unicode="&#x157;" horiz-adv-x="391" d="M327 383q-19 3 -31 3q-22 0 -49 -7.5t-27 -15.5v-347q0 -12 -13.5 -20t-29.5 -8q-125 0 -125 28v420q0 32 80 66.5t166 34.5q24 0 54 -3q34 -3 27 -36q-4 -18 -7.5 -32t-10 -36.5t-15.5 -35t-19 -11.5zM360 -124l-131 -200q-4 -7 -8.5 -12t-8 -8.5t-9 -5.5t-8 -3.5t-9 -2 t-8 -0.5h-9.5h-10q-21 0 -11 36l52 217q4 20 126 20q13 0 25 -7.5t12 -22.5q0 -5 -3 -11z" />
<glyph unicode="&#x158;" horiz-adv-x="668" d="M60 17v677q0 12 13 19t30 7h236q76 0 125 -9t86.5 -34t54.5 -70t17 -115v-35q0 -91 -29.5 -140t-91.5 -69l123 -198q14 -22 14 -36q0 -26 -57 -26q-119 0 -135 25l-137 217h-70v-216q0 -12 -13 -19t-30 -7q-136 0 -136 29zM349 559h-110v-168h110q61 0 74 11t13 55v35 q0 44 -13 55.5t-74 11.5zM186 943q73 86 91 70l95 -81l95 81q18 16 91 -70q10 -10 13 -23.5t-4 -20.5l-176 -148q-8 -7 -19 -7t-19 7l-176 148q-7 7 -4 20.5t13 23.5z" />
<glyph unicode="&#x159;" horiz-adv-x="391" d="M327 383q-19 3 -31 3q-22 0 -49 -7.5t-27 -15.5v-347q0 -12 -13.5 -20t-29.5 -8q-125 0 -125 28v420q0 32 80 66.5t166 34.5q24 0 54 -3q34 -3 27 -36q-4 -18 -7.5 -32t-10 -36.5t-15.5 -35t-19 -11.5zM145 763q73 86 91 70l95 -81l95 81q18 16 91 -70q10 -10 13 -23.5 t-4 -20.5l-176 -148q-8 -7 -19 -7t-19 7l-176 148q-7 7 -4 20.5t13 23.5z" />
<glyph unicode="&#x15a;" horiz-adv-x="578" d="M86 182q143 -30 183 -30q89 0 89 42q0 27 -31.5 48t-76 40t-89 44t-76 71.5t-31.5 110.5q0 52 15.5 91.5t40.5 64t61 39.5t72.5 21t78.5 6q120 0 174 -29q33 -18 20 -51q-23 -78 -48 -95q-15 -10 -33 -5q-64 18 -110 18q-36 0 -63.5 -9.5t-27.5 -30.5q0 -27 31.5 -48 t76 -40t89 -44t76 -71.5t31.5 -110.5q0 -66 -21 -112t-59.5 -70t-84 -34t-104.5 -10q-134 0 -226 41q-26 11 -14 48q1 3 5 14t6.5 19t7.5 20t9.5 20.5l9 17t9.5 12t10 2.5zM249 810l156 201q8 11 34.5 6t49 -13t33.5 -14q49 -28 35 -42l-171 -157q-13 -11 -77 -10 q-67 1 -64 21q1 4 4 8z" />
<glyph unicode="&#x15b;" horiz-adv-x="487" d="M82 162q87 -24 150 -24q61 0 61 20q0 11 -24.5 21.5t-59 23t-69.5 30.5t-59.5 53t-24.5 82q0 46 13 78.5t31.5 50t49.5 27t56.5 11.5t64.5 2q73 0 138 -20q28 -8 21 -43q-22 -108 -46 -103q-76 16 -113 16q-45 0 -45 -19q0 -9 24.5 -17.5t59 -20.5t69.5 -30.5t59.5 -55 t24.5 -86.5q0 -42 -12.5 -73t-32 -49.5t-50 -29.5t-60 -14.5t-67.5 -3.5q-113 0 -194 29q-25 12 -14 47q1 2 4 13t5 18.5t6 19t7.5 19.5t8 15.5t9 10.5t9.5 2zM238 630l156 201q8 11 34.5 6t49 -13t33.5 -14q49 -28 35 -42l-171 -157q-13 -11 -77 -10q-67 1 -64 21q1 4 4 8z " />
<glyph unicode="&#x15c;" horiz-adv-x="578" d="M86 182q143 -30 183 -30q89 0 89 42q0 27 -31.5 48t-76 40t-89 44t-76 71.5t-31.5 110.5q0 52 15.5 91.5t40.5 64t61 39.5t72.5 21t78.5 6q120 0 174 -29q33 -18 20 -51q-23 -78 -48 -95q-15 -10 -33 -5q-64 18 -110 18q-36 0 -63.5 -9.5t-27.5 -30.5q0 -27 31.5 -48 t76 -40t89 -44t76 -71.5t31.5 -110.5q0 -66 -21 -112t-59.5 -70t-84 -34t-104.5 -10q-134 0 -226 41q-26 11 -14 48q1 3 5 14t6.5 19t7.5 20t9.5 20.5l9 17t9.5 12t10 2.5zM142 829q-10 10 -13 23.5t4 20.5l176 148q8 7 19 7t19 -7l176 -148q7 -7 4 -20.5t-13 -23.5 q-73 -86 -91 -70l-95 81l-95 -81q-18 -16 -91 70z" />
<glyph unicode="&#x15d;" horiz-adv-x="487" d="M82 162q87 -24 150 -24q61 0 61 20q0 11 -24.5 21.5t-59 23t-69.5 30.5t-59.5 53t-24.5 82q0 46 13 78.5t31.5 50t49.5 27t56.5 11.5t64.5 2q73 0 138 -20q28 -8 21 -43q-22 -108 -46 -103q-76 16 -113 16q-45 0 -45 -19q0 -9 24.5 -17.5t59 -20.5t69.5 -30.5t59.5 -55 t24.5 -86.5q0 -42 -12.5 -73t-32 -49.5t-50 -29.5t-60 -14.5t-67.5 -3.5q-113 0 -194 29q-25 12 -14 47q1 2 4 13t5 18.5t6 19t7.5 19.5t8 15.5t9 10.5t9.5 2zM85 661q-10 10 -13 23.5t4 20.5l176 148q8 7 19 7t19 -7l176 -148q7 -7 4 -20.5t-13 -23.5q-73 -86 -91 -70 l-95 81l-95 -81q-18 -16 -91 70z" />
<glyph unicode="&#x15e;" horiz-adv-x="578" d="M148 -94l40 87q-91 11 -145 36q-26 11 -14 48q1 3 5 14t6.5 19t7.5 20t9.5 20.5l9 17t9.5 12t10 2.5q143 -30 183 -30q89 0 89 42q0 27 -31.5 48t-76 40t-89 44t-76 71.5t-31.5 110.5q0 52 15.5 91.5t40.5 64t61 39.5t72.5 21t78.5 6q120 0 174 -29q33 -18 20 -51 q-23 -78 -48 -95q-15 -10 -33 -5q-64 18 -110 18q-36 0 -63.5 -9.5t-27.5 -30.5q0 -27 31.5 -48t76 -40t89 -44t76 -71.5t31.5 -110.5q0 -110 -55.5 -161.5t-152.5 -61.5l-22 -42q50 -10 63 -43.5t1 -87.5q-21 -86 -116 -110q-26 -10 -96 -8t-74 24q-4 23 11 52t50 22 q11 -2 23 -2q29 0 45.5 11.5t20 22t3.5 21.5q0 14 -18 18t-38 3t-32 6.5t-3 27.5z" />
<glyph unicode="&#x15f;" horiz-adv-x="487" d="M144 -80l33 72q-84 7 -130 25q-25 12 -14 47q1 2 4 13t5 18.5t6 19t7.5 19.5t8 15.5t9 10.5t9.5 2q87 -24 150 -24q61 0 61 20q0 11 -24.5 21.5t-59 23t-69.5 30.5t-59.5 53t-24.5 82q0 46 13 78.5t31.5 50t49.5 27t56.5 11.5t64.5 2q73 0 138 -20q28 -8 21 -43 q-22 -108 -46 -103q-76 16 -113 16q-45 0 -45 -19q0 -9 24.5 -17.5t59 -20.5t69.5 -30.5t59.5 -55t24.5 -86.5q0 -143 -143 -164l-16 -31q50 -10 63 -43.5t1 -87.5q-21 -86 -116 -110q-26 -10 -96 -8t-74 24q-4 23 11 52t50 22q11 -2 23 -2q29 0 45.5 11.5t20 22t3.5 21.5 q0 14 -18 18t-38 3t-32 6.5t-3 27.5z" />
<glyph unicode="&#x160;" horiz-adv-x="578" d="M86 182q143 -30 183 -30q89 0 89 42q0 27 -31.5 48t-76 40t-89 44t-76 71.5t-31.5 110.5q0 52 15.5 91.5t40.5 64t61 39.5t72.5 21t78.5 6q120 0 174 -29q33 -18 20 -51q-23 -78 -48 -95q-15 -10 -33 -5q-64 18 -110 18q-36 0 -63.5 -9.5t-27.5 -30.5q0 -27 31.5 -48 t76 -40t89 -44t76 -71.5t31.5 -110.5q0 -66 -21 -112t-59.5 -70t-84 -34t-104.5 -10q-134 0 -226 41q-26 11 -14 48q1 3 5 14t6.5 19t7.5 20t9.5 20.5l9 17t9.5 12t10 2.5zM152 943q73 86 91 70l95 -81l95 81q18 16 91 -70q10 -10 13 -23.5t-4 -20.5l-176 -148q-8 -7 -19 -7 t-19 7l-176 148q-7 7 -4 20.5t13 23.5z" />
<glyph unicode="&#x161;" horiz-adv-x="487" d="M82 162q87 -24 150 -24q61 0 61 20q0 11 -24.5 21.5t-59 23t-69.5 30.5t-59.5 53t-24.5 82q0 46 13 78.5t31.5 50t49.5 27t56.5 11.5t64.5 2q73 0 138 -20q28 -8 21 -43q-22 -108 -46 -103q-76 16 -113 16q-45 0 -45 -19q0 -9 24.5 -17.5t59 -20.5t69.5 -30.5t59.5 -55 t24.5 -86.5q0 -42 -12.5 -73t-32 -49.5t-50 -29.5t-60 -14.5t-67.5 -3.5q-113 0 -194 29q-25 12 -14 47q1 2 4 13t5 18.5t6 19t7.5 19.5t8 15.5t9 10.5t9.5 2zM85 783q73 86 91 70l95 -81l95 81q18 16 91 -70q10 -10 13 -23.5t-4 -20.5l-176 -148q-8 -7 -19 -7t-19 7 l-176 148q-7 7 -4 20.5t13 23.5z" />
<glyph unicode="&#x162;" horiz-adv-x="620" d="M400 558v-542q0 -12 -14 -20t-30 -8q-136 0 -136 28v542h-184q-12 0 -20 13t-8 28q0 120 27 120h549q12 0 20 -13t8 -28q0 -120 -27 -120h-185zM451 -124l-131 -200q-4 -7 -8.5 -12t-8 -8.5t-9 -5.5t-8 -3.5t-9 -2t-8 -0.5h-9.5h-10q-21 0 -11 36l52 217q4 20 126 20 q13 0 25 -7.5t12 -22.5q0 -5 -3 -11z" />
<glyph unicode="&#x163;" horiz-adv-x="428" d="M383 376h-96v-202q0 -17 1 -22t7 -5t15.5 3.5t24.5 9.5t27 10q7 2 15.5 -7t16.5 -27.5t12 -30.5l9 -27q11 -35 -12 -48q-38 -23 -71 -32.5t-87 -9.5q-128 0 -128 152v236h-43q-11 0 -19 13t-8 28q0 118 27 118h43v103q0 26 127 26q16 0 29.5 -7.5t13.5 -18.5v-103h96 q11 0 19 -12.5t8 -27.5q0 -119 -27 -119zM327 -124l-131 -200q-4 -7 -8.5 -12t-8 -8.5t-9 -5.5t-8 -3.5t-9 -2t-8 -0.5h-9.5h-10q-21 0 -11 36l52 217q4 20 126 20q13 0 25 -7.5t12 -22.5q0 -5 -3 -11z" />
<glyph unicode="&#x164;" horiz-adv-x="620" d="M400 558v-542q0 -12 -14 -20t-30 -8q-136 0 -136 28v542h-184q-12 0 -20 13t-8 28q0 120 27 120h549q12 0 20 -13t8 -28q0 -120 -27 -120h-185zM123 959q73 86 91 70l95 -81l95 81q18 16 91 -70q10 -10 13 -23.5t-4 -20.5l-176 -148q-8 -7 -19 -7t-19 7l-176 148 q-7 7 -4 20.5t13 23.5z" />
<glyph unicode="&#x165;" horiz-adv-x="404" d="M353 376h-96v-202q0 -17 1 -22t7 -5t15.5 3.5t24.5 9.5t27 10q7 2 15.5 -7t16.5 -27.5t12 -30.5l9 -27q11 -35 -12 -48q-38 -23 -71 -32.5t-87 -9.5q-128 0 -128 152v236h-43q-11 0 -19 13t-8 28q0 118 27 118h43v103q0 26 127 26q16 0 29.5 -7.5t13.5 -18.5v-103h96 q11 0 19 -12.5t8 -27.5q0 -119 -27 -119z" />
<glyph unicode="&#x166;" horiz-adv-x="658" d="M540 289h-124v-273q0 -12 -14 -20t-30 -8q-136 0 -136 28v273h-143q-15 0 -31 17t-16 35q0 147 45 147h145v70h-184q-12 0 -20 13t-8 28q0 120 27 120h549q12 0 20 -13t8 -28q0 -120 -27 -120h-185v-70h128q16 0 32 -17t16 -35q0 -52 -12.5 -99.5t-39.5 -47.5z" />
<glyph unicode="&#x167;" horiz-adv-x="408" d="M326 210h-73v-36q0 -17 1 -22t7 -5t15.5 3.5t24.5 9.5t27 10q7 2 15.5 -7t16.5 -27.5t12 -30.5l9 -27q11 -35 -12 -48q-38 -23 -71 -32.5t-87 -9.5q-128 0 -128 152v70h-48q-10 0 -20 11t-10 23q0 96 29 96h49v36h-43q-11 0 -19 13t-8 28q0 118 27 118h43v103 q0 26 127 26q16 0 29.5 -7.5t13.5 -18.5v-103h96q11 0 19 -12.5t8 -27.5q0 -119 -27 -119h-96v-36h76q10 0 20.5 -11t10.5 -23q0 -34 -8 -65t-26 -31z" />
<glyph unicode="&#x168;" horiz-adv-x="755" d="M518 299v398q0 17 49 25t88 8q15 0 29 -10.5t14 -22.5v-428q0 -154 -76 -217.5t-241 -63.5h-8q-165 0 -241 63.5t-76 217.5v428q0 17 49 25t88 8q15 0 29 -10.5t14 -22.5v-398q0 -83 25.5 -116t111.5 -33h8q87 0 112 33t25 116zM362 764q-7 0 -28.5 6.5t-40 12t-36.5 4.5 t-23 -13q0 -4 -5 -7.5t-24.5 -1t-50.5 15.5q-22 11 -18 33q10 54 43.5 86.5t77.5 30.5q12 -1 38 -9t47.5 -14t41.5 -4t26 17q0 4 5 7.5t24.5 1t50.5 -15.5q22 -10 18 -33q-11 -61 -52 -90.5t-94 -26.5z" />
<glyph unicode="&#x169;" d="M342 144v365q0 28 127 28q16 0 29.5 -8t13.5 -20v-435q0 -30 -89.5 -58t-205.5 -28q-46 0 -77.5 11.5t-48.5 28t-26 45.5t-11 53t-2 62v321q0 28 125 28q16 0 30.5 -8t14.5 -20v-314q0 -68 21 -68q18 0 42 3t40.5 7.5t16.5 6.5zM324 596q-7 0 -28.5 6.5t-40 12t-36.5 4.5 t-23 -13q0 -4 -5 -7.5t-24.5 -1t-50.5 15.5q-22 11 -18 33q10 54 43.5 86.5t77.5 30.5q12 -1 38 -9t47.5 -14t41.5 -4t26 17q0 4 5 7.5t24.5 1t50.5 -15.5q22 -10 18 -33q-11 -61 -52 -90.5t-94 -26.5z" />
<glyph unicode="&#x16a;" horiz-adv-x="755" d="M518 299v398q0 17 49 25t88 8q15 0 29 -10.5t14 -22.5v-428q0 -154 -76 -217.5t-241 -63.5h-8q-165 0 -241 63.5t-76 217.5v428q0 17 49 25t88 8q15 0 29 -10.5t14 -22.5v-398q0 -83 25.5 -116t111.5 -33h8q87 0 112 33t25 116zM522 768h-291q-10 0 -20 11t-10 23 q0 96 29 96h295q10 0 20.5 -11t10.5 -23q0 -34 -8 -65t-26 -31z" />
<glyph unicode="&#x16b;" d="M342 144v365q0 28 127 28q16 0 29.5 -8t13.5 -20v-435q0 -30 -89.5 -58t-205.5 -28q-46 0 -77.5 11.5t-48.5 28t-26 45.5t-11 53t-2 62v321q0 28 125 28q16 0 30.5 -8t14.5 -20v-314q0 -68 21 -68q18 0 42 3t40.5 7.5t16.5 6.5zM418 600h-291q-10 0 -20 11t-10 23 q0 96 29 96h295q10 0 20.5 -11t10.5 -23q0 -34 -8 -65t-26 -31z" />
<glyph unicode="&#x16c;" horiz-adv-x="755" d="M518 299v398q0 17 49 25t88 8q15 0 29 -10.5t14 -22.5v-428q0 -154 -76 -217.5t-241 -63.5h-8q-165 0 -241 63.5t-76 217.5v428q0 17 49 25t88 8q15 0 29 -10.5t14 -22.5v-398q0 -83 25.5 -116t111.5 -33h8q87 0 112 33t25 116zM377 760q-76 0 -130.5 45.5t-54.5 128.5 q0 11 11 17.5t26 6.5q106 0 106 -22q0 -19 12.5 -29.5t29.5 -10.5t29.5 10.5t12.5 29.5q0 22 106 22q15 0 26 -6.5t11 -17.5q0 -83 -54.5 -128.5t-130.5 -45.5z" />
<glyph unicode="&#x16d;" d="M342 144v365q0 28 127 28q16 0 29.5 -8t13.5 -20v-435q0 -30 -89.5 -58t-205.5 -28q-46 0 -77.5 11.5t-48.5 28t-26 45.5t-11 53t-2 62v321q0 28 125 28q16 0 30.5 -8t14.5 -20v-314q0 -68 21 -68q18 0 42 3t40.5 7.5t16.5 6.5zM284 600q-76 0 -130.5 45.5t-54.5 128.5 q0 11 11 17.5t26 6.5q106 0 106 -22q0 -19 12.5 -29.5t29.5 -10.5t29.5 10.5t12.5 29.5q0 22 106 22q15 0 26 -6.5t11 -17.5q0 -83 -54.5 -128.5t-130.5 -45.5z" />
<glyph unicode="&#x16e;" horiz-adv-x="755" d="M518 299v398q0 17 49 25t88 8q15 0 29 -10.5t14 -22.5v-428q0 -154 -76 -217.5t-241 -63.5h-8q-165 0 -241 63.5t-76 217.5v428q0 17 49 25t88 8q15 0 29 -10.5t14 -22.5v-398q0 -83 25.5 -116t111.5 -33h8q87 0 112 33t25 116zM381 765q-71 0 -108 39t-37 93t37.5 93.5 t107.5 39.5q71 0 108.5 -39.5t37.5 -94.5q0 -53 -38 -92t-108 -39zM381 863q20 0 30 11t10 25t-10 25.5t-30 11.5q-19 0 -29 -11.5t-10 -25.5t10 -25t29 -11z" />
<glyph unicode="&#x16f;" d="M342 144v365q0 28 127 28q16 0 29.5 -8t13.5 -20v-435q0 -30 -89.5 -58t-205.5 -28q-46 0 -77.5 11.5t-48.5 28t-26 45.5t-11 53t-2 62v321q0 28 125 28q16 0 30.5 -8t14.5 -20v-314q0 -68 21 -68q18 0 42 3t40.5 7.5t16.5 6.5zM282 601q-71 0 -108 39t-37 93t37.5 93.5 t107.5 39.5q71 0 108.5 -39.5t37.5 -94.5q0 -53 -38 -92t-108 -39zM282 699q20 0 30 11t10 25t-10 25.5t-30 11.5q-19 0 -29 -11.5t-10 -25.5t10 -25t29 -11z" />
<glyph unicode="&#x170;" horiz-adv-x="755" d="M518 299v398q0 17 49 25t88 8q15 0 29 -10.5t14 -22.5v-428q0 -154 -76 -217.5t-241 -63.5h-8q-165 0 -241 63.5t-76 217.5v428q0 17 49 25t88 8q15 0 29 -10.5t14 -22.5v-398q0 -83 25.5 -116t111.5 -33h8q87 0 112 33t25 116zM440 795l137 173q13 14 22 13l143 -19 q29 -5 9 -25l-192 -176q-10 -10 -20 -10q-16 0 -62.5 15.5t-36.5 28.5zM214 795l137 173q13 14 22 13l143 -19q29 -5 9 -25l-192 -176q-10 -10 -20 -10q-16 0 -62.5 15.5t-36.5 28.5z" />
<glyph unicode="&#x171;" d="M342 144v365q0 28 127 28q16 0 29.5 -8t13.5 -20v-435q0 -30 -89.5 -58t-205.5 -28q-46 0 -77.5 11.5t-48.5 28t-26 45.5t-11 53t-2 62v321q0 28 125 28q16 0 30.5 -8t14.5 -20v-314q0 -68 21 -68q18 0 42 3t40.5 7.5t16.5 6.5zM308 644l137 173q13 14 22 13l143 -19 q29 -5 9 -25l-192 -176q-10 -10 -20 -10q-16 0 -62.5 15.5t-36.5 28.5zM82 644l137 173q13 14 22 13l143 -19q29 -5 9 -25l-192 -176q-10 -10 -20 -10q-16 0 -62.5 15.5t-36.5 28.5z" />
<glyph unicode="&#x172;" horiz-adv-x="755" d="M463 -77q6 3 11.5 3t10.5 -2.5t9 -6t7.5 -10t6 -11.5t5.5 -12t4.5 -11.5t3 -10.5t2.5 -8q7 -24 -46 -49t-102 -23q-57 2 -93 34.5t-45 82.5t15 99q-101 20 -148.5 84t-47.5 187v428q0 17 49 25t88 8q15 0 29 -10.5t14 -22.5v-398q0 -83 25.5 -116t111.5 -33h8 q87 0 112 33t25 116v398q0 17 49 25t88 8q15 0 29 -10.5t14 -22.5v-428q0 -137 -60 -201.5t-188 -76.5q-43 -32 -43 -63q0 -17 19 -17q12 0 37 12z" />
<glyph unicode="&#x173;" d="M557 0q6 3 11.5 3t10.5 -2.5t9 -6t7.5 -10t6 -11.5t5.5 -12t4.5 -11.5t3 -10.5t2.5 -8q7 -24 -46 -49t-102 -23q-57 2 -93 34.5t-45 82.5q-2 14 -2 19q-59 -7 -108 -7q-46 0 -77.5 11.5t-48.5 28t-26 45.5t-11 53t-2 62v321q0 28 125 28q16 0 30.5 -8t14.5 -20v-314 q0 -68 21 -68q18 0 42 3t40.5 7.5t16.5 6.5v365q0 28 127 28q16 0 29.5 -8t13.5 -20v-362l64 -55q-79 -47 -79 -87q0 -17 19 -17q12 0 37 12z" />
<glyph unicode="&#x174;" horiz-adv-x="1063" d="M750 213l122 486q5 17 50 25t79 8q52 0 52 -40q0 -9 -3 -18l-219 -657q-10 -29 -42 -29q-118 0 -126 26l-131 405l-131 -402q-10 -29 -42 -29q-118 0 -126 26l-219 660q-3 9 -3 18q0 40 52 40q36 0 81 -7.5t48 -25.5l130 -486l120 486q5 17 50 25t79 8q41 0 52 -37z M363 829q-10 10 -13 23.5t4 20.5l176 148q8 7 19 7t19 -7l176 -148q7 -7 4 -20.5t-13 -23.5q-73 -86 -91 -70l-95 81l-95 -81q-18 -16 -91 70z" />
<glyph unicode="&#x175;" horiz-adv-x="761" d="M521 215l62 296q5 26 125 26q50 0 50 -35q0 -11 -4 -23l-145 -462q-9 -29 -43 -29q-119 0 -126 26l-60 232l-60 -229q-4 -13 -16.5 -21t-26.5 -8q-117 0 -125 26l-145 460q-4 11 -4 22q0 41 50 41q37 0 79 -6t45 -20l61 -296l65 293q6 29 107 29q38 0 42 -17zM193 661 q-10 10 -13 23.5t4 20.5l176 148q8 7 19 7t19 -7l176 -148q7 -7 4 -20.5t-13 -23.5q-73 -86 -91 -70l-95 81l-95 -81q-18 -16 -91 70z" />
<glyph unicode="&#x176;" horiz-adv-x="657" d="M418 287v-271q0 -12 -13.5 -20t-29.5 -8q-135 0 -135 28v271l-219 381q-17 32 -5 47t47 15q121 0 133 -22l132 -237l134 237q12 22 132 22q35 0 47 -15t-5 -47zM145 829q-10 10 -13 23.5t4 20.5l176 148q8 7 19 7t19 -7l176 -148q7 -7 4 -20.5t-13 -23.5q-73 -86 -91 -70 l-95 81l-95 -81q-18 -16 -91 70z" />
<glyph unicode="&#x177;" d="M226 509v-297q0 -68 21 -68q28 0 63.5 5.5t35.5 10.5v349q0 12 13.5 20t29.5 8q127 0 127 -28v-506q0 -44 -2 -72.5t-8.5 -59t-19 -48t-34 -32.5t-53.5 -21.5t-77 -6.5q-146 0 -226 34q-27 11 -14 46q1 2 6 18t9 26t11 24t14 21t15 7q3 0 9 -2q67 -23 150 -23q50 0 50 45 v65q-80 -36 -125 -36q-46 0 -78 11.5t-48.5 28t-25.5 46t-11 53t-2 61.5v321q0 12 14.5 20t30.5 8q125 0 125 -28zM100 661q-10 10 -13 23.5t4 20.5l176 148q8 7 19 7t19 -7l176 -148q7 -7 4 -20.5t-13 -23.5q-73 -86 -91 -70l-95 81l-95 -81q-18 -16 -91 70z" />
<glyph unicode="&#x178;" horiz-adv-x="657" d="M418 287v-271q0 -12 -13.5 -20t-29.5 -8q-135 0 -135 28v271l-219 381q-17 32 -5 47t47 15q121 0 133 -22l132 -237l134 237q12 22 132 22q35 0 47 -15t-5 -47zM343 792v158q0 27 125 27q16 0 29.5 -8t13.5 -20v-157q0 -12 -13.5 -20t-29.5 -8q-125 0 -125 28zM146 792 v158q0 27 126 27q16 0 29.5 -8t13.5 -20v-157q0 -12 -13.5 -20t-29.5 -8q-126 0 -126 28z" />
<glyph unicode="&#x179;" horiz-adv-x="660" d="M608 0h-541q-13 0 -22 12t-9 28q0 99 19 114l328 405h-285q-25 0 -25 120q0 15 7.5 28t18.5 13h493q11 0 18 -12.5t7 -27.5q0 -94 -18 -115l-327 -404h335q12 0 20 -13t8 -28q0 -120 -27 -120zM305 810l156 201q8 11 34.5 6t49 -13t33.5 -14q49 -28 35 -42l-171 -157 q-13 -11 -77 -10q-67 1 -64 21q1 4 4 8z" />
<glyph unicode="&#x17a;" horiz-adv-x="534" d="M479 0h-417q-20 0 -26.5 15t-6.5 51q0 58 33 96l185 214h-131q-20 0 -33 5t-20.5 12t-10.5 23.5t-4 31t-1 42.5q0 13 7 21.5t21.5 12t24.5 4t27 0.5h325q9 0 17.5 -10t8.5 -21q0 -87 -26 -118l-188 -227h214q11 0 18.5 -12.5t7.5 -26.5q0 -113 -25 -113zM225 629l156 201 q8 11 34.5 6t49 -13t33.5 -14q49 -28 35 -42l-171 -157q-13 -11 -77 -10q-67 1 -64 21q1 4 4 8z" />
<glyph unicode="&#x17b;" horiz-adv-x="660" d="M608 0h-541q-13 0 -22 12t-9 28q0 99 19 114l328 405h-285q-25 0 -25 120q0 15 7.5 28t18.5 13h493q11 0 18 -12.5t7 -27.5q0 -94 -18 -115l-327 -404h335q12 0 20 -13t8 -28q0 -120 -27 -120zM284 786v162q0 26 125 26q16 0 29.5 -7.5t13.5 -18.5v-162 q0 -11 -13.5 -18.5t-29.5 -7.5q-125 0 -125 26z" />
<glyph unicode="&#x17c;" horiz-adv-x="534" d="M479 0h-417q-20 0 -26.5 15t-6.5 51q0 58 33 96l185 214h-131q-20 0 -33 5t-20.5 12t-10.5 23.5t-4 31t-1 42.5q0 13 7 21.5t21.5 12t24.5 4t27 0.5h325q9 0 17.5 -10t8.5 -21q0 -87 -26 -118l-188 -227h214q11 0 18.5 -12.5t7.5 -26.5q0 -113 -25 -113zM186 626v162 q0 26 125 26q16 0 29.5 -7.5t13.5 -18.5v-162q0 -11 -13.5 -18.5t-29.5 -7.5q-125 0 -125 26z" />
<glyph unicode="&#x17d;" horiz-adv-x="660" d="M608 0h-541q-13 0 -22 12t-9 28q0 99 19 114l328 405h-285q-25 0 -25 120q0 15 7.5 28t18.5 13h493q11 0 18 -12.5t7 -27.5q0 -94 -18 -115l-327 -404h335q12 0 20 -13t8 -28q0 -120 -27 -120zM208 943q73 86 91 70l95 -81l95 81q18 16 91 -70q10 -10 13 -23.5t-4 -20.5 l-176 -148q-8 -7 -19 -7t-19 7l-176 148q-7 7 -4 20.5t13 23.5z" />
<glyph unicode="&#x17e;" horiz-adv-x="534" d="M479 0h-417q-20 0 -26.5 15t-6.5 51q0 58 33 96l185 214h-131q-20 0 -33 5t-20.5 12t-10.5 23.5t-4 31t-1 42.5q0 13 7 21.5t21.5 12t24.5 4t27 0.5h325q9 0 17.5 -10t8.5 -21q0 -87 -26 -118l-188 -227h214q11 0 18.5 -12.5t7.5 -26.5q0 -113 -25 -113zM82 783 q73 86 91 70l95 -81l95 81q18 16 91 -70q10 -10 13 -23.5t-4 -20.5l-176 -148q-8 -7 -19 -7t-19 7l-176 148q-7 7 -4 20.5t13 23.5z" />
<glyph unicode="&#x192;" horiz-adv-x="418" d="M355 582l-77 19q-20 14 -22 -21q-1 -11 0 -36l1 -16h96q5 0 16 -9q7 -7 9 -23q1 -38 -3.5 -79t-20.5 -41h-96v-628q0 -3 -9 -17q-10 -10 -26 -10q-134 0 -134 27v628h-43q-8 0 -17 9.5t-9 22.5q0 120 25 120h44v64q0 169 180 161l23 -2l49 -6q53 -12 64 -32q6 -6 5 -21 q-5 -20 -9 -31.5l-12 -34.5t-17 -34.5t-17 -9.5z" />
<glyph unicode="&#x1fc;" horiz-adv-x="1020" d="M467 26v89h-200l-64 -107q-15 -24 -144 -24q-21 0 -36.5 11t1.5 35q7 10 19.5 30t19.5 30l373 576q35 53 74 53h435q11 0 18.5 -13t7.5 -28q0 -120 -25 -120h-300v-112h242q12 0 19 -12.5t7 -28.5q0 -120 -25 -120h-243v-124h299q11 0 18.5 -13t7.5 -28q0 -120 -25 -120 h-424q-17 0 -36 9t-19 17zM362 276h105v171zM524 794l156 201q8 11 34.5 6t49 -13t33.5 -14q49 -28 35 -42l-171 -157q-13 -11 -77 -10q-67 1 -64 21q1 4 4 8z" />
<glyph unicode="&#x1fd;" horiz-adv-x="793" d="M737 19q-93 -31 -191 -31q-76 0 -132 29q-77 -29 -215 -29q-92 0 -127.5 45t-35.5 133q0 39 5 63.5t21 47.5t49.5 34t86.5 11q19 0 115 -8v20q0 24 -13 38t-35 14q-25 0 -53 -4l-65 -10q-7 -1 -13.5 6t-12.5 22t-9 25.5t-8 28.5t-5 20q-5 14 0 27t17 16q90 20 145 20 q78 0 132 -30q60 30 160 30h7q62 0 102.5 -13.5t59 -40.5t25 -55t6.5 -69v-54q0 -30 -18 -50t-79.5 -35t-170.5 -18q0 -29 16.5 -46.5t44.5 -17.5q60 0 162 25q25 6 46 -101q7 -35 -17 -43zM348 626l156 201q8 11 34.5 6t49 -13t33.5 -14q49 -28 35 -42l-171 -157 q-13 -11 -77 -10q-67 1 -64 21q1 4 4 8zM313 122v72q-29 7 -64 7q-27 0 -35 -8.5t-8 -37.5q0 -25 8.5 -33t34.5 -8t64 8zM583 340v32q0 20 -5.5 27t-25.5 7q-67 0 -67 -63v-20q23 0 60.5 4t37.5 13z" />
<glyph unicode="&#x1fe;" horiz-adv-x="741" d="M534 761q12 -1 35.5 -8.5t44 -20.5t15.5 -24l-18 -39q80 -66 80 -220v-179q0 -154 -76 -217.5t-241 -63.5h-8q-23 0 -59 2l-4 -9q-4 -8 -19 -11.5t-29 -1.5q-10 2 -25 6.5t-34 11.5t-30 16.5t-7 18.5l2 6q-111 60 -111 242v179q0 154 75.5 217.5t240.5 63.5h8 q48 0 101 -7l12 25q9 17 47 13zM335 810l156 201q8 11 34.5 6t49 -13t33.5 -14q49 -28 35 -42l-171 -157q-13 -11 -77 -10q-67 1 -64 21q1 4 4 8zM235 439v-159q0 -53 6 -76l164 363q-5 0 -15 0.5t-16 0.5h-8q-46 0 -72 -5t-39.5 -22t-16.5 -38.5t-3 -63.5zM379 151 q45 0 69.5 5.5t37.5 22.5t16.5 38t3.5 63v154z" />
<glyph unicode="&#x1ff;" horiz-adv-x="559" d="M400 586q9 -1 29 -7t37.5 -16.5t12.5 -20.5l-20 -45q52 -45 52 -167v-142q0 -123 -49.5 -165t-178.5 -42h-7q-18 0 -48 2l-20 -45q-3 -7 -15.5 -10t-24.5 -1q-89 22 -80 44l20 44q-60 43 -60 173v142q0 123 49.5 165t178.5 42h7q22 0 60 -2l18 40q8 15 39 11zM220 627 l156 201q8 11 34.5 6t49 -13t33.5 -14q49 -28 35 -42l-171 -157q-13 -11 -77 -10q-67 1 -64 21q1 4 4 8zM217 331v-75l59 131h-3q-36 0 -46 -10t-10 -46zM294 131q30 1 39 11.5t9 44.5v50z" />
<glyph unicode="&#x218;" horiz-adv-x="595" d="M107 182q12 -2 43 -9t47.5 -10.5t40.5 -7t42 -3.5q44 0 69 10.5t21 29.5q-5 15 -9 19q-3 -3 -3 -4q-27 34 -81 75t-96.5 71.5t-76 81t-33.5 109.5q0 49 23 86t62 58t85 31.5t98 10.5q23 0 49 -3q132 -12 146 -47q4 -15 -2 -30q-27 -88 -51 -103q-6 -4 -30 3 q-64 18 -109 18q-92 0 -92 -30q-1 -11 30 -41q27 -25 69 -56t73 -54.5t61.5 -53.5t47 -67.5t16.5 -81.5q0 -29 -6 -53q-35 -141 -275 -141q-115 0 -202 39q-26 11 -14 48q1 3 5 14t6.5 19t7.5 20t9.5 20.5l9 17t9.5 12t10 2.5zM361 203l-3 4q-2 -4 3 -4z" />
<glyph unicode="&#x219;" horiz-adv-x="487" d="M82 162q87 -24 150 -24q61 0 61 20q0 11 -24.5 21.5t-59 23t-69.5 30.5t-59.5 53t-24.5 82q0 46 13 78.5t31.5 50t49.5 27t56.5 11.5t64.5 2q73 0 138 -20q28 -8 21 -43q-22 -108 -46 -103q-76 16 -113 16q-45 0 -45 -19q0 -9 24.5 -17.5t59 -20.5t69.5 -30.5t59.5 -55 t24.5 -86.5q0 -42 -12.5 -73t-32 -49.5t-50 -29.5t-60 -14.5t-67.5 -3.5q-113 0 -194 29q-25 12 -14 47q1 2 4 13t5 18.5t6 19t7.5 19.5t8 15.5t9 10.5t9.5 2zM406 -124l-131 -200q-4 -7 -8.5 -12t-8 -8.5t-9 -5.5t-8 -3.5t-9 -2t-8 -0.5h-9.5h-10q-21 0 -11 36l52 217 q4 20 126 20q13 0 25 -7.5t12 -22.5q0 -5 -3 -11z" />
<glyph unicode="&#x237;" horiz-adv-x="274" d="M-21 -63q33 -11 55 -11q9 0 13 4t6.5 21t2.5 52v508q0 26 127 26q16 0 29.5 -7.5t13.5 -18.5v-531q0 -113 -41.5 -165t-129.5 -52q-64 0 -121 25q-24 11 -14 46q34 110 59 103z" />
<glyph unicode="&#x2c6;" horiz-adv-x="392" d="M12 698q-10 10 -13 23.5t4 20.5l176 148q8 7 19 7t19 -7l176 -148q7 -7 4 -20.5t-13 -23.5q-73 -86 -91 -70l-95 81l-95 -81q-18 -16 -91 70z" />
<glyph unicode="&#x2c7;" horiz-adv-x="408" d="M16 812q73 86 91 70l95 -81l95 81q18 16 91 -70q10 -10 13 -23.5t-4 -20.5l-176 -148q-8 -7 -19 -7t-19 7l-176 148q-7 7 -4 20.5t13 23.5z" />
<glyph unicode="&#x2d8;" horiz-adv-x="347" d="M189 640q-76 0 -130.5 45.5t-54.5 128.5q0 11 11 17.5t26 6.5q106 0 106 -22q0 -19 12.5 -29.5t29.5 -10.5t29.5 10.5t12.5 29.5q0 22 106 22q15 0 26 -6.5t11 -17.5q0 -83 -54.5 -128.5t-130.5 -45.5z" />
<glyph unicode="&#x2d9;" horiz-adv-x="332" d="M79 655v162q0 26 125 26q16 0 29.5 -7.5t13.5 -18.5v-162q0 -11 -13.5 -18.5t-29.5 -7.5q-125 0 -125 26z" />
<glyph unicode="&#x2da;" horiz-adv-x="347" d="M173 634q-71 0 -108 39t-37 93t37.5 93.5t107.5 39.5q71 0 108.5 -39.5t37.5 -94.5q0 -53 -38 -92t-108 -39zM173 732q20 0 30 11t10 25t-10 25.5t-30 11.5q-19 0 -29 -11.5t-10 -25.5t10 -25t29 -11z" />
<glyph unicode="&#x2db;" horiz-adv-x="359" d="M304 -56q6 3 11.5 3t10.5 -2.5t9 -6t7.5 -10t6 -11.5t5.5 -12t4.5 -11.5t3 -10.5t2.5 -8q7 -24 -46 -49t-102 -23q-57 2 -93 34.5t-45 82.5q-11 61 27.5 119t121.5 83l100 -86q-79 -47 -79 -87q0 -17 19 -17q12 0 37 12z" />
<glyph unicode="&#x2dc;" horiz-adv-x="380" d="M229 633q-7 0 -28.5 6.5t-40 12t-36.5 4.5t-23 -13q0 -4 -5 -7.5t-24.5 -1t-50.5 15.5q-23 10 -18 33q10 54 43.5 86.5t77.5 30.5q12 -1 38 -9t47.5 -14t41.5 -4t26 17q0 4 5 7.5t24.5 1t50.5 -15.5q23 -11 18 -33q-11 -61 -52 -90.5t-94 -26.5z" />
<glyph unicode="&#x2dd;" horiz-adv-x="390" d="M221 664l137 173q13 14 22 13l143 -19q29 -5 9 -25l-192 -176q-10 -10 -20 -10q-16 0 -62.5 15.5t-36.5 28.5zM-5 664l137 173q13 14 22 13l143 -19q29 -5 9 -25l-192 -176q-10 -10 -20 -10q-16 0 -62.5 15.5t-36.5 28.5z" />
<glyph unicode="&#x399;" horiz-adv-x="178" d="M118 14q0 -26 -17 -26q-15 0 -28 4t-13 9v705q0 26 17 26q15 0 28 -4t13 -9v-705z" />
<glyph unicode="&#x3a8;" horiz-adv-x="1070" d="M620 16q0 -12 -14 -20t-30 -8q-136 0 -136 28v274q-63 5 -105.5 23t-62.5 42.5t-32.5 53.5t-22.5 56.5t-25 50.5t-48 37t-84 14h-26q-26 0 -26 115q0 15 7.5 27.5t18.5 12.5h26q81 0 138 -17.5t83.5 -43.5t46.5 -59t30 -62.5t30.5 -54.5t51.5 -35v252q0 28 136 28 q16 0 30 -8t14 -20v-252q30 10 50 35.5t30 55t30 62t46.5 59t83.5 43.5t138 17h26q11 0 18.5 -12.5t7.5 -27.5q0 -115 -26 -115h-26q-51 0 -84 -14t-48 -37t-25 -50.5t-22.5 -56.5t-32 -53.5t-61.5 -42.5t-105 -23v-274z" />
<glyph unicode="&#x3bc;" horiz-adv-x="551" d="M221 -242q-82 8 -118 8q-11 0 -51 -4v765q124 -4 174 -4q-5 -19 -5 -54v-125q0 -18 -0.5 -52.5t-0.5 -56t0.5 -46t2.5 -36.5t5 -12q99 0 103 -15v401l60 -2q78 -2 113 -2q-5 -14 -5 -41v-389q0 -33 -85 -67t-199 -35q9 -3 6 -12v-221z" />
<glyph unicode="&#x401;" horiz-adv-x="613" d="M60 26v668q0 12 13 19t30 7h433q12 0 20 -13t8 -28q0 -120 -27 -120h-297v-113h240q12 0 20 -13t8 -28q0 -120 -27 -120h-241v-124h296q12 0 20 -13t8 -28q0 -120 -27 -120h-423q-17 0 -35.5 9t-18.5 17zM321 792v158q0 27 125 27q16 0 29.5 -8t13.5 -20v-157 q0 -12 -13.5 -20t-29.5 -8q-125 0 -125 28zM124 792v158q0 27 126 27q16 0 29.5 -8t13.5 -20v-157q0 -12 -13.5 -20t-29.5 -8q-126 0 -126 28z" />
<glyph unicode="&#x402;" horiz-adv-x="623" d="M483 154q15 -3 18 -3q12 0 16 13t4 64v44q0 68 -21 68q-27 0 -62 -6.5t-37 -10.5v-306q0 -13 -13 -21t-30 -8q-136 0 -136 29v541h-184q-12 0 -20 13t-8 28q0 120 27 120h494q18 0 28 -1t25 -4t22.5 -12.5t7.5 -23.5q0 -120 -27 -120h-186v-75q62 13 125 13 q46 0 78 -11.5t48.5 -28t25.5 -46t11 -53t2 -61.5v-91q0 -113 -40.5 -165t-128.5 -52q-37 0 -84 17q-25 9 -14 46q33 108 59 103z" />
<glyph unicode="&#x403;" horiz-adv-x="550" d="M510 719h-373q-77 0 -77 -26v-676q0 -28 137 -28q16 0 29.5 8t13.5 20v541h269q11 0 19 13t8 28q0 120 -26 120zM239 796l156 201q8 11 34.5 6t49 -13t33.5 -14q49 -28 35 -42l-171 -157q-13 -11 -77 -10q-67 1 -64 21q1 4 4 8z" />
<glyph unicode="&#x404;" horiz-adv-x="612" d="M464 285h-231q0 -39 4.5 -61t17.5 -40.5t39.5 -26t69.5 -7.5h7q73 0 155 24q10 3 25.5 -23.5t26 -56t10.5 -39.5q0 -32 -79 -49.5t-138 -17.5h-7q-165 0 -240.5 63.5t-75.5 217.5v180q0 154 75.5 217.5t240.5 63.5h7q59 0 138 -17.5t79 -49.5q0 -10 -10.5 -39.5t-26 -56 t-25.5 -23.5q-82 24 -155 24h-7q-42 0 -67.5 -7t-39.5 -23t-18.5 -37t-5.5 -55h230q12 0 20 -13t8 -28q0 -120 -27 -120z" />
<glyph unicode="&#x405;" horiz-adv-x="613" d="M108 182q142 -30 183 -30q89 0 89 42q0 27 -31 51.5t-75 47.5t-87.5 52.5t-74.5 79t-31 113.5q0 58 22.5 98t63 59.5t84 27t98.5 7.5q120 0 174 -29q33 -18 20 -51q-23 -78 -48 -95q-15 -10 -33 -5q-64 18 -110 18q-91 0 -91 -40q0 -27 31 -51.5t74.5 -47.5t87.5 -52.5 t75 -79t31 -113.5q0 -53 -15 -90.5t-37 -58t-60.5 -31.5t-72 -13.5t-84.5 -2.5q-134 0 -226 41q-26 11 -14 48q1 3 5 14t6.5 19t7.5 20t9.5 20.5l9 17t9.5 12t10 2.5z" />
<glyph unicode="&#x406;" horiz-adv-x="300" d="M240 16q0 -12 -14 -20t-30 -8q-136 0 -136 28v686q0 28 136 28q16 0 30 -8t14 -20v-686z" />
<glyph unicode="&#x407;" horiz-adv-x="347" d="M275 16q0 -12 -14 -20t-30 -8q-136 0 -136 28v686q0 28 136 28q16 0 30 -8t14 -20v-686zM195 792v158q0 27 125 27q16 0 29.5 -8t13.5 -20v-157q0 -12 -13.5 -20t-29.5 -8q-125 0 -125 28zM-2 792v158q0 27 126 27q16 0 29.5 -8t13.5 -20v-157q0 -12 -13.5 -20t-29.5 -8 q-126 0 -126 28z" />
<glyph unicode="&#x408;" horiz-adv-x="296" d="M-21 -63q33 -11 55 -11q9 0 13 4t6.5 21t2.5 52v699q0 28 136 28q16 0 30 -8t14 -20v-722q0 -217 -181 -217q-64 0 -121 25q-24 11 -14 46q34 110 59 103z" />
<glyph unicode="&#x409;" horiz-adv-x="1271" d="M119 162q31 -11 53 -11q12 0 18.5 13t13.5 64l61 450q6 41 26 41h492q12 0 21.5 -9t9.5 -17v-257h162q64 0 110 -10.5t72.5 -27t41 -44t19 -53.5t4.5 -63v-24q0 -111 -57 -162.5t-200 -51.5h-280q-17 0 -34.5 9t-17.5 17v531h-206l-47 -352q-29 -217 -210 -217 q-64 0 -118 25q-22 10 -7 46q48 110 73 103zM976 295h-162v-154h124q68 0 86.5 9t18.5 45v31q0 21 -1.5 31t-7.5 20.5t-20 14t-38 3.5z" />
<glyph unicode="&#x40a;" horiz-adv-x="1106" d="M665 697v-261h162q64 0 110 -10.5t72.5 -27t41 -44t19 -53.5t4.5 -63v-24q0 -111 -57 -162.5t-200 -51.5h-281q-16 0 -25.5 1.5t-17.5 8.5t-8 20v261h-245v-271q0 -12 -14 -22t-29 -10q-39 0 -88 7.5t-49 24.5v677q0 17 49 25t88 8q15 0 29 -10.5t14 -22.5v-243h245v243 q0 17 49.5 25t87.5 8q15 0 29 -10.5t14 -22.5zM827 295h-162v-154h124q68 0 86.5 9t18.5 45v32q0 21 -1 31t-7.5 20t-20.5 13.5t-38 3.5z" />
<glyph unicode="&#x40b;" horiz-adv-x="742" d="M402 558v-127q70 16 143 16q195 0 195 -200v-231q0 -12 -14.5 -20t-30.5 -8q-135 0 -135 28v207q0 27 -14 47.5t-27 20.5q-27 0 -69 -6t-48 -10v-259q0 -12 -14 -20t-30 -8q-136 0 -136 28v542h-184q-12 0 -20 13t-8 28q0 120 27 120h558q12 0 20 -13t8 -28 q0 -120 -27 -120h-194z" />
<glyph unicode="&#x40c;" horiz-adv-x="717" d="M239 16q0 -12 -13.5 -20t-29.5 -8q-136 0 -136 28v686q0 28 136 28q16 0 29.5 -8t13.5 -20v-303l221 303q23 28 138 28q52 0 52 -27q0 -16 -20 -40l-204 -280l243 -328q20 -24 20 -40q0 -27 -52 -27q-115 0 -138 28l-260 351v-351zM301 797l156 201q8 11 34.5 6t49 -13 t33.5 -14q49 -28 35 -42l-171 -157q-13 -11 -77 -10q-67 1 -64 21q1 4 4 8z" />
<glyph unicode="&#x40e;" horiz-adv-x="694" d="M87 162q33 -11 55 -11q19 0 32.5 4.5t33 23.5t39.5 55l-220 449q-9 25 10.5 36t42.5 11q133 0 139 -32l134 -273l128 279q7 26 133 26q23 0 42.5 -11t10.5 -36l-241 -491q-100 -204 -263 -204q-64 0 -121 25q-24 11 -14 46q34 111 59 103zM347 768q-76 0 -130.5 45.5 t-54.5 128.5q0 11 11 17.5t26 6.5q106 0 106 -22q0 -19 12.5 -29.5t29.5 -10.5t29.5 10.5t12.5 29.5q0 22 106 22q15 0 26 -6.5t11 -17.5q0 -83 -54.5 -128.5t-130.5 -45.5z" />
<glyph unicode="&#x40f;" horiz-adv-x="785" d="M478 -132q0 -12 -14 -20t-30 -8q-136 0 -136 28v132h-161q-77 0 -77 26v676q0 28 137 28q16 0 29.5 -8t13.5 -20v-541h296v541q0 28 137 28q16 0 29.5 -8t13.5 -20v-582q0 -120 -26 -120h-212v-132z" />
<glyph unicode="&#x410;" horiz-adv-x="696" d="M486 19l-30 96h-217l-29 -96q-9 -31 -141 -31q-16 0 -33.5 8t-17.5 25q0 4 2 10l240 671q10 28 37 28q130 0 140 -28l238 -671q2 -6 2 -10q0 -16 -18 -24.5t-33 -8.5q-130 0 -140 31zM347 468l-60 -192h120z" />
<glyph unicode="&#x411;" horiz-adv-x="697" d="M524 558h-284v-122h162q79 0 130.5 -14.5t76 -44.5t32.5 -61t8 -78v-24q0 -111 -57 -162.5t-200 -51.5h-280q-17 0 -34.5 9t-17.5 17v668q0 8 9.5 17t21.5 9h433q11 0 18 -12.5t7 -28.5q0 -121 -25 -121zM402 295h-162v-134h124q68 0 86.5 9t18.5 45v23q0 32 -12.5 44.5 t-54.5 12.5z" />
<glyph unicode="&#x412;" horiz-adv-x="697" d="M91 720h301q132 0 188.5 -51.5t56.5 -163.5v-14q0 -55 -23.5 -83t-54.5 -35q17 -6 29 -13t28 -21.5t24.5 -40t8.5 -60.5v-24q0 -110 -57 -162t-200 -52h-280q-17 0 -34.5 9t-17.5 17v668q0 8 9.5 17t21.5 9zM402 295h-162v-134h155q46 0 60 11.5t14 42.5v23 q0 32 -12.5 44.5t-54.5 12.5zM392 558h-152v-122h152q43 0 54 10.5t11 44.5v14q0 31 -11.5 42t-53.5 11z" />
<glyph unicode="&#x413;" horiz-adv-x="544" d="M137 730h373q26 0 26 -120q0 -15 -8 -28t-19 -13h-269v-541q0 -12 -13.5 -20t-29.5 -8q-137 0 -137 28v676q0 26 77 26z" />
<glyph unicode="&#x414;" horiz-adv-x="919" d="M332 730h373q77 0 77 -26v-541h94q18 0 22.5 -5t4.5 -26v-291q0 -11 -14 -18t-35 -7q-132 0 -132 24v160h-498v-161q0 -23 -136 -23q-15 0 -29.5 8.5t-14.5 20.5v294q0 16 5 20t25 4h53q43 0 79 40t57 101.5t32 129t11 129.5v47q0 120 26 120zM602 569h-116v-36 q0 -166 -40 -253.5t-97 -116.5h253v406z" />
<glyph unicode="&#x415;" horiz-adv-x="613" d="M60 26v668q0 12 13 19t30 7h433q12 0 20 -13t8 -28q0 -120 -27 -120h-297v-113h240q12 0 20 -13t8 -28q0 -120 -27 -120h-241v-124h296q12 0 20 -13t8 -28q0 -120 -27 -120h-423q-17 0 -35.5 9t-18.5 17z" />
<glyph unicode="&#x416;" horiz-adv-x="1169" d="M115 567h-26q-26 0 -26 115q0 15 7.5 27.5t18.5 12.5h26q81 0 138 -17.5t83.5 -43.5t46.5 -59t30 -62.5t30.5 -54.5t51.5 -35v252q0 28 136 28q16 0 30 -8t14 -20v-252q30 10 50 35.5t30 55t30 62t46.5 59t83.5 43.5t138 17h26q11 0 18.5 -12.5t7.5 -27.5 q0 -115 -26 -115h-26q-50 0 -82.5 -13t-48.5 -36.5t-25 -48t-22 -56t-30 -52.5l256 -306q20 -24 20 -40q0 -27 -52 -27q-115 0 -138 28l-222 278q-12 -2 -34 -4v-274q0 -12 -14 -20t-30 -8q-136 0 -136 28v274q-24 2 -36 4l-221 -278q-23 -28 -138 -28q-52 0 -52 27 q0 16 20 40l256 303q-18 21 -31 53t-22 57t-25 49t-48 37t-83 13z" />
<glyph unicode="&#x417;" horiz-adv-x="570" d="M89 153q46 -10 117 -10h33t30.5 1.5t30 4t22.5 7.5t17 12.5t5 18.5v61q0 25 -27 33.5t-76 8.5h-40q-16 0 -25 42.5t-9 73.5q0 16 7.5 28t18.5 12h35q50 0 77 8t27 33v45q0 25 -25 34.5t-89 9.5q-43 0 -117 -11q-17 -3 -32 44.5t-15 71.5q0 49 160 49q144 0 219.5 -47 t75.5 -161v-25q0 -39 -17.5 -72.5t-39.5 -49.5q25 -17 47.5 -57t22.5 -80v-43q0 -56 -26 -98t-71 -65t-96.5 -33.5t-110.5 -10.5q-58 0 -118 12t-60 39q0 19 15.5 66.5t33.5 47.5z" />
<glyph unicode="&#x418;" horiz-adv-x="784" d="M695 704v-684q0 -14 -10.5 -23t-25.5 -9q-143 0 -143 24v407l-277 -399q-23 -32 -46 -32q-132 0 -132 24v686q0 17 48.5 24.5t86.5 7.5q15 0 29 -10t14 -22v-392l277 398q20 26 136 26q17 0 30 -7t13 -19z" />
<glyph unicode="&#x419;" horiz-adv-x="784" d="M695 704q0 12 -13 19t-30 7q-116 0 -136 -26l-277 -398v392q0 12 -14 22t-29 10q-38 0 -86.5 -7.5t-48.5 -24.5v-686q0 -24 132 -24q23 0 46 32l277 399v-407q0 -24 143 -24q15 0 25.5 9t10.5 23v684zM391 769q-76 0 -130.5 45.5t-54.5 128.5q0 11 11 17.5t26 6.5 q106 0 106 -22q0 -19 12.5 -29.5t29.5 -10.5t29.5 10.5t12.5 29.5q0 22 106 22q15 0 26 -6.5t11 -17.5q0 -83 -54.5 -128.5t-130.5 -45.5z" />
<glyph unicode="&#x41a;" horiz-adv-x="694" d="M60 16v686q0 28 136 28q22 0 33 -9t11 -19v-252q30 10 50 35.5t30 55t30 62t46.5 59t83.5 43.5t138 17h26q11 0 19 -13q11 -18 6.5 -78t-25.5 -64h-26q-50 0 -82.5 -13t-48.5 -36.5t-25 -48t-22 -56t-30 -52.5l256 -306q20 -24 20 -40q0 -27 -52 -27q-115 0 -138 28 l-222 278q-12 -2 -34 -4v-274q0 -12 -14 -20t-30 -8q-136 0 -136 28z" />
<glyph unicode="&#x41b;" horiz-adv-x="874" d="M814 16q0 -12 -14 -20t-30 -8q-136 0 -136 28v541h-206l-47 -352q-29 -217 -210 -217q-64 0 -118 25q-22 10 -7 46q48 110 73 103q31 -11 53 -11q12 0 18.5 13t13.5 64l61 450q6 41 26 41h492q12 0 21.5 -9t9.5 -17v-677z" />
<glyph unicode="&#x41c;" horiz-adv-x="997" d="M240 16q0 -12 -14 -20t-30 -8q-136 0 -136 28v686q0 28 136 28q27 0 44 -28l264 -464l253 464q8 15 54 21.5t82 6.5q16 0 30 -8t14 -20v-686q0 -12 -14 -20t-30 -8q-136 0 -136 28v330l-180 -327q-16 -31 -45 -31q-100 0 -111 31l-181 332v-335z" />
<glyph unicode="&#x41d;" horiz-adv-x="725" d="M665 697v-677q0 -12 -14 -22t-29 -10q-38 0 -87.5 7.5t-49.5 24.5v271h-245v-271q0 -12 -14 -22t-29 -10q-39 0 -88 7.5t-49 24.5v677q0 17 49 25t88 8q15 0 29 -10.5t14 -22.5v-243h245v243q0 17 49.5 25t87.5 8q15 0 29 -10.5t14 -22.5z" />
<glyph unicode="&#x41e;" horiz-adv-x="737" d="M372 -11h-8q-165 0 -240.5 63.5t-75.5 217.5v179q0 154 75.5 217.5t240.5 63.5h8q165 0 241 -63.5t76 -217.5v-179q0 -154 -76 -217.5t-241 -63.5zM233 419v-119q0 -43 3.5 -66.5t16 -45t39.5 -29.5t72 -8h8q45 0 72 8t40 29.5t16.5 45t3.5 66.5v119q0 43 -3.5 66.5 t-16.5 45t-40 29.5t-72 8h-8q-45 0 -72 -8t-39.5 -29.5t-16 -45t-3.5 -66.5z" />
<glyph unicode="&#x41f;" horiz-adv-x="785" d="M137 730h553q26 0 26 -120v-594q0 -12 -13.5 -20t-29.5 -8q-137 0 -137 28v553h-296v-553q0 -12 -13.5 -20t-29.5 -8q-137 0 -137 28v688q0 26 77 26z" />
<glyph unicode="&#x420;" horiz-adv-x="654" d="M60 17v677q0 11 13.5 18.5t29.5 7.5h236q76 0 125 -9t86.5 -34t54.5 -70t17 -115v-35q0 -71 -15.5 -116t-53 -69.5t-86.5 -33t-128 -8.5h-100v-216q0 -12 -13 -19t-30 -7q-136 0 -136 29zM339 559h-100v-168h100q63 0 80 12t17 54v35q0 42 -17 54.5t-80 12.5z" />
<glyph unicode="&#x421;" horiz-adv-x="612" d="M233 419v-120q0 -44 3.5 -67.5t16 -44.5t39 -29t72.5 -8h7q73 0 155 24q10 3 25.5 -23.5t26 -56t10.5 -39.5q0 -32 -79 -49.5t-138 -17.5h-7q-165 0 -240.5 63.5t-75.5 217.5v180q0 154 75.5 217.5t240.5 63.5h7q59 0 138 -17.5t79 -49.5q0 -10 -10.5 -39.5t-26 -56 t-25.5 -23.5q-82 24 -155 24h-7q-46 0 -72.5 -8t-39 -29t-16 -44.5t-3.5 -67.5z" />
<glyph unicode="&#x422;" horiz-adv-x="636" d="M408 558v-542q0 -12 -14 -20t-30 -8q-136 0 -136 28v542h-184q-12 0 -20 13t-8 28q0 120 27 120h549q12 0 20 -13t8 -28q0 -120 -27 -120h-185z" />
<glyph unicode="&#x423;" horiz-adv-x="694" d="M87 162q33 -11 55 -11q19 0 32.5 4.5t33 23.5t39.5 55l-220 449q-9 25 10.5 36t42.5 11q133 0 139 -32l134 -273l128 279q7 26 133 26q23 0 42.5 -11t10.5 -36l-241 -491q-100 -204 -263 -204q-64 0 -121 25q-24 11 -14 46q34 111 59 103z" />
<glyph unicode="&#x424;" horiz-adv-x="827" d="M504 16q0 -12 -14 -20t-30 -8q-136 0 -136 28v37q-143 7 -209.5 71t-66.5 209v61q0 144 66.5 208.5t209.5 71.5v28q0 28 136 28q16 0 30 -8t14 -20v-28q142 -7 208.5 -71.5t66.5 -208.5v-61q0 -144 -66.5 -208.5t-208.5 -71.5v-37zM233 364v-1q0 -75 16 -107t75 -40v294 q-58 -7 -74.5 -39t-16.5 -107zM594 364q0 74 -16.5 106t-73.5 40v-294q57 8 73.5 40.5t16.5 106.5v1z" />
<glyph unicode="&#x425;" horiz-adv-x="708" d="M662 668l-195 -306l198 -312q17 -30 4.5 -46t-46.5 -16q-119 0 -134 22l-134 209l-134 -209q-15 -22 -134 -22q-35 0 -47 16t5 46l198 312l-196 306q-17 29 -4.5 45.5t46.5 16.5q119 0 134 -22l132 -201l131 201q15 22 134 22q35 0 47 -16.5t-5 -45.5z" />
<glyph unicode="&#x426;" horiz-adv-x="743" d="M736 120v-279q0 -12 -14 -20t-30 -8q-136 0 -136 28v159h-419q-77 0 -77 26v676q0 28 137 28q16 0 29.5 -8t13.5 -20v-541h246v541q0 28 136 28q16 0 30 -8t14 -20v-541h43q11 0 19 -13t8 -28z" />
<glyph unicode="&#x427;" horiz-adv-x="697" d="M457 289q-90 -21 -149 -24t-150 16q-126 30 -126 192v229q0 28 135 28q16 0 30.5 -8t14.5 -20v-157q0 -28 7.5 -49.5t17.5 -34t29 -20t33 -10.5t38.5 -2.5t36.5 2t35 4.5q42 5 48 10v257q0 28 136 28q16 0 30 -8t14 -20v-686q0 -12 -14.5 -20t-30.5 -8q-135 0 -135 28 v273z" />
<glyph unicode="&#x428;" horiz-adv-x="949" d="M866 -12h-729q-77 0 -77 26v688q0 28 137 28q16 0 29.5 -8t13.5 -20v-553h146v553q0 28 137 28q16 0 29.5 -8t13.5 -20v-553h146v553q0 28 137 28q16 0 29.5 -8t13.5 -20v-594q0 -120 -26 -120z" />
<glyph unicode="&#x429;" horiz-adv-x="961" d="M929 -187q-136 0 -136 28v147h-656q-77 0 -77 26v688q0 28 137 28q16 0 29.5 -8t13.5 -20v-553h146v553q0 28 137 28q16 0 29.5 -8t13.5 -20v-553h146v553q0 28 137 28q16 0 29.5 -8t13.5 -20v-553h54q11 0 19 -13t8 -28v-200q0 -20 -1 -32t-4.5 -29t-13 -25.5 t-25.5 -8.5z" />
<glyph unicode="&#x42a;" horiz-adv-x="855" d="M218 26v535h-192q-11 0 -18.5 13t-7.5 28q0 118 26 118h341q12 0 21.5 -9t9.5 -17v-258h162q49 0 87 -6t64 -16t44 -27t28 -33t15.5 -40.5t7 -44.5t1.5 -49v-6q0 -111 -57 -162.5t-200 -51.5h-280q-17 0 -34.5 9t-17.5 17zM560 295h-162v-154h124q68 0 86.5 9t18.5 45v31 q0 21 -1.5 31t-7.5 20.5t-20 14t-38 3.5z" />
<glyph unicode="&#x42b;" horiz-adv-x="1022" d="M240 702v-266h162q79 0 130.5 -14.5t76 -44.5t32.5 -61t8 -78v-24q0 -111 -57 -162.5t-200 -51.5h-280q-17 0 -34.5 9t-17.5 17v676q0 28 136 28q16 0 30 -8t14 -20zM962 16q0 -12 -14 -20t-30 -8q-136 0 -136 28v686q0 28 136 28q16 0 30 -8t14 -20v-686zM402 295h-162 v-154h124q68 0 86.5 9t18.5 45v43q0 32 -12.5 44.5t-54.5 12.5z" />
<glyph unicode="&#x42c;" horiz-adv-x="660" d="M240 702v-266h162q79 0 130.5 -14.5t76 -44.5t32.5 -61t8 -78v-24q0 -111 -57 -162.5t-200 -51.5h-280q-17 0 -34.5 9t-17.5 17v676q0 28 136 28q16 0 30 -8t14 -20zM402 295h-162v-134h124q68 0 86.5 9t18.5 45v23q0 32 -12.5 44.5t-54.5 12.5z" />
<glyph unicode="&#x42d;" horiz-adv-x="612" d="M379 446q-3 68 -27.5 95t-103.5 27h-7q-73 0 -155 -24q-10 -3 -25.5 23.5t-26 56t-10.5 39.5q0 32 79 49.5t138 17.5h7q165 0 240.5 -63.5t75.5 -217.5v-180q0 -154 -75.5 -217.5t-240.5 -63.5h-7q-59 0 -138 17.5t-79 49.5q0 10 10.5 39.5t26 56t25.5 23.5 q82 -24 155 -24h7q43 0 69.5 7.5t40 26t17.5 41t4 60.5h-231q-27 0 -27 120q0 15 8 28t20 13h230z" />
<glyph unicode="&#x42e;" horiz-adv-x="1036" d="M671 -11h-8q-165 0 -240.5 63.5t-75.5 217.5v21h-107v-271q0 -12 -14 -22t-29 -10q-39 0 -88 7.5t-49 24.5v677q0 17 49 25t88 8q15 0 29 -10.5t14 -22.5v-243h107q1 151 76.5 213.5t239.5 62.5h8q165 0 241 -63.5t76 -217.5v-179q0 -154 -76 -217.5t-241 -63.5zM532 439 v-159q0 -42 3 -63.5t16.5 -38.5t39.5 -22t72 -5h8q46 0 72 5t39.5 22t17 38.5t3.5 63.5v159q0 42 -3.5 63.5t-17 38.5t-39.5 22t-72 5h-8q-46 0 -72 -5t-39.5 -22t-16.5 -38.5t-3 -63.5z" />
<glyph unicode="&#x42f;" horiz-adv-x="686" d="M650 694v-677q0 -29 -136 -29q-17 0 -30 7t-13 19v216h-70l-137 -217q-16 -25 -135 -25q-57 0 -57 26q0 14 14 36l123 198q-62 20 -91.5 69t-29.5 140v35q0 70 17 115t54.5 70t86.5 34t125 9h236q17 0 30 -7t13 -19zM471 559h-110q-61 0 -74 -11.5t-13 -55.5v-35 q0 -44 13 -55t74 -11h110v168z" />
<glyph unicode="&#x430;" horiz-adv-x="539" d="M487 329v-240q0 -33 -33 -55.5t-86 -31t-90.5 -11.5t-74.5 -3q-92 0 -127.5 45t-35.5 133q0 39 5 63.5t21 47.5t49.5 34t86.5 11q19 0 115 -8v20q0 24 -13 38t-35 14q-25 0 -53 -4l-65 -10q-7 -1 -13.5 6t-12.5 22t-9 25.5t-8 28.5t-5 20q-5 14 0 27t17 16q90 20 145 20 q109 0 165.5 -54.5t56.5 -153.5zM317 117v82q-29 7 -64 7q-26 0 -34.5 -10.5t-8.5 -40.5q0 -26 9 -36t34 -10q26 0 64 8z" />
<glyph unicode="&#x431;" horiz-adv-x="559" d="M48 185v145q0 66 15 146.5t52.5 162.5t89.5 111q84 46 274 46q32 0 32 -51q0 -30 -12.5 -64.5t-20.5 -34.5q-45 0 -108.5 -8t-73.5 -14q-12 -7 -30.5 -32.5t-25.5 -54.5h43q129 0 178.5 -42t49.5 -165v-145q0 -123 -49.5 -165t-178.5 -42h-7q-129 0 -178.5 42t-49.5 165z M273 128h13q36 0 46 10t10 46v147q0 36 -10 46t-46 10h-13q-36 0 -46 -10t-10 -46v-147q0 -36 10 -46t46 -10z" />
<glyph unicode="&#x432;" horiz-adv-x="549" d="M67 530h238q108 0 153 -34t45 -124v-13q0 -36 -18 -59t-35 -26q35 -20 48 -43q13 -24 13 -58v-19q0 -82 -43.5 -119.5t-162.5 -37.5h-217q-14 0 -28.5 8t-14.5 15v491q0 4 8 11.5t14 7.5zM305 201h-90v-72h83q44 0 44 16v38q0 10 -7 14t-30 4zM295 387h-80v-53h81 q24 0 30.5 3.5t6.5 14.5v17q0 11 -7 14.5t-31 3.5z" />
<glyph unicode="&#x433;" horiz-adv-x="418" d="M115 537h271q23 0 23 -114q0 -14 -6 -26t-15 -12h-174v-367q0 -9 -13 -15t-27 -6q-129 0 -129 25v492q0 23 70 23z" />
<glyph unicode="&#x434;" horiz-adv-x="761" d="M278 537h293q71 0 71 -23v-363h85q14 0 17 -4.5t3 -23.5v-249q0 -9 -13 -17t-29 -8q-129 0 -129 23v125h-374v-126q0 -20 -128 -20q-14 0 -28 6.5t-14 16.5v256q0 15 3.5 18t22.5 3h45q65 0 108.5 83t43.5 179v12q0 112 23 112zM472 385h-48v-1q0 -57 -8.5 -100t-18 -65 t-28.5 -38t-27.5 -19.5t-27.5 -8.5q-4 -1 -6 -2h164v234z" />
<glyph unicode="&#x435;" horiz-adv-x="536" d="M470 19q-93 -31 -191 -31q-105 0 -168 54.5t-63 162.5v156q0 87 56 131.5t182 44.5h7q62 0 102.5 -13.5t59 -40.5t25 -55t6.5 -69v-54q0 -30 -18 -50t-79.5 -35t-170.5 -18q0 -29 16.5 -46.5t44.5 -17.5q60 0 162 25q25 6 46 -101q7 -35 -17 -43zM316 340v32 q0 20 -5.5 27t-25.5 7q-67 0 -67 -63v-20q23 0 60.5 4t37.5 13z" />
<glyph unicode="&#x436;" horiz-adv-x="861" d="M66 383h-23q-22 0 -22 108q0 14 6.5 26t16.5 12h22q74 0 124 -14t73 -36.5t35.5 -45t24 -46.5t25.5 -34v159q0 25 129 25q14 0 27 -6t13 -15v-163q14 10 25 34t23 47t35.5 45t73 36t123.5 14h23q10 0 16 -11.5t6 -26.5q0 -108 -21 -108h-24q-28 0 -49 -5t-33 -11 t-22 -19.5t-13.5 -22t-10.5 -29t-11 -29.5l179 -219q16 -22 16 -35q0 -25 -49 -25q-109 0 -128 25l-144 191q-5 0 -15 -2v-193q0 -9 -13 -15t-27 -6q-129 0 -129 25v189l-17 2l-143 -191q-19 -25 -128 -25q-49 0 -49 25q0 13 16 35l179 216q-4 10 -13 35.5t-14.5 35 t-19.5 24t-36.5 19.5t-56.5 5z" />
<glyph unicode="&#x437;" horiz-adv-x="438" d="M68 140q35 -6 90 -6q76 0 76 15v35q0 2 -7 4.5t-20 5t-25 2.5h-33q-16 0 -23.5 40.5t-7.5 69.5q0 14 6 25.5t16 11.5h33q53 0 53 12v23q0 13 -60 13q-39 0 -90 -8q-16 -3 -30 43t-14 67q0 44 130 44q59 0 95.5 -5t70.5 -20.5t49.5 -48.5t15.5 -85v-23q0 -30 -19 -51 t-35 -28q11 -5 22.5 -14t26 -31t14.5 -47v-37q0 -42 -14.5 -72.5t-35.5 -47t-55 -25.5t-62.5 -11.5t-68.5 -2.5q-46 0 -94 10t-48 34q0 17 14 62.5t30 45.5z" />
<glyph unicode="&#x438;" horiz-adv-x="607" d="M563 517v-504q0 -11 -10 -18t-23 -7q-135 0 -135 21v252l-184 -244q-21 -29 -42 -29q-125 0 -125 21v499q0 16 46 22.5t82 6.5q13 0 26 -8t13 -17v-251l184 252q17 24 128 24q40 0 40 -20z" />
<glyph unicode="&#x439;" horiz-adv-x="611" d="M305 566q-64 0 -108 38t-44 106q0 10 10 16t24 6q100 0 100 -20q0 -18 18 -18t18 18q0 20 100 20q14 0 24.5 -6t10.5 -16q0 -68 -44.5 -106t-108.5 -38zM563 517q0 20 -40 20q-111 0 -128 -24l-184 -252v251q0 9 -13 17t-26 8q-36 0 -82 -6.5t-46 -22.5v-499 q0 -21 125 -21q21 0 42 29l184 244v-252q0 -21 135 -21q13 0 23 7t10 18v504z" />
<glyph unicode="&#x43a;" horiz-adv-x="574" d="M45 13v499q0 25 129 25q19 0 29.5 -7t10.5 -14v-163q14 10 25 34.5t23 47t35.5 45t73 36.5t123.5 14h23q9 0 15 -11q11 -15 7.5 -73t-21.5 -62h-24q-28 0 -49 -5t-33.5 -11t-22.5 -20t-13.5 -22.5t-10.5 -29t-10 -29.5l179 -219q16 -22 16 -35q0 -25 -49 -25 q-108 0 -128 25l-144 191q-5 0 -15 -2v-193q0 -9 -13 -15t-27 -6q-129 0 -129 25z" />
<glyph unicode="&#x43b;" horiz-adv-x="654" d="M610 10q0 -9 -13.5 -15.5t-27.5 -6.5q-129 0 -129 26v362h-92l-33 -225q-23 -163 -175 -163q-54 0 -98 22q-17 9 -3 42q5 11 11.5 24.5t17 33t21 31t18.5 9.5q19 -8 31 -8q5 0 10 32l46 316q6 39 23 39h370q9 0 16 -6.5t7 -12.5v-500z" />
<glyph unicode="&#x43c;" horiz-adv-x="776" d="M214 11q0 -9 -14.5 -16t-28.5 -7q-127 0 -127 29v492q0 28 127 28q24 0 39 -23l184 -302l168 297q8 14 52 21t75 7q15 0 29 -6.5t14 -16.5v-503q0 -9 -14 -16t-29 -7q-127 0 -127 29v210l-98 -210q-17 -29 -43 -29q-87 0 -107 29l-100 216v-222z" />
<glyph unicode="&#x43d;" horiz-adv-x="570" d="M523 511v-498q0 -9 -13.5 -17t-26.5 -8q-36 0 -83 6.5t-47 22.5v178h-139v-181q0 -9 -13 -17.5t-26 -8.5q-12 0 -30.5 1t-42.5 4t-40.5 9t-16.5 15v489q0 17 46.5 24t83.5 7q13 0 26 -8.5t13 -18.5v-161h139v158q0 17 46.5 23.5t83.5 6.5q13 0 26.5 -8.5t13.5 -17.5z" />
<glyph unicode="&#x43e;" horiz-adv-x="559" d="M48 188v142q0 123 49.5 165t178.5 42h7q129 0 178.5 -42t49.5 -165v-142q0 -123 -49.5 -165t-178.5 -42h-7q-129 0 -178.5 42t-49.5 165zM273 131h13q36 0 46 10t10 46v144q0 36 -10 46t-46 10h-13q-36 0 -46 -10t-10 -46v-144q0 -36 10 -46t46 -10z" />
<glyph unicode="&#x43f;" horiz-adv-x="563" d="M114 537h381q23 0 23 -114v-414q0 -9 -13 -15t-27 -6q-130 0 -130 25v372h-135v-376q0 -9 -13 -15t-27 -6q-129 0 -129 25v501q0 23 70 23z" />
<glyph unicode="&#x440;" horiz-adv-x="565" d="M222 -211q0 -12 -13.5 -20t-29.5 -8q-127 0 -127 28v643q0 29 41 51.5t98 33t100.5 15.5t65.5 5q88 0 124 -44t36 -154v-151q0 -30 -0.5 -45.5t-3.5 -40t-9 -37.5t-17.5 -29.5t-28.5 -24.5t-42.5 -14t-59.5 -6q-62 0 -134 32v-234zM222 155q36 -13 100 -13q9 0 14.5 5.5 t7.5 21t2.5 24.5t0.5 32v75q0 23 -0.5 32t-2.5 24t-7.5 21t-14.5 6q-67 0 -100 -16v-212z" />
<glyph unicode="&#x441;" horiz-adv-x="481" d="M399 158q6 1 12 -6.5t11.5 -22t9.5 -27t8.5 -29t5.5 -19.5q10 -34 -17 -43q-76 -23 -160 -23q-114 0 -167.5 54t-53.5 160v121q0 106 53.5 160t167.5 54q70 0 160 -22q25 -7 17 -43q-7 -33 -20 -70.5t-27 -34.5q-104 19 -130 19q-30 0 -40.5 -22t-10.5 -64v-74 q0 -43 10.5 -65t40.5 -22q28 0 130 19z" />
<glyph unicode="&#x442;" horiz-adv-x="485" d="M328 377v-368q0 -9 -13.5 -15t-27.5 -6q-129 0 -129 25v364h-127q-9 0 -15.5 12.5t-6.5 25.5q0 114 24 114h421q9 0 15.5 -12.5t6.5 -25.5q0 -114 -24 -114h-124z" />
<glyph unicode="&#x443;" horiz-adv-x="573" d="M226 509v-297q0 -68 21 -68q28 0 63.5 5.5t35.5 10.5v349q0 12 13.5 20t29.5 8q127 0 127 -28v-506q0 -44 -2 -72.5t-8.5 -59t-19 -48t-34 -32.5t-53.5 -21.5t-77 -6.5q-146 0 -226 34q-27 11 -14 46q1 2 6 18t9 26t11 24t14 21t15 7q3 0 9 -2q67 -23 150 -23q50 0 50 45 v65q-80 -36 -125 -36q-46 0 -78 11.5t-48.5 28t-25.5 46t-11 53t-2 61.5v321q0 12 14.5 20t30.5 8q125 0 125 -28z" />
<glyph unicode="&#x444;" horiz-adv-x="796" d="M483 -211q0 -12 -13.5 -20t-29.5 -8q-127 0 -127 28v234q-72 -32 -104 -32q-40 0 -67 7t-45.5 21t-28 29t-14 42t-5.5 45.5t-1 52.5v151q0 92 25 137t83 56q27 5 52 5q34 0 105 -21v227q0 28 126 28q44 0 44 -41v-214q70 21 105 21q25 0 52 -5q58 -11 83 -56t25 -137 v-151q0 -34 -1 -52.5t-5.5 -45.5t-14 -42t-28 -29t-45.5 -21t-67 -7q-32 0 -104 32v-234zM483 155q36 -13 70 -13q17 0 21 20.5t4 62.5v75q0 21 -0.5 31.5t-2.5 25t-7.5 20.5t-14.5 6q-26 0 -36 -2t-34 -14v-212zM313 367q-24 12 -34 14t-36 2q-17 0 -21 -20.5t-4 -62.5v-75 q0 -41 4.5 -62t20.5 -21q34 0 70 13v212z" />
<glyph unicode="&#x445;" horiz-adv-x="574" d="M393 272l148 -225q11 -18 11 -31q0 -28 -50 -28q-31 0 -74 5.5t-51 16.5l-91 126l-91 -126q-8 -12 -50 -17t-74 -5q-51 0 -51 29q0 11 12 30l148 225l-121 207q-11 18 -11 30q0 28 49 28q106 0 122 -23l67 -102l68 102q7 12 48 17.5t74 5.5q48 0 48 -28q0 -11 -10 -30z " />
<glyph unicode="&#x446;" horiz-adv-x="613" d="M606 111v-233q0 -9 -13 -15t-27 -6q-130 0 -130 25v115h-321q-70 0 -70 23v492q0 25 129 25q14 0 27 -6t13 -15v-367h160v363q0 25 129 25q14 0 27 -6t13 -15v-367h42q9 0 15 -12.5t6 -25.5z" />
<glyph unicode="&#x447;" horiz-adv-x="546" d="M332 195q-63 -14 -115 -14t-114 20q-79 28 -79 146v164q0 26 128 26q14 0 27.5 -6.5t13.5 -16.5v-96q0 -46 24.5 -66.5t55 -17t59.5 7.5v170q0 25 129 25q14 0 27 -6t13 -15v-505q0 -10 -13.5 -16.5t-28.5 -6.5q-127 0 -127 26v181zM350 346q-1 2 -15 -3zM332 340v-1v1z " />
<glyph unicode="&#x448;" horiz-adv-x="739" d="M671 -12h-556q-71 0 -71 23v501q0 25 130 25q15 0 28 -7.5t12 -18.5v-371h70v372q0 25 130 25q15 0 28 -7.5t12 -18.5v-371h71v372q0 25 130 25q15 0 27.5 -7.5t11.5 -18.5v-411q0 -112 -23 -112z" />
<glyph unicode="&#x449;" horiz-adv-x="769" d="M728 -143q-129 0 -129 26v105h-484q-71 0 -71 23v500q0 26 130 26q15 0 27.5 -8t12.5 -19v-370h70v371q0 26 130 26q15 0 27.5 -8t12.5 -19v-370h71v371q0 26 130 26q14 0 26.5 -8t12.5 -19v-370h26q14 0 20 -0.5t14.5 -4t11.5 -11.5t3 -22v-158q0 -18 -1 -29t-4 -26.5 t-12.5 -23.5t-23.5 -8z" />
<glyph unicode="&#x44a;" horiz-adv-x="664" d="M162 20v360h-141q-9 0 -16 12.5t-7 26.5q0 111 25 111h286q9 0 15.5 -6.5t6.5 -12.5v-137h101q55 0 93 -10t58 -23.5t30.5 -39t12.5 -44.5t2 -52v-43q0 -86 -46.5 -125.5t-159.5 -39.5h-217q-15 0 -29 8t-14 15zM422 235h-91v-106h91q20 0 28 3t8 14v69q0 12 -8.5 16 t-27.5 4z" />
<glyph unicode="&#x44b;" horiz-adv-x="824" d="M779 12q0 -9 -13 -16t-27 -7q-129 0 -129 27v494q0 27 129 27q14 0 27 -7t13 -16v-502zM215 515v-151h100q64 0 105 -11.5t60 -34.5t25 -46.5t6 -58.5v-49q0 -87 -46 -127t-160 -40h-217q-14 0 -28.5 8t-14.5 15v491q0 26 129 26q14 0 27.5 -6.5t13.5 -15.5zM306 231h-91 v-102h91q36 0 36 16v68q0 18 -36 18z" />
<glyph unicode="&#x44c;" horiz-adv-x="521" d="M215 515v-151h100q64 0 105 -11.5t60 -34.5t25 -46.5t6 -58.5v-49q0 -87 -46 -127t-160 -40h-217q-14 0 -28.5 8t-14.5 15v491q0 26 129 26q14 0 27.5 -6.5t13.5 -15.5zM306 231h-91v-102h91q36 0 36 16v68q0 18 -36 18z" />
<glyph unicode="&#x44d;" horiz-adv-x="481" d="M116 343h163q-8 43 -48 43q-28 0 -130 -19q-6 -1 -12 6.5t-11.5 22t-9.5 27t-8.5 29t-5.5 19.5q-10 34 17 43q76 23 160 23q114 0 167.5 -54t53.5 -160v-121q0 -106 -53.5 -160t-167.5 -54q-70 0 -160 22q-25 7 -17 43q7 33 20 70.5t27 34.5q104 -19 130 -19q38 0 48 45 h-163q-11 0 -18 12.5t-7 27.5q0 119 25 119z" />
<glyph unicode="&#x44e;" horiz-adv-x="831" d="M547 -11h-6q-128 0 -187.5 46.5t-60.5 159.5h-79v-181q0 -9 -13 -17.5t-26 -8.5q-12 0 -30.5 1t-42.5 4t-40.5 9t-16.5 15v489q0 17 46.5 24t83.5 7q13 0 26 -8.5t13 -18.5v-161h79q7 102 66.5 145t181.5 43h6q129 0 188.5 -48t59.5 -165v-122q0 -117 -59.5 -165 t-188.5 -48zM468 294v-63v-17.5v-16.5t0.5 -13.5t2.5 -12.5t5.5 -10t9 -9t13 -5t18 -4t24.5 -1h6q27 0 43 4.5t22.5 17t7.5 22t1 33.5v12v63v12q0 23 -1 33.5t-7.5 22.5t-22.5 16.5t-43 4.5h-6q-14 0 -24.5 -1t-18 -4t-13 -5t-9 -9t-5.5 -10t-2.5 -12.5t-0.5 -13.5v-16.5 v-17.5z" />
<glyph unicode="&#x44f;" horiz-adv-x="552" d="M528 511v-497q0 -26 -129 -26q-15 0 -27.5 5t-12.5 14v139h-20l-94 -140q-12 -18 -126 -18q-53 0 -53 24q0 11 12 31l81 120q-80 39 -80 158v33q0 56 14.5 91.5t46 53.5t69.5 24.5t97 6.5h183q15 0 27 -5t12 -14zM359 378h-53q-35 0 -43 -4t-8 -20v-33q0 -16 7.5 -19.5 t43.5 -3.5h53v80z" />
<glyph unicode="&#x451;" horiz-adv-x="536" d="M470 19q-93 -31 -191 -31q-105 0 -168 54.5t-63 162.5v156q0 87 56 131.5t182 44.5h7q62 0 102.5 -13.5t59 -40.5t25 -55t6.5 -69v-54q0 -30 -18 -50t-79.5 -35t-170.5 -18q0 -29 16.5 -46.5t44.5 -17.5q60 0 162 25q25 6 46 -101q7 -35 -17 -43zM316 340v32 q0 20 -5.5 27t-25.5 7q-67 0 -67 -63v-20q23 0 60.5 4t37.5 13zM289 629v158q0 27 125 27q16 0 29.5 -8t13.5 -20v-157q0 -12 -13.5 -20t-29.5 -8q-125 0 -125 28zM92 629v158q0 27 126 27q16 0 29.5 -8t13.5 -20v-157q0 -12 -13.5 -20t-29.5 -8q-126 0 -126 28z" />
<glyph unicode="&#x452;" horiz-adv-x="592" d="M295 562h-50v-54q65 29 126 29q46 0 77.5 -11.5t48.5 -28t26 -45.5t11 -53t2 -62v-357q0 -113 -41.5 -165t-129.5 -52q-64 0 -121 25q-24 11 -14 46q34 110 59 103q33 -11 55 -11q9 0 13 4t6.5 21t2.5 52v315q0 68 -21 68q-18 0 -42 -2.5t-40.5 -5.5t-16.5 -5v-357 q0 -12 -14 -20t-30 -8q-126 0 -126 28v546h-54q-11 0 -18 13t-7 28q0 118 25 118h54v24q3 26 126 26q16 0 29.5 -8t13.5 -20v-22h50q11 0 18 -12.5t7 -27.5q0 -119 -25 -119z" />
<glyph unicode="&#x453;" horiz-adv-x="409" d="M386 537h-271q-70 0 -70 -23v-490q0 -27 129 -27q14 0 27 7t13 16v365h174q9 0 16 12.5t7 25.5q0 114 -25 114zM158 629l156 201q8 11 34.5 6t49 -13t33.5 -14q49 -28 35 -42l-171 -157q-13 -11 -77 -10q-67 1 -64 21q1 4 4 8z" />
<glyph unicode="&#x454;" horiz-adv-x="489" d="M363 191h-153q2 -27 16 -38.5t58 -11.5h5q57 0 124 20q10 3 24 -22t24 -53.5t10 -37.5q0 -29 -68 -44.5t-114 -15.5h-5q-129 0 -188.5 48t-59.5 165v123q0 117 59.5 165t188.5 48h5q46 0 114 -15.5t68 -45.5q0 -8 -10 -36.5t-24 -53.5t-24 -22q-64 19 -124 19h-5 q-40 0 -55.5 -9.5t-17.5 -30.5h153q10 0 16.5 -12t6.5 -26q0 -114 -24 -114z" />
<glyph unicode="&#x455;" horiz-adv-x="503" d="M92 178q85 -36 149 -36q1 -2 31.5 -1t30.5 8t-24 21t-58.5 33.5t-69.5 43.5t-59 60t-24 75q0 47 19 79.5t53 48.5t69.5 22.5t80.5 7.5q80 0 138 -19q26 -9 16 -44q-1 -2 -3.5 -13t-4.5 -19l-5 -20t-6.5 -20t-7.5 -16t-9 -12t-10 -3q-80 11 -108 11q-45 0 -45 -3 q0 -11 36.5 -31.5t81 -43.5t81 -65.5t36.5 -92.5q0 -82 -66 -120t-163 -38q-109 0 -212 45q-25 15 -10 46q2 4 8.5 19t12 27.5t13 25.5t15 19.5t14.5 4.5z" />
<glyph unicode="&#x456;" horiz-adv-x="344" d="M58 613v130q0 28 125 28q16 0 29.5 -8t13.5 -20v-130q0 -12 -13.5 -20t-29.5 -8q-125 0 -125 28zM276 158q7 2 15.5 -7t16.5 -27.5t12 -30.5l9 -27q12 -37 -12 -48q-63 -30 -133 -30q-128 0 -128 152v371q0 26 127 26q16 0 29.5 -7.5t13.5 -18.5v-337q0 -17 1 -22t7 -5 q8 0 42 11z" />
<glyph unicode="&#x457;" horiz-adv-x="354" d="M286 158q7 2 15.5 -7t16.5 -27.5t12 -30.5l9 -27q12 -37 -12 -48q-63 -30 -133 -30q-128 0 -128 152v371q0 26 127 26q16 0 29.5 -7.5t13.5 -18.5v-337q0 -17 1 -22t7 -5q8 0 42 11zM170 627v158q0 27 125 27q16 0 29.5 -8t13.5 -20v-157q0 -12 -13.5 -20t-29.5 -8 q-125 0 -125 28zM-27 627v158q0 27 126 27q16 0 29.5 -8t13.5 -20v-157q0 -12 -13.5 -20t-29.5 -8q-126 0 -126 28z" />
<glyph unicode="&#x458;" horiz-adv-x="281" d="M-22 -63q33 -11 55 -11q9 0 13 4t6.5 21t2.5 52v508q0 26 127 26q16 0 29.5 -7.5t13.5 -18.5v-531q0 -113 -41.5 -165t-129.5 -52q-64 0 -121 25q-24 11 -14 46q34 110 59 103zM55 613v130q0 28 127 28q16 0 29.5 -8t13.5 -20v-130q0 -12 -13.5 -20t-29.5 -8 q-127 0 -127 28z" />
<glyph unicode="&#x459;" horiz-adv-x="949" d="M104 150q26 -11 31 -8t10 32l49 316q6 39 23 39h380q7 0 15 -7.5t8 -11.5v-134h101q51 0 88.5 -9t57.5 -22.5t32 -34.5t15 -40t3 -45v-61q0 -84 -44 -125.5t-148 -41.5h-232q-14 0 -28.5 8t-14.5 15v356h-103l-32 -225q-23 -163 -175 -163q-57 0 -101 22q-17 9 -3 42 q5 11 11.5 24.5t17 33t21 31t18.5 9.5zM721 233h-101v-104h101q15 0 20.5 6.5t5.5 19.5v58q0 12 -4.5 16t-21.5 4z" />
<glyph unicode="&#x45a;" horiz-adv-x="851" d="M523 511v-146h100q63 0 105 -15t60.5 -42.5t24.5 -52.5t6 -59v-32q0 -85 -46.5 -126t-159.5 -41h-223q-37 0 -37 27v206h-139v-216q0 -9 -13 -17.5t-26 -8.5q-12 0 -30.5 1t-42.5 4t-40.5 9t-16.5 15v489q0 17 46.5 24t83.5 7q13 0 26 -8.5t13 -18.5v-145h139v142 q0 17 46.5 23.5t83.5 6.5q13 0 26.5 -8.5t13.5 -17.5zM623 233h-100v-104h100q27 0 27 26v30q0 24 -5 36t-22 12z" />
<glyph unicode="&#x45b;" horiz-adv-x="589" d="M314 557h-72v-49q65 29 126 29q46 0 77.5 -11.5t48.5 -28t26 -45.5t11 -53t2 -62v-321q0 -12 -14.5 -20t-30.5 -8q-125 0 -125 28v302q0 68 -21 68q-18 0 -42 -2.5t-40.5 -5.5t-16.5 -5v-357q0 -12 -14 -20t-30 -8q-126 0 -126 28v541h-32q-11 0 -18 13t-7 28 q0 118 25 118h32v29q3 26 126 26q16 0 29.5 -8t13.5 -20v-27h72q11 0 18 -12.5t7 -27.5q0 -119 -25 -119z" />
<glyph unicode="&#x45c;" horiz-adv-x="588" d="M213 9q0 -9 -12.5 -15t-26.5 -6q-129 0 -129 25v499q0 25 129 25q14 0 26.5 -6t12.5 -15v-218l149 214q21 25 128 25q50 0 50 -25q0 -15 -17 -35l-144 -193l178 -236q16 -22 16 -35q0 -25 -49 -25q-109 0 -128 25l-183 257v-261zM220 630l156 201q8 11 34.5 6t49 -13 t33.5 -14q49 -28 35 -42l-171 -157q-13 -11 -77 -10q-67 1 -64 21q1 4 4 8z" />
<glyph unicode="&#x45e;" horiz-adv-x="573" d="M226 509v-297q0 -68 21 -68q28 0 63.5 5.5t35.5 10.5v349q0 12 13.5 20t29.5 8q127 0 127 -28v-506q0 -44 -2 -72.5t-8.5 -59t-19 -48t-34 -32.5t-53.5 -21.5t-77 -6.5q-146 0 -226 34q-27 11 -14 46q1 2 6 18t9 26t11 24t14 21t15 7q3 0 9 -2q67 -23 150 -23q50 0 50 45 v65q-80 -36 -125 -36q-46 0 -78 11.5t-48.5 28t-25.5 46t-11 53t-2 61.5v321q0 12 14.5 20t30.5 8q125 0 125 -28zM288 600q-76 0 -130.5 45.5t-54.5 128.5q0 11 11 17.5t26 6.5q106 0 106 -22q0 -19 12.5 -29.5t29.5 -10.5t29.5 10.5t12.5 29.5q0 22 106 22q15 0 26 -6.5 t11 -17.5q0 -83 -54.5 -128.5t-130.5 -45.5z" />
<glyph unicode="&#x45f;" horiz-adv-x="640" d="M396 -111q0 -9 -13.5 -15t-27.5 -6q-129 0 -129 25v104h-111q-70 0 -70 23v492q0 25 129 25q14 0 27 -6t13 -15v-367h195v363q0 25 130 25q14 0 27 -6t13 -15v-405q0 -114 -23 -114h-160v-108z" />
<glyph unicode="&#x490;" horiz-adv-x="536" d="M536 899v-289q0 -15 -8 -28t-19 -13h-269v-541q0 -12 -13.5 -20t-29.5 -8q-137 0 -137 28v676q0 26 77 26h219v169q0 28 136 28q16 0 30 -8t14 -20z" />
<glyph unicode="&#x491;" horiz-adv-x="409" d="M409 665v-242q0 -14 -6 -26t-15 -12h-174v-367q0 -9 -13 -15t-27 -6q-129 0 -129 25v492q0 23 70 23h125v125q0 24 129 24q15 0 27.5 -5.5t12.5 -15.5z" />
<glyph unicode="&#x1e80;" horiz-adv-x="1063" d="M750 213l122 486q5 17 50 25t79 8q52 0 52 -40q0 -9 -3 -18l-219 -657q-10 -29 -42 -29q-118 0 -126 26l-131 405l-131 -402q-10 -29 -42 -29q-118 0 -126 26l-219 660q-3 9 -3 18q0 40 52 40q36 0 81 -7.5t48 -25.5l130 -486l120 486q5 17 50 25t79 8q41 0 52 -37z M518 964l113 -143l17 -22q5 -6 6 -15t-4 -15q-25 -14 -56.5 -12t-44.5 15l-185 148q-41 36 15 56q32 11 76 11q45 0 63 -23z" />
<glyph unicode="&#x1e81;" horiz-adv-x="761" d="M521 215l62 296q5 26 125 26q50 0 50 -35q0 -11 -4 -23l-145 -462q-9 -29 -43 -29q-119 0 -126 26l-60 232l-60 -229q-4 -13 -16.5 -21t-26.5 -8q-117 0 -125 26l-145 460q-4 11 -4 22q0 41 50 41q37 0 79 -6t45 -20l61 -296l65 293q6 29 107 29q38 0 42 -17zM288 795 l113 -143l17 -22q5 -6 6 -15t-4 -15q-25 -14 -56.5 -12t-44.5 15l-185 148q-41 36 15 56q32 11 76 11q45 0 63 -23z" />
<glyph unicode="&#x1e82;" horiz-adv-x="1063" d="M750 213l122 486q5 17 50 25t79 8q52 0 52 -40q0 -9 -3 -18l-219 -657q-10 -29 -42 -29q-118 0 -126 26l-131 405l-131 -402q-10 -29 -42 -29q-118 0 -126 26l-219 660q-3 9 -3 18q0 40 52 40q36 0 81 -7.5t48 -25.5l130 -486l120 486q5 17 50 25t79 8q41 0 52 -37z M503 810l156 201q8 11 34.5 6t49 -13t33.5 -14q49 -28 35 -42l-171 -157q-13 -11 -77 -10q-67 1 -64 21q1 4 4 8z" />
<glyph unicode="&#x1e83;" horiz-adv-x="761" d="M521 215l62 296q5 26 125 26q50 0 50 -35q0 -11 -4 -23l-145 -462q-9 -29 -43 -29q-119 0 -126 26l-60 232l-60 -229q-4 -13 -16.5 -21t-26.5 -8q-117 0 -125 26l-145 460q-4 11 -4 22q0 41 50 41q37 0 79 -6t45 -20l61 -296l65 293q6 29 107 29q38 0 42 -17zM336 629 l156 201q8 11 34.5 6t49 -13t33.5 -14q49 -28 35 -42l-171 -157q-13 -11 -77 -10q-67 1 -64 21q1 4 4 8z" />
<glyph unicode="&#x1e84;" horiz-adv-x="1063" d="M750 213l122 486q5 17 50 25t79 8q52 0 52 -40q0 -9 -3 -18l-219 -657q-10 -29 -42 -29q-118 0 -126 26l-131 405l-131 -402q-10 -29 -42 -29q-118 0 -126 26l-219 660q-3 9 -3 18q0 40 52 40q36 0 81 -7.5t48 -25.5l130 -486l120 486q5 17 50 25t79 8q41 0 52 -37z M564 792v158q0 27 125 27q16 0 29.5 -8t13.5 -20v-157q0 -12 -13.5 -20t-29.5 -8q-125 0 -125 28zM367 792v158q0 27 126 27q16 0 29.5 -8t13.5 -20v-157q0 -12 -13.5 -20t-29.5 -8q-126 0 -126 28z" />
<glyph unicode="&#x1e85;" horiz-adv-x="761" d="M521 215l62 296q5 26 125 26q50 0 50 -35q0 -11 -4 -23l-145 -462q-9 -29 -43 -29q-119 0 -126 26l-60 232l-60 -229q-4 -13 -16.5 -21t-26.5 -8q-117 0 -125 26l-145 460q-4 11 -4 22q0 41 50 41q37 0 79 -6t45 -20l61 -296l65 293q6 29 107 29q38 0 42 -17zM393 628 v158q0 27 125 27q16 0 29.5 -8t13.5 -20v-157q0 -12 -13.5 -20t-29.5 -8q-125 0 -125 28zM196 628v158q0 27 126 27q16 0 29.5 -8t13.5 -20v-157q0 -12 -13.5 -20t-29.5 -8q-126 0 -126 28z" />
<glyph unicode="&#x1ef2;" horiz-adv-x="657" d="M418 287v-271q0 -12 -13.5 -20t-29.5 -8q-135 0 -135 28v271l-219 381q-17 32 -5 47t47 15q121 0 133 -22l132 -237l134 237q12 22 132 22q35 0 47 -15t-5 -47zM269 964l113 -143l17 -22q5 -6 6 -15t-4 -15q-25 -14 -56.5 -12t-44.5 15l-185 148q-41 36 15 56 q32 11 76 11q45 0 63 -23z" />
<glyph unicode="&#x1ef3;" d="M226 509v-297q0 -68 21 -68q28 0 63.5 5.5t35.5 10.5v349q0 12 13.5 20t29.5 8q127 0 127 -28v-506q0 -44 -2 -72.5t-8.5 -59t-19 -48t-34 -32.5t-53.5 -21.5t-77 -6.5q-146 0 -226 34q-27 11 -14 46q1 2 6 18t9 26t11 24t14 21t15 7q3 0 9 -2q67 -23 150 -23q50 0 50 45 v65q-80 -36 -125 -36q-46 0 -78 11.5t-48.5 28t-25.5 46t-11 53t-2 61.5v321q0 12 14.5 20t30.5 8q125 0 125 -28zM195 795l113 -143l17 -22q5 -6 6 -15t-4 -15q-25 -14 -56.5 -12t-44.5 15l-185 148q-41 36 15 56q32 11 76 11q45 0 63 -23z" />
<glyph unicode="&#x2000;" horiz-adv-x="515" />
<glyph unicode="&#x2001;" horiz-adv-x="1031" />
<glyph unicode="&#x2002;" horiz-adv-x="515" />
<glyph unicode="&#x2003;" horiz-adv-x="1031" />
<glyph unicode="&#x2004;" horiz-adv-x="343" />
<glyph unicode="&#x2005;" horiz-adv-x="257" />
<glyph unicode="&#x2006;" horiz-adv-x="171" />
<glyph unicode="&#x2007;" horiz-adv-x="171" />
<glyph unicode="&#x2008;" horiz-adv-x="128" />
<glyph unicode="&#x2009;" horiz-adv-x="206" />
<glyph unicode="&#x200a;" horiz-adv-x="57" />
<glyph unicode="&#x2010;" horiz-adv-x="415" d="M344 206h-273q-11 0 -18 13t-7 28q0 118 25 118h273q11 0 18 -12.5t7 -27.5q0 -119 -25 -119z" />
<glyph unicode="&#x2011;" horiz-adv-x="415" d="M344 206h-273q-11 0 -18 13t-7 28q0 118 25 118h273q11 0 18 -12.5t7 -27.5q0 -119 -25 -119z" />
<glyph unicode="&#x2012;" horiz-adv-x="415" d="M344 206h-273q-11 0 -18 13t-7 28q0 118 25 118h273q11 0 18 -12.5t7 -27.5q0 -119 -25 -119z" />
<glyph unicode="&#x2013;" horiz-adv-x="512" d="M450 206h-396q-11 0 -18 13t-7 28q0 118 25 118h396q11 0 18 -12.5t7 -27.5q0 -119 -25 -119z" />
<glyph unicode="&#x2014;" horiz-adv-x="879" d="M813 206h-734q-11 0 -18 13t-7 28q0 118 25 118h734q11 0 18 -12.5t7 -27.5q0 -119 -25 -119z" />
<glyph unicode="&#x2018;" horiz-adv-x="254" d="M98 537l157 196q12 15 26.5 22.5t25 9t27.5 1.5q20 0 11 -33l-60 -217q-8 -26 -145 -26q-19 0 -32.5 10t-13.5 23q0 9 4 14z" />
<glyph unicode="&#x2019;" horiz-adv-x="282" d="M270 721l-157 -196q-12 -15 -26.5 -22.5t-25 -9t-27.5 -1.5q-20 0 -11 33l60 217q8 26 145 26q19 0 32.5 -10t13.5 -23q0 -9 -4 -14z" />
<glyph unicode="&#x201a;" horiz-adv-x="268" d="M232 138l-131 -199q-4 -7 -9 -12t-8 -8.5t-8.5 -6t-8 -4t-9.5 -2t-8.5 -0.5h-10h-9.5q-20 0 -11 35l52 218q5 21 127 21q38 0 38 -28q0 -9 -4 -14z" />
<glyph unicode="&#x201c;" horiz-adv-x="486" d="M10 537l157 196q12 15 26.5 22.5t25 9t27.5 1.5q20 0 11 -33l-60 -217q-8 -26 -145 -26q-19 0 -32.5 10t-13.5 23q0 9 4 14zM238 537l157 196q12 15 26.5 22.5t25 9t27.5 1.5q20 0 11 -33l-60 -217q-8 -26 -145 -26q-19 0 -32.5 10t-13.5 23q0 9 4 14z" />
<glyph unicode="&#x201d;" horiz-adv-x="470" d="M97 734l157 -196q4 -5 4 -14q0 -13 -13.5 -23t-32.5 -10q-137 0 -145 26l-60 217q-9 33 11 33q17 0 27.5 -1.5t25 -9t26.5 -22.5zM325 734l157 -196q4 -5 4 -14q0 -13 -13.5 -23t-32.5 -10q-137 0 -145 26l-60 217q-9 33 11 33q17 0 27.5 -1.5t25 -9t26.5 -22.5z" />
<glyph unicode="&#x201e;" horiz-adv-x="462" d="M219 50l-157 -196q-12 -15 -26.5 -22.5t-25 -9t-27.5 -1.5q-20 0 -11 33l60 217q8 26 145 26q19 0 32.5 -10t13.5 -23q0 -9 -4 -14zM444 50l-157 -196q-12 -15 -26.5 -22.5t-25 -9t-27.5 -1.5q-20 0 -11 33l60 217q8 26 145 26q19 0 32.5 -10t13.5 -23q0 -9 -4 -14z" />
<glyph unicode="&#x2020;" horiz-adv-x="587" d="M340 732q13 0 23 -7.5t10 -19.5v-165h163q11 0 18 -12.5t7 -27.5q0 -119 -25 -119h-163v-541q0 -11 -12.5 -17.5t-28.5 -6.5q-119 0 -119 25v540h-157q-11 0 -18 13t-7 28q0 118 25 118h157v171q0 5 5 9t15.5 6t20.5 3.5t25 2t23.5 0.5h22h15.5z" />
<glyph unicode="&#x2021;" horiz-adv-x="602" d="M213 331v50h-157q-11 0 -18 13t-7 28q0 118 25 118h157v171q0 5 5 9t15.5 6t20.5 3.5t25 2t23.5 0.5h22h15.5q13 0 23 -7.5t10 -19.5v-165h163q11 0 18 -12.5t7 -27.5q0 -119 -25 -119h-163v-50h163q11 0 18 -12.5t7 -27.5q0 -119 -25 -119h-163v-332q0 -11 -12.5 -17.5 t-28.5 -6.5q-119 0 -119 25v331h-157q-11 0 -18 13t-7 28q0 118 25 118h157z" />
<glyph unicode="&#x2022;" horiz-adv-x="420" d="M74 150v254q0 44 207 44q25 0 47 -11t22 -29v-262q0 -17 -22 -28.5t-47 -11.5q-207 0 -207 44z" />
<glyph unicode="&#x2024;" horiz-adv-x="250" d="M40 14v161q0 26 125 26q17 0 30 -7t13 -19v-161q0 -12 -13 -19t-30 -7q-125 0 -125 26z" />
<glyph unicode="&#x2025;" horiz-adv-x="519" d="M40 14v161q0 26 125 26q17 0 30 -7t13 -19v-161q0 -12 -13 -19t-30 -7q-125 0 -125 26zM310 14v161q0 26 125 26q17 0 30 -7t13 -19v-161q0 -12 -13 -19t-30 -7q-125 0 -125 26z" />
<glyph unicode="&#x2026;" horiz-adv-x="789" d="M40 14v161q0 26 125 26q17 0 30 -7t13 -19v-161q0 -12 -13 -19t-30 -7q-125 0 -125 26zM310 14v161q0 26 125 26q17 0 30 -7t13 -19v-161q0 -12 -13 -19t-30 -7q-125 0 -125 26zM579 14v161q0 26 126 26q17 0 30 -7t13 -19v-161q0 -12 -13 -19t-30 -7q-126 0 -126 26z " />
<glyph unicode="&#x202f;" horiz-adv-x="206" />
<glyph unicode="&#x2030;" horiz-adv-x="1395" d="M580 234q0 159 174 159q102 0 150 -37t48 -122v-84q0 -159 -174 -159q-102 0 -150 37t-48 122v84zM44 571q0 159 174 159q102 0 150 -37t48 -122v-84q0 -159 -174 -159q-102 0 -150 37t-48 122v84zM991 234q0 82 46 120.5t140 38.5t140 -38.5t46 -120.5v-84 q0 -82 -46 -120.5t-140 -38.5t-140 38.5t-46 120.5v84zM729 704q12 -6 21 -18.5t7 -22.5l-43 -76l-341 -612q-4 -8 -20.5 -9.5t-28.5 2.5q-23 6 -61 27t-31 34l391 701q6 15 44 1.5t62 -27.5zM1201 147v60q0 53 -5 61q-5 10 -19 10q-12 0 -17 -7t-6 -15t-1 -27v-7v-45v-14 v-12.5v-11t0.5 -10t1.5 -8t3 -7t4.5 -4.5t6 -3t8.5 -1q15 0 19.5 9t4.5 32zM790 147v60q0 53 -5 61q-5 10 -19 10q-12 0 -17 -7t-6 -15t-1 -27v-7v-45v-14v-12.5v-11t0.5 -10t1.5 -8t3 -7t4.5 -4.5t6 -3t8.5 -1q15 0 19.5 9t4.5 32zM254 484v60q0 53 -5 61q-5 10 -19 10 q-12 0 -17 -7t-6 -15t-1 -27v-7v-45v-14v-12.5v-11t0.5 -10t1.5 -8t3 -7t4.5 -4.5t6 -3t8.5 -1q15 0 19.5 9t4.5 32z" />
<glyph unicode="&#x2039;" horiz-adv-x="411" d="M221 93l-154 193l154 191q12 15 20 20t25 5q10 0 36 -25.5t26 -37.5q0 -20 -12 -37l-87 -116l87 -117q12 -17 12 -37q0 -12 -26 -37.5t-36 -25.5q-16 0 -24.5 5t-20.5 19z" />
<glyph unicode="&#x203a;" horiz-adv-x="410" d="M342 286l-154 -193q-14 -16 -39.5 -18t-47 13t-21.5 44q0 19 13 37l87 117l-87 116q-13 18 -13 37q0 29 21.5 44t47.5 12.5t39 -18.5z" />
<glyph unicode="&#x2044;" horiz-adv-x="626" d="M543 704q12 -6 21 -18.5t7 -22.5l-43 -76l-341 -612q-4 -8 -20.5 -9.5t-28.5 2.5q-23 6 -61 27t-31 34l391 701q6 15 44 1.5t62 -27.5z" />
<glyph unicode="&#x205f;" horiz-adv-x="257" />
<glyph unicode="&#x2070;" horiz-adv-x="436" d="M217 393q-89 0 -139 49.5t-50 126.5v90q0 77 50.5 127.5t139.5 50.5q88 -1 138.5 -51.5t50.5 -126.5v-90q0 -76 -50.5 -126t-139.5 -50zM184 634v-38q0 -24 8 -46t25 -23q18 0 26 22.5t8 46.5v38q0 23 -8 46.5t-26 23.5q-17 -1 -25 -24t-8 -46z" />
<glyph unicode="&#x2074;" horiz-adv-x="382" d="M174 466h-162q-10 0 -10 29q0 71 20 96l194 235q10 12 80 12q28 0 28 -9v-227h31q9 0 15 -11t6 -23q0 -102 -23 -102h-29v-56q0 -8 -12 -12.5t-25 -4.5q-113 0 -113 23v50zM187 576v76l-63 -76h63z" />
<glyph unicode="&#x2075;" horiz-adv-x="396" d="M337 691h-139v-23q0 -5 1.5 -7.5t3 -2.5h6.5h3h8q37 0 54 -1t39.5 -6t31 -16t15.5 -31.5t7 -52.5v-17q0 -146 -185 -146q-40 0 -119 19q-16 4 -9 30q2 10 6 23t10 30.5t14 28.5t16 10q48 -7 65 -7q47 0 47 30q0 10 -35 9q-12 0 -16 -7q-5 -7 -17 -7h-83q-8 0 -10.5 5.5 t-1.5 23.5l2 42l6 189q1 20 127 20h151q9 0 15.5 -10.5t6.5 -21.5q0 -104 -20 -104z" />
<glyph unicode="&#x2076;" horiz-adv-x="410" d="M354 724q-40 -16 -79 -37h5q53 0 79.5 -40.5t26.5 -104.5v-1q0 -82 -43 -115t-136 -33h-4q-93 0 -136 33.5t-43 114.5v3q3 125 74.5 196.5t190.5 99.5l6 1q6 1 14.5 -0.5t14.5 -8.5q18 -18 30.5 -61t-0.5 -47zM207 555h-4q-15 0 -19 -2t-4 -9v-3q0 -10 4 -12t19 -2h4 q17 0 20.5 2t3.5 12v1q0 9 -3.5 11t-20.5 2z" />
<glyph unicode="&#x2077;" horiz-adv-x="373" d="M37 476l132 221h-122q-20 0 -20 101q0 13 4.5 23.5t12.5 10.5h305q4 0 8.5 -10.5t4.5 -18.5q0 -66 -8 -78l-192 -332q-7 -11 -48.5 10t-61.5 38q-25 19 -15 35z" />
<glyph unicode="&#x2078;" horiz-adv-x="425" d="M39 677q0 55 7 86.5t29 48.5t50.5 21.5t81.5 4.5h11q81 0 117 -14t47 -65q1 -2 10 -51q2 -17 -1 -32.5t-8.5 -25t-12.5 -17.5t-11 -11t-6 -4q0 -1 11 -6.5t21.5 -21.5t10.5 -44q0 -92 -38 -121t-140 -29h-11q-99 0 -138.5 27t-39.5 110q0 34 9 52t22 25l12 8q-1 0 -8.5 7 t-16 21.5t-8.5 30.5zM218 568h-11q-9 0 -14 -9t-6.5 -16.5t-1.5 -13.5t1.5 -13.5t6.5 -16.5t14 -9h11q9 0 14 9t6.5 16.5t1.5 13.5t-1.5 13.5t-6.5 16.5t-14 9zM218 724h-11q-16 0 -16 -30t15 -30h13q15 0 15 30t-16 30z" />
<glyph unicode="&#x2079;" horiz-adv-x="410" d="M56 516q44 17 79 37h-4q-54 0 -80.5 40t-26.5 104v2q0 82 43 115t136 33h4q93 0 136 -33.5t43 -114.5v-3q-3 -125 -74.5 -196.5t-190.5 -99.5l-6 -1q-6 -1 -14.5 0.5t-14.5 7.5q-18 19 -30.5 61.5t0.5 47.5zM203 684h4h10.5t7 1t4 1.5t2 1.5t0.5 2t-0.5 3t-0.5 3v3 q0 10 -2 11.5t-12 1.5h-9h-4q-22 0 -23 -4q-1 -2 -1 -9v-2v-6t1 -4t1.5 -2.5t3 -1t4 0t6 0.5h8.5z" />
<glyph unicode="&#x207d;" horiz-adv-x="0" />
<glyph unicode="&#x207e;" horiz-adv-x="0" />
<glyph unicode="&#x2080;" horiz-adv-x="436" d="M217 -207q-89 1 -139 50.5t-50 125.5v90q0 77 50.5 127.5t139.5 50.5q88 -1 138.5 -51.5t50.5 -126.5v-90q0 -76 -50.5 -126t-139.5 -50zM184 34v-38q0 -23 8 -45.5t25 -23.5q18 0 26 22.5t8 46.5v38q0 23 -8 46.5t-26 23.5q-17 -1 -25 -24t-8 -46z" />
<glyph unicode="&#x2081;" horiz-adv-x="331" d="M257 -185q0 -7 -12 -14.5t-24 -7.5q-10 0 -25.5 1t-37 3t-36.5 7.5t-15 13.5v230l-19 -11q-3 -2 -15 6t-28.5 23t-27.5 30q-20 40 4 57l111 86q19 14 91 1q10 -2 22 -9t12 -11v-405z" />
<glyph unicode="&#x2082;" horiz-adv-x="385" d="M371 -200h-322q-16 0 -16 32q0 17 4.5 52t10.5 44q153 134 153 167q0 5 -4.5 7t-15.5 1.5t-20.5 -2t-29 -4t-32.5 -4.5q-6 -1 -11.5 6t-10 19.5t-8 24t-6.5 24.5t-4 16q-8 32 7 36q70 18 118 18q79 0 126 -35t47 -107q0 -63 -104 -159h122q7 0 12 -11.5t5 -22.5 q0 -102 -21 -102z" />
<glyph unicode="&#x2083;" horiz-adv-x="378" d="M71 -73q30 -5 74 -5q27 0 44 13q12 9 -10 11q-7 1 -15 1h-29q-15 0 -21.5 37.5t-6.5 64.5q0 13 5.5 23.5t13.5 10.5h30q11 0 18.5 1t10.5 2t2 3q-5 7 -36 7q-33 0 -75 -7q-16 -2 -28.5 41t-12.5 62q0 39 112 39q93 0 143.5 -30t50.5 -101v-22q0 -36 -8 -57q16 -52 16 -69 v-34q0 -46 -31 -77t-73.5 -42.5t-93.5 -11.5q-40 0 -80.5 8.5t-40.5 30.5q0 15 13 58t28 43z" />
<glyph unicode="&#x2084;" horiz-adv-x="382" d="M174 -134h-162q-10 0 -10 29q0 71 20 96l194 235q10 12 80 12q28 0 28 -9v-227h31q9 0 15 -11t6 -23q0 -102 -23 -102h-29v-56q0 -8 -12 -12.5t-25 -4.5q-113 0 -113 23v50zM187 -24v36l-23 -36h23z" />
<glyph unicode="&#x2085;" horiz-adv-x="396" d="M337 91h-139v-23q0 -5 1.5 -7.5t3 -2.5h6.5h3h8q37 0 54 -1t39.5 -6t31 -16t15.5 -31.5t7 -52.5v-17q0 -146 -185 -146q-40 0 -119 19q-16 4 -9 30q2 10 6 23t10 30.5t14 28.5t16 10q48 -7 65 -7q47 0 47 30q0 10 -35 9q-12 0 -16 -7q-5 -7 -17 -7h-83q-8 0 -10.5 5.5 t-1.5 23.5l2 42l6 189q1 20 127 20h151q9 0 15.5 -10.5t6.5 -21.5q0 -104 -20 -104z" />
<glyph unicode="&#x2086;" horiz-adv-x="410" d="M354 124q-40 -16 -79 -37h5q53 0 79.5 -40.5t26.5 -104.5v-1q0 -82 -43 -115t-136 -33h-4q-93 0 -136 33.5t-43 114.5v3q3 125 74.5 196.5t190.5 99.5l6 1q6 1 14.5 -0.5t14.5 -8.5q18 -18 30.5 -61t-0.5 -47zM207 -45h-4q-15 0 -19 -2t-4 -9v-3q0 -10 4 -12t19 -2h4 q17 0 20.5 2t3.5 12v1q0 9 -3.5 11t-20.5 2z" />
<glyph unicode="&#x2087;" horiz-adv-x="373" d="M37 -124l132 221h-122q-20 0 -20 101q0 13 4.5 23.5t12.5 10.5h305q4 0 8.5 -10.5t4.5 -18.5q0 -66 -8 -78l-192 -332q-7 -11 -48.5 10t-61.5 38q-25 19 -15 35z" />
<glyph unicode="&#x2088;" horiz-adv-x="425" d="M39 77q0 55 7 86.5t29 48.5t50.5 21.5t81.5 4.5h11q81 0 117 -14t47 -65q1 -2 10 -51q2 -17 -1 -32.5t-8.5 -25t-12.5 -17.5t-11 -11t-6 -4q0 -1 11 -6.5t21.5 -21.5t10.5 -44q0 -92 -38 -121t-140 -29h-11q-99 0 -138.5 27t-39.5 110q0 34 9 52t22 25l12 8q-1 0 -8.5 7 t-16 21.5t-8.5 30.5zM218 -52h-11q-22 0 -22 -19t22 -19h11q22 0 22 19t-22 19zM218 104h-11q-8 0 -12 -2.5t-4 -4v-3.5q0 -10 15 -10h13q15 0 15 10t-16 10z" />
<glyph unicode="&#x2089;" horiz-adv-x="410" d="M56 -84q40 16 79 37h-4q-54 0 -80.5 40t-26.5 104v2q0 82 43 115t136 33h4q93 0 136 -33.5t43 -114.5v-3q-3 -125 -74.5 -196.5t-190.5 -99.5l-6 -1q-6 -1 -14.5 0.5t-14.5 7.5q-18 19 -30.5 61.5t0.5 47.5zM203 84h4h10.5t7 1t4 1.5t2 1.5t0.5 2t-0.5 3t-0.5 3v3 q0 10 -2 11.5t-12 1.5h-9h-4q-22 0 -23 -4q-1 -2 -1 -9v-2v-6t1 -4t1.5 -2.5t3 -1t4 0t6 0.5h8.5z" />
<glyph unicode="&#x208d;" horiz-adv-x="0" />
<glyph unicode="&#x208e;" horiz-adv-x="0" />
<glyph unicode="&#x20ac;" horiz-adv-x="677" d="M442 208h-136q10 -31 38 -44.5t85 -13.5h7q73 0 155 24q10 3 25.5 -23.5t26 -56t10.5 -39.5q0 -32 -79 -49.5t-138 -17.5h-7q-148 0 -223.5 50t-89.5 170h-79q-9 0 -14.5 10.5t-5.5 22.5q0 96 20 96h76v12h-76q-9 0 -14.5 10.5t-5.5 23.5q0 95 20 95h76q7 137 83 194.5 t233 57.5h7q59 0 138 -17.5t79 -49.5q0 -10 -10.5 -39.5t-26 -56t-25.5 -23.5q-82 24 -155 24h-7q-70 0 -96.5 -21t-32.5 -69h142q9 0 14.5 -10t5.5 -22q0 -97 -20 -97h-144v-12h144q9 0 14.5 -10t5.5 -23q0 -96 -20 -96z" />
<glyph unicode="&#x2116;" horiz-adv-x="1369" d="M725 14q0 -12 -13 -19t-30 -7q-116 0 -136 26l-307 393v-387q0 -12 -14 -22t-29 -10q-38 0 -86.5 7.5t-48.5 24.5v686q0 24 132 24q23 0 46 -32l307 -384v392q0 24 143 24q15 0 25.5 -9t10.5 -23v-684zM858 377v145q0 123 49.5 165t178.5 42h7q129 0 178.5 -42t49.5 -165 v-145q0 -123 -49.5 -165t-178.5 -42h-7q-129 0 -178.5 42t-49.5 165zM1083 320h13q36 0 46 10t10 46v147q0 36 -10 46t-46 10h-13q-36 0 -46 -10t-10 -46v-147q0 -36 10 -46t46 -10zM1226 -1h-273q-11 0 -18 13t-7 28q0 118 25 118h273q11 0 18 -12.5t7 -27.5 q0 -119 -25 -119z" />
<glyph unicode="&#x2122;" horiz-adv-x="969" d="M269 611v-282q0 -8 -11 -12.5t-22 -4.5q-110 0 -110 21v278h-97q-7 0 -12 11t-5 22q0 96 20 96h335q8 0 13 -10t5 -22q0 -97 -20 -97h-96zM788 338l-36 126l-57 -129q-11 -23 -35 -23q-77 0 -86 23l-57 129l-37 -126q-6 -26 -103 -26q-15 0 -29 9t-9 28l99 374 q5 22 85 22q12 0 24 -6.5t16 -15.5l75 -168l70 168q8 22 90 22q12 0 23 -6.5t13 -15.5l94 -374q5 -19 -8.5 -28t-28.5 -9q-97 0 -103 26z" />
<glyph unicode="&#x2153;" horiz-adv-x="1052" d="M713 704q12 -6 21 -18.5t7 -22.5l-43 -76l-341 -612q-4 -8 -20.5 -9.5t-28.5 2.5q-23 6 -61 27t-31 34l391 701q6 15 44 1.5t62 -27.5zM726 129q30 -5 74 -5q27 0 44 13q10 7 -1 16q-8 6 -24 6h-29q-15 0 -21.5 25t-6.5 47q0 13 5 23.5t14 10.5h30q16 0 24 6t7 12t0 8 q-5 7 -36 7q-33 0 -75 -7q-16 -2 -28.5 41t-12.5 62q0 39 112 39q93 0 143.5 -30t50.5 -101v-22q0 -16 -13 -35.5t-25 -21.5q15 -3 30.5 -21.5t15.5 -47.5v-34q0 -46 -31 -77t-73.5 -42.5t-93.5 -11.5q-40 0 -80.5 8.5t-40.5 30.5q0 15 13 58t28 43zM297 339q0 -7 -12 -14.5 t-24 -7.5q-10 0 -25.5 1t-37 3t-36.5 7.5t-15 13.5v230q-17 -10 -44.5 6t-45.5 42q-20 40 4 57l111 86q19 14 91 1q10 -2 22 -9t12 -11v-405z" />
<glyph unicode="&#x215b;" horiz-adv-x="1099" d="M694 273q0 55 7 86.5t29 48.5t50.5 21.5t81.5 4.5h11q81 0 117 -14t47 -65q1 -2 10 -51q2 -17 -1 -32.5t-8.5 -25t-12.5 -17.5t-11 -11t-6 -4q0 -1 11 -6.5t21.5 -21.5t10.5 -44q0 -92 -38 -121t-140 -29h-11q-99 0 -138.5 27t-39.5 110q0 34 9 52t21 25l13 8 q-1 0 -8.5 7t-16 21.5t-8.5 30.5zM753 704q12 -6 21 -18.5t7 -22.5l-43 -76l-341 -612q-4 -8 -20.5 -9.5t-28.5 2.5q-23 6 -61 27t-31 34l391 701q6 15 44 1.5t62 -27.5zM297 339q0 -7 -12 -14.5t-24 -7.5q-10 0 -25.5 1t-37 3t-36.5 7.5t-15 13.5v230q-17 -10 -44.5 6 t-45.5 42q-20 40 4 57l111 86q19 14 91 1q10 -2 22 -9t12 -11v-405zM873 164h-11q-9 0 -14 -9t-6.5 -16.5t-1.5 -13.5t1.5 -13.5t6.5 -16.5t14 -9h11q9 0 14 9t6.5 16.5t1.5 13.5t-1.5 13.5t-6.5 16.5t-14 9zM873 320h-11q-16 0 -16 -30t15 -30h13q15 0 15 30t-16 30z" />
<glyph unicode="&#x2212;" horiz-adv-x="419" d="M364 206h-309v159h309v-159z" />
<glyph unicode="&#x2260;" horiz-adv-x="584" d="M567 100h-274l-100 -214l-157 28l86 186h-99v152h170l26 56h-196v152h266l98 209l158 -29l-84 -180h106v-152h-177l-26 -56h203v-152z" />
<glyph unicode="&#x2264;" horiz-adv-x="629" d="M30 389l534 212v-163l-281 -106l280 -104v-162l-533 209v114zM24 -14h545v-152h-545v152z" />
<glyph unicode="&#x2265;" horiz-adv-x="630" d="M102 417v164l475 -187v-134q-96 -38 -475 -187v162l238 92zM67 -10h541v-151h-541v151z" />
<glyph unicode="&#x25fc;" horiz-adv-x="535" d="M0 535h535v-535h-535v535z" />
<glyph unicode="&#xe000;" horiz-adv-x="260" d="M40 -2v52q0 10 20 10q4 0 6.5 -1t3.5 -2.5t1.5 -4.5t0.5 -5v-6.5v-6.5v-20v-6.5v-6.5t-0.5 -5t-1.5 -4.5t-3.5 -2.5t-6.5 -1q-20 0 -20 10z" />
<glyph unicode="&#xe001;" horiz-adv-x="570" d="M89 -40q46 -10 117 -10h33t30.5 1.5t30 4t22.5 7.5t17 12.5t5 18.5v61q0 25 -27 33.5t-76 8.5h-40q-16 0 -25 42.5t-9 73.5q0 16 7.5 28t18.5 12h35q50 0 77 8t27 33v45q0 25 -25 34.5t-89 9.5q-43 0 -117 -11q-17 -3 -32 44.5t-15 71.5q0 49 160 49q144 0 219.5 -47 t75.5 -161v-25q0 -39 -17.5 -72.5t-39.5 -49.5q25 -17 47.5 -57t22.5 -80v-43q0 -56 -26 -98t-71 -65t-96.5 -33.5t-110.5 -10.5q-58 0 -118 12t-60 39q0 19 15.5 66.5t33.5 47.5z" />
<glyph unicode="&#xe002;" horiz-adv-x="610" d="M336 -1h-297q-9 0 -14.5 11t-5.5 25q0 81 23 109l337 432q14 18 95 18q33 0 33 -19v-421h66q12 0 19.5 -12.5t7.5 -27.5q0 -115 -26 -115h-67v-120q0 -12 -13.5 -20t-29.5 -8q-128 0 -128 28v120zM336 154v160l-126 -160h126z" />
<glyph unicode="&#xe003;" horiz-adv-x="612" d="M513 374h-238l-3 -87q4 0 20 2t29 2q125 0 184 -56t59 -185v-11q0 -66 -22.5 -114t-63 -74.5t-90.5 -38.5t-112 -12q-82 0 -193 30q-25 7 -16 37q27 108 53 104q86 -17 138 -17q63 0 96 21.5t33 74.5q0 50 -17.5 67.5t-85.5 17.5q-40 0 -56 -17q-12 -13 -33 -13h-91 q-13 0 -16.5 7t-2.5 29l3 45l25 317q2 26 148 26h252q11 0 19.5 -11.5t8.5 -24.5t-1 -29.5t-3.5 -38.5t-8.5 -36.5t-15 -14.5z" />
<glyph unicode="&#xe004;" horiz-adv-x="643" d="M514 597q-65 -29 -120.5 -64t-75 -52t-28.5 -27q55 15 104 15h9q192 0 192 -235v-7q0 -132 -64.5 -185.5t-205.5 -53.5h-7q-141 0 -205.5 54t-64.5 185v7q3 189 108 312.5t285 183.5q30 8 44 -7q21 -23 33 -71t-4 -55zM325 319h-7q-57 0 -74.5 -18.5t-17.5 -66.5v-7 q0 -48 17 -66.5t75 -18.5h7q58 0 75.5 19t17.5 66v7q0 48 -17.5 66.5t-75.5 18.5z" />
<glyph unicode="&#xe005;" horiz-adv-x="574" d="M72 -109l263 482h-281q-25 0 -25 115q0 15 7.5 27.5t18.5 12.5h476q9 0 16 -12t7 -24q0 -74 -13 -95l-326 -597q-14 -23 -126 48q-13 8 -18 20t1 23z" />
<glyph unicode="&#xe006;" horiz-adv-x="656" d="M70 495q0 74 12 119.5t43 71.5t75 35t117 9h22q117 0 174 -30.5t69 -115.5q4 -33 4 -89q0 -49 -25.5 -80.5t-47.5 -39.5q3 -2 16 -8t21 -10.5t20.5 -16t19.5 -25.5t12.5 -37t5.5 -52q0 -73 -14.5 -119t-49.5 -72t-82.5 -35.5t-122.5 -9.5h-22q-145 0 -207 45.5t-62 176.5 q0 32 5.5 57.5t11.5 40.5t19 27.5t20 17t21.5 11.5t17.5 9q-22 8 -47.5 39.5t-25.5 80.5zM339 295h-22q-59 0 -75 -13t-16 -56q0 -29 1.5 -41t10.5 -23.5t27 -14.5t52 -3h22q59 0 75 13.5t16 54.5q0 53 -14 68t-77 15zM339 576h-22q-52 0 -63 -9.5t-11 -54.5q0 -43 11 -52.5 t62 -9.5h24q51 0 62 9.5t11 52.5q0 45 -11 54.5t-63 9.5z" />
<glyph unicode="&#xe007;" horiz-adv-x="643" d="M145 -68q65 29 120.5 64t75 52t28.5 27q-55 -15 -104 -15h-9q-192 0 -192 235v7q0 132 64.5 185.5t205.5 53.5h7q141 0 205.5 -54t64.5 -185v-7q-3 -189 -108 -312.5t-285 -183.5q-30 -8 -44 7q-21 23 -33 71t4 55zM334 210h7q57 0 74.5 18.5t17.5 66.5v7q0 48 -17 66.5 t-75 18.5h-7q-58 0 -75.5 -19t-17.5 -66v-7q0 -48 17.5 -66.5t75.5 -18.5z" />
<glyph unicode="&#xe008;" horiz-adv-x="450" d="M92 174v161q0 26 125 26q17 0 30 -7t13 -19v-161q0 -12 -13 -19t-30 -7q-125 0 -125 26z" />
<glyph unicode="&#xe009;" horiz-adv-x="388" d="M287 -124l-131 -200q-4 -7 -8.5 -12t-8 -8.5t-9 -5.5t-8 -3.5t-9 -2t-8 -0.5h-9.5h-10q-21 0 -11 36l52 217q4 20 126 20q13 0 25 -7.5t12 -22.5q0 -5 -3 -11z" />
<glyph unicode="&#xe00a;" horiz-adv-x="438" d="M358 21q0 -12 -13 -22.5t-29 -10.5q-35 0 -82 7.5t-47 23.5v298l-41 -33q-7 -6 -37 11.5t-50 40.5q-35 41 -6 64l139 113q31 24 121 24q15 0 30 -9.5t15 -20.5v-486z" />
<glyph unicode="&#xe00b;" horiz-adv-x="579" d="M534 0h-470q-10 0 -17 12t-7 27q0 105 18 114q41 20 100 47.5t86 40.5t57.5 30.5t42 30.5t11.5 27q0 30 -21.5 41.5t-65.5 11.5q-48 0 -132 -20q-7 -1 -14 6t-13.5 21t-11 27t-9 29t-6.5 20q-11 37 15 45q84 27 169 27q267 0 267 -172q0 -144 -190 -210h190 q11 0 19 -12.5t8 -27.5q0 -115 -26 -115z" />
<glyph unicode="&#xe00c;" horiz-adv-x="697" d="M392 730q130 0 187.5 -56t57.5 -169q0 -116 -78 -132q17 -6 29 -13t28 -21.5t24.5 -40t8.5 -60.5v-24q0 -112 -58 -169.5t-199 -57.5q-101 0 -168.5 9.5t-102 28t-48 40.5t-13.5 52v493q0 10 8.5 24t32.5 31t59.5 31.5t96 24t135.5 9.5zM402 295h-162v-134h124 q68 0 86.5 9t18.5 45v23q0 32 -12.5 44.5t-54.5 12.5zM392 558h-152v-122h122q66 0 80.5 8.5t14.5 46.5v7q0 25 -2.5 35.5t-17 17.5t-45.5 7z" />
<glyph unicode="&#xe00d;" horiz-adv-x="696" d="M392 730q256 0 256 -291v-158q0 -146 -69.5 -219.5t-228.5 -73.5q-290 0 -290 129v493q0 10 8.5 24t32.5 31t59.5 31.5t96 24t135.5 9.5zM240 558v-397h101q78 0 100 33.5t22 115.5v100q0 77 -19 110t-87 38h-117z" />
<glyph unicode="&#xe00e;" horiz-adv-x="618" d="M536 559h-296v-113h239q12 0 20 -13t8 -28q0 -120 -27 -120h-240v-124h295q12 0 20 -13t8 -28q0 -120 -27 -120h-154q-130 0 -202.5 14.5t-96 38.5t-23.5 64v493q0 10 8.5 22.5t32 28.5t58.5 28.5t96 21.5t136 9h144q12 0 20 -13t8 -28q0 -120 -27 -120z" />
<glyph unicode="&#xe00f;" horiz-adv-x="640" d="M200 -12q-39 0 -88 7.5t-49 24.5v590q0 9 8 21.5t29.5 28.5t53.5 29t86.5 22t122.5 9q128 0 228 -24q28 -7 17 -44q-1 -4 -5 -19t-8 -27.5t-9 -26t-11.5 -21.5t-12.5 -7q-57 8 -319 8v-163h265q11 0 18.5 -12t7.5 -27q0 -122 -24 -122h-267v-215q0 -12 -14 -22t-29 -10z " />
<glyph unicode="&#xe012;" horiz-adv-x="558" d="M364 15l-14 50h-143l-14 -50q-8 -27 -132 -27q-15 0 -31.5 8t-16.5 23q0 6 1 8l183 485q4 12 13.5 18.5t16.5 6.5q126 0 135 -24l181 -486q2 -4 2 -8q0 -15 -17.5 -23t-31.5 -8q-122 0 -132 27zM278 331l-41 -135h81z" />
<glyph unicode="&#xe013;" horiz-adv-x="547" d="M67 530h238q108 0 153 -34t45 -124v-13q0 -36 -18 -59t-35 -26q35 -20 48 -43q13 -24 13 -58v-19q0 -82 -43.5 -119.5t-162.5 -37.5h-217q-14 0 -28.5 8t-14.5 15v491q0 4 8 11.5t14 7.5zM305 201h-90v-72h83q44 0 44 16v38q0 10 -7 14t-30 4zM295 387h-80v-53h81 q24 0 30.5 3.5t6.5 14.5v17q0 11 -7 14.5t-31 3.5z" />
<glyph unicode="&#xe014;" horiz-adv-x="489" d="M211 294v-64q0 -27 1.5 -39t7.5 -26t21.5 -19t42.5 -5h5q57 0 124 20q10 3 24 -22t24 -53.5t10 -37.5q0 -29 -68 -44.5t-114 -15.5h-5q-129 0 -188.5 48t-59.5 165v123q0 117 59.5 165t188.5 48h5q46 0 114 -15.5t68 -45.5q0 -8 -10 -36.5t-24 -53.5t-24 -22 q-64 19 -124 19h-5q-27 0 -42 -5t-22 -19t-8 -26t-1 -39z" />
<glyph unicode="&#xe015;" horiz-adv-x="548" d="M61 530h203q130 0 189 -48t59 -165v-107q0 -117 -59 -165t-189 -48h-176q-15 0 -29 8t-14 15v491q0 4 4.5 11.5t11.5 7.5zM264 378h-50v-229h50q21 0 35.5 4.5t22 10.5t11 19.5t4 23.5t0.5 31v51q0 21 -0.5 31t-4 23.5t-11 19.5t-22 10.5t-35.5 4.5z" />
<glyph unicode="&#xe016;" horiz-adv-x="486" d="M45 20v491q0 9 12.5 14t26.5 5h339q10 0 16.5 -12t6.5 -26q0 -114 -25 -114h-207v-35h157q10 0 16.5 -12t6.5 -26q0 -114 -24 -114h-156v-42h209q10 0 16.5 -12t6.5 -26q0 -114 -25 -114h-331q-15 0 -30 8t-15 15z" />
<glyph unicode="&#xe017;" horiz-adv-x="452" d="M214 191v-177q0 -9 -13 -17.5t-26 -8.5q-12 0 -30.5 1t-42.5 4t-40.5 9t-16.5 15v490q0 8 10.5 15.5t19.5 7.5h348q10 0 16.5 -12t6.5 -26q0 -114 -25 -114h-207v-35h158q9 0 14.5 -12t5.5 -26q0 -114 -22 -114h-156z" />
<glyph unicode="&#xe018;" horiz-adv-x="534" d="M211 294v-64q0 -5 -0.5 -20t0 -18.5t1.5 -14t4 -13.5t8.5 -9.5t13 -8t19.5 -3.5t27 -2h5q7 0 21.5 0.5t20.5 0.5v129q0 8 17 13.5t42.5 8t44.5 3.5t32 1q12 0 21.5 -9t9.5 -21v-198q0 -22 -14 -31q-82 -48 -195 -50h-5q-129 0 -188.5 48t-59.5 165v123q0 117 59.5 165 t188.5 48h5q46 0 114 -15.5t68 -45.5q0 -8 -10 -36.5t-24 -53.5t-24 -22q-64 19 -124 19h-5q-15 0 -26.5 -2t-19.5 -3.5t-13.5 -8t-8.5 -9t-4 -13t-1.5 -14.5t0 -19t0.5 -20z" />
<glyph unicode="&#xe019;" horiz-adv-x="582" d="M534 511v-498q0 -9 -13.5 -17t-26.5 -8q-36 0 -83 6.5t-47 22.5v178h-139v-181q0 -9 -13 -17.5t-26 -8.5q-12 0 -30.5 1t-42.5 4t-40.5 9t-16.5 15v489q0 17 46.5 24t83.5 7q13 0 26 -8.5t13 -18.5v-161h139v158q0 17 47 23.5t83 6.5q13 0 26.5 -8.5t13.5 -17.5z" />
<glyph unicode="&#xe01a;" horiz-adv-x="273" d="M225 9q0 -9 -13 -15t-27 -6q-129 0 -129 25v499q0 25 129 25q14 0 27 -6t13 -15v-507z" />
<glyph unicode="&#xe01b;" horiz-adv-x="273" d="M19 -9q21 -8 34 -8q2 0 2 2q1 5 1 30v497q0 25 129 25q14 0 27 -6t13 -15v-524q0 -163 -151 -163q-54 0 -100 22q-19 9 -10 42q33 105 55 98z" />
<glyph unicode="&#xe01c;" horiz-adv-x="577" d="M213 9q0 -9 -12.5 -15t-26.5 -6q-129 0 -129 25v499q0 25 129 25q14 0 26.5 -6t12.5 -15v-218l149 214q21 25 128 25q50 0 50 -25q0 -15 -17 -35l-144 -193l178 -236q16 -22 16 -35q0 -25 -49 -25q-109 0 -128 25l-183 257v-261z" />
<glyph unicode="&#xe01d;" horiz-adv-x="419" d="M386 -3h-271q-70 0 -70 23v490q0 27 129 27q14 0 27 -7t13 -16v-365h174q9 0 16 -12.5t7 -25.5q0 -114 -25 -114z" />
<glyph unicode="&#xe01e;" horiz-adv-x="790" d="M597 18l-49 207l-81 -209q-11 -28 -41 -28q-92 0 -102 28l-80 209l-51 -207q-8 -30 -122 -30q-18 0 -34 10.5t-11 33.5l124 477q7 28 102 28q14 0 28.5 -8t18.5 -20l101 -255l96 255q10 28 106 28q15 0 27.5 -8t15.5 -20l119 -477q5 -23 -11 -33.5t-34 -10.5 q-114 0 -122 30z" />
<glyph unicode="&#xe01f;" horiz-adv-x="623" d="M575 7q0 -19 -40 -19q-107 0 -128 24l-184 222v-221q0 -9 -13 -17t-26 -8q-36 0 -82 6.5t-46 22.5v499q0 21 125 21q21 0 42 -29l184 -214v222q0 21 135 21q13 0 23 -7t10 -18v-505z" />
<glyph unicode="&#xe020;" horiz-adv-x="596" d="M301 -11h-6q-129 0 -188.5 48t-59.5 165v122q0 117 59.5 165t188.5 48h6q129 0 188.5 -48t59.5 -165v-122q0 -117 -59.5 -165t-188.5 -48zM222 294v-63v-17.5v-16.5t0.5 -13.5t2.5 -12.5t5.5 -10t9 -9t13 -5t18 -4t24.5 -1h6q27 0 43 4.5t22.5 17t7.5 22t1 33.5v12v63v12 q0 23 -1 33.5t-7.5 22.5t-22.5 16.5t-43 4.5h-6q-14 0 -24.5 -1t-18 -4t-13 -5t-9 -9t-5.5 -10t-2.5 -12.5t-0.5 -13.5v-16.5v-17.5z" />
<glyph unicode="&#xe021;" horiz-adv-x="518" d="M45 14v497q0 7 8.5 13t18.5 6h195q59 0 97 -6.5t69.5 -24.5t46 -53.5t14.5 -91.5v-33q0 -108 -51 -141.5t-176 -33.5h-53v-139q0 -9 -12.5 -14t-27.5 -5q-129 0 -129 26zM267 378h-53v-80h53q37 0 44 3t7 20v33q0 16 -7.5 20t-43.5 4z" />
<glyph unicode="&#xe022;" horiz-adv-x="596" d="M444 -13q7 2 20 -17.5t23.5 -44.5t12.5 -37q5 -21 -11 -32q-23 -16 -65.5 -27.5t-80.5 -11.5q-28 0 -50 5.5t-36.5 13t-24.5 22.5t-15 27t-7.5 34t-3 36t-0.5 40q-159 28 -159 194v135q0 117 59.5 165t188.5 48h6q129 0 188.5 -48t59.5 -165v-122q0 -100 -44 -149.5 t-136 -60.5q1 -14 6 -16q4 -2 13 -2q17 0 56 13zM222 294v-63q0 -21 0.5 -31t4 -24t11 -19.5t22 -10t35.5 -4.5h6q26 0 41.5 5.5t22.5 19t8.5 26t1.5 38.5v63q0 26 -1.5 38.5t-8.5 26t-22.5 19t-41.5 5.5h-6q-21 0 -35.5 -4.5t-22 -10t-11 -19.5t-4 -24t-0.5 -31z" />
<glyph unicode="&#xe023;" horiz-adv-x="547" d="M45 14v497q0 9 12 14t27 5h183q59 0 97 -6.5t69.5 -24.5t46 -53.5t14.5 -91.5v-33q0 -119 -80 -158l81 -120q12 -20 12 -31q0 -24 -53 -24q-114 0 -126 18l-94 140h-20v-139q0 -9 -12.5 -14t-27.5 -5q-129 0 -129 26zM267 378h-53v-80h53q36 0 43.5 3.5t7.5 19.5v33 q0 16 -8 20t-43 4z" />
<glyph unicode="&#xe024;" horiz-adv-x="494" d="M97 166q10 -2 44.5 -9t57 -10.5t37.5 -3.5q17 0 28 3t14 4l2 2q0 12 -15.5 23t-39.5 19.5t-51 24t-51 34.5t-39.5 53t-15.5 77q0 48 18 80t51 47.5t67 21t79 5.5q101 0 138 -22q29 -18 16 -48q-22 -67 -39 -84q-17 -16 -37 -11q-39 11 -75 11q-3 0 -11 0.5t-13.5 0.5 t-11.5 -1t-9 -3.5t-3 -6.5q0 -16 21.5 -30t52.5 -28t62.5 -33t53 -55t21.5 -85q0 -44 -12 -74t-28 -45.5t-48.5 -23.5t-56.5 -9.5t-68 -1.5q-113 0 -181 34q-23 9 -10 44q2 4 7 19t10 27.5t11 26t12.5 21t11.5 6.5z" />
<glyph unicode="&#xe025;" horiz-adv-x="495" d="M329 377v-368q0 -9 -13.5 -15t-27.5 -6q-129 0 -129 25v364h-127q-9 0 -15.5 12.5t-6.5 25.5q0 114 24 114h421q9 0 15.5 -12.5t6.5 -25.5q0 -114 -24 -114h-124z" />
<glyph unicode="&#xe026;" horiz-adv-x="588" d="M375 230v277q0 17 46.5 23.5t83.5 6.5q13 0 26.5 -8.5t13.5 -17.5v-310q0 -117 -59.5 -165t-189.5 -48h-6q-129 0 -188.5 48t-59.5 165v306q0 17 46.5 23.5t83.5 6.5q13 0 26.5 -8.5t13.5 -17.5v-281q0 -28 1 -38t7.5 -25.5t23.5 -20.5t46 -5h6q23 0 38.5 4t23.5 9.5 t12 18t4.5 21.5t0.5 29v7z" />
<glyph unicode="&#xe027;" horiz-adv-x="526" d="M269 222l75 293q6 22 125 22q21 0 40 -10t11 -33l-184 -493q-6 -13 -34 -13q-107 0 -112 14l-184 492q-9 23 10 33t41 10q125 0 130 -28z" />
<glyph unicode="&#xe028;" horiz-adv-x="758" d="M286 252l75 262q7 23 124 23q22 0 41.5 -10.5t10.5 -33.5l-71 -185l22 -56l74 262q6 23 125 23q21 0 40.5 -10.5t11.5 -33.5l-185 -492q-5 -13 -33 -13q-108 0 -112 14l-28 60l-29 -61q-4 -13 -32 -13q-108 0 -113 14l-184 492q-8 23 11 33t40 10q121 0 130 -28z" />
<glyph unicode="&#xe029;" horiz-adv-x="587" d="M541 481l-145 -216l148 -221q15 -26 2.5 -41t-44.5 -15q-112 0 -125 18l-87 125l-86 -125q-13 -18 -125 -18q-33 0 -45.5 15t3.5 41l148 221l-146 216q-16 25 -3 40.5t45 15.5q112 0 125 -18l84 -117l84 117q13 18 125 18q33 0 45 -15.5t-3 -40.5z" />
<glyph unicode="&#xe02a;" horiz-adv-x="581" d="M370 209v-200q0 -9 -12.5 -15t-26.5 -6q-128 0 -128 25v196l-164 272q-15 28 -3.5 42t43.5 14q114 0 123 -16l84 -139l85 139q9 16 122 16q32 0 43.5 -14t-3.5 -42z" />
<glyph unicode="&#xe02b;" horiz-adv-x="515" d="M470 -3h-411q-12 0 -20.5 11.5t-8.5 24.5q0 95 16 106l212 239h-181q-23 0 -23 114q0 13 6 25.5t15 12.5h386q8 0 13 -12t5 -24q0 -90 -15 -107l-211 -238h219q10 0 16 -12.5t6 -25.5q0 -114 -24 -114z" />
<glyph unicode="&#xe02d;" horiz-adv-x="675" d="M338 -12h-2q-139 0 -212.5 70.5t-76.5 198.5v9q3 128 76.5 199.5t212.5 71.5h2q139 0 212 -71.5t77 -199.5v-9q-4 -128 -77 -198.5t-212 -70.5zM225 266v-7q0 -66 24 -92t87 -26h2q63 0 87 26t24 92v7q0 66 -24 92.5t-87 26.5h-2q-63 0 -87 -26.5t-24 -92.5z" />
<glyph unicode="&#xe030;" horiz-adv-x="0" d="M166 -14l-142 541h37l112 -498l24 -23l70 283l58 238h35l-151 -541h-43z" />
<glyph unicode="&#xe031;" horiz-adv-x="569" d="M470 -12q-127 0 -127 28v7q-72 -32 -134 -32q-34 0 -59.5 6t-42.5 14t-28.5 24.5t-17.5 29.5t-9 37.5t-3.5 40t-0.5 45.5v151q0 110 36 154t124 44q32 0 97.5 -9t136.5 -34.5t71 -61.5v-417q-1 -11 -14.5 -19t-28.5 -8zM343 145v236q0 4 -38 10t-62 6q-25 0 -25 -46v-173 q0 -46 25 -46q64 0 100 13z" />
<glyph unicode="&#xe032;" horiz-adv-x="419" d="M259 592v-64h93q10 0 18 -10t9 -22q2 -31 -4.5 -75.5t-21.5 -44.5h-94v-586q0 -14 -14 -21t-29 -7q-127 0 -127 28v586h-52q-9 0 -17.5 10.5t-8.5 21.5q-1 36 4 78t21 42h53v98q0 78 50 116t123 38t131 -33q23 -13 12 -48l-9 -27t-12 -30.5t-16.5 -27.5t-15.5 -7 q-37 12 -74 12q-19 0 -19 -27z" />
<glyph unicode="&#xe033;" horiz-adv-x="537" d="M470 22q-104 -31 -191 -31q-114 0 -172.5 54.5t-58.5 159.5v56q0 91 12 145.5t44 83.5t74 38t115 9q107 0 149.5 -39t42.5 -107q0 -48 -24 -84.5t-64 -57.5t-84.5 -32.5t-94.5 -14.5q0 -32 19 -47.5t45.5 -14t53.5 4.5q46 7 105 21q7 2 13 -5t11.5 -21t9 -26t7.5 -29 t5 -20q9 -34 -17 -43zM326 375q0 21 -35 21q-39 0 -56 -16.5t-17 -69.5q8 0 22 2t35.5 7.5t36 20t14.5 35.5z" />
<glyph unicode="&#xfb03;" horiz-adv-x="1057" d="M989 158q10 3 25 -22t24 -56t7 -42q-6 -25 -56 -37.5t-92 -12.5q-128 0 -128 152v236h-163v-360q0 -14 -14 -21t-29 -7q-127 0 -127 28v360h-180v-360q0 -14 -14 -21t-29 -7q-127 0 -127 28v360h-52q-9 0 -17.5 10.5t-8.5 21.5q0 120 25 120h53v98q0 78 50 116t123 38 q30 0 63 -5.5t61.5 -25t18.5 -50.5l-9 -27t-12 -30.5t-16.5 -27.5t-15.5 -7q-37 12 -74 12q-19 0 -19 -27v-64h180v98q0 78 50 116t123 38t131 -33q23 -13 12 -48l-9 -27t-12 -30.5t-16.5 -27.5t-15.5 -7q-37 12 -74 12q-19 0 -19 -27v-64h306q10 0 18 -10t9 -22v-322 q0 -17 1 -22t7 -5q8 0 42 11z" />
<glyph unicode="&#xfb06;" horiz-adv-x="901" d="M842 376h-96v-202q0 -17 1 -22t7 -5t15.5 3.5t24.5 9.5t27 10q7 2 15.5 -7t16.5 -27.5t12 -30.5l9 -27q11 -35 -12 -48q-38 -23 -71 -32.5t-87 -9.5q-128 0 -128 152v236q-114 0 -184 2.5t-94 5t-25 2.5q-14 0 -29.5 -4.5t-15.5 -13.5t24.5 -17.5t59 -20.5t69.5 -30.5 t59.5 -55t24.5 -86.5q0 -42 -12.5 -73t-32 -49.5t-50 -29.5t-60 -14.5t-67.5 -3.5q-107 0 -212 46q-23 13 -10 45q41 103 63 97q87 -36 150 -36q61 0 61 18q0 11 -24.5 21.5t-59 23t-69.5 30.5t-59.5 53t-24.5 82q0 46 13 78.5t31.5 50t49.5 27t56.5 11.5t64.5 2 q2 0 35 -0.5t103.5 -1t164.5 -0.5v103q0 26 127 26q16 0 29.5 -7.5t13.5 -18.5v-103h96q11 0 19 -12.5t8 -27.5q0 -119 -27 -119z" />
<glyph horiz-adv-x="479" d="M307 -85q-121 0 -121 25v56q-138 33 -138 206v121q0 172 138 206v79q0 27 129 27q15 -1 24 -9q1 -2 3.5 -5.5t4 -6t1.5 -5.5v-78l20 -3q20 -4 40 -10.5t26 -14.5q6 -10 3 -25q0 -2 -3.5 -15.5t-5 -20.5t-5.5 -21t-7.5 -22t-8 -17t-9.5 -12.5t-10 -2.5q-51 9 -85 17l-25 4 q-36 3 -48.5 -19.5t-12.5 -68.5q0 -105 5 -125q10 -37 51 -37q11 -2 114 20q7 1 14 -6.5t13 -23.5t9.5 -28.5t8 -30.5t5.5 -21q2 -17 -3 -23q-11 -18 -86 -30v-56q0 -11 -12.5 -17.5t-28.5 -6.5z" />
<glyph horiz-adv-x="613" d="M223 -93v85q-94 9 -158 37q-26 11 -14 48q1 3 5 14t6.5 19t7.5 20t9.5 20.5l9 17t9.5 12t10 2.5q142 -30 183 -30q89 0 89 42q0 27 -31 51.5t-75 47.5t-87.5 52.5t-74.5 79t-31 113.5q0 155 169 184v72q0 27 121 27q16 0 28.5 -7.5t12.5 -18.5v-69q78 -8 111 -25 q32 -18 20 -51q-2 -4 -5 -13t-4.5 -14.5t-5.5 -15t-6.5 -14.5t-7 -13.5t-8 -12t-9 -9.5t-10 -6.5t-11.5 -3t-14 1.5q-64 18 -110 18q-91 0 -91 -40q0 -27 31 -51.5t74.5 -47.5t87.5 -52.5t75 -79t31 -113.5q0 -99 -45.5 -141.5t-129.5 -50.5v-86q0 -11 -12.5 -18.5 t-28.5 -7.5q-121 0 -121 27z" />
<glyph horiz-adv-x="967" d="M354 268l127 435q8 27 133 27q23 0 43 -11.5t11 -36.5l-91 -250l54 -164l127 435q8 27 133 27q23 0 43 -11.5t11 -36.5l-242 -677q-6 -17 -36 -17q-116 0 -121 17l-60 164l-60 -164q-6 -17 -36 -17q-115 0 -121 17l-241 678q-9 25 10.5 36t42.5 11q129 0 139 -32z" />
<glyph horiz-adv-x="997" d="M240 16q0 -12 -14 -20t-30 -8q-136 0 -136 28v686q0 28 136 28q27 0 44 -28l264 -464l253 464q8 15 54 21.5t82 6.5q16 0 30 -8t14 -20v-686q0 -12 -14 -20t-30 -8q-136 0 -136 28v330l-180 -327q-16 -31 -45 -31q-100 0 -111 31l-181 332v-335z" />
<glyph horiz-adv-x="541" d="M81 150q20 -8 34 -8q44 0 71 42l-162 310q-11 22 9 32.5t42 10.5q125 0 130 -28l82 -146l75 152q6 22 125 22q21 0 41.5 -10.5t9.5 -32.5l-184 -352q-80 -154 -219 -154q-53 0 -100 22q-19 9 -10 42q33 105 56 98z" />
<glyph horiz-adv-x="776" d="M214 11q0 -9 -14.5 -16t-28.5 -7q-127 0 -127 29v492q0 28 127 28q24 0 39 -23l184 -302l168 297q8 14 52 21t75 7q15 0 29 -6.5t14 -16.5v-503q0 -9 -14 -16t-29 -7q-127 0 -127 29v210l-98 -210q-17 -29 -43 -29q-87 0 -107 29l-100 216v-222z" />
<glyph horiz-adv-x="790" d="M597 18l-49 207l-81 -209q-11 -28 -41 -28q-92 0 -102 28l-80 209l-51 -207q-8 -30 -122 -30q-18 0 -34 10.5t-11 33.5l124 477q7 28 102 28q14 0 28.5 -8t18.5 -20l101 -255l96 255q10 28 106 28q15 0 27.5 -8t15.5 -20l119 -477q5 -23 -11 -33.5t-34 -10.5 q-114 0 -122 30z" />
</font>
</defs>
</svg>
